<svg xmlns="http://www.w3.org/2000/svg" width="467.214" height="374.886" viewBox="0 0 467.214 374.886"><g transform="translate(-878.01 441.122)"><rect width="363.348" height="25.639" rx="12.82" transform="translate(1241.359 -154.584) rotate(-180)" opacity="0.27" style="isolation:isolate"/><path d="M981.382-420.835h105.146v43.653a19.9,19.9,0,0,0-9.389-1.313,20.189,20.189,0,0,0-17.989,19.322,20.022,20.022,0,0,0,20.013,20.62,19.941,19.941,0,0,0,7.365-1.417v43.654h-43.49a19.548,19.548,0,0,1,.885,10.642,20.231,20.231,0,0,1-19.48,16.269,20.022,20.022,0,0,1-20.2-20.022,19.855,19.855,0,0,1,1.253-6.889h-43.49V-401.462A19.374,19.374,0,0,1,981.382-420.835Z" fill="#f99d9d"/><path d="M962.009-195.253V-297.266h43.654a19.884,19.884,0,0,0-1.314,9.389,20.189,20.189,0,0,0,19.323,17.989,20.022,20.022,0,0,0,20.619-20.014,19.938,19.938,0,0,0-1.416-7.364h43.653v43.49a19.549,19.549,0,0,1,10.642-.886,20.232,20.232,0,0,1,16.269,19.481,20.022,20.022,0,0,1-20.021,20.2,19.857,19.857,0,0,1-6.89-1.253v43.49H984.515A22.507,22.507,0,0,1,962.009-195.253Z" fill="#8ab4da"/><path d="M1189.284-172.747H1085.917V-216.4a19.885,19.885,0,0,0,9.389,1.314A20.19,20.19,0,0,0,1113.3-234.41a20.022,20.022,0,0,0-20.014-20.619,19.935,19.935,0,0,0-7.364,1.416v-43.653h43.489a19.558,19.558,0,0,1-.885-10.642A20.232,20.232,0,0,1,1148-324.177a20.021,20.021,0,0,1,20.2,20.021,19.88,19.88,0,0,1-1.252,6.89h43.489V-193.9A21.151,21.151,0,0,1,1189.284-172.747Z" fill="#cac9c4"/><path d="M1218.763-368.907l13.374,101.5-43.279,5.7a19.916,19.916,0,0,0-.263-10.733,20.111,20.111,0,0,0-19.853-14.151,20.026,20.026,0,0,0-19.144,22.628,19.947,19.947,0,0,0,2.366,7.117l-43.279,5.7L1103-294.26a19.558,19.558,0,0,1-10.435,2.268,20.233,20.233,0,0,1-18.675-17.188,20.023,20.023,0,0,1,17.212-22.64,19.884,19.884,0,0,1,6.994.342l-5.681-43.116,101.5-13.374A22.142,22.142,0,0,1,1218.763-368.907Z" fill="#f9f9f9"/><path d="M1101.1-383.827l2,4.215a10.508,10.508,0,0,0-.024,4.841c.638,2.4-.837,2.82.638,2.4s.781-4.493.781-4.493,1.705,6.458,3.006,6.415,3.49-1.42,2.008-6.769a9.268,9.268,0,0,0-2.745-4.189L1104.751-386Z" fill="#ff8e78"/><path d="M1062.755-376.708l1.649,4.366a10.512,10.512,0,0,1,3.505,3.338c1.285,2.124,2.612,1.353,1.285,2.124s-3.779-2.554-3.779-2.554,3.471,5.707,2.537,6.615-3.442,1.53-6.269-3.247a9.28,9.28,0,0,1-1.115-4.884l-1.907-4.631Z" fill="#ff8e78"/><path d="M955.772-243.894s5.342,2.314,6.44-2.592c.347-1.552.451-5.813.806-7.419.767-3.469,2.179-6.178,1.017-5.488-1.7,1.01-4.31,9.987-4.31,9.987l-5.379,1.464Z" fill="#ff8e78"/><path d="M958.536-232.184s5.335,2.331,6.449-2.57c.353-1.552.471-5.812.831-7.417.779-3.466,2.2-6.171,1.035-5.484-1.7,1-4.343,9.972-4.343,9.972l-5.384,1.445Z" fill="#ff8e78"/><path d="M910.941-250.671c6.976-2.79,18.976,12,36.279,12.558,9.52.307,12.279.838,12.279.838l-.558,6.7s-24,4.186-39.628.558S903.964-247.88,910.941-250.671Z" fill="#37a"/><path d="M1067.906-417.4s-8.826,13.387-8.826,18.54,4.885,23.5,4.885,23.5l-4.465,1.374s-10.724-18.347-11.755-24.529,4.313-20.941,4.313-20.941-10.075,1.506-9.731-1.242-19.578,0-19.578,0-.344-18.547,5.495-18.547,21.1-3.978,36.417-.358c11.207,2.649,23,8.258,30.56,23.714a122.373,122.373,0,0,1,9.96,31.6l-4.121,2.061s-10.991-29.2-19.578-32.973S1072.534-419.592,1067.906-417.4Z" fill="#529ad9"/><path d="M924.615-273.554s4.279.372,3.907-3.721-2.655-4.592-10.6-2.419c-4.956,1.355-8.416,2.586-9.3,3.909-1.532,2.3-2.043,6.895.182,11.347,1.395,2.79,5.954,5.767,5.954,5.767Z" fill="#393267"/><path d="M921.266-256.81s-3.069,2.511-1.116,6.976l-9.488-5.3,3.907-6.7Z" fill="#ff8e78"/><path d="M923.22-237.834l-1.675-11.72-11.393-9.376-.607,3.794a50.885,50.885,0,0,0-14.79,21.488c-5.024,13.954-5.3,36.838-5.3,36.838L919.871-211.6S926.848-221.368,923.22-237.834Z" fill="#529ad9"/><path d="M890.848-179.787c5.059,2.891,43.535,4.744,43.535,4.744s12-3.628,9.488-8.93c-3.332-7.035-27.07-14.233-27.07-14.233l2.512-13.4L888.894-196.81S884.987-183.136,890.848-179.787Z" fill="#393267"/><path d="M916.243-254.02c5.586.17,19.535,5.024,28.186,5.024s12.558-.838,12.558-.838l.279,6.419s-6.418,5.3-22.046,5.861-22.6,1.953-25.954-1.675S907.034-254.3,916.243-254.02Z" fill="#529ad9"/><path d="M923.5-218.857c5.048-2.33,8.093,1.395,9.767,2.512s4.744,7.814,1.4,10.6-8.652,15.349-14.512,17.861a128.27,128.27,0,0,1-12.558,4.465s-3.07-4.744-5.861-4.744C901.731-188.159,912.615-213.834,923.5-218.857Z" fill="#393267"/><path d="M903.685-190.113s-5.963,7.387-6.558,9.843c-.953,3.93-.511,3.575-.511,3.575l7.906-.581,3.07-6.139Z" fill="#ff8e78"/><path d="M906.476-177.276l9.767,1.117-1.116,4.186a14.275,14.275,0,0,1-6.14.279c-3.628-.558-5.023-1.675-5.023-1.675s-.558,1.675-3.349,1.675-3.907-.837-3.907-.837L896.429-177Z" fill="#313133"/><path d="M1071.491-416.53s-11.163,0-10.6-4.465,8.344-4.789,8.344-4.789Z" fill="#ff8e78"/><path d="M1074.372-432.223c2.71,1.4.68,4.5.68,4.5s5.186-3.645,7.276-2.428c3.318,1.933,2.777,5.912.8,9.37.611.864,1.442,2.4.3,3.167a3.733,3.733,0,0,1-2.884.238c-2.026,2.06-4.371,3.313-6.023,2.667-5.245-2.05-4.819-3.67-6.754-6.782-.927-1.49,1.869-3.252,1.463-4.289C1068.711-427.111,1071.549-433.684,1074.372-432.223Z" fill="#ff8e78"/><path d="M1086.618-424.635c2.271-5.112,2.45-6.725-.374-8.186s-2.77-2.512-5.513-5.55-12.471,1.736-13.985,5.611-4.054,7.17-.455,8.934,3.625,9.01,6.742,4.691,4.076-6.313,6.668-6.774C1082.655-426.434,1085.13-421.286,1086.618-424.635Z" fill="#393267"/><path d="M1026.384-438.8s-16.372-2.233-17.86,11.162,14.883,25.675,14.883,25.675-11.163-2.233-21.953,1.86l-.744,5.954s40.682,5.247,39.069-5.954C1037.557-415.541,1028.259-439.4,1026.384-438.8Z" fill="#7c7c7c"/><path d="M1001.454-400.105s-3.721-1.86-5.768-1.86-3.535,7.069-7.069,9.674-6.512,4.837-5.582,5.581,8.563-.737,11.721-2.79a40.079,40.079,0,0,0,5.954-4.651Z" fill="#3a3a3a"/><path d="M912.706-269.656c2.857-1.071,2.306,1.4,2.306,1.4s.719-6.483,3.075-7.028c6.442-1.49,8.7,3.333,9.346,8.609l2.531,4.746-2.327.156a47.7,47.7,0,0,1-.6,6.449c-3.28.239-8.957-.932-12.279-3.349-1.42-1.032.269-3.7-.772-4.089C912.65-263.264,909.729-268.54,912.706-269.656Z" fill="#ff8e78"/><path d="M1345.224-66.236c-10.908-33.04-27.122-83.159-36.441-111.082l-64.7,16.069s7.861,57.221,12.9,95.013Z" fill="#529ad9"/><path d="M1215.839-415.793c-19.15,14.385-31.069,22.877-31.609,24.974-1.15,4.461,4.213,10.435,7.269,8.936l36.5-11.851c-.2-2.721-.481-5.464-.534-8.075C1225.889-409.253,1221.1-414.4,1215.839-415.793Z" fill="#db945e"/><path d="M1198.663-339c-1.295-8.513-2.791-17.416-4.376-25.048-4.81-23.149-16.443-16.553-17.593-15.385-.673.684-1.076,29.478-1.294,53.261l24.905,31.247L1198.663-339" fill="#f0ae74"/><path d="M1194.287-364.048a37.638,37.638,0,0,0-3.856-11.108c1.732,11.308,3.922,26.978,2.217,36.081,1.334-.981,4.767,1.138,6.015.075C1197.368-347.513,1195.872-356.416,1194.287-364.048Z" fill="#db945e"/><path d="M1176.41-377.526l-.175,10.957,9.534-4.449s-1.882-5.076-3.129-5.829S1176.41-377.526,1176.41-377.526Z" fill="#ffc5ab"/><path d="M1317.979-149.858c-.925-5.327-21.607-66.719-26.959-89.577,1.97-4.219,4.255-9.985,3.7-13.077-.5-2.779-2.673-5.458-4.6-7.37q2.477-27.567,4.952-55.135s.221-13.838.08-24.978c-.048-3.88-.141-7.432-.3-9.959a45.077,45.077,0,0,0-1.118-4.435,32.62,32.62,0,0,0-2.388-5.954,21.76,21.76,0,0,0-10.822-10.2c-2.263-.89-5.147-1.174-6.858.554a4.432,4.432,0,0,0-.674.935,21.483,21.483,0,0,0-9.943-10.027c-2.216-1-5.082-1.428-6.877.212a6.528,6.528,0,0,0-1.764,3.664l-1.043-.076c-.138-.372-.236-.757-.39-1.124a21.762,21.762,0,0,0-9.821-11.167c-2.17-1.1-5.014-1.65-6.879-.09-2.351,1.965-2.543,6.648-2.366,10.967l-.314-.023c-2.761-10.288-5.577-22.825-8.244-35.24a16.279,16.279,0,0,0-1.745-.374,23,23,0,0,0-17.655,4.727l4.1,33.523a74.435,74.435,0,0,1-.531,21.656l-3.612,20.963c-3.509-3.711-7.606-7.991-11.9-12.37a64.034,64.034,0,0,1-11.372,24.008c7.77,10.992,14.649,20.647,17.114,24.1l-.017.1.585.694.424.594.021-.067,41.38,49.062,5.421,99.227S1319.117-143.307,1317.979-149.858Z" fill="#f0ae74"/><path d="M1214.293-323.667l.718-42.131-4.781-31.041,7.334-2.935-7.614-.246-1.13-9.523a22.334,22.334,0,0,0-2.878,1.939l4.1,33.523a74.435,74.435,0,0,1-.531,21.656l-3.612,20.963c-3.509-3.711-7.606-7.991-11.9-12.37q-.586,2.388-1.347,4.757c5.83,6.774,11.144,13.1,15.023,17.758A3.746,3.746,0,0,0,1214.293-323.667Z" fill="#db945e"/><path d="M1248.307-254.642c4.276-2.438,9.087-3.142-.192-3.517s-43.943-37.719-43.943-37.719-11.133-13.551-20.631-25.157c-.3.408-7.829-5.535-8.141-5.137,7.769,10.991,21.871,26.994,24.337,30.451l-.017.1.585.694.424.594.021-.067,41.38,49.062,3.192,98.3a114.552,114.552,0,0,0,13.56,1.334C1255.477-167.525,1244.56-252.506,1248.307-254.642Z" fill="#db945e"/><path d="M1225.342-411.957s-5.8-3.9-9.5-3.836-7.875,5.894-7.875,5.894,1.732,7.533,3.268,8.047S1225.342-411.957,1225.342-411.957Z" fill="#f2a176"/><path d="M1335.18-134.417c2.98-8.358-10.765-20.388-11.44-21.169s1.809-6.749,1.24-11.987-17.2-16.35-17.2-16.35,3.812,12.465-29.721,16.881c-9.363,1.233-33.255.594-33.6-6.624,0,0-4.906,11.281-6.805,16.742s3.021,9.26,3.021,9.26-3.957,10.1-5.5,13.213c-.872,1.756.614,4.632,1.3,6.212,1.146,2.636,2.1,5.487,3.925,7.751,1.979,2.451,4.748,3.223,7.734,3.706a87.93,87.93,0,0,0,12.62.94,207.885,207.885,0,0,0,32.584-2.178c3.983-.568,7.951-1.249,11.884-2.1l.182-.041a88.573,88.573,0,0,0,12.183-3.456C1325.115-126.163,1333.584-129.943,1335.18-134.417Z" fill="#347fb7"/><path d="M1201.532-377.528,1206.35-386s-3.316-4.886-24.287-.41-1.061,2.493-1.061,2.493l16.467,8.757Z" fill="#f9f9f9"/></g></svg>