<svg xmlns="http://www.w3.org/2000/svg" xmlns:xlink="http://www.w3.org/1999/xlink" width="400" height="337.045" viewBox="0 0 400 337.045"><defs><linearGradient id="a" x1="114.535" y1="-34.812" x2="114.535" y2="-35.785" gradientUnits="objectBoundingBox"><stop offset="0.083" stop-color="#dcabb0"/><stop offset="0.966" stop-color="#be858f"/><stop offset="1" stop-color="#bd848e"/></linearGradient></defs><g transform="translate(381.783 -429.782)"><rect width="183.333" height="280.906" rx="3.018" transform="translate(-198.219 482.301)" fill="#595aa3"/><rect width="171.991" height="264.828" transform="translate(-192.548 486.455)" fill="#dbdff0"/><path d="M-84.152,726.561H-209.833a2.773,2.773,0,0,1-2.766-2.766h0a2.774,2.774,0,0,1,2.766-2.766H-84.152a2.774,2.774,0,0,1,2.766,2.766h0A2.773,2.773,0,0,1-84.152,726.561Z" transform="translate(30.37)" fill="#575ba3" opacity="0.3"/><g transform="translate(-173.093 495.255)" opacity="0.4"><path d="M-160.334,506.987h-50.9A2.774,2.774,0,0,1-214,504.221h0a2.773,2.773,0,0,1,2.766-2.766h50.9a2.773,2.773,0,0,1,2.766,2.766h0A2.774,2.774,0,0,1-160.334,506.987Z" transform="translate(214 -495.255)" fill="#575ba3" opacity="0.3"/><g transform="translate(116.952)" opacity="0.3"><path d="M-76.208,501.428h0c-1.245-3.611-4.219-6.162-7.688-6.173s-6.46,2.519-7.73,6.121h0l-5.356-.018-.066,19.69,26.13.088.066-19.69Zm-14.4-.049c1.207-2.97,3.762-5.02,6.705-5.01s5.484,2.077,6.671,5.055h0l-13.376-.045Zm18.654,18.515-24.056-.08.058-17.214,3.966.013h0l.971,0h0l14.182.048h0l.971,0h0l3.966.013Z" transform="translate(97.048 -495.255)" fill="#575ba3"/><rect width="16.141" height="22.898" transform="matrix(0.003, -1, 1, 0.003, 1.613, 24.003)" fill="#575ba3"/></g></g><path d="M-84.152,737.123H-209.833a2.774,2.774,0,0,1-2.766-2.766h0a2.773,2.773,0,0,1,2.766-2.766H-84.152a2.773,2.773,0,0,1,2.766,2.766h0A2.774,2.774,0,0,1-84.152,737.123Z" transform="translate(30.37)" fill="#575ba3" opacity="0.3"/><path d="M17.216,763.159H-124.755a.574.574,0,0,0-.184.031H-343.83a.639.639,0,0,0-.25-.055h-36.666c-.571,0-1.038.806-1.038,1.79v.112c0,.984.467,1.79,1.038,1.79h36.666a.607.607,0,0,0,.174-.028H17.216c.55,0,1-.794,1-1.765v-.11C18.217,763.953,17.766,763.159,17.216,763.159Z" transform="translate(0)" fill="#575ba3"/><g transform="translate(-219.56 736.404)"><path d="M-236.454,738.077a1.592,1.592,0,0,1,1.6-1.673,1.578,1.578,0,0,1,1.58,1.673,1.6,1.6,0,0,1-1.6,1.674A1.578,1.578,0,0,1-236.454,738.077Zm5.431-1.6h1.113l-4.777,6.545H-235.8Zm-3.234,1.6c0-.439-.244-.822-.617-.822-.393,0-.6.373-.6.822s.243.823.617.823C-234.463,738.9-234.257,738.516-234.257,738.077Zm1.823,3.347a1.592,1.592,0,0,1,1.6-1.673,1.578,1.578,0,0,1,1.58,1.673,1.6,1.6,0,0,1-1.6,1.673A1.577,1.577,0,0,1-232.434,741.424Zm2.2,0c0-.439-.243-.823-.617-.823-.392,0-.6.374-.6.823s.243.823.617.823C-230.443,742.247-230.238,741.863-230.238,741.424Z" transform="translate(236.454 -736.404)" fill="#e4c66e"/></g><g transform="translate(-206.78 727.881)"><path d="M-225.005,729.554a1.592,1.592,0,0,1,1.6-1.673,1.578,1.578,0,0,1,1.58,1.673,1.6,1.6,0,0,1-1.6,1.673A1.578,1.578,0,0,1-225.005,729.554Zm5.432-1.6h1.112l-4.777,6.544h-1.112Zm-3.235,1.6c0-.44-.243-.823-.617-.823-.392,0-.6.374-.6.823s.243.823.617.823C-223.013,730.377-222.808,729.993-222.808,729.554Zm1.823,3.347a1.593,1.593,0,0,1,1.6-1.674,1.579,1.579,0,0,1,1.58,1.674,1.6,1.6,0,0,1-1.6,1.673A1.578,1.578,0,0,1-220.985,732.9Zm2.2,0c0-.44-.243-.823-.617-.823-.393,0-.6.374-.6.823s.243.822.617.822C-218.994,733.723-218.788,733.34-218.788,732.9Z" transform="translate(225.005 -727.881)" fill="#e4c66e"/></g><g transform="translate(-381.783 429.782)"><path d="M-281.413,464.975V434.5a4.822,4.822,0,0,0-4.9-4.714h-90.578a4.822,4.822,0,0,0-4.9,4.714v30.479a4.822,4.822,0,0,0,4.9,4.714h63.38l38.583,18.9-19.371-18.9h7.986A4.822,4.822,0,0,0-281.413,464.975Z" transform="translate(381.783 -429.782)" fill="#dbdff0"/><path d="M-301.8,443.4a7.679,7.679,0,0,1,7.821-7.53,7.679,7.679,0,0,1,7.82,7.53,7.679,7.679,0,0,1-7.82,7.529A7.679,7.679,0,0,1-301.8,443.4Z" transform="translate(381.783 -429.782)" fill="#575ba3" opacity="0.3"/><g transform="translate(25.168 9.627)" opacity="0.3"><path d="M-352.256,439.409l1.029,3.049h3.33l-2.694,1.884,1.029,3.049-2.694-1.884-2.694,1.884,1.029-3.049-2.694-1.884h3.33Z" transform="translate(356.615 -439.409)" fill="#575ba3"/><path d="M-341.922,439.409l1.029,3.049h3.33l-2.694,1.884,1.029,3.049-2.694-1.884-2.694,1.884,1.029-3.049-2.694-1.884h3.33Z" transform="translate(356.615 -439.409)" fill="#575ba3"/><path d="M-331.588,439.409l1.029,3.049h3.33l-2.694,1.884,1.029,3.049-2.694-1.884-2.694,1.884,1.029-3.049-2.694-1.884h3.33Z" transform="translate(356.615 -439.409)" fill="#575ba3"/><path d="M-321.254,439.409l1.029,3.049h3.33l-2.694,1.884,1.029,3.049-2.694-1.884-2.694,1.884,1.029-3.049-2.694-1.884h3.33Z" transform="translate(356.615 -439.409)" fill="#575ba3"/><path d="M-310.92,439.409l1.029,3.049h3.33l-2.694,1.884,1.029,3.049-2.694-1.884-2.694,1.884,1.029-3.049-2.694-1.884h3.33Z" transform="translate(356.615 -439.409)" fill="#575ba3"/></g><rect width="89.495" height="2.948" rx="1.185" transform="translate(6.347 25.397)" fill="#575ba3" opacity="0.3"/><rect width="89.495" height="2.948" rx="1.185" transform="translate(6.347 31.839)" fill="#575ba3" opacity="0.3"/></g><g transform="translate(74.744 1007.777)"><g transform="translate(-246.527 -499.11)"><g transform="translate(0.031 11.395)"><path d="M-246.488-481.124l2.9,3.747h132.855l2.921-3.747Z" transform="translate(246.488 481.124)" fill="#6f7302"/><g opacity="0.4"><path d="M-246.488-481.124l2.9,3.747h132.855l2.921-3.747Z" transform="translate(246.488 481.124)"/></g></g><g transform="translate(2.657 6.565)"><rect width="133.16" height="236.052" fill="#dade7f"/><g opacity="0.4"><rect width="133.16" height="236.052" fill="#dade7f"/></g></g><g transform="translate(2.689 9.579)" opacity="0.8"><path d="M-237.7-480.662a2.416,2.416,0,0,1-2.386,2.771,3.107,3.107,0,0,1-2.964-2.771,2.418,2.418,0,0,1,2.383-2.8A3.1,3.1,0,0,1-237.7-480.662Z" transform="translate(243.069 483.46)" fill="#efefef"/><g transform="translate(4.904)"><path d="M-231.4-480.662a2.438,2.438,0,0,1-2.408,2.771,3.075,3.075,0,0,1-2.941-2.771,2.44,2.44,0,0,1,2.406-2.8A3.075,3.075,0,0,1-231.4-480.662Z" transform="translate(236.762 483.46)" fill="#efefef"/></g><g transform="translate(9.808)"><path d="M-225.094-480.662a2.46,2.46,0,0,1-2.429,2.771,3.045,3.045,0,0,1-2.92-2.771,2.462,2.462,0,0,1,2.428-2.8A3.044,3.044,0,0,1-225.094-480.662Z" transform="translate(230.455 483.46)" fill="#efefef"/></g><g transform="translate(14.712)"><path d="M-218.789-480.662a2.483,2.483,0,0,1-2.452,2.771,3.014,3.014,0,0,1-2.9-2.771,2.484,2.484,0,0,1,2.449-2.8A3.013,3.013,0,0,1-218.789-480.662Z" transform="translate(224.149 483.46)" fill="#efefef"/></g><g transform="translate(19.615)"><path d="M-212.485-480.662a2.506,2.506,0,0,1-2.474,2.771,2.985,2.985,0,0,1-2.875-2.771,2.508,2.508,0,0,1,2.473-2.8A2.985,2.985,0,0,1-212.485-480.662Z" transform="translate(217.843 483.46)" fill="#efefef"/></g><g transform="translate(24.518)"><path d="M-206.18-480.662a2.53,2.53,0,0,1-2.5,2.771,2.955,2.955,0,0,1-2.854-2.771,2.531,2.531,0,0,1,2.494-2.8A2.956,2.956,0,0,1-206.18-480.662Z" transform="translate(211.537 483.46)" fill="#efefef"/></g><g transform="translate(29.421)"><path d="M-199.877-480.662a2.553,2.553,0,0,1-2.518,2.771,2.926,2.926,0,0,1-2.831-2.771,2.554,2.554,0,0,1,2.516-2.8A2.926,2.926,0,0,1-199.877-480.662Z" transform="translate(205.231 483.46)" fill="#efefef"/></g><g transform="translate(34.324)"><path d="M-193.573-480.662a2.577,2.577,0,0,1-2.54,2.771,2.9,2.9,0,0,1-2.809-2.771,2.579,2.579,0,0,1,2.539-2.8A2.9,2.9,0,0,1-193.573-480.662Z" transform="translate(198.926 483.46)" fill="#efefef"/></g><g transform="translate(39.226)"><path d="M-187.268-480.662a2.6,2.6,0,0,1-2.563,2.771,2.87,2.87,0,0,1-2.787-2.771,2.6,2.6,0,0,1,2.561-2.8A2.87,2.87,0,0,1-187.268-480.662Z" transform="translate(192.621 483.46)" fill="#efefef"/></g><g transform="translate(44.129)"><path d="M-180.965-480.662a2.626,2.626,0,0,1-2.584,2.771,2.841,2.841,0,0,1-2.765-2.771,2.627,2.627,0,0,1,2.583-2.8A2.841,2.841,0,0,1-180.965-480.662Z" transform="translate(186.316 483.46)" fill="#efefef"/></g><g transform="translate(49.032)"><path d="M-174.661-480.662a2.651,2.651,0,0,1-2.606,2.771,2.814,2.814,0,0,1-2.742-2.771,2.651,2.651,0,0,1,2.606-2.8A2.814,2.814,0,0,1-174.661-480.662Z" transform="translate(180.011 483.46)" fill="#efefef"/></g><g transform="translate(53.933)"><path d="M-168.357-480.662a2.677,2.677,0,0,1-2.629,2.771,2.787,2.787,0,0,1-2.721-2.771,2.678,2.678,0,0,1,2.628-2.8A2.787,2.787,0,0,1-168.357-480.662Z" transform="translate(173.707 483.46)" fill="#efefef"/></g><g transform="translate(58.835)"><path d="M-162.053-480.662a2.7,2.7,0,0,1-2.65,2.771,2.76,2.76,0,0,1-2.7-2.771,2.7,2.7,0,0,1,2.65-2.8A2.76,2.76,0,0,1-162.053-480.662Z" transform="translate(167.402 483.46)" fill="#efefef"/></g><g transform="translate(63.737)"><path d="M-155.749-480.662a2.729,2.729,0,0,1-2.672,2.771,2.733,2.733,0,0,1-2.676-2.771,2.729,2.729,0,0,1,2.672-2.8A2.733,2.733,0,0,1-155.749-480.662Z" transform="translate(161.098 483.46)" fill="#efefef"/></g><g transform="translate(68.638)"><path d="M-149.445-480.662a2.756,2.756,0,0,1-2.7,2.771,2.707,2.707,0,0,1-2.655-2.771,2.756,2.756,0,0,1,2.7-2.8A2.708,2.708,0,0,1-149.445-480.662Z" transform="translate(154.795 483.46)" fill="#efefef"/></g><g transform="translate(73.54)"><path d="M-143.141-480.662a2.782,2.782,0,0,1-2.718,2.771,2.681,2.681,0,0,1-2.632-2.771,2.782,2.782,0,0,1,2.718-2.8A2.683,2.683,0,0,1-143.141-480.662Z" transform="translate(148.491 483.46)" fill="#efefef"/></g><g transform="translate(78.441)"><path d="M-136.838-480.662a2.809,2.809,0,0,1-2.739,2.771,2.655,2.655,0,0,1-2.61-2.771,2.809,2.809,0,0,1,2.739-2.8A2.656,2.656,0,0,1-136.838-480.662Z" transform="translate(142.188 483.46)" fill="#efefef"/></g><g transform="translate(83.342)"><path d="M-130.535-480.662a2.837,2.837,0,0,1-2.761,2.771,2.631,2.631,0,0,1-2.589-2.771,2.838,2.838,0,0,1,2.762-2.8A2.632,2.632,0,0,1-130.535-480.662Z" transform="translate(135.885 483.46)" fill="#efefef"/></g><g transform="translate(88.243)"><path d="M-124.231-480.662a2.865,2.865,0,0,1-2.784,2.771,2.606,2.606,0,0,1-2.566-2.771,2.865,2.865,0,0,1,2.784-2.8A2.607,2.607,0,0,1-124.231-480.662Z" transform="translate(129.582 483.46)" fill="#efefef"/></g><g transform="translate(93.143)"><path d="M-117.928-480.662a2.892,2.892,0,0,1-2.8,2.771,2.581,2.581,0,0,1-2.544-2.771,2.892,2.892,0,0,1,2.806-2.8A2.583,2.583,0,0,1-117.928-480.662Z" transform="translate(123.28 483.46)" fill="#efefef"/></g><g transform="translate(98.043)"><path d="M-111.624-480.662a2.921,2.921,0,0,1-2.827,2.771,2.558,2.558,0,0,1-2.522-2.771,2.922,2.922,0,0,1,2.829-2.8A2.558,2.558,0,0,1-111.624-480.662Z" transform="translate(116.978 483.46)" fill="#efefef"/></g><g transform="translate(102.944)"><path d="M-105.321-480.662a2.951,2.951,0,0,1-2.85,2.771,2.533,2.533,0,0,1-2.5-2.771,2.95,2.95,0,0,1,2.851-2.8A2.535,2.535,0,0,1-105.321-480.662Z" transform="translate(110.676 483.46)" fill="#efefef"/></g><g transform="translate(107.844)"><path d="M-99.018-480.662a2.979,2.979,0,0,1-2.872,2.771,2.51,2.51,0,0,1-2.477-2.771,2.979,2.979,0,0,1,2.873-2.8A2.511,2.511,0,0,1-99.018-480.662Z" transform="translate(104.373 483.46)" fill="#efefef"/></g><g transform="translate(112.743)"><path d="M-92.715-480.662a3.009,3.009,0,0,1-2.893,2.771,2.488,2.488,0,0,1-2.456-2.771,3.009,3.009,0,0,1,2.9-2.8A2.488,2.488,0,0,1-92.715-480.662Z" transform="translate(98.072 483.46)" fill="#efefef"/></g><g transform="translate(117.643)"><path d="M-86.411-480.662a3.039,3.039,0,0,1-2.916,2.771,2.464,2.464,0,0,1-2.434-2.771,3.039,3.039,0,0,1,2.918-2.8A2.466,2.466,0,0,1-86.411-480.662Z" transform="translate(91.771 483.46)" fill="#efefef"/></g><g transform="translate(122.543)"><path d="M-80.108-480.662a3.07,3.07,0,0,1-2.938,2.771,2.441,2.441,0,0,1-2.411-2.771,3.069,3.069,0,0,1,2.94-2.8A2.444,2.444,0,0,1-80.108-480.662Z" transform="translate(85.47 483.46)" fill="#efefef"/></g><g transform="translate(127.442)"><path d="M-73.805-480.662a3.1,3.1,0,0,1-2.959,2.771,2.419,2.419,0,0,1-2.389-2.771,3.1,3.1,0,0,1,2.963-2.8A2.421,2.421,0,0,1-73.805-480.662Z" transform="translate(79.168 483.46)" fill="#efefef"/></g></g><g transform="translate(0.021 7.602)"><path d="M-246.5-486H-107.81l-.008,3.793H-246.491Z" transform="translate(246.501 486.003)" fill="#6f7302"/></g><g transform="translate(0.01 3.807)"><path d="M-246.514-490.883l2.9,3.794h132.89l2.922-3.794Z" transform="translate(246.514 490.883)" fill="#6f7302"/><g opacity="0.4"><path d="M-246.514-490.883l2.9,3.794h132.89l2.922-3.794Z" transform="translate(246.514 490.883)"/></g></g><path d="M-246.527-495.779H-107.8l-.008,3.807H-246.517Z" transform="translate(246.527 495.779)" fill="#6f7302"/><g transform="translate(2.898 3.807)"><path d="M-242.8-490.883h132.908l-.008,3.794h-132.89Z" transform="translate(242.801 490.883)" fill="#6f7302"/></g><g transform="translate(2.898 3.807)" opacity="0.8"><path d="M-242.8-490.883h132.908l-.008,3.794h-132.89Z" transform="translate(242.801 490.883)" fill="#fff"/></g><g transform="translate(2.693 82.304)" opacity="0.7"><rect width="133.153" height="1.671" fill="#fff"/></g><g transform="translate(2.971 165.272)" opacity="0.8"><rect width="132.871" height="1.664" fill="#fff"/></g><g transform="translate(12.66 22.41)"><g transform="translate(17.635)"><rect width="16.459" height="17.78" fill="#6f7302"/><rect width="16.459" height="17.78" transform="translate(31.613)" fill="#6f7302"/><rect width="16.459" height="17.78" transform="translate(63.227)" fill="#6f7302"/></g><g transform="translate(17.635 26.626)"><rect width="16.459" height="17.78" fill="#6f7302"/><rect width="16.459" height="17.78" transform="translate(31.613)" fill="#6f7302"/><rect width="16.459" height="17.78" transform="translate(63.227)" fill="#6f7302"/></g><g transform="translate(0 155.668)"><g transform="translate(17.635)"><rect width="16.459" height="17.78" fill="#6f7302"/><rect width="16.459" height="17.78" transform="translate(31.613)" fill="#6f7302"/><rect width="16.459" height="17.78" transform="translate(63.227)" fill="#6f7302"/></g><rect width="16.459" height="17.78" transform="translate(0 37.438)" fill="#6f7302"/><rect width="16.459" height="17.78" transform="translate(96.712 37.438)" fill="#6f7302"/></g><g transform="translate(17.635 75.573)"><rect width="16.459" height="17.78" fill="#6f7302"/><rect width="16.459" height="17.78" transform="translate(31.613)" fill="#6f7302"/><rect width="16.459" height="17.78" transform="translate(63.227)" fill="#6f7302"/></g><g transform="translate(17.635 102.199)"><rect width="16.459" height="17.78" fill="#6f7302"/><rect width="16.459" height="17.78" transform="translate(31.613)" fill="#6f7302"/><rect width="16.459" height="17.78" transform="translate(63.227)" fill="#6f7302"/></g></g></g><g transform="translate(-204.043 -291.78)"><g transform="translate(7.594 10.273)" opacity="0.8" style="isolation:isolate"><path d="M-182.007-215.924h17.036l-.066,17.688h-17.086Z" transform="translate(182.123 215.924)" fill="#fff"/></g><g transform="translate(27.85 10.273)" opacity="0.8" style="isolation:isolate"><path d="M-155.887-215.924h17.742l-.841,17.688h-17.086Z" transform="translate(156.072 215.924)" fill="#fff"/></g><g transform="translate(3.354 27.961)"><path d="M-142.44-189.611h-44.953l-.183-3.565h45.3Z" transform="translate(187.575 193.176)" fill="#6f7302"/><g opacity="0.1"><path d="M-142.44-189.611h-44.953l-.183-3.565h45.3Z" transform="translate(187.575 193.176)" fill="#6f7302"/></g></g><g transform="translate(1.754 31.779)"><path d="M-141.087-184.759H-189.44l-.194-3.507h48.726Z" transform="translate(189.634 188.266)" fill="#6f7302"/></g><g transform="translate(0 0)" opacity="0.4"><path d="M-139.989-225.128h-51.679l-.221-4.008h52.105Z" transform="translate(191.889 229.136)" fill="#fff"/></g><g transform="translate(0.221 4.008)"><path d="M-191.6-223.982l7.489,6.265h38.067l6.123-6.265Z" transform="translate(191.605 223.982)" fill="#1a2e35"/></g><g transform="translate(3.726 6.464)"><path d="M-187.1-220.347l2.641,21.021h2.1l-.845-21.021h0a4.226,4.226,0,0,0-3.9,0Z" transform="translate(187.097 220.823)" fill="#6f7302"/></g><g transform="translate(44.442 6.354)"><path d="M-130.045-220.378l-2.588,21.021h-2.1l.792-21.021h0a3.533,3.533,0,0,1,3.9,0Z" transform="translate(134.733 220.964)" fill="#6f7302"/></g></g><g transform="translate(-221.138 -510.754)"><path d="M-213.875-504.88c0-3.437,2.63-5.874,6.213-5.874a5.975,5.975,0,0,1,4.857,2.13l-2.033,1.839a3.34,3.34,0,0,0-2.662-1.323,3.028,3.028,0,0,0-3.147,3.227,3.029,3.029,0,0,0,3.147,3.228,3.339,3.339,0,0,0,2.662-1.323l2.033,1.84a5.974,5.974,0,0,1-4.857,2.13C-211.245-499.007-213.875-501.443-213.875-504.88Z" transform="translate(213.875 510.754)" fill="#1a2e35"/><path d="M-198.875-504.88c0-3.389,2.662-5.874,6.277-5.874s6.276,2.485,6.276,5.874-2.662,5.874-6.276,5.874S-198.875-501.492-198.875-504.88Zm9.327,0a3.025,3.025,0,0,0-3.05-3.227,3.024,3.024,0,0,0-3.05,3.227,3.025,3.025,0,0,0,3.05,3.228A3.025,3.025,0,0,0-189.548-504.88Z" transform="translate(210.538 510.754)" fill="#1a2e35"/><path d="M-170.379-499.168l-.032-5.986-2.9,4.874h-1.421l-2.888-4.712v5.825h-2.953v-11.295h2.63l3.969,6.519,3.872-6.519h2.63l.032,11.295Z" transform="translate(206.468 510.689)" fill="#1a2e35"/><path d="M-150.6-506.284c0,2.565-1.936,4.163-5.018,4.163h-1.968v2.952h-3.195v-11.295h5.163C-152.539-510.463-150.6-508.865-150.6-506.284Zm-3.227,0c0-1.049-.662-1.662-1.985-1.662h-1.774v3.308h1.774C-154.491-504.638-153.83-505.251-153.83-506.284Z" transform="translate(202.065 510.689)" fill="#1a2e35"/><path d="M-139.248-501.362h-4.777l-.887,2.194h-3.26l4.986-11.295h3.146l5,11.295h-3.324Zm-.935-2.356-1.452-3.614-1.452,3.614Z" transform="translate(199.26 510.689)" fill="#1a2e35"/><path d="M-119.374-510.463v11.295H-122l-4.986-6.018v6.018h-3.13v-11.295h2.63l4.986,6.018v-6.018Z" transform="translate(195.245 510.689)" fill="#1a2e35"/><path d="M-107.763-503.219v4.05h-3.194v-4.1l-4.308-7.2h3.372l2.679,4.486,2.678-4.486h3.1Z" transform="translate(191.94 510.689)" fill="#1a2e35"/></g></g><g transform="translate(-338.239 460.361)"><path d="M-334.78,511.7c10.129-1.3,12.685,7.911,12.685,7.911s12.577,5.186,16.829,7.106c3.937,1.777,15.925,7.679,15.925,7.679s22.3-26.491,30.726-27.18l-1.442,20.242s-9.928,10.837-13.885,14.325c-2.659,2.345-12.576,9.007-12.576,9.007s-9.38-3.09-22.09-12.4c-3.99-2.923-15.378-12.448-15.378-12.448-3.122.431-5.854-.382-8.371-3.984s-3.21-2.219-4.81-4.9C-339.338,513.42-335.942,512.066-334.78,511.7Z" transform="translate(338.239 -460.361)" fill="#daa9ae"/><path d="M-221.375,736.907l-4.955,20.868-7.421-.042-.272-20.826Z" transform="translate(338.239 -460.361)" fill="#dcabb0"/><path d="M-230.093,756c8.4-.363,8.718,8.176,8.718,8.176H-238.54S-238.488,755.635-230.093,756Z" transform="translate(338.239 -460.361)" fill="#c4541c"/><path d="M-285.789,737.8-297.9,757.775l-7.421-.042,5.975-22.683Z" transform="translate(338.239 -460.361)" fill="#dcabb0"/><path d="M-301.662,756c8.395-.363,8.717,8.176,8.717,8.176H-310.11S-310.058,755.634-301.662,756Z" transform="translate(338.239 -460.361)" fill="#c4541c"/><path d="M-249.58,510.774c-.946-1.955-2.005-5.426-2.523-11.613.08.614,1.147,8.418,4.148,12.836,12.326,8.092,35.953,35.115,35.485,40.236,0,0,2.61-2.448,6.4-5.927l.874-5.262a10.4,10.4,0,0,1,.482,4.016c7.072-6.483,17.221-15.627,22.645-19.754a65.642,65.642,0,0,0-2.547-6.205c1.584.438,3.462,3.341,4.374,4.886.159-.109.309-.206.452-.29,0,0-1.615-12.756-20-22.282-9.638-4.992-16.249-7.062-15.863-13.4s-2.522-33.612-21.046-26.474c0,0-2.972-1.321-4.3-1.123a3.641,3.641,0,0,1,1.641.779,14.376,14.376,0,0,0-7.78,1.488C-253.941,466.546-260.018,501.167-249.58,510.774Z" transform="translate(338.239 -460.361)" fill="#b24318"/><path d="M-247.226,512.4c1.713-.8.658-15.375.658-15.375l14.511-2.874c1.008,4.774.481,13.116,2.282,13.473.058.012-2.722,5.531-6.975,6.691C-241.275,515.548-247.289,512.428-247.226,512.4Z" transform="translate(338.239 -460.361)" fill="url(#a)"/><path d="M-232.419,466.651s-7.8-7.209-15.5.493A139.12,139.12,0,0,1-232.419,466.651Z" transform="translate(338.239 -460.361)" fill="#575ba3"/><path d="M-231.458,492.819s4.016-6.346,4.98-11.773c.689-3.874-1.285-18.234-15.715-16.166a19.6,19.6,0,0,0-8.131,3.074c-3.133,2.116-7.655,6.684-2.6,19.215l1.313,4.233Z" transform="translate(338.239 -460.361)" fill="#c4541c"/><path d="M-261.569,598.372h-.018s.479-1.623.368-25.921c0-.68-6.515-28.592-6.369-31.663.092-1.923.272-3.861.527-5.793l-.18.133c-.079-3.676-6.7-18.88-6.7-18.88,11.712-9.95,15.327-9.2,15.327-9.2h0v0s2.215-.485,11.879-.749a9.489,9.489,0,0,0,8.234,4.453,9.184,9.184,0,0,0,8.006-3.911c6.469.664,14.269,3.475,18.937,7.014l.005,0s4.017,5.178,6.5,17.124l-11.869,5.36c-.475,3.056-.875,6.3-1.137,9.642a89.35,89.35,0,0,0,.544,20.357c.56,3.622,4.146,8.787,8.869,20.568q.547,1.355,1.108,2.828l-.136.043c.875,2.427,2.665,8.613,3.578,20.48,1.71,22.206.453,63.593-15.216,134.809h-19.909c-.439,0-.31-56.868-.137-102.134-.07.185-.138.369-.208.553-18.041,47.653-44.454,101.81-44.454,101.81h-20.69C-301.127,725.758-271.463,630.062-261.569,598.372Z" transform="translate(338.239 -460.361)" fill="#529ad9"/><path d="M-284.018,745.295s26.413-54.157,44.454-101.81c.513-6.6,1.376-16.092-2.766-19.391C-242.33,624.094-286.338,705.576-284.018,745.295Z" transform="translate(338.239 -460.361)" fill="#3a7bad"/><path d="M-232.258,745.066h12.948c15.669-71.216,16.926-112.6,15.216-134.809C-207.981,630.046-230.193,742.817-232.258,745.066Z" transform="translate(338.239 -460.361)" fill="#3a7bad"/><g transform="translate(121.37 143.729)"><path d="M-187.695,667.367l-27.715,1.728-1.459-51.708,25.957-1.619Z" transform="translate(216.869 -604.09)" fill="#cf852b"/><path d="M-163.567,665.923l-42.76,2.666-5.729-51.5,41.641-2.6Z" transform="translate(216.869 -604.09)" fill="#e6c86d"/><g transform="translate(18.796)"><path d="M-190.579,604.1c-4.069.253-5.891,5.67-6.706,10.258a58.038,58.038,0,0,0-.78,10.333c.008.333.14.617.295.634s.272-.239.264-.572a56.745,56.745,0,0,1,.753-9.893c1.148-6.433,3.39-9.648,6.663-9.559,2.223.061,3.977,1.544,5.214,4.407,2.315,5.359,2.082,13.873,2.079,13.958-.01.329.107.642.261.7s.288-.163.3-.491c.012-.371.255-9.139-2.245-14.933-1.36-3.152-3.264-4.783-5.659-4.849C-190.291,604.088-190.436,604.091-190.579,604.1Z" transform="translate(198.073 -604.09)" fill="#a2431d"/></g><path d="M-214,617.257l3.215,51.549,4.451-.278-5.725-51.442Z" transform="translate(216.869 -604.09)" fill="#c68216" opacity="0.8"/></g><g transform="translate(139.416 144.483)"><path d="M-163.5,647.627l-18.408,9.711-16.911-34.887,17.24-9.095Z" transform="translate(198.823 -604.845)" fill="#a2431d"/><path d="M-147.459,639.215l-28.4,14.982-19.766-33.433,27.658-14.59Z" transform="translate(198.823 -604.845)" fill="#cf852b"/><g transform="translate(11.802)"><path d="M-184.946,605.279c-2.7,1.425-2.281,5.687-1.426,9.074a43.541,43.541,0,0,0,2.647,7.3c.108.225.286.379.4.343s.113-.247,0-.472a42.549,42.549,0,0,1-2.53-6.993c-1.195-4.749-.653-7.636,1.612-8.583,1.537-.643,3.193-.169,4.919,1.407,3.232,2.95,5.693,8.84,5.717,8.9.094.228.271.4.393.4s.147-.2.053-.427c-.106-.257-2.638-6.325-6.13-9.514-1.9-1.735-3.7-2.264-5.36-1.572A3.242,3.242,0,0,0-184.946,605.279Z" transform="translate(187.021 -604.845)" fill="#a2431d"/></g><path d="M-196.9,621.477l18.062,34.239,2.956-1.56-19.745-33.392Z" transform="translate(198.823 -604.845)" fill="#903719" opacity="0.5"/></g><path d="M-223.415,565.579c1.922,2.72,5.606,19.249,14.771,21.327-4.723-11.781-8.309-16.946-8.869-20.568a89.35,89.35,0,0,1-.544-20.357c-3.068-5.377-5.358-9.064-5.358-9.064-.241-.87-4.875-15.2-6.361-2.391S-225.561,562.537-223.415,565.579Z" transform="translate(338.239 -460.361)" fill="#3a7bad"/><path d="M-249.128,500.867s18.133.3,18.145-11,2.362-18.863-9.215-19.532-13.831,3.639-14.753,7.408S-253.845,500.5-249.128,500.867Z" transform="translate(338.239 -460.361)" fill="#daa9ae"/><path d="M-254.411,471.466c2.8-3.392,4.914-2.655,6.1-1.636,1.714-2.561,5.049-2.382,8.258-1.369,4.257,1.344,7.95,2.46,9.359,8.7a13.233,13.233,0,0,0,5.744,8.029s-3.305,2.042-10.925.082c-6-1.542-10.348-10.076-11.93-13.643-1.078.959-3.354,3.174-4.035,5.343-.9,2.876-1.311,8.8-3.037,8.6C-254.875,485.568-258.615,476.561-254.411,471.466Z" transform="translate(338.239 -460.361)" fill="#c4541c"/><path d="M-337.868,511.105l6.756-4.64a.746.746,0,0,1,.181-.09l.005,0,1.275-.52,6.216,19.629-5.437,4.4-.977.425,0,0-.014.005h0a1.011,1.011,0,0,1-1.238-.681l-7.036-17.245A1.061,1.061,0,0,1-337.868,511.105Z" transform="translate(338.239 -460.361)" fill="#373481"/><path d="M-322.047,524.319l-6.447,5.4a.952.952,0,0,1-1.435-.564l-7.036-17.245a1.059,1.059,0,0,1,.272-1.28l6.756-4.64a.969.969,0,0,1,1.378.607l6.728,16.488A1.086,1.086,0,0,1-322.047,524.319Z" transform="translate(338.239 -460.361)" fill="#575ba3"/><path d="M-323.095,522.2l-6.349,5.315-6.382-15.64,6.654-4.569Z" transform="translate(338.239 -460.361)" fill="#e3c763"/><path d="M-325.6,525.8a.62.62,0,0,1,.28-.748c.244-.1.513.074.6.389a.621.621,0,0,1-.281.748C-325.241,526.29-325.51,526.115-325.6,525.8Z" transform="translate(338.239 -460.361)" fill="#373481"/><path d="M-217.719,542.612c1.436,9.455,3.276,21.91,3.279,23.659.005,3.865,5.113,12.172,10.219,19.513S-194.01,599.5-194.01,599.5l-.067.581c-.489,2.725,1.421,6.274,4.494,8.612s2.043,1.995,4.191,3.7,3.03-1.872,3.03-1.872a10.6,10.6,0,0,0-6.093-11.875c-6.536-13.359-15.06-33.549-15.06-33.549-1.179-23.047-1.974-31.234-2.279-33.785l-11.126,5.023Z" transform="translate(338.239 -460.361)" fill="#daa9ae"/></g><g transform="translate(-51.016 680.707)"><path d="M-108.559,763.19h-30.32l1.924-82.483h28.4Z" transform="translate(138.879 -680.707)" fill="#356fa1"/><path d="M-82.167,763.19h-46.781l-2.744-82.483h45.557Z" transform="translate(138.879 -680.707)" fill="#529ad9"/><g transform="translate(17.735 3.496)" opacity="0.4"><path d="M-107.389,699.176a12.473,12.473,0,0,1-11.52-7.091,21.155,21.155,0,0,1-2.234-7.409.437.437,0,0,1,.4-.471.438.438,0,0,1,.471.4,20.67,20.67,0,0,0,2.148,7.094,11.517,11.517,0,0,0,11.384,6.588c3.48-.144,6.087-1.291,7.746-3.41,3.107-3.965,1.909-10.089,1.9-10.15a.437.437,0,0,1,.341-.515.437.437,0,0,1,.516.34c.054.267,1.294,6.574-2.061,10.861-1.825,2.332-4.652,3.592-8.4,3.747Q-107.052,699.176-107.389,699.176Z" transform="translate(121.144 -684.204)" fill="#dee3f4"/></g><path d="M-133.818,680.786v82.4h4.87l-2.744-82.483Z" transform="translate(138.879 -680.707)" fill="#244d70"/></g></g></svg>