<svg xmlns="http://www.w3.org/2000/svg" width="190" height="167" viewBox="0 0 190 167"><g transform="translate(-390 -1715)"><g transform="translate(512.795 1460.894)"><path d="M11.848,383.058l5.38-5.38L-77.88,282.572l-5.38,5.38a67.252,67.252,0,0,0,0,95.106A67.251,67.251,0,0,0,11.848,383.058Z" transform="translate(0 12.827)" fill="#6d6d09"/><circle cx="67.251" cy="67.251" r="67.251" transform="translate(-97.577 275.432)" fill="#a0a603"/><circle cx="53.801" cy="53.801" r="53.801" transform="translate(-84.127 288.883)" fill="#fff"/><circle cx="40.351" cy="40.351" r="40.351" transform="translate(-70.676 302.333)" fill="#a0a603"/><circle cx="26.9" cy="26.9" r="26.9" transform="translate(-57.226 315.783)" fill="#fff"/><circle cx="13.45" cy="13.45" r="13.45" transform="translate(-43.776 329.233)" fill="#a0a603"/><circle cx="4.035" cy="4.035" r="4.035" transform="translate(-34.361 338.648)" fill="#472331"/><g transform="translate(9.397 259.382)"><path d="M-8.738,281.261-30.617,303.14V281.261l21.879-21.879Z" transform="translate(30.617 -259.382)" fill="#ffcd33"/><path d="M-8.738,273.469l-21.879,21.879H-8.738l21.879-21.879Z" transform="translate(30.617 -251.59)" fill="#fa0"/></g><g transform="translate(-33.016 277.226)"><path d="M9.434,271.658a2.69,2.69,0,0,0-3.8,0l-62.767,62.768a2.688,2.688,0,0,0,0,3.8.591.591,0,0,0,.047.042L9.478,271.705C9.462,271.69,9.45,271.674,9.434,271.658Z" transform="translate(57.925 -270.871)" fill="#5a2d3f"/><path d="M-57.387,337.975a2.68,2.68,0,0,0,1.854.745,2.681,2.681,0,0,0,1.9-.787L9.137,275.167a2.69,2.69,0,0,0,.043-3.759Z" transform="translate(58.222 -270.574)" fill="#472331"/></g></g><rect width="190" height="167" transform="translate(390 1715)" fill="none"/></g></svg>