<svg xmlns="http://www.w3.org/2000/svg" width="294" height="301.464" viewBox="0 0 294 301.464"><g transform="translate(1139.3 442.097)"><rect width="92.536" height="94.806" transform="translate(-872.63 -143.063) rotate(-180)" fill="#529ad9"/><path d="M0,0H86.881V94.806H0Z" transform="translate(-862.748 -143.063) rotate(-180)" fill="#dcebf8"/><path d="M0,0H80.274V53.416H0Z" transform="translate(-967.672 -143.05) rotate(-180)" fill="#529ad9"/><path d="M0,0H76.2V53.416H0Z" transform="translate(-956.243 -143.05) rotate(-180)" fill="#dcebf8"/><path d="M0,0H72.528V15.738H0Z" transform="translate(-1046.966 -143.127) rotate(-180)" fill="#529ad9"/><path d="M0,0H70.739V15.738H0Z" transform="translate(-1036.355 -143.127) rotate(-180)" fill="#dcebf8"/><path d="M-1036.1-287.766c-8.134,7.712-16.627,17.793-19.963,28.069l-1.292-.818a23.671,23.671,0,0,1,.435-4.654c-.512,1.017-1.357,2.668-1.823,3.775l-7.907-5.009,1.092-1.992a12.848,12.848,0,0,0-1.691,1.612l-4.011-2.541-6.879-5.868,1.127-2.055a12.646,12.646,0,0,0-1.67,1.591l-2.154-1.837-1.159-.989-.15-.128c2.211-3.5,7.27-9.588,7.367-9.706-1.5.548-6.322,5.719-8.726,8.545l-1.384-1.181c8.718-14.528,19.765-19.683,28.591-21.33a13.306,13.306,0,0,0,3.237-1.036c3.089-1.459,8.4-4.393,10.623-8.131,3.908-6.571,14-6.156,14.687-4.295,0,0,1.339,1.469,1.426,4.985C-1026.307-310.058-1025.072-298.218-1036.1-287.766Z" fill="#636363"/><path d="M-1031.5-301.216s-2.576,4.783.43,8.647c0,0-2.521,3.626-3.844,3.639-2.276.021-6.726-6.136-6.726-6.136a85.471,85.471,0,0,1,4.012-8.178Z" fill="#d4959a"/><path d="M-1029.751-299.477s-8.477,1.5-9.33-3.8-2.52-8.666,2.857-9.846,6.756.669,7.47,2.367S-1027.568-300-1029.751-299.477Z" fill="#e5b0b4"/><path d="M-1028.275-313.179s-11.154,8.586-10.223,14.359c.875,5.424-4.55,4.314-5.887,4.167-5.026-.553-6.869-.576-9.541,1.017-1,.6,4.456-5.361,6.379-7.831,5.118-6.572,7.012-11.953,8.034-12.593C-1032.554-318.416-1028.275-313.179-1028.275-313.179Z" fill="#636363"/><path d="M-1078.23-190.751l-3.152,8.492,3.186,1.546,5.524-6.194Z" fill="#e5b0b4"/><path d="M-1081.063-184.978l-2.425,2.953,6.1,9.12S-1074.847-177.982-1081.063-184.978Z" fill="#d25c2a"/><path d="M-1032.481-255.144l-20.4-4.525s-3.3,4.826-13.232,43.725l-15.589,26.065,8.605,5.114,19.679-26.2Z" fill="#333381"/><path d="M-998.4-285.264l.867-1.379a4.018,4.018,0,0,1,3.769-3.374s1.4-.02.977.932-.392.541-.954,1.892a3.776,3.776,0,0,1-2.726,2.474l-1.382,1.416Z" fill="#e5b0b4"/><path d="M-1065.725-263.555h0a.882.882,0,0,0-.01-.135,23.929,23.929,0,0,1,.431-2.651l-3.589.228c-.049.021-.528,1.075-.7,1.4a.618.618,0,0,0-.066.229l-.166,2.01a.535.535,0,0,0,.4.562l.5.126a1.058,1.058,0,0,0,.176.045h0a.982.982,0,0,0,.549-.072l1.888-.842A.984.984,0,0,0-1065.725-263.555Z" fill="#e5b0b4"/><path d="M-996.159-284.4a57.328,57.328,0,0,1-3.933,6.495c-2.412,3.416-5.586,6.9-8.479,6.87-5.246-.051-15.4-10.7-15.427-10.658a.334.334,0,0,0-.042.151c-.07.824,1.321,3.777-1.838,12.278-1.217,3.272-5.454,8.97-6.6,14.121l-16.2-3.591-4.2-.934c.19-.332.569-1.1,1.3-2.7.961-2.113,2.392-5.14,2.392-8.34a68.791,68.791,0,0,0-.809-11.953l0-.013a52.13,52.13,0,0,1-9.267,4.116s-3.94,7.742-6.174,13.15c-.258.628-3.746-.205-3.746-.205s2.044-16.472,4.333-18.353c4.169-3.425,10.923-11.464,18.432-12.462,0,0-.15-.528,6.645.3,1.089.132-.285,4.351,4.564,4.871,4.492.481,2.985-3.535,2.945-3.64.072.015,4.761,1.009,6.606,1.547,1.813.528,2.621.371,4.077,1.58a114.2,114.2,0,0,1,13.046,12.968,76.522,76.522,0,0,1,10.216-7.143Z" fill="#a0a603"/><path d="M-1044.031-265.259c-.392,1.572-2.788,4.645-4.649,6.524l-4.2-.934c.19-.332.569-1.1,1.3-2.7.961-2.113,2.392-5.14,2.392-8.34a68.791,68.791,0,0,0-.809-11.953c.507-.584,1.017-1.022,1.388-.994C-1047.547-283.575-1043.458-267.548-1044.031-265.259Z" fill="#6f7302"/><path d="M-1000.092-277.906c-2.412,3.416-5.586,6.9-8.479,6.87-5.246-.051-15.464-10.57-15.469-10.507-.617-.807-.522-2.935-.312-3.94.336-1.6,12.075,12.157,15.073,12.211S-1001.479-278.345-1000.092-277.906Z" fill="#6f7302"/><path d="M-1009.038-205.6l6.362,7.245,3.059-2.2-3.01-8.306Z" fill="#e5b0b4"/><path d="M-1005.288-200.116l1.448,3.536,10.924-1.042S-996.179-202.266-1005.288-200.116Z" fill="#d25c2a"/><path d="M-1059.376-244.32a22.786,22.786,0,0,1,3.587-11.651l-.014-.005,2.979-3.793,18.326,4.229s-3.493,3.1-1.718,4.648l22.239,12.014,14.336,34.116-11.217,4.514-16.341-28.664S-1059.907-233.435-1059.376-244.32Z" fill="#555ca3"/><path d="M-1034.485-368.958s8.606,6.715,23.886,6.656c12.432-.047,29.281-4.578,49.51-20.857a44.526,44.526,0,0,1,14.214-7.636c.385-.127.773-.247,1.16-.363q.926-.279,1.857-.517,1.455-.378,2.915-.665c.121-.025.244-.049.365-.072q.48-.093.961-.175c14.467-2.517,28.765.835,36.154,3.119,1.492.461,2.7.878,3.576,1.2,1,.362,1.557.593,1.588.605l-.473-.7-31.362-46.1s-.627-.351-1.8-.893h0c-.427-.2-.925-.421-1.492-.661-.817-.348-1.776-.731-2.863-1.129-11.046-4.034-35.433-9.48-60.464,7.854a84.211,84.211,0,0,0-11.793,9.947s-14.717,13.219-40.7,3.444C-1049.243-415.9-1029-399.637-1034.485-368.958Z" fill="#a0a603"/><path d="M-901.635-317.249s-45.1-1.72-50.852-9.675c0,0,21-10.084,16.211-31.4l32.438-3.459S-898.619-324.556-901.635-317.249Z" fill="#2f7eaf"/><path d="M-972.511-283.182l-3.972-1.088-6.292,10.013S-976.663-273.989-972.511-283.182Z" fill="#221e50"/><path d="M-920.5-252.765l-1.816,3.7,8.652,8.063S-912.248-246.958-920.5-252.765Z" fill="#221e50"/><path d="M-942.507-395.312l.219-3.246a6.07,6.07,0,0,0,.78-7.6s-1.215-1.724-2.006-.368-.314.959-1.466,2.846a6.666,6.666,0,0,0-.217,5.447l-.4,2.587Z" fill="#ad7041"/><path d="M-913.07-362.93a12.03,12.03,0,0,1-.952-5.232l-7.279-5c-.63,6.179-1.724,7.838-1.668,10.274C-922.967-362.828-913.046-362.866-913.07-362.93Z" fill="#9e5f32"/><path d="M-912.416-368.411s-8.613,2.116-9.848-3.268-3.178-8.737,2.269-10.315,6.99.23,7.839,1.927S-910.208-369.1-912.416-368.411Z" fill="#ad7041"/><path d="M-922.178-371.308a9.055,9.055,0,0,1,7.478-9.087c5.383-1.218,1.739-5.515,1.061-6.188,0,0-4.1,1.112-8.289,2.372C-930.719-381.566-923.206-372.32-922.178-371.308Z" fill="#2d2d30"/><path d="M-911.043-315.053s7.424,13.571,9.949,18.255c10.417,19.318,9.434,23.042,9.434,23.042s-8.557,10.74-11.369,13.789c-3.045,3.3-12.06,11.611-12.06,11.611l-8.694-5.028s5.971-9.816,8.4-13.089c1.7-2.283,8.122-9.131,8.122-9.131s-5.186-5.061-10.615-9.6c-7.744-6.467-17.629-26.521-17.629-26.521Z" fill="#545454"/><path d="M-913.377-320.009s-13.215,50.66-18.93,53.1c-9.9,4.232-43.8-8.513-43.8-8.513l2.6-8.536s8.754.115,15.117.225c4.484.077,13.646,2.037,13.646,2.037s3.005-28.1,7.87-36.211C-929.309-330.521-913.377-320.009-913.377-320.009Z" fill="#7c7c7c"/><path d="M-909.632-315.169a1.235,1.235,0,0,1-1.165.824,148.145,148.145,0,0,1-14.953,1.192c-.567,0-1.1-.011-1.594-.037a86.353,86.353,0,0,1-10.948-1.155,1.076,1.076,0,0,1-.824-1.769,37.133,37.133,0,0,0,5.243-9.243c2.882-6.714.825-19.966-1.139-29.014-1.19-5.484-2.345-9.422-2.345-9.422,4-1.453,9.482-2.007,14.8-2.236.807.442,4.094,2.391,7.155,1.808,1.623-.31,1.717-.945,1.576-1.327,7.357.224,8.531,3.318,8.531,3.318C-896.316-345.681-907.908-320.049-909.632-315.169Z" fill="#dde3f2"/><path d="M-924.657-364.531s-9.042-6.737-11.521-9.273l-6.163-23.972-3-.045s-1.421,23.46-.846,25.128c2.933,8.515,17.365,22.061,17.365,22.061Z" fill="#dde3f2"/><path d="M-925.806-313.19c.019.012.038.024.056.037-.567,0-1.1-.011-1.594-.037a86.353,86.353,0,0,1-10.948-1.155,1.076,1.076,0,0,1-.824-1.769,37.133,37.133,0,0,0,5.243-9.243c2.882-6.714.825-19.966-1.139-29.014l8.64.422s2.385,18.675.226,25.982S-927.83-314.417-925.806-313.19Z" fill="#ced4ea"/><path d="M-923.207-366.715s-7.307,44.247-22.5,53.525c0,0-9.568-10.5-8.7-13.454,0,0,16.706-12.9,17.228-18.683s1.266-12.591.9-13-9.725-11.007-9.91-14.366-.913-24.525-.913-24.525,4.2.393,5.393,0c0,0,5.15,22.311,6.19,23.641s8.518,7.71,9.37,7.412S-923.674-367.3-923.207-366.715Z" fill="#529ad9"/><path d="M-898.96-342.6c-.677-1.217,1.171,10.464.882,16.03-.01.2-.022.406-.034.6,0,.056-.006.111-.01.165a42.288,42.288,0,0,1-1.271,8.548s-5.379,2.491-7.66,2.2c0,0,7.682-23.157,3.968-38.42,0,0-5.877-11.258-9.86-12.083l10.218,2.044s5.992,7.686,7.734,10.378c1.453,2.247,5.048,9.376,5.048,9.376l5.53-6.291,5.97-5.449,2.8,2.484s-6.972,19.113-15.386,19.474C-891.868-333.5-894.513-334.592-898.96-342.6Z" fill="#529ad9"/><path d="M-923.207-366.715s-3.828,5.915-4.524,6.553l1.139,1.508-1.487.722s-.773,14.647-1.469,16.75C-929.548-341.182-922.9-365.111-923.207-366.715Z" fill="#2f7eaf"/><path d="M-913.505-365.536c-.156.025,10.327,8.776,11.286,17.212,0,0,1.28-2.27-1.329-8.011a40.34,40.34,0,0,1-1.914-5.451l-1.913-.058,1.333-.638s-5.379-3.434-6.352-3.314A3,3,0,0,0-913.505-365.536Z" fill="#2f7eaf"/><path d="M-940.488-326.3a8.2,8.2,0,0,1-3.564-3.085,19.369,19.369,0,0,1-1.49-2.365h0c.023.045,2.5,4.329,5.13,5.231Z" fill="#2b295e"/><path d="M-898.112-325.962c0,.056-.006.111-.01.165a7.186,7.186,0,0,1-3.783.346l.057-.225a4.68,4.68,0,0,0,1.125.125A10.026,10.026,0,0,0-898.112-325.962Z" fill="#2b295e"/><path d="M-933.53-309.362c-.116.348-4.175,22.616-4.755,26.791l-.7,3.712s.058,1.8-1.218,1.508-14.323-1.852-17.571-1.912-13.686-.582-13.686-.582,10.864.793,11.676.793a19.683,19.683,0,0,1,2.783.116c.464.115,12.99.913,15.155,1.616s2.861.341,2.861,0a11.916,11.916,0,0,1,.58-2.506c.271-.7,1.624-10.4,1.914-11.356S-933.53-309.362-933.53-309.362Z" fill="#2b295e"/><path d="M-931.824-308.883c-.31,0-.49-.015-.5-.016l.032-.347a10.627,10.627,0,0,0,7.866-2.364h0A11.326,11.326,0,0,1-931.824-308.883Z" fill="#2b295e"/><path d="M-934.281-439.139l2.349,3.787h0l28.468,45.884.878,1.415,21.624,34.853,3.2,5.158,15.877,25.591,4.769-2.958-18.013-29.034-3.734-6.018-17.435-28.1L-929.511-442.1Z" fill="#1e1e1e"/><path d="M-878.915-360.427s1.923-1.362,4.167,1.363a3.045,3.045,0,0,1-.391,4.628S-878.274-354.1-878.915-360.427Z" fill="#ad7041"/><path d="M-1138.5-143.033h109.033c.38-.021.771-.036,1.178-.036h172.685c.028,0,.051-.024.079-.024h9.419c.437,0,.791.535.8,1.194l.005.011v.074c0,.008-.009.015-.01.022-.025.642-.371,1.159-.8,1.159h-182.183c-.259,0-.508-.009-.757-.018H-1138.5c-.439,0-.8-.519-.8-1.155v-.072C-1139.3-142.513-1138.942-143.033-1138.5-143.033Z" fill="#b7bed4"/></g></svg>