<svg xmlns="http://www.w3.org/2000/svg" width="294" height="199" viewBox="0 0 294 199"><g transform="translate(410.966 -471.761)"><path d="M0,0H294V199H0Z" transform="translate(-410.966 471.761)" fill="#fafafa"/><path d="M-363.492,641.517s-18.522-7.7-20.6-16,14.761-5.491,27.627,11.407c0,0-19.006-31.869-7.178-34.179s18.24,31.127,18.24,31.127,3.342-16.442,11.071-15.637,3.243,13.472-9.518,23.281Z" fill="#ecedcc"/><path d="M-350.379,640.216a96.113,96.113,0,0,0-13.736-36.479" fill="#ecedcc"/><path d="M-356.462,639.73s-16.85-8.168-24.439-18.1" fill="#ecedcc"/><path d="M-334.329,620.427s-5.726,16.7-14.057,19.3" fill="#ecedcc"/><path d="M-280.684,635.863s-26.378,1.949-40.832-.921c-8.358-1.659-12.013-7.063-1.033-9.224,5.532-1.09,16.071-9.979-5.472-12.741-18.791-2.41-20.774-16.119-4.1-15.841,3.918.065-1.485-2.472-6.264-11.34-3.677-6.822-3.044-17.607,3.169-20.681,13.1-6.479,12.75,18.119,18.1,19.272,5.136,1.107,7.112-12.747,14.259-11.035,9.335,2.237-5.812,28.524-3.952,30.872,3.967,5.005,11.377-19.777,18.334-17.784S-303.286,629.733-280.684,635.863Z" fill="#ecedcc"/><path d="M-287.273,634.723c-14.331-5.728-12.372-16.342-29-30.327-13.75-11.561-17.381-24.669-16.272-39.677" fill="#ecedcc"/><path d="M-249.946,635.025s18.522-7.7,20.6-16-13.79-7.377-26.656,9.522c0,0,19.227-28.654,7.4-30.965s-19.433,29.8-19.433,29.8-3.342-16.441-11.071-15.636-3.244,13.472,9.518,23.28Z" fill="#ecedcc"/><path d="M-263.059,633.724s3.153-20.083,14.928-35.15" fill="#ecedcc"/><path d="M-256.976,633.239s15.215-13.828,24.439-16.377" fill="#ecedcc"/><path d="M-279.109,613.936s5.726,16.7,14.057,19.3" fill="#ecedcc"/><path d="M-207.339,632.179s26.378,1.948,40.832-.921c8.358-1.66,12.013-7.063,1.033-9.225-5.532-1.089-14.795-4.932,5.472-12.741,16.929-6.522,19.182-17.623,3.041-13.413-8.365,2.181,2.54-4.9,7.319-13.767,3.677-6.822,3.044-17.607-3.169-20.681-13.1-6.48-15.456,22.782-20.8,23.935-5.135,1.107.728-18.979-8.5-16.328s3.4,25.624.9,31.5-4.123-20.158-11.079-18.165S-184.737,626.049-207.339,632.179Z" fill="#ecedcc"/><path d="M-200.75,631.039c14.331-5.728,12.372-16.342,29-30.327,13.75-11.562,18.693-21.521,17.584-36.529" fill="#ecedcc"/><ellipse cx="49.621" cy="5.694" rx="49.621" ry="5.694" transform="translate(-310.479 633.24)" fill="#e8e8e8"/><rect width="74.083" height="140.449" rx="7.471" transform="translate(-297.828 500.69)" fill="#76acea"/><rect width="74.083" height="140.449" rx="7.471" transform="translate(-294.356 500.69)" fill="#8ec0fd"/><rect width="66.366" height="116.912" transform="translate(-290.111 509.565)" fill="#bdf"/><circle cx="5.016" cy="5.016" r="5.016" transform="translate(-261.173 628.278)" fill="#bdf"/><rect width="26.141" height="2.508" rx="1.254" transform="translate(-268.504 504.066)" fill="#bdf"/><g opacity="0.5"><rect width="59.421" height="9.646" transform="translate(-286.639 515.352)" fill="#def0ff"/><rect width="59.421" height="9.646" transform="translate(-286.639 529.629)" fill="#def0ff"/><rect width="59.421" height="9.646" transform="translate(-286.639 583.905)" fill="#def0ff"/><rect width="59.421" height="9.646" transform="translate(-286.639 598.181)" fill="#def0ff"/><rect width="59.421" height="9.646" transform="translate(-286.639 612.201)" fill="#def0ff"/><rect width="27.778" height="35.597" transform="translate(-286.639 543.905)" fill="#def0ff"/><rect width="27.778" height="6.003" transform="translate(-255.514 543.905)" fill="#def0ff"/><rect width="27.778" height="6.003" transform="translate(-255.514 553.766)" fill="#def0ff"/><rect width="27.778" height="6.003" transform="translate(-255.514 563.626)" fill="#def0ff"/><rect width="27.778" height="6.003" transform="translate(-255.514 573.487)" fill="#def0ff"/></g><rect width="84.209" height="43.258" transform="translate(-277.603 531.212)" opacity="0.5" style="mix-blend-mode:soft-light;isolation:isolate"/><rect width="84.209" height="43.258" transform="translate(-275.624 528.693)" fill="#f2f3f4"/><rect width="36.44" height="43.258" transform="translate(-227.413 528.693)" fill="#69a7fe"/><circle cx="12.682" cy="12.682" r="12.682" transform="translate(-224.582 542.484) rotate(-13.123)" opacity="0.5" style="mix-blend-mode:soft-light;isolation:isolate"/><circle cx="12.682" cy="12.682" r="12.682" transform="translate(-225.109 543.988) rotate(-22.101)" fill="#dbdbdb"/><circle cx="11.119" cy="11.119" r="11.119" transform="translate(-223.078 544.86) rotate(-22.15)" fill="#fff"/><path d="M-219.121,551.708A11.119,11.119,0,0,1-208,540.589a11.089,11.089,0,0,1,8.312,3.737,11.1,11.1,0,0,0-8.919-4.479,11.12,11.12,0,0,0-11.12,11.119,11.074,11.074,0,0,0,2.808,7.383A11.069,11.069,0,0,1-219.121,551.708Z" fill="#eaeaea" opacity="0.5"/><g opacity="0.5"><path d="M-209.457,558.108a1.12,1.12,0,0,1-.949-.525l-3.887-6.2a1.12,1.12,0,0,1,.354-1.543,1.12,1.12,0,0,1,1.543.355l2.9,4.625,5.357-9.3a1.121,1.121,0,0,1,1.529-.411,1.119,1.119,0,0,1,.411,1.528l-6.286,10.919a1.119,1.119,0,0,1-.949.56Z" fill="#eaeaea"/></g><path d="M-209.052,557.636a1.119,1.119,0,0,1-.949-.525l-3.887-6.2a1.119,1.119,0,0,1,.354-1.543,1.119,1.119,0,0,1,1.543.354l2.9,4.626,5.357-9.3a1.12,1.12,0,0,1,1.528-.411,1.119,1.119,0,0,1,.412,1.528l-6.287,10.919a1.119,1.119,0,0,1-.949.56Z" fill="#8ec0fd"/><circle cx="6.161" cy="6.161" r="6.161" transform="translate(-271.936 533.505)" fill="#69a7fe"/><path d="M-265.944,540.538h0a.433.433,0,0,1-.432-.432v-4.718a.434.434,0,0,1,.432-.433h0a.434.434,0,0,1,.432.433v4.718A.434.434,0,0,1-265.944,540.538Z" fill="#fff"/><path d="M-266.424,540.115h0a.471.471,0,0,1,.47-.469h3.244a.47.47,0,0,1,.469.469h0a.471.471,0,0,1-.469.47h-3.244A.471.471,0,0,1-266.424,540.115Z" fill="#fff"/><rect width="25.904" height="2.024" transform="translate(-256.061 536.608)" fill="#e2e2e2"/><rect width="25.904" height="2.024" transform="translate(-256.061 540.386)" fill="#e2e2e2"/><path d="M-265.568,551.494a5.119,5.119,0,0,0-5.119,5.119c0,2.828,5.067,11.4,5.119,11.4.03,0,5.12-8.569,5.12-11.4A5.119,5.119,0,0,0-265.568,551.494Zm0,7.665a3,3,0,0,1-3-3,3,3,0,0,1,3-3,3,3,0,0,1,3,3A3,3,0,0,1-265.568,559.159Z" fill="#69a7fe"/><rect width="25.904" height="2.024" transform="translate(-256.061 557.206)" fill="#e2e2e2"/><rect width="16.783" height="2.024" transform="translate(-256.061 560.983)" fill="#e2e2e2"/><rect width="84.209" height="43.258" transform="translate(-319.697 579.377)" opacity="0.5" style="mix-blend-mode:soft-light;isolation:isolate"/><rect width="84.209" height="43.258" transform="translate(-317.718 576.859)" fill="#f2f3f4"/><rect width="36.44" height="43.258" transform="translate(-269.508 576.859)" fill="#bfc288"/><path d="M-250.112,587.607a6.9,6.9,0,0,0-6.9,6.9c0,3.813,6.832,15.37,6.9,15.37.04,0,6.9-11.557,6.9-15.37A6.9,6.9,0,0,0-250.112,587.607Zm0,10.337a4.05,4.05,0,0,1-4.049-4.05,4.049,4.049,0,0,1,4.049-4.049,4.05,4.05,0,0,1,4.05,4.049A4.05,4.05,0,0,1-250.112,597.944Z" fill="#fff"/><rect width="39.531" height="2.024" transform="translate(-314.165 590.53)" fill="#e2e2e2"/><rect width="25.612" height="2.024" transform="translate(-314.165 594.308)" fill="#e2e2e2"/><rect width="39.531" height="2.024" transform="translate(-314.165 599.615)" fill="#e2e2e2"/><rect width="25.612" height="2.024" transform="translate(-314.165 603.392)" fill="#e2e2e2"/><rect width="39.531" height="2.024" transform="translate(-314.165 609.688)" fill="#e2e2e2"/><rect width="25.612" height="2.024" transform="translate(-314.165 613.466)" fill="#e2e2e2"/><path d="M-313.293,583.447a1.692,1.692,0,0,1,.4-1.209,1.5,1.5,0,0,1,1.149-.421,1.5,1.5,0,0,1,1.148.421,1.692,1.692,0,0,1,.4,1.209v3.372a1.7,1.7,0,0,1-.4,1.209,1.5,1.5,0,0,1-1.148.421,1.5,1.5,0,0,1-1.149-.421,1.7,1.7,0,0,1-.4-1.209Zm1.019,3.437a.688.688,0,0,0,.143.5.519.519,0,0,0,.385.143.519.519,0,0,0,.384-.143.687.687,0,0,0,.144-.5v-3.5a.684.684,0,0,0-.144-.495.519.519,0,0,0-.384-.144.52.52,0,0,0-.385.144.684.684,0,0,0-.143.495Z" fill="#e2e2e2"/><path d="M-306.55,586.763a1.837,1.837,0,0,1-.38,1.255,1.488,1.488,0,0,1-1.176.431,1.459,1.459,0,0,1-1.135-.421,1.737,1.737,0,0,1-.384-1.209v-.167h.963v.232a.687.687,0,0,0,.144.5.517.517,0,0,0,.384.143.529.529,0,0,0,.417-.166.978.978,0,0,0,.148-.63V585.54a.957.957,0,0,1-.944.575.989.989,0,0,1-.848-.38,1.829,1.829,0,0,1-.283-1.1v-1.186a1.692,1.692,0,0,1,.4-1.209,1.5,1.5,0,0,1,1.148-.421,1.505,1.505,0,0,1,1.149.421,1.7,1.7,0,0,1,.4,1.209Zm-1.547-1.575a.523.523,0,0,0,.385-.143.693.693,0,0,0,.143-.5v-1.167a.674.674,0,0,0-.143-.491.529.529,0,0,0-.385-.139.526.526,0,0,0-.384.139.67.67,0,0,0-.144.491v1.167a.688.688,0,0,0,.144.5A.521.521,0,0,0-308.1,585.188Z" fill="#e2e2e2"/><path d="M-304.892,583.864v.982h-.982v-.982Zm0,3.529v.982h-.982v-.982Z" fill="#e2e2e2"/><path d="M-304.234,583.447a1.7,1.7,0,0,1,.4-1.209,1.506,1.506,0,0,1,1.149-.421,1.507,1.507,0,0,1,1.149.421,1.7,1.7,0,0,1,.4,1.209v3.372a1.7,1.7,0,0,1-.4,1.209,1.507,1.507,0,0,1-1.149.421,1.506,1.506,0,0,1-1.149-.421,1.7,1.7,0,0,1-.4-1.209Zm1.019,3.437a.688.688,0,0,0,.144.5.515.515,0,0,0,.384.143.517.517,0,0,0,.384-.143.687.687,0,0,0,.144-.5v-3.5a.684.684,0,0,0-.144-.495.517.517,0,0,0-.384-.144.516.516,0,0,0-.384.144.684.684,0,0,0-.144.495Z" fill="#e2e2e2"/><path d="M-299.565,586.281v.6a.667.667,0,0,0,.143.49.529.529,0,0,0,.385.139.528.528,0,0,0,.384-.139.667.667,0,0,0,.144-.49v-1.427a.688.688,0,0,0-.144-.5.522.522,0,0,0-.384-.143.523.523,0,0,0-.385.143.689.689,0,0,0-.143.5v.194h-.964l.186-3.76h2.686v.926h-1.769l-.084,1.547a.969.969,0,0,1,.89-.473.989.989,0,0,1,.847.38,1.832,1.832,0,0,1,.283,1.1v1.445a1.738,1.738,0,0,1-.385,1.209,1.458,1.458,0,0,1-1.135.421,1.457,1.457,0,0,1-1.134-.421,1.733,1.733,0,0,1-.385-1.209v-.538Z" fill="#e2e2e2"/><path d="M-209.822,500.64l-.881-1.757-.324-.646,2.667-5.811-7.253-3.33-3.355-6.69a1.065,1.065,0,0,0-1.187-.545l-7.261,1.816-7.329-3.365-2.7,5.871-.585.146-1.92.48a.824.824,0,0,0-.644.694l-8.786,19.136h0l-.023.05-.2.437h0l-.2.432a.917.917,0,0,0,.384,1.436l28.937,13.286a.947.947,0,0,0,1.251-.359h0l.546-1.188h0l8.822-19.213-.013-.007A.835.835,0,0,0-209.822,500.64Z" opacity="0.5" style="mix-blend-mode:soft-light;isolation:isolate"/><path d="M-208.808,500.894l-28.937-13.287a.891.891,0,0,1,.065-1.7l1.92-.48,1.558-.39,16.312-4.078a1.063,1.063,0,0,1,1.186.545l7.539,15.029.727,1.448.881,1.757A.891.891,0,0,1-208.808,500.894Z" fill="#fdcd55"/><path d="M-208.438,497.977l-2.153,4.689-27.326-12.547,2.156-4.7,1.558-.389,25.037,11.5Z" style="mix-blend-mode:soft-light;isolation:isolate"/><rect width="33.78" height="21.678" transform="matrix(0.909, 0.417, -0.417, 0.909, -238.288, 486.519)" fill="#d8a03d"/><path d="M0,0H29.033a0,0,0,0,1,0,0V26.813a1.806,1.806,0,0,1-1.806,1.806H1.806A1.806,1.806,0,0,1,0,26.813V0A0,0,0,0,1,0,0Z" transform="translate(-232.48 479.406) rotate(24.662)" fill="#f2f3f4"/><rect width="21.313" height="1.665" transform="translate(-229.599 483.017) rotate(24.662)" fill="#e2e2e2"/><rect width="13.809" height="1.665" transform="translate(-230.896 485.841) rotate(24.662)" fill="#e2e2e2"/><rect width="21.313" height="1.665" transform="translate(-232.409 489.137) rotate(24.662)" fill="#e2e2e2"/><rect width="13.809" height="1.665" transform="matrix(0.909, 0.417, -0.417, 0.909, -233.706, 491.962)" fill="#e2e2e2"/><path d="M-238.288,486.519l-9.367,20.4,30.7,14.1,9.367-20.4-2.237-1.027-17.964,4.546-8.415-16.659Z" fill="#f5b945"/><path d="M-209.826,499.588l-17.391,3.146.963.991Z" opacity="0.5" style="mix-blend-mode:soft-light;isolation:isolate"/><path d="M-236.109,487.52l8.949,15.24-1.379-.085Z" opacity="0.5" style="mix-blend-mode:soft-light;isolation:isolate"/><path d="M-225.338,503.513l8.927,16.315-.546,1.188-13.559-6.226Z" opacity="0.5" style="mix-blend-mode:soft-light;isolation:isolate"/><path d="M-228.919,501.869l-18.192,3.864-.545,1.188,13.559,6.226Z" opacity="0.5" style="mix-blend-mode:soft-light;isolation:isolate"/><path d="M-247.084,506.383l19.791-4.947a1.062,1.062,0,0,1,1.186.544l9.147,18.234a.891.891,0,0,1-1.251,1.16l-28.937-13.286A.891.891,0,0,1-247.084,506.383Z" fill="#fdcd55"/><path d="M-285.256,492.3h-3.873v-1.825a1.526,1.526,0,0,0-1.521-1.522h0a1.526,1.526,0,0,0-1.521,1.522V492.3h-24.744v-1.825a1.526,1.526,0,0,0-1.521-1.522,1.526,1.526,0,0,0-1.521,1.522V492.3h-3.671a3.631,3.631,0,0,0-3.63,3.631v29.043a3.631,3.631,0,0,0,3.63,3.631h38.372a3.631,3.631,0,0,0,3.631-3.631V495.928A3.631,3.631,0,0,0-285.256,492.3Z" opacity="0.5" style="mix-blend-mode:soft-light;isolation:isolate"/><rect width="45.633" height="36.304" rx="3.63" transform="translate(-325.446 490.485)" fill="#f2f3f4"/><path d="M-283.444,526.08h-38.372a3.631,3.631,0,0,1-3.63-3.631v.71a3.631,3.631,0,0,0,3.63,3.631h38.372a3.631,3.631,0,0,0,3.631-3.631v-.71A3.631,3.631,0,0,1-283.444,526.08Z" fill="#e5e5e5"/><path d="M-279.813,494.116V498.6h-45.633v-4.481a3.631,3.631,0,0,1,3.63-3.631h38.372A3.631,3.631,0,0,1-279.813,494.116Z" fill="#a0a603"/><rect width="4.374" height="4.374" transform="translate(-322.454 501.133)" fill="#dbdbdb"/><rect width="4.374" height="4.374" transform="translate(-315.356 501.133)" fill="#dbdbdb"/><rect width="4.374" height="4.374" transform="translate(-308.257 501.133)" fill="#dbdbdb"/><rect width="4.374" height="4.374" transform="translate(-301.159 501.133)" fill="#dbdbdb"/><rect width="4.374" height="4.374" transform="translate(-294.06 501.133)" fill="#dbdbdb"/><rect width="4.374" height="4.374" transform="translate(-286.961 501.133)" fill="#dbdbdb"/><rect width="4.374" height="4.374" transform="translate(-322.454 507.308)" fill="#dbdbdb"/><rect width="4.374" height="4.374" transform="translate(-315.356 507.308)" fill="#dbdbdb"/><rect width="4.374" height="4.374" transform="translate(-308.257 507.308)" fill="#dbdbdb"/><rect width="4.374" height="4.374" transform="translate(-301.159 507.308)" fill="#dbdbdb"/><rect width="4.374" height="4.374" transform="translate(-294.06 507.308)" fill="#dbdbdb"/><rect width="4.374" height="4.374" transform="translate(-286.961 507.308)" fill="#dbdbdb"/><rect width="4.374" height="4.374" transform="translate(-322.454 513.482)" fill="#dbdbdb"/><rect width="4.374" height="4.374" transform="translate(-315.356 513.482)" fill="#dbdbdb"/><rect width="4.374" height="4.374" transform="translate(-308.257 513.482)" fill="#dbdbdb"/><rect width="4.374" height="4.374" transform="translate(-301.159 513.482)" fill="#dbdbdb"/><rect width="4.374" height="4.374" transform="translate(-294.06 513.482)" fill="#dbdbdb"/><rect width="4.374" height="4.374" transform="translate(-286.961 513.482)" fill="#dbdbdb"/><rect width="4.374" height="4.374" transform="translate(-322.454 519.657)" fill="#dbdbdb"/><rect width="4.374" height="4.374" transform="translate(-315.356 519.657)" fill="#dbdbdb"/><rect width="4.374" height="4.374" transform="translate(-308.257 519.657)" fill="#dbdbdb"/><rect width="4.374" height="4.374" transform="translate(-301.159 519.657)" fill="#dbdbdb"/><rect width="4.374" height="4.374" transform="translate(-294.06 519.657)" fill="#dbdbdb"/><rect width="4.374" height="4.374" transform="translate(-286.961 519.657)" fill="#dbdbdb"/><rect width="45.633" height="0.508" transform="translate(-325.446 498.597)" fill="#e5e5e5"/><path d="M-314.359,494.677a2.231,2.231,0,0,1-2.231,2.231,2.231,2.231,0,0,1-2.231-2.231,2.23,2.23,0,0,1,2.231-2.231A2.231,2.231,0,0,1-314.359,494.677Z" fill="#fff"/><path d="M-286.641,494.677a2.231,2.231,0,0,1-2.231,2.231,2.231,2.231,0,0,1-2.231-2.231,2.231,2.231,0,0,1,2.231-2.231A2.231,2.231,0,0,1-286.641,494.677Z" fill="#fff"/><path d="M-316.624,495.86h0a1.526,1.526,0,0,1-1.521-1.521V488.66a1.525,1.525,0,0,1,1.521-1.521h0a1.526,1.526,0,0,1,1.521,1.521v5.679A1.526,1.526,0,0,1-316.624,495.86Z" fill="#1947b6"/><path d="M-288.838,495.86h0a1.526,1.526,0,0,1-1.521-1.521V488.66a1.525,1.525,0,0,1,1.521-1.521h0a1.526,1.526,0,0,1,1.521,1.521v5.679A1.526,1.526,0,0,1-288.838,495.86Z" fill="#1947b6"/><circle cx="19.013" cy="19.013" r="19.013" transform="translate(-346.842 532.605) rotate(-45)" opacity="0.5" style="mix-blend-mode:soft-light;isolation:isolate"/><circle cx="19.013" cy="19.013" r="19.013" transform="translate(-341.08 512.233)" fill="#69a7fe"/><circle cx="15.934" cy="15.934" r="15.934" transform="translate(-338.001 515.313)" fill="#fff"/><path d="M-337.707,531.73A15.934,15.934,0,0,1-321.773,515.8a15.92,15.92,0,0,1,13.552,7.555,15.924,15.924,0,0,0-13.838-8.039,15.933,15.933,0,0,0-15.934,15.933,15.852,15.852,0,0,0,2.382,8.379A15.854,15.854,0,0,1-337.707,531.73Z" fill="#eaeaea"/><path d="M-322.067,519.716h0a.4.4,0,0,1-.4-.4v-2.641a.4.4,0,0,1,.4-.4h0a.4.4,0,0,1,.4.4v2.641A.4.4,0,0,1-322.067,519.716Z" fill="#eaeaea"/><path d="M-327.691,521.348h0a.4.4,0,0,1-.541-.145l-1.321-2.287a.4.4,0,0,1,.145-.541h0a.4.4,0,0,1,.541.145l1.321,2.287A.4.4,0,0,1-327.691,521.348Z" fill="#eaeaea"/><path d="M-331.746,525.574h0a.4.4,0,0,1-.541.145l-2.287-1.32a.4.4,0,0,1-.145-.541h0a.4.4,0,0,1,.541-.145l2.287,1.32A.4.4,0,0,1-331.746,525.574Z" fill="#eaeaea"/><path d="M-333.144,531.261h0a.4.4,0,0,1-.4.4h-2.641a.4.4,0,0,1-.4-.4h0a.4.4,0,0,1,.4-.4h2.641A.4.4,0,0,1-333.144,531.261Z" fill="#eaeaea"/><path d="M-331.511,536.885h0a.4.4,0,0,1-.145.541l-2.287,1.321a.4.4,0,0,1-.541-.145h0a.4.4,0,0,1,.145-.541l2.286-1.321A.4.4,0,0,1-331.511,536.885Z" fill="#eaeaea"/><path d="M-327.285,540.94h0a.4.4,0,0,1,.144.541l-1.32,2.287a.4.4,0,0,1-.541.145h0a.4.4,0,0,1-.145-.541l1.32-2.287A.4.4,0,0,1-327.285,540.94Z" fill="#eaeaea"/><path d="M-321.6,542.338h0a.4.4,0,0,1,.4.4v2.641a.4.4,0,0,1-.4.4h0a.4.4,0,0,1-.4-.4v-2.641A.4.4,0,0,1-321.6,542.338Z" fill="#eaeaea"/><path d="M-315.974,540.705h0a.4.4,0,0,1,.541.145l1.32,2.287a.4.4,0,0,1-.145.541h0a.4.4,0,0,1-.541-.145l-1.32-2.286A.4.4,0,0,1-315.974,540.705Z" fill="#eaeaea"/><path d="M-311.92,536.48h0a.4.4,0,0,1,.541-.145l2.287,1.32a.4.4,0,0,1,.145.541h0a.4.4,0,0,1-.541.145l-2.287-1.32A.4.4,0,0,1-311.92,536.48Z" fill="#eaeaea"/><path d="M-310.522,530.793h0a.4.4,0,0,1,.4-.4h2.641a.4.4,0,0,1,.4.4h0a.4.4,0,0,1-.4.4h-2.641A.4.4,0,0,1-310.522,530.793Z" fill="#eaeaea"/><path d="M-312.154,525.168h0a.4.4,0,0,1,.145-.541l2.287-1.32a.4.4,0,0,1,.541.145h0a.4.4,0,0,1-.145.541l-2.287,1.32A.4.4,0,0,1-312.154,525.168Z" fill="#eaeaea"/><path d="M-316.38,521.114h0a.4.4,0,0,1-.145-.541l1.32-2.287a.4.4,0,0,1,.541-.145h0a.4.4,0,0,1,.145.541l-1.32,2.287A.4.4,0,0,1-316.38,521.114Z" fill="#eaeaea"/><rect width="1.496" height="9.923" rx="0.702" transform="translate(-322.537 521.718)" fill="#dc433e"/><path d="M-322.629,531.057h0a.915.915,0,0,1,.912-.912h5.641a.915.915,0,0,1,.912.912h0a.914.914,0,0,1-.912.912h-5.641A.914.914,0,0,1-322.629,531.057Z" fill="#dc433e"/><path d="M-320.028,531.071a1.651,1.651,0,0,1-1.651,1.65,1.65,1.65,0,0,1-1.65-1.65,1.651,1.651,0,0,1,1.65-1.651A1.651,1.651,0,0,1-320.028,531.071Z" fill="#1947b6"/><path d="M-320.844,531.083a.869.869,0,0,1-.869.868.868.868,0,0,1-.868-.868.869.869,0,0,1,.868-.869A.869.869,0,0,1-320.844,531.083Z" fill="#69a7fe"/><ellipse cx="25.82" cy="5.738" rx="25.82" ry="5.738" transform="translate(-221.961 651.634)" fill="#e8e8e8"/><path d="M-174.089,604.521h0a.481.481,0,0,1-.022.057v0a.288.288,0,0,1-.028.048l0,0a.412.412,0,0,1-.033.04l-.006.005a.3.3,0,0,1-.037.032l-.011.006a.389.389,0,0,1-.04.024l-.019.007-.042.016-.035.008-.036.008a.658.658,0,0,1-.082.01.3.3,0,0,1-.043,0l-.034-.008-.006,0a.24.24,0,0,1-.072-.042h0c-.319-.274-.3-1.524-.408-2.207-.008-.045-.015-.087-.022-.127v-.007c-.007-.039-.013-.075-.02-.109l0-.012c-.007-.033-.014-.065-.02-.1l0-.012c-.006-.029-.012-.057-.019-.083l0-.011-.019-.073,0-.01c-.006-.022-.012-.043-.018-.062l0-.009q-.009-.029-.018-.054l0-.006c-.006-.016-.012-.032-.018-.046l0,0a.363.363,0,0,0-.018-.039h0a.2.2,0,0,0-.054-.071h0l-.016-.008h0a.03.03,0,0,0-.016,0h0l-.015,0h0l-.015.01-.011.013a15.515,15.515,0,0,0-.059,2.486,5.122,5.122,0,0,1-.062,1.637h0c-.008.021-.016.04-.024.059l0,.007c-.008.017-.017.033-.026.049l0,.005a.413.413,0,0,1-.069.089l0,0c-.011.01-.023.019-.035.028l-.012.007a.226.226,0,0,1-.03.017l-.015.007-.034.01-.015,0a.286.286,0,0,1-.052.006.276.276,0,0,1-.058,0l-.013,0a.291.291,0,0,1-.048-.014l0,0a.318.318,0,0,1-.1-.07l0,0-.027-.029h0a4.009,4.009,0,0,1-.33-1.755v-.011l-.005-.071,0-.03,0-.062,0-.029-.007-.088c-.083-1,.074-1.957-.167-1.966s-.38,3.681-.407,3.955a2.734,2.734,0,0,1-.2.947h0l-.027.046,0,0c-.008.012-.017.024-.026.035l-.007.009-.025.027-.008.009a.308.308,0,0,1-.033.028h0a.308.308,0,0,1-.038.024l-.01.005a.211.211,0,0,1-.03.013l-.013.005-.031.008-.014,0a.232.232,0,0,1-.046,0,.346.346,0,0,1-.047,0l-.014,0-.031-.007-.013,0a.214.214,0,0,1-.032-.012l-.008,0a.234.234,0,0,1-.038-.022l0,0a.249.249,0,0,1-.032-.025l-.008-.007c-.009-.008-.017-.017-.026-.026l-.006-.007a.6.6,0,0,1-.057-.08h0a2.4,2.4,0,0,1-.184-1c-.013-.413,0-1.564.072-2.524s.1-1.269-.053-1.309l-.012,0-.007,0h0a15.934,15.934,0,0,0-.763,2.935,2.614,2.614,0,0,1-.43,1.116h0a.634.634,0,0,1-.113.108l0,0-.025.017-.007.005-.024.013-.01,0-.022.011-.012,0-.022.008-.013,0-.036.007-.02,0h-.053l-.022,0-.016,0-.023-.005-.016,0-.026-.009-.013-.005-.039-.019a.165.165,0,0,1-.035-.023l-.013-.01-.018-.017-.014-.014a.309.309,0,0,1-.022-.029h0c-.283-.409.084-1.722.252-2.514a20,20,0,0,0,.494-2.99c-.011-.619.1-1.182-.218-1.128-.074.008-.133.012-.169.013a2.2,2.2,0,0,0-.988.719,1.8,1.8,0,0,1-1.293.482c-.187-.009-.338-.068-.361-.188h0l0-.025v0a.217.217,0,0,1,0-.025v0l0-.025v0l.007-.025,0-.006.011-.026,0-.006.014-.028,0-.006.018-.029,0-.007.021-.03.006-.008.026-.031.006-.008.03-.034.007-.007.035-.036.008-.007.04-.038.007-.007.047-.041.007-.005.053-.044.006-.005c.019-.016.04-.031.061-.047l0,0c.026-.02.053-.04.082-.06a6.474,6.474,0,0,0,1.893-2.335c.284-.694.4-1.161,1.187-1.382.257-.072.181-5.907.135-6.759s3.509-.5,3.483.194-.838,6.688-.488,6.976.51.621.739,1.816c.115.6.256,1.754.362,2.721,0,0,.206,1.821.213,2.526A3.036,3.036,0,0,1-174.089,604.521Z" fill="#f4b799"/><path d="M-190.8,558s8.933-1.68,12.7,9.134c3.2,9.185,4.7,10.488,4.415,15.282s-1.06,13.328-1.06,13.328l-4.337-.754L-180,577.621a.826.826,0,0,0-.218-.517C-181.886,575.3-193.261,562.726-190.8,558Z" fill="#a0a603"/><path d="M-198.51,659.335a2.37,2.37,0,0,1-1.935,1.631c-2.2.264-12.6-.936-13.139-3.529a4.029,4.029,0,0,1-.084-.606c-.138-2.084,1.642-2.618,3.621-2.406a25.8,25.8,0,0,0,5.366-.265l6.454,1.135A8.144,8.144,0,0,1-198.51,659.335Z" fill="#dc433e"/><path d="M-198.51,659.335a2.37,2.37,0,0,1-1.935,1.631c-2.2.264-12.6-.936-13.139-3.529a4.029,4.029,0,0,1-.084-.606,14,14,0,0,1,1.93,1,18.406,18.406,0,0,0,7.294,1.813,24.474,24.474,0,0,0,4.167-.163A15.012,15.012,0,0,1-198.51,659.335Z" opacity="0.3" style="mix-blend-mode:soft-light;isolation:isolate"/><path d="M-178.645,657.508a2.369,2.369,0,0,1-1.935,1.631c-2.2.264-12.6-.935-13.14-3.529A4,4,0,0,1-193.8,655c-.139-2.084,1.641-2.617,3.621-2.406a25.789,25.789,0,0,0,5.365-.265l6.455,1.135A8.142,8.142,0,0,1-178.645,657.508Z" fill="#dc433e"/><path d="M-178.645,657.508a2.369,2.369,0,0,1-1.935,1.631c-2.2.264-12.6-.935-13.14-3.529A4,4,0,0,1-193.8,655a13.987,13.987,0,0,1,1.929,1,18.409,18.409,0,0,0,7.295,1.812,24.462,24.462,0,0,0,4.166-.162A14.824,14.824,0,0,1-178.645,657.508Z" opacity="0.3" style="mix-blend-mode:soft-light;isolation:isolate"/><path d="M-177.936,653.514-185.6,652.5c.864-5.507-2.505-20.384-4.112-25.85-.689-2.347-2.106-8.762-3.5-15.315-.849-3.98-1.688-8.013-2.347-11.22-.242-1.173-.459-2.232-.646-3.142-.423-2.061-.681-3.34-.681-3.34l13.062,2.547s.15,1.589.406,4.061c.761,7.457,2.437,22.92,3.635,26.9C-178.194,632.447-177.936,653.514-177.936,653.514Z" fill="#002671"/><path d="M-187.582,596.57a37.4,37.4,0,0,1-.568,4.056c-.669,3.5-2.073,8.323-4.9,10.563-.056.045-.111.091-.166.144-3.777,3.436-3.786,18.8-3.786,18.8s.474,21.44-1.165,25.529l-7.06-1.453s-.765-27.2-1.022-30.311c-.215-2.609-.17-17.575.248-23.933a18.572,18.572,0,0,1,.28-2.55l9.512-.44Z" fill="#356fa1"/><path d="M-183.419,600.239c-.672.1-1.347.152-2.022.212-.9.078-1.807.157-2.709.175a14.812,14.812,0,0,1-2.57-.129c-.7-.1-1.378-.265-2.073-.353a15.225,15.225,0,0,0-2.767-.031c-.151.009-.3.021-.451.03-1.5.1-3,.218-4.5.249a15.825,15.825,0,0,1-5.483-.431,18.572,18.572,0,0,1,.28-2.55l9.512-.44c-.423-2.061-.681-3.34-.681-3.34l13.062,2.547S-183.675,597.767-183.419,600.239Z" opacity="0.3" style="mix-blend-mode:soft-light;isolation:isolate"/><path d="M-198.348,552.271l.355,10.628,8.073,1.686s-1.548-11.482.3-16.553Z" fill="#f4b799"/><path d="M-198.27,554.611s5.013-1.53,6.373-4.081c0,0-1.415,4.792-6.346,4.871Z" opacity="0.6" style="mix-blend-mode:soft-light;isolation:isolate"/><path d="M-199.875,533.49s-3.656,6.569-3.132,13.486,4.132,9.179,8.885,7.22,6.16-10.765,4.947-15.125A8.018,8.018,0,0,0-199.875,533.49Z" fill="#f4b799"/><path d="M-239.35,544.894a.556.556,0,0,1,.02-.058.546.546,0,0,1,.25-.386.5.5,0,0,1,.575-.093q.024-.051.051-.1a.606.606,0,0,1,.167-.893.545.545,0,0,1,.617-.1c.035-.028.071-.055.107-.081a.587.587,0,0,1,.26-.715c.427-.335.739-.119,1.086.307h.059c.165.005-.325-.549-1.1-1.842-.784-1.313-1.845-2.755-1.146-3.209.547-.356,1.4.881,2.267,2.242.606.956,1.632,2.565,2.094,3.2.369.5.638,1.2.881,1.307a2.439,2.439,0,0,1,.284-.274c.224-.171.239-.944.418-1.467a2.067,2.067,0,0,1,1.109-1.419c.47-.126.809-.1.5.888-.015.049-.031.1-.05.152v0c-.018.055-.036.111-.053.168s-.027.091-.04.138h0a8.243,8.243,0,0,0-.155,3.476c.212.921.428,1.49-.216,2.287-.212.262,4.115,6.214,4.782,7.059s-2.886,2.773-3.365,2.038-4.37-7.2-4.94-7.241-.977-.268-2.083-1.331C-237.52,548.411-239.626,545.85-239.35,544.894Z" fill="#f4b799"/><path d="M-197.529,557.938l-22.394,1.109-10.234-8.714-3.375,1.962s5.415,10.765,8.665,12.72,23.29,6.725,23.29,6.725Z" fill="#a0a603"/><path d="M-184.253,581.059c-.913,3.742.425,12.34.921,15.242a1.339,1.339,0,0,1-.786,1.458,23.781,23.781,0,0,1-7.795,1.48,82.243,82.243,0,0,1-13.43-.614,1.346,1.346,0,0,1-1.181-1.348c.061-5.559.339-28.9.81-33.721.536-5.48,8.186-5.618,8.186-5.618a21.016,21.016,0,0,1,9.326-.261c2.848.7,4.25,2.205,4.712,3.426C-182.882,562.71-183.145,576.52-184.253,581.059Z" fill="#a0a603"/><path d="M-184.253,581.059c-.913,3.742.425,12.34.921,15.242a1.339,1.339,0,0,1-.786,1.458,23.781,23.781,0,0,1-7.795,1.48,7.906,7.906,0,0,1,1.353-1.787c2.075-2.509,2.238-6.018,2.576-9.253a59.474,59.474,0,0,1,1.25-7.4,54.75,54.75,0,0,0,1.3-6.1,37.763,37.763,0,0,0-.272-8.415,24.163,24.163,0,0,0-1.378-6.689c-.181-.442-.792-1.231-1.12-1.914,2.848.7,4.25,2.205,4.712,3.426C-182.882,562.71-183.145,576.52-184.253,581.059Z" opacity="0.3" style="mix-blend-mode:soft-light;isolation:isolate"/><path d="M-188.022,535.432a3.9,3.9,0,0,1-1.28,5.247c-1.642,1.1-4.572,1.943-9.637.6-9.67-2.554-7.181-10.362-7.181-10.362a24.161,24.161,0,0,0,5.276,2.811s-2.583-1.866-2.561-4.669a19.915,19.915,0,0,0,7.734,3.1C-191.978,532.941-189.217,533.524-188.022,535.432Z" fill="#0e1c4d"/><path d="M-188.022,535.432s6.23,5.359-.426,13.993S-205.225,531.871-188.022,535.432Z" fill="#0e1c4d"/><path d="M-193.72,546.758a1.847,1.847,0,0,1-2.045,1.623,1.846,1.846,0,0,1-1.622-2.045,1.844,1.844,0,0,1,2.044-1.622A1.846,1.846,0,0,1-193.72,546.758Z" fill="#f4b799"/><ellipse cx="16.926" cy="3.761" rx="16.926" ry="3.761" transform="translate(-350.608 649.346)" fill="#e8e8e8"/><path d="M-357.611,611.824s5.57,16.572,19.059,18.692C-338.552,630.516-334.231,607.976-357.611,611.824Z" fill="#369e8b"/><path d="M-335.447,645.29a.106.106,0,0,1-.1-.111c.493-10.905-5.091-19.192-9.862-24.224a47.542,47.542,0,0,0-10.583-8.4.107.107,0,0,1-.043-.144.107.107,0,0,1,.144-.043,47.782,47.782,0,0,1,10.636,8.436c4.8,5.062,10.416,13.4,9.92,24.381A.106.106,0,0,1-335.447,645.29Z" fill="#15234f"/><path d="M-354.215,617.025a.106.106,0,0,1-.1-.085.106.106,0,0,1,.083-.125l3.606-.722a.106.106,0,0,1,.125.084.107.107,0,0,1-.084.125l-3.6.721A.113.113,0,0,1-354.215,617.025Z" fill="#15234f"/><path d="M-347.741,618.591a.107.107,0,0,1-.1-.1l-.11-5.382a.106.106,0,0,1,.1-.108.106.106,0,0,1,.109.1l.11,5.382a.105.105,0,0,1-.1.108Z" fill="#15234f"/><path d="M-349.377,622.692a.106.106,0,0,1-.1-.079.107.107,0,0,1,.075-.13l4.44-1.179a.106.106,0,0,1,.13.075.1.1,0,0,1-.075.13l-4.44,1.179A.117.117,0,0,1-349.377,622.692Z" fill="#15234f"/><path d="M-341.507,625.589h0a.106.106,0,0,1-.1-.113l.327-5.68a.115.115,0,0,1,.112-.1.1.1,0,0,1,.1.112l-.327,5.681A.107.107,0,0,1-341.507,625.589Z" fill="#15234f"/><path d="M-340.191,627.635l-3.6-.163a.106.106,0,0,1-.1-.111.106.106,0,0,1,.111-.1l3.6.163a.1.1,0,0,1,.1.111A.106.106,0,0,1-340.191,627.635Z" fill="#15234f"/><path d="M-309.889,611.294s-7.044,16-20.669,16.9C-330.558,628.189-332.827,605.351-309.889,611.294Z" fill="#369e8b"/><path d="M-334.984,642.622a.106.106,0,0,0,.111-.1c.493-10.9,6.8-18.654,12.008-23.235a47.579,47.579,0,0,1,11.3-7.406.106.106,0,0,0,.056-.139.106.106,0,0,0-.14-.056,47.812,47.812,0,0,0-11.354,7.441c-5.237,4.608-11.584,12.406-12.081,23.385A.106.106,0,0,0-334.984,642.622Z" fill="#15234f"/><path d="M-313.741,616.167a.106.106,0,0,0,.106-.076.106.106,0,0,0-.071-.132l-3.526-1.044a.107.107,0,0,0-.132.072.106.106,0,0,0,.072.132l3.525,1.044A.12.12,0,0,0-313.741,616.167Z" fill="#15234f"/><path d="M-320.33,617.143a.108.108,0,0,0,.111-.1l.6-5.35a.105.105,0,0,0-.094-.117.106.106,0,0,0-.117.093l-.6,5.351a.107.107,0,0,0,.094.117Z" fill="#15234f"/><path d="M-319.071,621.374a.107.107,0,0,0,.105-.07.106.106,0,0,0-.064-.136l-4.315-1.575a.106.106,0,0,0-.136.063.107.107,0,0,0,.063.137l4.315,1.575Z" fill="#15234f"/><path d="M-327.17,623.549h0a.106.106,0,0,0,.11-.1l.186-5.687a.115.115,0,0,0-.1-.11.106.106,0,0,0-.11.1l-.187,5.687A.108.108,0,0,0-327.17,623.549Z" fill="#15234f"/><path d="M-328.666,625.468l3.6.163a.107.107,0,0,0,.111-.1.105.105,0,0,0-.1-.11l-3.6-.163a.1.1,0,0,0-.111.1A.106.106,0,0,0-328.666,625.468Z" fill="#15234f"/><path d="M-342.22,597.125s-6.515,17.865,8.145,28.228C-334.075,625.353-323.781,607.291-342.22,597.125Z" fill="#18c68b"/><path d="M-333.576,645.875h-.007a.107.107,0,0,1-.094-.118c2.551-23.45-7.843-46.954-7.948-47.189a.107.107,0,0,1,.053-.141.107.107,0,0,1,.141.054c.105.235,10.523,23.793,7.965,47.3A.105.105,0,0,1-333.576,645.875Z" fill="#15234f"/><line x1="1.975" y2="5.075" transform="translate(-338.103 602.707)" fill="#18c68b"/><path d="M-338.108,607.889a.13.13,0,0,1-.033-.007.107.107,0,0,1-.061-.138l1.975-5.075a.106.106,0,0,1,.137-.061.107.107,0,0,1,.061.138L-338,607.821A.106.106,0,0,1-338.108,607.889Z" fill="#15234f"/><line x2="5.108" y2="1.245" transform="translate(-342.087 610.881)" fill="#18c68b"/><path d="M-336.983,612.232l-.021,0-5.108-1.245a.106.106,0,0,1-.078-.129.1.1,0,0,1,.128-.077l5.109,1.245a.106.106,0,0,1,.077.128A.106.106,0,0,1-336.983,612.232Z" fill="#15234f"/><line x1="3.186" y2="3.7" transform="translate(-335.482 613.918)" fill="#18c68b"/><path d="M-335.487,617.724a.106.106,0,0,1-.064-.026.105.105,0,0,1-.011-.15l3.186-3.7a.107.107,0,0,1,.15-.012.107.107,0,0,1,.011.15l-3.186,3.7A.107.107,0,0,1-335.487,617.724Z" fill="#15234f"/><path d="M-334.709,621.91a.129.129,0,0,1-.042-.01l-2.838-1.367a.106.106,0,0,1-.05-.142.106.106,0,0,1,.142-.05l2.839,1.367a.105.105,0,0,1,.049.142A.1.1,0,0,1-334.709,621.91Z" fill="#15234f"/><path d="M-339.421,604.08a.1.1,0,0,1-.041-.011l-2.84-1.366a.107.107,0,0,1-.049-.142.106.106,0,0,1,.142-.05l2.839,1.367a.105.105,0,0,1,.049.142A.106.106,0,0,1-339.421,604.08Z" fill="#15234f"/><path d="M-327.757,640.952l-.1.8-.06.457-1.537,11.841h-9.981l-1.537-11.841-.06-.457-.1-.8Z" fill="#ffaf18"/><rect width="16.492" height="4.665" transform="translate(-342.648 637.088)" fill="#ffaf18"/><path d="M-327.861,641.753l-.06.457h-13.054l-.06-.457Z" opacity="0.5" style="mix-blend-mode:soft-light;isolation:isolate"/></g></svg>