<svg xmlns="http://www.w3.org/2000/svg" width="400" height="219.172" viewBox="0 0 400 219.172"><g transform="translate(-180 -4786.828)"><g transform="translate(147.303 4462.544)"><g transform="translate(59.118 324.283)"><rect width="373.579" height="2.625" rx="0.757" transform="translate(0 216.547)" fill="#1a3141"/><g transform="translate(71.603)"><g transform="translate(0 122.021)"><path d="M186.521,489.835s-8.826-50.929-12.4-56.188c-4.932-7.269-11.064,15.034-11.365,13.074-2.824-18.514-2.233-41.863-15.444-45.4-7.51-2.012.5,17.438-.436,22.449s-13.426-12.88-21.12-22.346-12.405-4.243-7.946,7.24c4.313,11.1,19.938,24.117,16.439,25.23s-23.108-14.355-26.064-8.654c-3.623,6.99,26.586,19.328,23.556,20.72s-17.422-5.152-17.422.417,19.885,6.959,19.368,9.367c-.838,3.9-13.329-6.083-14.3-.674-1,5.532,16.958,5.953,16.329,10.28-.36,2.487-4.882-.117-5.7,3.3-1.867,7.794,26.429,18.718,26.429,18.718Z" transform="translate(-97.11 -396.519)" fill="#e5e4be"/><path d="M202.734,471.533c-3.591-4.672-24.8-30.8-37.642-34.971-14.172-4.6-.816,13.681-.816,13.681s-25.14-27.585-34.367-25.1c-8.458,2.279,0,19.378,0,19.378s-9.525-9.47-21.078-9.47c-11.242,0,3.633,29.237,12.532,36.48Z" transform="translate(-99.242 -376.899)" fill="#e2de83"/><g transform="translate(0 26.501)"><path d="M111.979,442.678a6.778,6.778,0,0,0-.24,2.922,5.254,5.254,0,0,0,1.059,2.368,5.633,5.633,0,0,1-2.375-1.654,5.552,5.552,0,0,1-1.407-4.041c.248-1.836,1.769-2.728,2.4-2.191C112.058,440.605,112.075,441.722,111.979,442.678Z" transform="translate(-96.367 -393.102)" fill="#1d3b4c"/><path d="M117.449,444.642a6.814,6.814,0,0,0-.24,2.924,5.233,5.233,0,0,0,1.059,2.367,5.624,5.624,0,0,1-2.373-1.654,5.554,5.554,0,0,1-1.409-4.041c.25-1.834,1.77-2.726,2.4-2.191C117.528,442.57,117.545,443.688,117.449,444.642Z" transform="translate(-92.597 -391.747)" fill="#1d3b4c"/><path d="M123.008,447.128a6.807,6.807,0,0,0-.242,2.924,5.247,5.247,0,0,0,1.061,2.367,5.625,5.625,0,0,1-2.375-1.654,5.552,5.552,0,0,1-1.407-4.041c.248-1.834,1.769-2.726,2.4-2.191C123.087,445.056,123.1,446.174,123.008,447.128Z" transform="translate(-88.766 -390.034)" fill="#1d3b4c"/><path d="M110.261,448.187a6.248,6.248,0,0,1,1.449-2.289,4.814,4.814,0,0,1,2.1-1.152,5.187,5.187,0,0,0-2.669-.11,5.1,5.1,0,0,0-3.285,2.189c-.836,1.492-.213,3,.549,2.956C109.167,449.758,109.8,448.944,110.261,448.187Z" transform="translate(-97.408 -389.95)" fill="#1d3b4c"/><path d="M115.951,450.209a6.247,6.247,0,0,1,1.449-2.289,4.823,4.823,0,0,1,2.1-1.152,5.2,5.2,0,0,0-2.669-.112,5.115,5.115,0,0,0-3.285,2.189c-.836,1.492-.213,3,.549,2.958C114.857,451.78,115.492,450.966,115.951,450.209Z" transform="translate(-93.487 -388.557)" fill="#1d3b4c"/><path d="M106.165,442.488a4.018,4.018,0,0,0,.383,1.7,3.093,3.093,0,0,0,1.019,1.15,3.447,3.447,0,0,1-3.15-2.546c-.184-1.083.517-1.86.968-1.669S106.05,441.931,106.165,442.488Z" transform="translate(-99.523 -392.299)" fill="#1d3b4c"/><path d="M105.286,445.35A4.01,4.01,0,0,1,106.5,444.1a3.092,3.092,0,0,1,1.47-.444,3.343,3.343,0,0,0-1.662-.424,3.283,3.283,0,0,0-2.351.939c-.721.826-.529,1.856-.046,1.931S104.9,445.764,105.286,445.35Z" transform="translate(-100.149 -390.825)" fill="#1d3b4c"/><g transform="translate(17.771 4.343)"><path d="M120.741,424.153c10.272,16.1,17.884,35.412,22.171,54.411h1.106a177.617,177.617,0,0,0-22.487-54.152c-2.383-3.738-4.958-8.171-9.421-9.628-.086-.029-.118.1-.035.133C116.152,416.457,118.511,420.659,120.741,424.153Z" transform="translate(-112.028 -414.779)" fill="#1d3b4c"/></g><g transform="translate(3.755 24.602)"><path d="M146.548,470.3a213.545,213.545,0,0,0-42.536-43.5c-.166-.125-.39.164-.223.292a211.2,211.2,0,0,1,41.651,43.2Z" transform="translate(-103.73 -426.772)" fill="#1d3b4c"/></g><path d="M118.029,415.751a7.332,7.332,0,0,0-1.574,2.745,5.665,5.665,0,0,0-.051,2.8,6.093,6.093,0,0,1-1.561-2.709,5.994,5.994,0,0,1,.476-4.6c1.084-1.677,2.978-1.848,3.345-1.034C119.054,413.764,118.559,414.864,118.029,415.751Z" transform="translate(-92.482 -412.017)" fill="#1d3b4c"/><path d="M116.507,424.337a7.277,7.277,0,0,1,2.7-1.633A5.639,5.639,0,0,1,122,422.6a6.075,6.075,0,0,0-2.731-1.512,5.943,5.943,0,0,0-4.569.568c-1.65,1.122-1.782,3.024-.965,3.377C114.547,425.406,115.632,424.887,116.507,424.337Z" transform="translate(-93.417 -406.232)" fill="#1d3b4c"/><path d="M118.7,428.065a7.291,7.291,0,0,1,2.7-1.633,5.6,5.6,0,0,1,2.789-.1,6.069,6.069,0,0,0-2.73-1.513,5.939,5.939,0,0,0-4.571.569c-1.65,1.12-1.782,3.024-.965,3.375C116.742,429.134,117.828,428.615,118.7,428.065Z" transform="translate(-91.904 -403.663)" fill="#1d3b4c"/><path d="M110.871,436.711a7.316,7.316,0,0,1,2.7-1.632,5.592,5.592,0,0,1,2.789-.106,6.057,6.057,0,0,0-2.731-1.512,5.943,5.943,0,0,0-4.569.568c-1.65,1.12-1.782,3.024-.965,3.377C108.911,437.78,110,437.263,110.871,436.711Z" transform="translate(-97.302 -397.703)" fill="#1d3b4c"/><path d="M106.87,433.176a7.292,7.292,0,0,1,2.7-1.633,5.636,5.636,0,0,1,2.789-.106,6.075,6.075,0,0,0-2.73-1.512,5.947,5.947,0,0,0-4.571.568c-1.65,1.122-1.782,3.024-.965,3.377C104.91,434.245,106,433.726,106.87,433.176Z" transform="translate(-100.059 -400.141)" fill="#1d3b4c"/><path d="M121.187,419.983a7.325,7.325,0,0,0-1.985,2.461,5.664,5.664,0,0,0-.49,2.758,6.126,6.126,0,0,1-1.115-2.924,5.993,5.993,0,0,1,1.193-4.463c1.333-1.485,3.23-1.353,3.465-.492C122.515,418.184,121.852,419.19,121.187,419.983Z" transform="translate(-90.452 -409.122)" fill="#1d3b4c"/><path d="M124.945,424.467a6.373,6.373,0,0,0-2.868,1.89,4.889,4.889,0,0,0-.968,2.868,8.109,8.109,0,0,1-1.091-3.745c-.113-1.973,1.056-4.078,2.084-4.466,1.907-1.083,4.346-.118,4.547.946C126.879,423.032,125.9,423.869,124.945,424.467Z" transform="translate(-88.755 -406.464)" fill="#1d3b4c"/><path d="M128.419,430.94a6.349,6.349,0,0,0-3.145,1.38,4.885,4.885,0,0,0-1.434,2.662,8.115,8.115,0,0,1-.448-3.875c.22-1.965,1.723-3.841,2.8-4.051,2.061-.745,4.3.618,4.323,1.7C130.566,429.851,129.461,430.511,128.419,430.94Z" transform="translate(-86.49 -402.12)" fill="#1d3b4c"/><path d="M117.9,435.012a5.209,5.209,0,0,0-2.226,1.7,4,4,0,0,0-.625,2.387,6.617,6.617,0,0,1-1.1-2.983c-.2-1.6.627-3.377,1.443-3.752,1.488-.99,3.527-.345,3.752.508C119.391,433.733,118.643,434.472,117.9,435.012Z" transform="translate(-92.954 -398.658)" fill="#1d3b4c"/><path d="M111.832,416.779a4.359,4.359,0,0,1,1.529-1.086,3.336,3.336,0,0,1,1.645-.184,3.607,3.607,0,0,0-1.681-.775,3.532,3.532,0,0,0-2.679.537c-.927.735-.922,1.867-.424,2.041S111.341,417.142,111.832,416.779Z" transform="translate(-95.731 -410.511)" fill="#1d3b4c"/><path d="M113.044,413.877a4.369,4.369,0,0,0,.076,1.878,3.371,3.371,0,0,0,.858,1.421,3.616,3.616,0,0,1-1.639-.865,3.556,3.556,0,0,1-1.211-2.456c.015-1.186.91-1.873,1.351-1.581S113.03,413.264,113.044,413.877Z" transform="translate(-94.882 -412.207)" fill="#1d3b4c"/><path d="M103.451,429.021a4.341,4.341,0,0,1,1.529-1.084,3.347,3.347,0,0,1,1.645-.186,3.6,3.6,0,0,0-1.682-.774,3.52,3.52,0,0,0-2.677.537c-.927.735-.922,1.867-.424,2.039C102.338,429.741,102.958,429.386,103.451,429.021Z" transform="translate(-101.507 -402.072)" fill="#1d3b4c"/><path d="M104.916,426.122a4.369,4.369,0,0,0-.078,1.878,3.376,3.376,0,0,0,.74,1.486,3.616,3.616,0,0,1-1.562-1,3.559,3.559,0,0,1-1.007-2.547c.111-1.181,1.061-1.792,1.476-1.465S104.952,425.509,104.916,426.122Z" transform="translate(-100.487 -403.81)" fill="#1d3b4c"/><path d="M105.174,443.436a53.373,53.373,0,0,1,8.762,1.569,105.362,105.362,0,0,1,15.252,5.576c2.441,1.064,4.9,2.113,7.291,3.28a26.049,26.049,0,0,1,3.275,1.791,36.387,36.387,0,0,1,3.823,3.127l-1.14.034a37.8,37.8,0,0,0-7.606-4.961c-9.4-4.53-19.172-9.176-29.662-10.329A.043.043,0,0,1,105.174,443.436Z" transform="translate(-99.01 -390.685)" fill="#1d3b4c"/></g></g><path d="M237.752,493.888c2.784-2.385,4.468-4.916,4.037-7.432-.77-4.49-7.144-1.6-7.385-4.846-.422-5.64,23.024-4.253,22.22-11.485-.787-7.071-17.784,4.427-18.532-.682-.463-3.155,29.044-7.237,27.025-14.142-2.318-7.921-19.465,3.846-23.427,1.738s28.973-15.9,24.762-25.277c-3.436-7.65-22.345,11.267-26.965,9.47s18.759-14.382,24.725-30.8c5.475-15.063-.35-25.542-11.159-10.708-9.47,13-28.879,33.713-29.645,27.161s21.2-27.625,7.041-27.625c-18.5,0-25.139,31.99-30.787,55.553-.6,2.495-6.693-26.879-14.081-18.025-3.8,4.556,3.248,38.093,7.642,57.107Z" transform="translate(-44.314 -277.233)" fill="#e5e4be"/><path d="M245.751,325.035h0l-.027-.01c-.252-.091-.51-.172-.769-.247-.09-.025-.177-.052-.267-.076s-.189-.047-.284-.069-.193-.047-.289-.068-.184-.037-.277-.056l-.311-.056c-.09-.013-.177-.029-.267-.041-.113-.017-.226-.03-.34-.044l-.248-.027c-.13-.012-.26-.022-.392-.03-.069,0-.137-.01-.206-.013-.2-.01-.4-.015-.606-.015H148.134c-.216,0-.432.005-.647.017a12.482,12.482,0,0,0-1.269.128c-.209.032-.416.069-.62.111a12.62,12.62,0,0,0-9.985,11.081q-.063.636-.064,1.291v191.4a12.629,12.629,0,0,0,8.3,11.877h0l.064.022c.24.086.485.164.731.235.088.025.177.052.267.076s.189.047.284.069.193.047.289.068.184.037.277.056l.311.056c.09.014.177.029.267.041.113.017.226.03.34.044l.248.027c.13.012.26.022.392.03.069,0,.137.01.206.013.2.01.4.015.606.015h93.335a12.438,12.438,0,0,0,1.285-.066A12.61,12.61,0,0,0,253.989,529.6q.063-.636.064-1.291v-191.4A12.629,12.629,0,0,0,245.751,325.035Z" transform="translate(-78.045 -324.283)" fill="#1d3b4c"/><g transform="translate(63.604 17.212)"><rect width="106.665" height="182.232" fill="#f7f7f7"/></g><rect width="45.488" height="2.283" rx="0.068" transform="translate(94.098 9.201)" fill="#fff"/><rect width="106.303" height="7.646" transform="translate(63.604 191.797)" fill="#ff7c48" opacity="0.2"/><rect width="106.665" height="9.671" transform="translate(63.604 17.212)" fill="#3cb4c5" opacity="0.2"/><g transform="translate(69.826 70.138)"><circle cx="36.056" cy="36.056" r="36.056" transform="translate(0 66.623) rotate(-67.5)" fill="#a0a603"/><g transform="translate(22.731 27.05)"><path d="M156.379,387.721l7.3,22.135a2.476,2.476,0,0,0,2.267,1.478h24.37a2.475,2.475,0,0,0,2.424-1.976l1.72-21.819a.9.9,0,0,0-.885-1.086H157.206A.9.9,0,0,0,156.379,387.721Zm30.379,2.458a1.754,1.754,0,0,1,3.508,0v17.427a1.754,1.754,0,1,1-3.508,0Zm-7.454,0a1.754,1.754,0,0,1,3.508,0l.564,17.427a1.754,1.754,0,1,1-3.508,0Zm-8.081,0a1.754,1.754,0,0,1,3.508,0l1.753,17.427a1.753,1.753,0,1,1-3.507,0Zm-9.335,0a1.754,1.754,0,0,1,3.508,0l4.2,17.427a1.754,1.754,0,1,1-3.508,0Z" transform="translate(-156.301 -378.624)" fill="#f7f7f7"/><g transform="translate(5.448)"><path d="M159.526,416.97a1.316,1.316,0,0,0,1.316,1.316h28.792a4.342,4.342,0,0,0,4.22-3.4l3.478-29.027a1.714,1.714,0,0,1,1.777-1.345l2.331.14a1.316,1.316,0,0,0,1.394-1.233h0a1.316,1.316,0,0,0-1.235-1.394l-3.471-.208A3.012,3.012,0,0,0,195,384.185l-3.72,30.142a1.7,1.7,0,0,1-1.65,1.328H160.842a1.316,1.316,0,0,0-1.316,1.316Z" transform="translate(-159.526 -381.818)" fill="#f7f7f7"/></g><circle cx="3.848" cy="3.848" r="3.848" transform="translate(7.565 36.844)" fill="#f7f7f7"/><circle cx="3.848" cy="3.848" r="3.848" transform="translate(28.738 36.844)" fill="#f7f7f7"/></g></g><g transform="translate(40.434 17.212)"><path d="M0,0H17a0,0,0,0,1,0,0V8.027A4.605,4.605,0,0,1,12.4,12.632H4.605A4.605,4.605,0,0,1,0,8.027V0A0,0,0,0,1,0,0Z" transform="translate(85.024 18.354)" fill="#4bbcbf"/><path d="M0,0H17a0,0,0,0,1,0,0V8.027A4.605,4.605,0,0,1,12.4,12.632H4.605A4.605,4.605,0,0,1,0,8.027V0A0,0,0,0,1,0,0Z" transform="translate(68.019 18.354)" fill="#7f7f09"/><path d="M0,0H17a0,0,0,0,1,0,0V8.027A4.605,4.605,0,0,1,12.4,12.632H4.605A4.605,4.605,0,0,1,0,8.027V0A0,0,0,0,1,0,0Z" transform="translate(51.015 18.354)" fill="#4bbcbf"/><path d="M0,0H17a0,0,0,0,1,0,0V8.027A4.605,4.605,0,0,1,12.4,12.632H4.605A4.605,4.605,0,0,1,0,8.027V0A0,0,0,0,1,0,0Z" transform="translate(34.01 18.354)" fill="#7f7f09"/><path d="M0,0H17a0,0,0,0,1,0,0V8.027A4.605,4.605,0,0,1,12.4,12.632H4.605A4.605,4.605,0,0,1,0,8.027V0A0,0,0,0,1,0,0Z" transform="translate(17.005 18.354)" fill="#4bbcbf"/><path d="M0,0H17a0,0,0,0,1,0,0V8.027A4.605,4.605,0,0,1,12.4,12.632H4.605A4.605,4.605,0,0,1,0,8.027V0A0,0,0,0,1,0,0Z" transform="translate(136 18.354)" fill="#7f7f09"/><path d="M0,0H17a0,0,0,0,1,0,0V8.027A4.605,4.605,0,0,1,12.4,12.632H4.605A4.605,4.605,0,0,1,0,8.027V0A0,0,0,0,1,0,0Z" transform="translate(118.995 18.354)" fill="#4bbcbf"/><path d="M0,0H17a0,0,0,0,1,0,0V8.027A4.605,4.605,0,0,1,12.4,12.632H4.605A4.605,4.605,0,0,1,0,8.027V0A0,0,0,0,1,0,0Z" transform="translate(102.029 18.354)" fill="#7f7f09"/><path d="M0,0H17a0,0,0,0,1,0,0V8.027A4.605,4.605,0,0,1,12.4,12.632H4.605A4.605,4.605,0,0,1,0,8.027V0A0,0,0,0,1,0,0Z" transform="translate(0 18.354)" fill="#7f7f09"/><path d="M180.259,334.472h-12.09l-2.457,18.354h17Z" transform="translate(-97.692 -334.472)" fill="#a0a603"/><path d="M175.106,334.472h-12.09l-7.372,18.354h17Z" transform="translate(-104.63 -334.472)" fill="#56ced7"/><path d="M169.954,334.472h-12.09l-12.287,18.354h17Z" transform="translate(-111.568 -334.472)" fill="#a0a603"/><path d="M164.8,334.472h-12.09l-17.2,18.354h17Z" transform="translate(-118.506 -334.472)" fill="#56ced7"/><path d="M159.65,334.472H147.56l-22.116,18.354h17Z" transform="translate(-125.444 -334.472)" fill="#a0a603"/><path d="M207.838,334.472h-12.09l17.242,18.354h17Z" transform="translate(-76.99 -334.472)" fill="#a0a603"/><path d="M200.716,334.472h-12.09l12.267,18.354h17Z" transform="translate(-81.899 -334.472)" fill="#56ced7"/><path d="M193.559,334.472h-12.09l7.392,18.354h17Z" transform="translate(-86.832 -334.472)" fill="#a0a603"/><path d="M186.4,334.472h-12.09l2.477,18.354h17Z" transform="translate(-91.765 -334.472)" fill="#56ced7"/></g></g><g transform="translate(21.866 46.227)"><path d="M79.851,442.354s-.833,5.818-2.269,7.7a14.772,14.772,0,0,0-1.937,2.564c-.9,1.774-.4,4.412.26,5.867.341.745-.024.743.752.983a4.751,4.751,0,0,0,5.713-2.7,13.77,13.77,0,0,0,1.12-4.956c.247-5.282,1.878-7.968,1.878-7.968Z" transform="translate(-69.93 -289.136)" fill="#f7a491"/><path d="M93.182,443.929s.515,6.561.1,8.693c-.225,1.142-1.47,3.492-.9,4.566a2.874,2.874,0,0,0,1.225,1.343l14.816.24c.807.013.274-.51-.377-.992a29.849,29.849,0,0,0-5.326-2.963c-.223-.108-1.03-.625-1.323-.8a10.26,10.26,0,0,1-2.118-1.882c-1.064-1.191-1.157-6.968-1.157-6.968Z" transform="translate(-58.161 -288.051)" fill="#f7a491"/><path d="M105.425,392.981s1.865,10.65.64,17.634-7.1,71.7-7.1,71.7l-6.534.37s-1.37-27.036-1.125-30.8a58.573,58.573,0,0,1,2.184-10.051l-.65-21.83,8.245-28.676Z" transform="translate(-58.823 -324.297)" fill="#a09490"/><path d="M95.745,391.97s-5.145,7.789-6.37,14.233.9,26.253-1.458,34.7c-1.275,4.573-6.11,11.634-6.845,17.542s-3.618,21.384-3.618,21.384l6.53,1.3,15.179-38.651,11.905-34.934,3.051-17.993Z" transform="translate(-68.347 -325.526)" fill="#b5a8a3"/><path d="M83.019,451.425a7.278,7.278,0,0,1-7.159-3.008c-.905,1.775-1.346,4.426-.681,5.885.586,1.284,2.3,1.247,3.647,1.3a3.519,3.519,0,0,0,3.236-1.992A11.908,11.908,0,0,0,83.019,451.425Z" transform="translate(-70.135 -284.957)" fill="#56ced7"/><path d="M101.409,450.035a13.343,13.343,0,0,1-8.434-.334c-.419,1.191-.973,2.686-.679,3.547.36,1.054.872,1.294,1.324,1.306,3.579.095,13.112.223,15.84.258a.448.448,0,0,0,.346-.737C109.13,453.261,101.7,450.214,101.409,450.035Z" transform="translate(-58.175 -284.073)" fill="#56ced7"/><path d="M116.123,367.164c.735-3.341,1.454-6.7-.483-10.372a9.422,9.422,0,0,0-7.414-5.051c-8.887-1.054-6.988,7.243-19.409,9.039-3.858.557-7.444,1.095-10.667,3.014-5.818,3.466-8.014,9.025-4.155,18.083,9.449,22.179,32.058,2.907,35.507-1.017C112.923,376.968,115.65,369.314,116.123,367.164Z" transform="translate(-72.063 -351.649)" fill="#1d3b4c"/><path d="M93.041,367.075s-4.488.51-7.172,3.429,4.34,26.389,4.828,30.1-4.667,14-4.667,14,17.522,3.483,22.078.475c0,0,.4-28.72-.088-31.375s-4.556-13.448-5.532-14.51S93.041,367.075,93.041,367.075Z" transform="translate(-62.968 -341.018)" fill="#529ad9"/><path d="M92.219,361.78s-.035.2-.1.539c-.3,1.628-1.468,7.029-2.255,8.514-.951,1.794,3.255,7.515,7.3,6.818,1.206-.208-1.019-5.258-.91-5.792.2-1.024.481-2.421.765-3.853.16-.809.323-1.628.475-2.4.432-2.189.787-3.978.787-3.978Z" transform="translate(-59.887 -344.771)" fill="#f7a491"/><path d="M91.22,362.319c.063-.339.1-.539.1-.539l6.068-.15s-.355,1.789-.787,3.978c-.152.765-.313,1.579-.471,2.383a5.7,5.7,0,0,1-2.9-1.449,7.635,7.635,0,0,1-2.194-3.257C91.11,362.9,91.173,362.573,91.22,362.319Z" transform="translate(-58.986 -344.771)" fill="#f47458" opacity="0.5"/><path d="M95.919,353.184a7.157,7.157,0,0,0-4.267,2.657c-1.792,2.313-3.725,9.468.728,13.358s8.853-.514,9.505-5.182S102.408,353.015,95.919,353.184Z" transform="translate(-59.939 -350.594)" fill="#f7a491"/><path d="M98.637,359.9c-.28,1.125-1.019,1.887-1.647,1.7s-.91-1.252-.63-2.377,1.019-1.887,1.647-1.7S98.918,358.771,98.637,359.9Z" transform="translate(-55.391 -347.625)" fill="#f7a491"/><path d="M99.739,353.244s-5.814,6.676-8.547,6.99-3.093,3.929-3.093,3.929.978-8.331,3.684-9.937S99.739,353.244,99.739,353.244Z" transform="translate(-61.01 -350.633)" fill="#1d3b4c"/><path d="M91.626,359.077c.221,1.208-.225,2.316-1,2.475s-1.581-.693-1.8-1.9.225-2.318,1-2.476S91.4,357.867,91.626,359.077Z" transform="translate(-60.55 -347.854)" fill="#f7a491"/><rect width="27.402" height="21.057" rx="0.612" transform="translate(26.003 72.067) rotate(-81.677)" fill="#1d3b4c"/><path d="M102.123,379.637a.21.21,0,0,0-.177-.236l-7.838-1.147a.21.21,0,0,0-.238.177l-.118.814L102,380.453Z" transform="translate(-57.115 -333.315)" fill="#f7f7f7"/><path d="M96.952,378.011a1.25,1.25,0,1,0,1.054,1.417A1.249,1.249,0,0,0,96.952,378.011Zm-.3,2.029a.8.8,0,1,1,.909-.676A.8.8,0,0,1,96.654,380.04Z" transform="translate(-55.895 -333.49)" fill="#f7f7f7"/><path d="M102.028,379.022a.215.215,0,0,1,.1.209l-.12.816-8.252-1.208a1.033,1.033,0,0,0,.872,1.172l6.208.907a1.032,1.032,0,0,0,1.172-.872l.12-.816A.215.215,0,0,0,102.028,379.022Z" transform="translate(-57.12 -332.91)" fill="#dff7f6"/><path d="M96.972,360.976l-4.228-.024a1.85,1.85,0,0,0,1.948,1.671C96.959,362.7,96.972,360.976,96.972,360.976Z" transform="translate(-57.809 -345.238)" fill="#fff"/><path d="M82.619,382.145l6.807.7s-.111,5.779.007,6.443c0,0,11.642,3.228,16.507,4.1,0,0,2.216-1.255,3.113-1.655a21.728,21.728,0,0,1,3.838-.9c.532-.069.351.513-.106.718a4.44,4.44,0,0,0-1.978,1.444,3.7,3.7,0,0,0,1.47-.122c.508-.226,1.209-.706,1.221-.954s.127-.848.292-.816c.044.008.1.2.157.41s.111.4.159.593c.086.355.184.873.223,1.1a16.2,16.2,0,0,1-.284,2.515c-.083.949-.355,1.37-.855,1.611a12.407,12.407,0,0,1-2.927.593,19.7,19.7,0,0,1-5.372-.532c-.929-.1-15.753-1.574-15.753-1.574s-5.894-.848-6.285-1.863S82.619,382.145,82.619,382.145Z" transform="translate(-64.809 -330.632)" fill="#f7a491"/><path d="M88.7,368.643s-2.149,1.019-4.037,5.421c-1.8,4.181-2.323,25.052-2.323,25.052l7.122-1.187,3.618-9.732a17.846,17.846,0,0,0-1.845-17.748C90.236,369.077,89.312,368.248,88.7,368.643Z" transform="translate(-64.978 -340.005)" fill="#529ad9"/></g><g transform="translate(263.647 81.192)"><rect width="1.618" height="37.068" transform="matrix(-0.983, 0.186, -0.186, -0.983, 80.257, 135.583)" fill="#1d3b4c"/><path d="M218.965,467.84h-1.912l7.124-36.893,1.589.3Z" transform="translate(-213.917 -331.963)" fill="#1d3b4c"/><path d="M252,467.84h-1.912l7.124-36.893,1.589.3Z" transform="translate(-191.146 -331.963)" fill="#1d3b4c"/><path d="M231.3,467.772l1.552.018-6.83-36.746-1.589.3Z" transform="translate(-208.832 -331.895)" fill="#1d3b4c"/><path d="M265.172,383.7c8.487.909,19.468,1.868,30.492,20.576,12.049,20.448,5.706,50.99-3.8,59.477s-40.569,18.968-66.679,3.279c0,0-15.765-9.507-7.674-25.287,12.451-24.282,10.693-29.346,16.259-38.862S247.16,381.773,265.172,383.7Z" transform="translate(-215.197 -364.67)" fill="#dcebf8"/><path d="M293.574,403.6c-7.524-12.769-15.029-17.269-21.733-19.128a56.186,56.186,0,0,1,7.855,10.6c12.049,20.446,5.706,50.99-3.8,59.477-8.434,7.527-33.814,16.617-57.662,7.637a24.218,24.218,0,0,0,4.861,4.167c26.11,15.689,57.171,5.21,66.679-3.279S305.623,424.048,293.574,403.6Z" transform="translate(-213.107 -363.993)" fill="#bfd7e8"/><path d="M229.544,402.014l-2.181,6.543,6.647-2.614Z" transform="translate(-206.812 -351.903)" fill="#f79c8d"/><path d="M236.389,390.487c-.444.017-1.657.422-3.434,3.767-2.267,4.27-5.581,17.172-5.581,17.172l9.892,3.672,1.272-2.693,2.093-20.733S236.511,390.482,236.389,390.487Z" transform="translate(-206.804 -359.847)" fill="#7f7f09"/><path d="M246.043,389.386a60.633,60.633,0,0,0-13.076,1.86s-2.387,20.443,2.149,35.977c1.015,3.476-.84,14.414-.84,14.414l29.313-.385s-3.473-26.441-2.164-30.711,1.338-19.156,1.338-19.156-.2-.032-6.585-1.132A66.392,66.392,0,0,0,246.043,389.386Z" transform="translate(-203.382 -360.606)" fill="#a0a603"/><path d="M243.933,443.2s-.649,7.458-1.84,9.524.063,5.578.125,6.059,2.51,1.171,6.4.758,3.828-1.309,3.515-2.755-2.385-3.3-2.51-4.682,1.191-6.335,1.191-6.335Z" transform="translate(-197.013 -323.52)" fill="#f7a491"/><path d="M246.285,416.86s-20.235-1.118-24.754,1.608.816,8.328.816,8.328,16.475,7.139,44.053,8.725c6.53.375,7.095-16.971,5.873-18.407S246.285,416.86,246.285,416.86Z" transform="translate(-212.083 -341.987)" fill="#1a3141"/><path d="M249.275,456.049c4.007-.426,3.512-2.388,3.189-3.877-.2-.932-1.351-2.032-2.037-3.071a6.711,6.711,0,0,1-2.681,1.3c-1.807.53-4.284-.522-5.862-1.181a19.225,19.225,0,0,0-.535,5.15C241.414,454.866,245.27,456.473,249.275,456.049Z" transform="translate(-197.185 -319.451)" fill="#3f3e3d"/><path d="M246.189,431.2c-.807,6.1-4.811,36.448-4.811,36.448l9.287,1.147s11.422-39.615,10.836-45.674-4.862-6.568-4.862-6.568S248.329,415.066,246.189,431.2Z" transform="translate(-197.152 -341.904)" fill="#1d3b4c"/><path d="M264.432,391.927c-2.74-1.025-4.081,23.586-4.451,33.715a119.452,119.452,0,0,1-15.419-.154c-.99-.074-3.275-.907-4.26-1.035a9.9,9.9,0,0,0-2.421-.115,45.757,45.757,0,0,0-5.674,2.546c-.537.561-1.988,1.975-1.743,2.586s2.791-1.7,2.791-1.7l1.245-.694c-1.549,1.507-4.5,3.493-4.078,4.216.416.7,3.079-1.311,4.978-2.684-1.628,1.466-3.652,4.091-3.186,4.5.419.368,2.721-2.671,5.181-3.546.912-.324,1.821.574,2.537.682a5.162,5.162,0,0,0,1.858.1l2.664-.753c.907.083.931.618,1.846.813,1.064.225,2.809.463,4.164.792,7.8,1.9,10.4,2.782,12.792,2.78C270.491,433.969,270.91,394.347,264.432,391.927Z" transform="translate(-204.732 -358.877)" fill="#f7a491"/><path d="M258.155,415.97c.512-10.377.438-23.166-5.4-25.348-2.3-.86-6.363,4.316-5.633,25.559A44.055,44.055,0,0,0,258.155,415.97Z" transform="translate(-193.252 -359.815)" fill="#a0a603"/><path d="M230.331,446.557s.811,2.589-.64,4.3-7.481,3.392-8.272,4.319a2.589,2.589,0,0,0-.731,1.718l16.924-.464-.186-5.093-.779-3.66Z" transform="translate(-211.413 -321.204)" fill="#f7a491"/><path d="M229.7,449.767s4.348,1.753,6.449.716,2.037-1.326,2.645-.939.824,5.591.824,5.591l-19.031.128c-1.324-.03-1.993-1-.917-1.834a15.49,15.49,0,0,1,2.074-1.23C223.24,451.35,229.7,449.767,229.7,449.767Z" transform="translate(-212.479 -319.259)" fill="#3f3e3d"/><path d="M232.855,421.471c-1.307-2.743-4.282-6.314-9.517-4.164-4.993,2.052-6.333,7.095-4.757,12.259s11.944,35.517,12.306,39.691l8.279.054s-1.505-24.034-1.873-29.845A56.1,56.1,0,0,0,232.855,421.471Z" transform="translate(-213.295 -341.817)" fill="#1d3b4c"/><path d="M219.556,402.953h27.676a1.806,1.806,0,0,1,1.671,1.12l8.522,20.784h15.257a.771.771,0,0,1,.772.772h0a.772.772,0,0,1-.772.772H229.255a3.033,3.033,0,0,1-2.765-1.791L217.911,405.5A1.8,1.8,0,0,1,219.556,402.953Z" transform="translate(-213.437 -351.256)" fill="#b5a8a3"/><path d="M227.656,410.938a1.523,1.523,0,1,0,1.142-1.987A1.629,1.629,0,0,0,227.656,410.938Z" transform="translate(-206.636 -347.139)" fill="#fff"/><path d="M245.691,384.414l1.355,8.926s-4.946,10.627-7.9,9.7c-2.478-.774-.954-10.176-.954-10.176s1.351-5.051.946-7.576S245.691,384.414,245.691,384.414Z" transform="translate(-199.666 -364.397)" fill="#f7a491"/><path d="M238.635,385.292c-.405-2.527,6.551-.878,6.551-.878l.113.74a4.146,4.146,0,0,1-.755,1.245,9.156,9.156,0,0,1-6.081,2.752A13.817,13.817,0,0,0,238.635,385.292Z" transform="translate(-199.161 -364.397)" fill="#f47458" opacity="0.2"/><g transform="translate(35.288)"><path d="M247.966,377.86c.2-.071,1.576,10.166-1.042,12.982s-7.716,3.738-9.546,1.52c-2.024-2.453-1.922-13.456,2.147-16.353S247.966,377.86,247.966,377.86Z" transform="translate(-236.087 -370.471)" fill="#f7a491"/><path d="M240.482,372.412a11.292,11.292,0,0,1,5.931,3.382c1.427.169,3.37.958,5.373,4.277a8.3,8.3,0,0,1-2.225,10.821,6.469,6.469,0,0,0-2.829,4.78l-.453-1.324a7.429,7.429,0,0,1-.36-3.123,6.109,6.109,0,0,1,.465-1.877c.689-1.481-1.483-2.466-2.091-3.7-.47-.949-.492-3.12-1.231-4.689l-.882-1.2s-2.037-1.585-4.029-1.137S236.445,371.588,240.482,372.412Z" transform="translate(-235.494 -372.348)" fill="#1d3b4c"/><path d="M241.375,382.214c-.02,1.25.547,2.272,1.269,2.284s1.323-.99,1.343-2.238-.547-2.272-1.269-2.284S241.4,380.966,241.375,382.214Z" transform="translate(-232.443 -367.092)" fill="#f7a491"/></g><path d="M240.893,383.434l-3.946-.2a1.728,1.728,0,0,0,1.747,1.644C240.805,385.044,240.893,383.434,240.893,383.434Z" transform="translate(-200.206 -364.849)" fill="#fff"/></g></g></g><rect width="400" height="219" transform="translate(180 4787)" fill="none"/></g></svg>