<svg xmlns="http://www.w3.org/2000/svg" width="294" height="199" viewBox="0 0 294 199"><g transform="translate(410.966 -985.291)"><path d="M0,0H294V199H0Z" transform="translate(-410.966 985.291)" fill="none"/><path d="M-363.492,1155.047s-18.522-7.7-20.6-16,14.761-5.491,27.627,11.407c0,0-19.006-31.869-7.178-34.179s18.24,31.127,18.24,31.127,3.342-16.442,11.071-15.637,3.243,13.472-9.518,23.281Z" fill="#ecedcc"/><path d="M-350.379,1153.746a96.113,96.113,0,0,0-13.736-36.479" fill="#ecedcc"/><path d="M-356.462,1153.26s-16.85-8.168-24.439-18.1" fill="#ecedcc"/><path d="M-334.329,1133.957s-5.726,16.7-14.057,19.3" fill="#ecedcc"/><path d="M-280.684,1149.393s-26.378,1.949-40.832-.921c-8.358-1.659-12.013-7.063-1.033-9.224,5.532-1.09,16.071-9.979-5.472-12.742-18.791-2.409-20.774-16.118-4.1-15.84,3.918.065-1.485-2.472-6.264-11.34-3.677-6.822-3.044-17.607,3.169-20.681,13.1-6.479,12.75,18.119,18.1,19.272,5.136,1.107,7.112-12.747,14.259-11.035,9.335,2.237-5.812,28.524-3.952,30.871,3.967,5.006,11.377-19.777,18.334-17.784S-303.286,1143.263-280.684,1149.393Z" fill="#ecedcc"/><path d="M-287.273,1148.253c-14.331-5.728-12.372-16.342-29-30.327-13.75-11.562-17.381-24.669-16.272-39.677" fill="#ecedcc"/><path d="M-249.946,1148.555s18.522-7.7,20.6-16-13.79-7.377-26.656,9.522c0,0,19.227-28.654,7.4-30.965s-19.433,29.8-19.433,29.8-3.342-16.442-11.071-15.636-3.244,13.471,9.518,23.28Z" fill="#ecedcc"/><path d="M-263.059,1147.254s3.153-20.083,14.928-35.15" fill="#ecedcc"/><path d="M-256.976,1146.769s15.215-13.828,24.439-16.377" fill="#ecedcc"/><path d="M-279.109,1127.466s5.726,16.7,14.057,19.3" fill="#ecedcc"/><path d="M-207.339,1145.709s26.378,1.948,40.832-.921c8.358-1.66,12.013-7.063,1.033-9.225-5.532-1.089-14.795-4.932,5.472-12.741,16.929-6.522,19.182-17.623,3.041-13.413-8.365,2.181,2.54-4.9,7.319-13.767,3.677-6.822,3.044-17.608-3.169-20.681-13.1-6.48-15.456,22.782-20.8,23.935-5.135,1.107.728-18.979-8.5-16.328s3.4,25.624.9,31.5-4.123-20.158-11.079-18.165S-184.737,1139.579-207.339,1145.709Z" fill="#ecedcc"/><path d="M-200.75,1144.569c14.331-5.728,12.372-16.342,29-30.327,13.75-11.562,18.693-21.521,17.584-36.529" fill="#ecedcc"/><ellipse cx="25.573" cy="4.434" rx="25.573" ry="4.434" transform="translate(-374.701 1162.305)" fill="#e8e8e8"/><ellipse cx="25.573" cy="4.434" rx="25.573" ry="4.434" transform="translate(-208.444 1162.305)" fill="#e8e8e8"/><rect width="3.382" height="61.97" transform="translate(-264.687 1104.769)" fill="#1a2e35"/><path d="M-287.475,1166.739l23.592-22.688,1.691,1.512-21.977,21.176Z" fill="#1a2e35"/><path d="M-238.637,1166.689l-23.541-22.638-1.691,1.512,21.977,21.176Z" fill="#1a2e35"/><rect width="152.287" height="111.002" transform="translate(-338.688 1004.308)" fill="#fff"/><path d="M-186.4,1115.31c0-.743-.036-43.7-.09-111l.09.09-152.274.02h-.013l.11-.11c0,39.817-.007,77.566-.01,111l-.1-.1,152.287.1-152.287.1h-.1v-.1c0-33.436-.007-71.185-.011-111v-.111h.124l152.274.021h.09v.09C-186.366,1071.611-186.4,1114.568-186.4,1115.31Z" fill="#1a2e35"/><path d="M-319.231,1015.893h-1.288v-.335h2.963v.335h-1.288v3.33h-.387Z" fill="#1a2e35"/><path d="M-317.313,1017.391a1.845,1.845,0,0,1,1.927-1.865,1.843,1.843,0,0,1,1.921,1.865,1.842,1.842,0,0,1-1.921,1.863A1.844,1.844,0,0,1-317.313,1017.391Zm3.461,0a1.485,1.485,0,0,0-1.534-1.519,1.491,1.491,0,0,0-1.545,1.519,1.491,1.491,0,0,0,1.545,1.518A1.485,1.485,0,0,0-313.852,1017.391Z" fill="#1a2e35"/><path d="M-311.221,1015.558h1.492a1.811,1.811,0,0,1,1.964,1.833,1.81,1.81,0,0,1-1.964,1.832h-1.492Zm1.471,3.33a1.47,1.47,0,0,0,1.6-1.5,1.47,1.47,0,0,0-1.6-1.5h-1.083v2.995Z" fill="#1a2e35"/><path d="M-307.218,1017.391a1.844,1.844,0,0,1,1.926-1.865,1.844,1.844,0,0,1,1.922,1.865,1.843,1.843,0,0,1-1.922,1.863A1.843,1.843,0,0,1-307.218,1017.391Zm3.46,0a1.485,1.485,0,0,0-1.534-1.519,1.49,1.49,0,0,0-1.544,1.519,1.49,1.49,0,0,0,1.544,1.518A1.484,1.484,0,0,0-303.758,1017.391Z" fill="#1a2e35"/><path d="M-265.485,1015.558l-1.236,3.665h-.408l-1.074-3.126-1.078,3.126h-.4l-1.236-3.665h.4l1.058,3.152,1.094-3.152h.361l1.079,3.167,1.073-3.167Z" fill="#1a2e35"/><path d="M-265.132,1017.391a1.845,1.845,0,0,1,1.927-1.865,1.844,1.844,0,0,1,1.922,1.865,1.843,1.843,0,0,1-1.922,1.863A1.844,1.844,0,0,1-265.132,1017.391Zm3.461,0a1.485,1.485,0,0,0-1.534-1.519,1.49,1.49,0,0,0-1.544,1.519,1.49,1.49,0,0,0,1.544,1.518A1.484,1.484,0,0,0-261.671,1017.391Z" fill="#1a2e35"/><path d="M-257.909,1019.223l-.838-1.178a2.709,2.709,0,0,1-.293.016h-.985v1.162h-.387v-3.665h1.372c.932,0,1.5.471,1.5,1.257a1.134,1.134,0,0,1-.837,1.151l.9,1.257Zm-.021-2.408c0-.587-.388-.922-1.12-.922h-.975v1.838h.975C-258.318,1017.731-257.93,1017.391-257.93,1016.815Z" fill="#1a2e35"/><path d="M-255.488,1017.5l-.749.76v.963h-.388v-3.665h.388v2.215l2.152-2.215h.445l-1.587,1.66,1.7,2.005h-.461Z" fill="#1a2e35"/><path d="M-224.705,1015.558h1.492a1.81,1.81,0,0,1,1.963,1.833,1.81,1.81,0,0,1-1.963,1.832h-1.492Zm1.471,3.33a1.47,1.47,0,0,0,1.6-1.5,1.47,1.47,0,0,0-1.6-1.5h-1.084v2.995Z" fill="#1a2e35"/><path d="M-220.7,1017.391a1.845,1.845,0,0,1,1.927-1.865,1.843,1.843,0,0,1,1.921,1.865,1.842,1.842,0,0,1-1.921,1.863A1.844,1.844,0,0,1-220.7,1017.391Zm3.461,0a1.485,1.485,0,0,0-1.534-1.519,1.491,1.491,0,0,0-1.545,1.519,1.491,1.491,0,0,0,1.545,1.518A1.484,1.484,0,0,0-217.242,1017.391Z" fill="#1a2e35"/><path d="M-212.92,1015.558v3.665h-.32l-2.356-2.974v2.974h-.387v-3.665h.319l2.361,2.974v-2.974Z" fill="#1a2e35"/><path d="M-209.133,1018.888v.335h-2.592v-3.665h2.514v.335h-2.126v1.3h1.9v.33h-1.9v1.361Z" fill="#1a2e35"/><path d="M-192.118,1029.476c0,.061-30.821.11-68.831.11s-68.838-.049-68.838-.11,30.814-.111,68.838-.111S-192.118,1029.415-192.118,1029.476Z" fill="#1a2e35"/><path d="M-287.1,1115.31c-.061,0-.111-23.838-.111-53.236s.05-53.242.111-53.242.11,23.833.11,53.242S-287.042,1115.31-287.1,1115.31Z" fill="#1a2e35"/><path d="M-236.588,1115.31c-.061,0-.111-23.838-.111-53.236s.05-53.242.111-53.242.11,23.833.11,53.242S-236.527,1115.31-236.588,1115.31Z" fill="#1a2e35"/><path d="M-312.151,1033.668s-1.062,9.707.3,15.021l12.97-.566s-2.779-9.576-1.073-13.817Z" fill="#e1e1e1"/><path d="M-329.285,1039.011s-1.062,9.707.3,15.021l12.97-.567s-2.779-9.575-1.073-13.816Z" fill="#e1e1e1"/><path d="M-312.151,1033.668s.089,10.48.622,13.677l13.144-.621s-1.155-10.3-.711-13.056Z" fill="#356fa1"/><path d="M-305.677,1035.15a.25.25,0,0,1,.048-.005l.142-.005a3.21,3.21,0,0,1,.547.027,3,3,0,0,1,.836.248,2.747,2.747,0,0,1,.909.72,3.156,3.156,0,0,1,.631,1.266,3.061,3.061,0,0,1-.138,1.624,4.811,4.811,0,0,1-.369.811,8.3,8.3,0,0,0-.421.82,7.058,7.058,0,0,0-.532,1.865l-.005.044h-.043l-1.3.021-1.361.021h-.048l0-.05a3.893,3.893,0,0,0-.631-1.8c-.158-.269-.331-.522-.492-.777a7.687,7.687,0,0,1-.462-.753,2.538,2.538,0,0,1-.206-1.6,3.415,3.415,0,0,1,.507-1.31,2.539,2.539,0,0,1,.855-.77,3.191,3.191,0,0,1,.808-.312,3.285,3.285,0,0,1,.536-.087c.062,0,.11-.007.141-.006a.194.194,0,0,1,.048,0,.2.2,0,0,1-.047.006l-.14.015a3.955,3.955,0,0,0-.529.1,3.274,3.274,0,0,0-.791.322,2.5,2.5,0,0,0-.827.762,3.367,3.367,0,0,0-.484,1.286,2.463,2.463,0,0,0,.207,1.549,7.734,7.734,0,0,0,.461.743c.16.252.336.507.5.778a3.963,3.963,0,0,1,.648,1.843l-.05-.048c.436-.008.895-.015,1.362-.022l1.3-.021-.049.045a7.086,7.086,0,0,1,.543-1.894,8.792,8.792,0,0,1,.428-.827,4.759,4.759,0,0,0,.366-.8,2.973,2.973,0,0,0,.144-1.579,3.109,3.109,0,0,0-.605-1.24,2.691,2.691,0,0,0-.881-.715,3.066,3.066,0,0,0-.818-.26,3.721,3.721,0,0,0-.542-.044l-.141,0A.2.2,0,0,1-305.677,1035.15Z" fill="#fff"/><path d="M-305,1042.451s0-.014-.008-.041l-.02-.122-.071-.469c-.059-.408-.147-1-.206-1.734-.014-.184-.027-.377-.034-.578s-.015-.411,0-.628a1.745,1.745,0,0,1,.148-.658,1,1,0,0,1,.5-.5.674.674,0,0,1,.716.137.5.5,0,0,1,.153.359.648.648,0,0,1-.134.377.858.858,0,0,1-.317.255,1.672,1.672,0,0,1-.39.13,4.755,4.755,0,0,1-.83.1,4.832,4.832,0,0,1-.835-.041,1.582,1.582,0,0,1-.395-.114,1.011,1.011,0,0,1-.331-.236.767.767,0,0,1-.191-.351.6.6,0,0,1,.047-.39.527.527,0,0,1,.275-.267.472.472,0,0,1,.374.017.708.708,0,0,1,.279.238.951.951,0,0,1,.139.327,3.945,3.945,0,0,1,.067.671c.022.432.043.835.063,1.2.037.735.067,1.33.088,1.743l.021.474.005.124c0,.028,0,.042,0,.042s0-.014,0-.042l-.009-.123-.029-.474-.1-1.742-.068-1.2a4,4,0,0,0-.067-.663.957.957,0,0,0-.135-.315.669.669,0,0,0-.265-.224.429.429,0,0,0-.344-.016.488.488,0,0,0-.254.248.556.556,0,0,0-.043.364.722.722,0,0,0,.181.333,1.19,1.19,0,0,0,.7.337,4.817,4.817,0,0,0,.827.04,4.723,4.723,0,0,0,.822-.1,1.628,1.628,0,0,0,.381-.126.809.809,0,0,0,.3-.243.593.593,0,0,0,.127-.353.46.46,0,0,0-.141-.332.634.634,0,0,0-.674-.129.963.963,0,0,0-.483.483,1.733,1.733,0,0,0-.147.644c-.012.215,0,.424,0,.625s.018.393.031.577c.055.734.138,1.325.192,1.734l.064.47.016.122A.334.334,0,0,1-305,1042.451Z" fill="#fff"/><path d="M-306.733,1042.52c.006.006.017.163.034.437q.024.476.059,1.139l-.011-.028.885,1.02-.046-.02,1.023-.057-.043.021.51-.622.255-.311-.014.04-.038-1.685.055.053-1.911.021h-.552a1.42,1.42,0,0,1-.206-.008,1.031,1.031,0,0,1,.182-.017l.539-.028,1.946-.077.054,0v.055l.051,1.685v.023l-.014.017-.256.311-.51.621-.017.021h-.027l-1.023.05-.028,0-.017-.021-.869-1.034-.01-.013v-.015q-.007-.681-.011-1.168A3.67,3.67,0,0,1-306.733,1042.52Z" fill="#fff"/><path d="M-304.093,1044a.707.707,0,0,1-.1-.041c-.061-.028-.151-.066-.265-.1a2.641,2.641,0,0,0-.924-.141,2.621,2.621,0,0,0-.914.2,2.835,2.835,0,0,0-.258.121.742.742,0,0,1-.1.047.43.43,0,0,1,.087-.061,2.136,2.136,0,0,1,.255-.134,2.475,2.475,0,0,1,.924-.211,2.492,2.492,0,0,1,.934.154,2.251,2.251,0,0,1,.263.118A.5.5,0,0,1-304.093,1044Z" fill="#fff"/><path d="M-304.093,1043.591a.509.509,0,0,1-.1-.041c-.062-.028-.152-.066-.266-.105a2.632,2.632,0,0,0-.924-.14,2.642,2.642,0,0,0-.913.2c-.112.046-.2.09-.259.121a.515.515,0,0,1-.094.047.541.541,0,0,1,.086-.06,2.074,2.074,0,0,1,.255-.134,2.485,2.485,0,0,1,.924-.211,2.479,2.479,0,0,1,.935.154,2.269,2.269,0,0,1,.263.118A.536.536,0,0,1-304.093,1043.591Z" fill="#fff"/><path d="M-304.117,1043.2a.527.527,0,0,1-.1-.041c-.062-.028-.152-.066-.266-.1a2.637,2.637,0,0,0-.924-.141,2.637,2.637,0,0,0-.913.2c-.112.046-.2.09-.259.121a.58.58,0,0,1-.094.047.443.443,0,0,1,.086-.061,2.227,2.227,0,0,1,.255-.133,2.454,2.454,0,0,1,.924-.211,2.46,2.46,0,0,1,.935.154,2.1,2.1,0,0,1,.263.118A.453.453,0,0,1-304.117,1043.2Z" fill="#fff"/><path d="M-329.383,1039.019s.089,10.48.622,13.677l13.144-.621s-1.155-10.3-.711-13.056Z" fill="#a0a603"/><path d="M-318.309,1043.421c0,.061-1.968.229-4.4.376s-4.414.216-4.417.155,1.967-.229,4.4-.376S-318.313,1043.36-318.309,1043.421Z" fill="#fff"/><path d="M-318.3,1045.641a44.179,44.179,0,0,1-4.4.375,44.063,44.063,0,0,1-4.417.155c0-.06,1.968-.229,4.4-.375A44.058,44.058,0,0,1-318.3,1045.641Z" fill="#fff"/><path d="M-320.54,1047.82a14.422,14.422,0,0,1-2.505.262,14.625,14.625,0,0,1-2.52.041,14.444,14.444,0,0,1,2.506-.262A14.493,14.493,0,0,1-320.54,1047.82Z" fill="#fff"/><path d="M-325.86,1083.177s-1.062,9.707.3,15.022l12.969-.567s-2.779-9.575-1.072-13.817Z" fill="#ececec"/><path d="M-325.809,1082.866s.089,10.479.622,13.676l13.144-.621s-1.155-10.3-.711-13.055Z" fill="#a0a603"/><path d="M-314.735,1087.267c0,.061-1.968.229-4.4.376s-4.413.216-4.417.155,1.968-.229,4.4-.376S-314.738,1087.207-314.735,1087.267Z" fill="#fff"/><path d="M-314.731,1089.487c0,.061-1.968.229-4.4.376s-4.414.216-4.417.155,1.967-.229,4.4-.376S-314.735,1089.426-314.731,1089.487Z" fill="#fff"/><path d="M-316.965,1091.666a14.468,14.468,0,0,1-2.506.262,14.494,14.494,0,0,1-2.52.041,14.471,14.471,0,0,1,2.507-.262A14.6,14.6,0,0,1-316.965,1091.666Z" fill="#fff"/><path d="M-264.958,1033.668s-1.062,9.707.3,15.021l12.969-.566s-2.779-9.576-1.072-13.817Z" fill="#e1e1e1"/><path d="M-282.092,1039.011s-1.062,9.707.3,15.021l12.969-.567s-2.779-9.575-1.072-13.816Z" fill="#e1e1e1"/><path d="M-264.958,1033.668s.088,10.48.621,13.677l13.144-.621s-1.154-10.3-.71-13.056Z" fill="#375a64"/><path d="M-258.484,1035.15a.25.25,0,0,1,.048-.005l.142-.005a3.217,3.217,0,0,1,.547.027,3,3,0,0,1,.835.248,2.74,2.74,0,0,1,.91.72,3.155,3.155,0,0,1,.63,1.266,3.062,3.062,0,0,1-.138,1.624,4.811,4.811,0,0,1-.369.811,8.744,8.744,0,0,0-.421.82,7.019,7.019,0,0,0-.531,1.865l-.006.044h-.042l-1.3.021-1.362.021h-.048l0-.05a3.881,3.881,0,0,0-.631-1.8c-.158-.269-.33-.522-.492-.777a7.887,7.887,0,0,1-.462-.753,2.545,2.545,0,0,1-.206-1.6,3.415,3.415,0,0,1,.507-1.31,2.541,2.541,0,0,1,.856-.77,3.172,3.172,0,0,1,.807-.312,3.294,3.294,0,0,1,.537-.087c.062,0,.109-.007.141-.006a.194.194,0,0,1,.048,0,.206.206,0,0,1-.048.006l-.139.015a3.931,3.931,0,0,0-.53.1,3.253,3.253,0,0,0-.79.322,2.5,2.5,0,0,0-.827.762,3.369,3.369,0,0,0-.485,1.286,2.457,2.457,0,0,0,.208,1.549,7.726,7.726,0,0,0,.46.743c.161.252.336.507.5.778a3.965,3.965,0,0,1,.649,1.843l-.05-.048c.435-.008.9-.015,1.361-.022l1.3-.021-.048.045a7.048,7.048,0,0,1,.543-1.894,8.558,8.558,0,0,1,.427-.827,4.682,4.682,0,0,0,.366-.8,2.984,2.984,0,0,0,.145-1.579,3.109,3.109,0,0,0-.605-1.24,2.694,2.694,0,0,0-.882-.715,3.066,3.066,0,0,0-.818-.26,3.712,3.712,0,0,0-.542-.044l-.141,0A.185.185,0,0,1-258.484,1035.15Z" fill="#fff"/><path d="M-257.81,1042.451a.358.358,0,0,1-.008-.041l-.02-.122-.072-.469c-.059-.408-.146-1-.2-1.734-.014-.184-.027-.377-.034-.578s-.016-.411,0-.628a1.765,1.765,0,0,1,.148-.658,1,1,0,0,1,.5-.5.672.672,0,0,1,.715.137.5.5,0,0,1,.153.359.641.641,0,0,1-.134.377.863.863,0,0,1-.316.255,1.665,1.665,0,0,1-.391.13,4.732,4.732,0,0,1-.829.1,4.827,4.827,0,0,1-.835-.041,1.589,1.589,0,0,1-.4-.114,1.011,1.011,0,0,1-.331-.236.767.767,0,0,1-.191-.351.6.6,0,0,1,.047-.39.53.53,0,0,1,.275-.267.471.471,0,0,1,.374.017.7.7,0,0,1,.279.238.973.973,0,0,1,.14.327,3.938,3.938,0,0,1,.066.671c.023.432.044.835.063,1.2.037.735.067,1.33.088,1.743l.022.474.005.124v.042s0-.014-.005-.042l-.008-.123-.03-.474-.1-1.742-.067-1.2a4,4,0,0,0-.068-.663.917.917,0,0,0-.135-.315.659.659,0,0,0-.264-.224.431.431,0,0,0-.345-.016.491.491,0,0,0-.254.248.556.556,0,0,0-.043.364.723.723,0,0,0,.181.333,1.19,1.19,0,0,0,.7.337,4.827,4.827,0,0,0,.827.04,4.746,4.746,0,0,0,.823-.1,1.658,1.658,0,0,0,.381-.126.817.817,0,0,0,.3-.243.606.606,0,0,0,.127-.353.46.46,0,0,0-.141-.332.634.634,0,0,0-.674-.129.963.963,0,0,0-.483.483,1.713,1.713,0,0,0-.147.644c-.012.215,0,.424,0,.625s.019.393.032.577c.055.734.138,1.325.192,1.734l.064.47.016.122C-257.811,1042.437-257.81,1042.451-257.81,1042.451Z" fill="#fff"/><path d="M-259.541,1042.52c.007.006.018.163.035.437q.024.476.058,1.139l-.011-.028.885,1.02-.045-.02,1.023-.057-.043.021.509-.622.255-.311-.013.04-.039-1.685.056.053-1.911.021h-.553a1.446,1.446,0,0,1-.206-.008,1.054,1.054,0,0,1,.183-.017l.539-.028,1.945-.077.054,0,0,.055.051,1.685v.023l-.014.017-.255.311-.511.621-.017.021h-.026l-1.023.05-.028,0-.018-.021-.868-1.034-.011-.013v-.015q-.006-.681-.011-1.168A3.664,3.664,0,0,1-259.541,1042.52Z" fill="#fff"/><path d="M-256.9,1044a.6.6,0,0,1-.1-.041c-.062-.028-.152-.066-.266-.1a2.637,2.637,0,0,0-.924-.141,2.615,2.615,0,0,0-.913.2c-.112.046-.2.089-.259.121a.882.882,0,0,1-.094.047.37.37,0,0,1,.086-.061,2.225,2.225,0,0,1,.255-.134,2.475,2.475,0,0,1,.924-.211,2.5,2.5,0,0,1,.935.154,2.253,2.253,0,0,1,.263.118A.549.549,0,0,1-256.9,1044Z" fill="#fff"/><path d="M-256.9,1043.591a.579.579,0,0,1-.1-.041,2.849,2.849,0,0,0-.265-.105,2.64,2.64,0,0,0-.924-.14,2.648,2.648,0,0,0-.914.2c-.111.046-.2.09-.258.121a.5.5,0,0,1-.1.047.531.531,0,0,1,.087-.06,2,2,0,0,1,.255-.134,2.476,2.476,0,0,1,.924-.211,2.483,2.483,0,0,1,.935.154,2.166,2.166,0,0,1,.262.118A.483.483,0,0,1-256.9,1043.591Z" fill="#fff"/><path d="M-256.925,1043.2a.6.6,0,0,1-.1-.041c-.061-.028-.151-.066-.265-.1a2.641,2.641,0,0,0-.924-.141,2.643,2.643,0,0,0-.914.2c-.111.046-.2.09-.258.121a.521.521,0,0,1-.1.047.477.477,0,0,1,.087-.061,2.139,2.139,0,0,1,.255-.133,2.454,2.454,0,0,1,.924-.211,2.454,2.454,0,0,1,.934.154,2.1,2.1,0,0,1,.263.118A.454.454,0,0,1-256.925,1043.2Z" fill="#fff"/><path d="M-282.191,1039.019s.089,10.48.622,13.677l13.144-.621s-1.154-10.3-.71-13.056Z" fill="#a0a603"/><path d="M-271.116,1043.421c0,.061-1.968.229-4.4.376s-4.413.216-4.417.155,1.968-.229,4.4-.376S-271.12,1043.36-271.116,1043.421Z" fill="#fff"/><path d="M-271.113,1045.641a44.137,44.137,0,0,1-4.4.375,44.069,44.069,0,0,1-4.417.155c0-.06,1.967-.229,4.4-.375A44.041,44.041,0,0,1-271.113,1045.641Z" fill="#fff"/><path d="M-273.347,1047.82a14.427,14.427,0,0,1-2.506.262,14.61,14.61,0,0,1-2.519.041,14.427,14.427,0,0,1,2.506-.262A14.5,14.5,0,0,1-273.347,1047.82Z" fill="#fff"/><path d="M-257.746,1050.348s-1.062,9.706.3,15.021l12.969-.567s-2.779-9.575-1.072-13.817Z" fill="#ececec"/><path d="M-257.7,1050.036s.089,10.48.622,13.677l13.144-.622s-1.155-10.3-.711-13.055Z" fill="#a0a603"/><path d="M-246.621,1054.438a44.137,44.137,0,0,1-4.4.375,44.063,44.063,0,0,1-4.417.155c0-.06,1.968-.229,4.4-.375A44.046,44.046,0,0,1-246.621,1054.438Z" fill="#fff"/><path d="M-246.617,1056.658c0,.06-1.968.229-4.4.375a44.03,44.03,0,0,1-4.417.155,44.1,44.1,0,0,1,4.4-.375A44.107,44.107,0,0,1-246.617,1056.658Z" fill="#fff"/><path d="M-248.851,1058.837a14.429,14.429,0,0,1-2.506.261,14.393,14.393,0,0,1-2.52.041,14.419,14.419,0,0,1,2.507-.261A14.354,14.354,0,0,1-248.851,1058.837Z" fill="#fff"/><path d="M-260.437,1091.028s-1.062,9.706.3,15.021l12.97-.567s-2.78-9.575-1.073-13.817Z" fill="#ececec"/><path d="M-260.386,1090.716s.089,10.48.622,13.677l13.144-.622s-1.154-10.3-.71-13.055Z" fill="#67a5d3"/><path d="M-249.311,1095.118c0,.061-1.968.229-4.4.375a44.039,44.039,0,0,1-4.417.155c0-.061,1.968-.229,4.4-.375A44.034,44.034,0,0,1-249.311,1095.118Z" fill="#fff"/><path d="M-249.308,1097.337c0,.061-1.968.229-4.4.376s-4.413.216-4.417.155,1.967-.229,4.4-.376S-249.311,1097.277-249.308,1097.337Z" fill="#fff"/><path d="M-251.542,1099.517a14.382,14.382,0,0,1-2.506.261,14.349,14.349,0,0,1-2.519.041,14.4,14.4,0,0,1,2.506-.261A14.382,14.382,0,0,1-251.542,1099.517Z" fill="#fff"/><path d="M-278.668,1083.177s-1.062,9.707.3,15.022l12.97-.567s-2.779-9.575-1.073-13.817Z" fill="#ececec"/><path d="M-278.616,1082.866s.089,10.479.621,13.676l13.144-.621s-1.154-10.3-.71-13.055Z" fill="#a0a603"/><path d="M-267.542,1087.267c0,.061-1.968.229-4.4.376s-4.414.216-4.417.155,1.967-.229,4.4-.376S-267.546,1087.207-267.542,1087.267Z" fill="#fff"/><path d="M-267.539,1089.487c0,.061-1.968.229-4.4.376s-4.413.216-4.417.155,1.968-.229,4.4-.376S-267.542,1089.426-267.539,1089.487Z" fill="#fff"/><path d="M-269.773,1091.666a14.434,14.434,0,0,1-2.506.262,14.481,14.481,0,0,1-2.519.041,14.435,14.435,0,0,1,2.506-.262A14.6,14.6,0,0,1-269.773,1091.666Z" fill="#fff"/><path d="M-260.171,1060.6s-1.32,9.675-3.932,14.5l-12.446-3.69s5.015-8.618,4.387-13.146Z" fill="#ececec"/><path d="M-260.145,1060.282s-2.624,10.146-3.916,13.119l-12.6-3.786s3.615-9.716,3.851-12.495Z" fill="#356fa1"/><path d="M-271.956,1061.871a44.07,44.07,0,0,1,4.248,1.22c2.328.732,4.2,1.372,4.181,1.43a44.07,44.07,0,0,1-4.248-1.22C-270.1,1062.569-271.974,1061.929-271.956,1061.871Z" fill="#fff"/><path d="M-272.5,1064.023c.018-.058,1.92.488,4.248,1.22s4.2,1.373,4.181,1.431-1.92-.488-4.248-1.22A43.985,43.985,0,0,1-272.5,1064.023Z" fill="#fff"/><path d="M-270.857,1066.679a14.49,14.49,0,0,1,2.434.65,14.413,14.413,0,0,1,2.368.86,14.364,14.364,0,0,1-2.434-.65A14.487,14.487,0,0,1-270.857,1066.679Z" fill="#fff"/><path d="M-246.563,1070.792s1.062,9.706-.3,15.021l-12.969-.567s2.779-9.575,1.072-13.817Z" fill="#ececec"/><path d="M-259.834,1068.521s-.888,11.631-1.6,13.851l11.812,1.243,1.776-1.687s1.155-8.526.977-11.279Z" fill="#375a64"/><path d="M-249.354,1081.839l-.266,1.776,1.776-1.687Z" fill="#1a2e35"/><path d="M-249.222,1074.7a8.622,8.622,0,0,1-1.324-.153l-3.179-.447-3.186-.4a8.6,8.6,0,0,1-1.318-.2,7.5,7.5,0,0,1,1.333.042c.822.06,1.954.17,3.2.336s2.368.355,3.176.512A7.434,7.434,0,0,1-249.222,1074.7Z" fill="#fff"/><path d="M-249.736,1077.131a6.835,6.835,0,0,1-1.277-.041c-.787-.057-1.872-.162-3.066-.312s-2.272-.32-3.048-.46a7.038,7.038,0,0,1-1.248-.278,7.7,7.7,0,0,1,1.272.123l3.052.4,3.053.377A7.756,7.756,0,0,1-249.736,1077.131Z" fill="#fff"/><path d="M-250.473,1079.365a36.43,36.43,0,0,1-3.972-.422,36.082,36.082,0,0,1-3.942-.641,36.159,36.159,0,0,1,3.971.422A35.848,35.848,0,0,1-250.473,1079.365Z" fill="#fff"/><path d="M-197.994,1083.112s1.062,9.706-.3,15.021l-12.97-.567s2.779-9.575,1.073-13.817Z" fill="#ececec"/><path d="M-211.265,1080.842s-.889,11.63-1.6,13.85l11.812,1.243,1.776-1.687s1.155-8.526.977-11.279Z" fill="#375a64"/><path d="M-200.786,1094.159l-.266,1.776,1.776-1.687Z" fill="#1a2e35"/><path d="M-200.653,1087.025a8.59,8.59,0,0,1-1.324-.153l-3.179-.447-3.186-.4a8.43,8.43,0,0,1-1.318-.2,7.518,7.518,0,0,1,1.333.042c.821.06,1.954.171,3.2.336s2.368.355,3.176.512A7.47,7.47,0,0,1-200.653,1087.025Z" fill="#fff"/><path d="M-201.167,1089.451a6.861,6.861,0,0,1-1.278-.041c-.786-.057-1.871-.162-3.066-.312s-2.271-.32-3.047-.46a6.953,6.953,0,0,1-1.248-.278,7.714,7.714,0,0,1,1.271.123l3.052.4,3.054.376A7.788,7.788,0,0,1-201.167,1089.451Z" fill="#fff"/><path d="M-201.9,1091.685a36.47,36.47,0,0,1-3.971-.422,36.131,36.131,0,0,1-3.943-.641,36.224,36.224,0,0,1,3.972.422A35.872,35.872,0,0,1-201.9,1091.685Z" fill="#fff"/><path d="M-213.508,1033.644s1.062,9.706-.3,15.021l-12.969-.567s2.779-9.575,1.072-13.817Z" fill="#ececec"/><path d="M-226.779,1031.374s-.888,11.63-1.6,13.85l11.812,1.244,1.776-1.688s1.155-8.526.977-11.279Z" fill="#67a5d3"/><path d="M-216.3,1044.691l-.266,1.776,1.776-1.687Z" fill="#1a2e35"/><path d="M-216.167,1037.558a8.719,8.719,0,0,1-1.324-.154l-3.179-.447-3.186-.4a8.429,8.429,0,0,1-1.318-.2,7.488,7.488,0,0,1,1.333.043c.822.059,1.954.17,3.2.335s2.368.355,3.176.512A7.355,7.355,0,0,1-216.167,1037.558Z" fill="#fff"/><path d="M-216.681,1039.983a6.848,6.848,0,0,1-1.277-.041c-.787-.057-1.872-.161-3.066-.312s-2.272-.32-3.048-.46a6.911,6.911,0,0,1-1.248-.278,7.662,7.662,0,0,1,1.272.124l3.052.4,3.053.376A7.762,7.762,0,0,1-216.681,1039.983Z" fill="#fff"/><path d="M-217.418,1042.217a36.465,36.465,0,0,1-3.972-.422,35.872,35.872,0,0,1-3.942-.641,36.442,36.442,0,0,1,3.972.422A35.856,35.856,0,0,1-217.418,1042.217Z" fill="#fff"/><path d="M-227.854,1051.83l3.214,16.98,32.1-6.077-5.579-16.532Z" fill="#ececec"/><rect width="30.944" height="15.31" transform="translate(-228.522 1051.957) rotate(-10.72)" fill="#fff"/><path d="M-195.27,1061.244s-.024-.095-.061-.272l-.157-.786c-.137-.7-.335-1.705-.589-3-.5-2.6-1.228-6.349-2.122-10.969l.1.065-30.4,5.784h0l.088-.129c1,5.3,1.963,10.391,2.842,15.044l-.122-.083,21.832-4.082,6.309-1.165,1.69-.307.439-.076c.1-.017.154-.023.154-.023a1.1,1.1,0,0,1-.139.033l-.425.087-1.664.328-6.275,1.217-21.882,4.193-.1.02-.02-.1c-.883-4.652-1.848-9.741-2.854-15.042l-.02-.108.108-.021h0l30.408-5.727.08-.016.015.081c.861,4.647,1.56,8.417,2.045,11.034.235,1.291.419,2.3.545,2.991q.088.5.137.774C-195.281,1061.158-195.27,1061.244-195.27,1061.244Z" fill="#1a2e35"/><rect width="8.556" height="8.556" transform="matrix(0.983, -0.186, 0.186, 0.983, -224.868, 1054.702)" fill="#fff"/><path d="M-214.87,1061.517a.928.928,0,0,1-.042-.162l-.1-.458c-.085-.416-.2-.992-.35-1.713-.293-1.484-.7-3.566-1.2-6.055l.112.076-8.4,1.606c-.02.027.166-.244.088-.128v.007l0,.009,0,.018.007.036.013.072.028.144.054.287.108.57q.106.567.212,1.124.208,1.113.408,2.173c.263,1.411.512,2.744.74,3.968l-.111-.076,6.073-1.1,1.723-.3.461-.076a1.047,1.047,0,0,1,.167-.021.676.676,0,0,1-.142.038l-.439.094-1.693.346-6.115,1.207-.093.019-.019-.095c-.235-1.222-.49-2.553-.761-3.963q-.2-1.059-.414-2.172l-.214-1.124-.108-.57-.054-.287-.028-.144-.013-.072-.007-.036,0-.018,0-.009v-.007c-.079.115.106-.159.088-.13l8.408-1.577.1-.018.017.094c.457,2.522.839,4.631,1.112,6.133.125.717.224,1.288.3,1.7l.073.443A.737.737,0,0,1-214.87,1061.517Z" fill="#1a2e35"/><path d="M-214.87,1061.517c-.019,0-.049-.217-.168-.6a2.98,2.98,0,0,0-.89-1.411l-.008-.006a3.132,3.132,0,0,0-1.041-.632,3.259,3.259,0,0,0-1.412-.16l-.2.019.106-.168a2.127,2.127,0,0,0,.076-2.01,1.9,1.9,0,0,0-.744-.834,2,2,0,0,0-1.135-.265,2.142,2.142,0,0,0-1.231.458,1.839,1.839,0,0,0-.65,1.057,2.15,2.15,0,0,0,.688,2.1l.106.084-.115.069a3.666,3.666,0,0,0-1.267,1.292,3.875,3.875,0,0,0-.487,1.321,5.351,5.351,0,0,0-.033,1.236,1.223,1.223,0,0,1-.075-.32,3.439,3.439,0,0,1,0-.933,3.854,3.854,0,0,1,.462-1.38,3.762,3.762,0,0,1,1.3-1.376l-.01.154a2.336,2.336,0,0,1-.78-2.288,2.053,2.053,0,0,1,.721-1.183,2.367,2.367,0,0,1,1.356-.508,2.213,2.213,0,0,1,1.259.3,2.112,2.112,0,0,1,.825.93,2.315,2.315,0,0,1-.106,2.206l-.09-.148a3.4,3.4,0,0,1,1.489.192,3.23,3.23,0,0,1,1.08.688l-.008-.007a2.91,2.91,0,0,1,.882,1.507,3.1,3.1,0,0,1,.087.46A.5.5,0,0,1-214.87,1061.517Z" fill="#1a2e35"/><path d="M-213.254,1052.815l7.289-1.38" fill="#fff"/><path d="M-205.965,1051.435a31.169,31.169,0,0,1-3.624.8,31.172,31.172,0,0,1-3.665.581,31.237,31.237,0,0,1,3.624-.8A31.311,31.311,0,0,1-205.965,1051.435Z" fill="#1a2e35"/><path d="M-212.934,1054.509l1.473-.279" fill="#fff"/><path d="M-211.461,1054.23c.011.06-.309.171-.716.248s-.745.091-.757.031.309-.171.716-.248S-211.472,1054.17-211.461,1054.23Z" fill="#1a2e35"/><path d="M-199.344,1054.987c.012.06-2.9.661-6.5,1.342s-6.526,1.185-6.537,1.125,2.9-.661,6.5-1.342S-199.355,1054.927-199.344,1054.987Z" fill="#1a2e35"/><path d="M-198.991,1056.445c.011.06-2.914.664-6.533,1.349s-6.562,1.192-6.573,1.132,2.913-.663,6.532-1.349S-199,1056.385-198.991,1056.445Z" fill="#1a2e35"/><path d="M-198.892,1058.181a2.327,2.327,0,0,1-.5.138l-1.374.3c-1.162.24-2.771.557-4.549.894s-3.393.629-4.562.83l-1.388.227a2.321,2.321,0,0,1-.514.054,2.352,2.352,0,0,1,.5-.138l1.375-.3c1.162-.24,2.77-.557,4.55-.894s3.391-.63,4.561-.831l1.387-.227A2.356,2.356,0,0,1-198.892,1058.181Z" fill="#1a2e35"/><path d="M-212.144,1051.164a2.3,2.3,0,0,1,.324-.177,8.363,8.363,0,0,1,.982-.394,9.009,9.009,0,0,1,3.859-.361,8.263,8.263,0,0,1,2.592.745,3.566,3.566,0,0,1,1.2.941,1.813,1.813,0,0,1,.363,1.572,2.659,2.659,0,0,1-1,1.375,8.315,8.315,0,0,1-1.51.893,14.051,14.051,0,0,1-3.469,1.188,8.367,8.367,0,0,1-3.666-.049,5.348,5.348,0,0,1-1.629-.672,2.685,2.685,0,0,1-1.109-1.289,1.894,1.894,0,0,1,.178-1.6,3.925,3.925,0,0,1,1.035-1.113,10.132,10.132,0,0,1,2.369-1.287,10.435,10.435,0,0,1,3.821-.679,9.5,9.5,0,0,1,1.055.079,2.281,2.281,0,0,1,.362.067,2.5,2.5,0,0,1-.367-.022c-.24-.02-.594-.039-1.051-.038a10.744,10.744,0,0,0-3.764.738,10.167,10.167,0,0,0-2.313,1.287,3.737,3.737,0,0,0-.978,1.065,1.694,1.694,0,0,0-.156,1.439,2.491,2.491,0,0,0,1.033,1.181,5.182,5.182,0,0,0,1.567.639,8.185,8.185,0,0,0,3.572.042,13.941,13.941,0,0,0,3.415-1.166,8.022,8.022,0,0,0,1.474-.864,2.464,2.464,0,0,0,.933-1.258,1.616,1.616,0,0,0-.32-1.405,3.4,3.4,0,0,0-1.127-.9,8.181,8.181,0,0,0-2.528-.753,9.215,9.215,0,0,0-3.814.288c-.436.134-.767.26-.989.353A2.246,2.246,0,0,1-212.144,1051.164Z" fill="#a0a603"/><path d="M-203.424,1050.943a18.734,18.734,0,0,1,2.155-1.9,18.823,18.823,0,0,1,2.295-1.724,18.629,18.629,0,0,1-2.155,1.9A18.735,18.735,0,0,1-203.424,1050.943Z" fill="#a0a603"/><path d="M-200.7,1050.575a15.316,15.316,0,0,1-2.52.631l-.305.062-.169.034.041-.167a5.313,5.313,0,0,1,.918-2.1c.056.029-.416.912-.705,2.155l-.129-.133.3-.064A15.381,15.381,0,0,1-200.7,1050.575Z" fill="#a0a603"/><path d="M-205.232,1052.413a37.7,37.7,0,0,1-4,.726,37.539,37.539,0,0,1-4.034.508,37.012,37.012,0,0,1,4-.726A37.5,37.5,0,0,1-205.232,1052.413Z" fill="#a0a603"/><path d="M-214.346,1049.182a1.867,1.867,0,0,1-1.487,2.181,1.866,1.866,0,0,1-2.181-1.486,1.866,1.866,0,0,1,1.487-2.181A1.866,1.866,0,0,1-214.346,1049.182Z" fill="#a0a603"/><path d="M-216.18,1051.407a1.88,1.88,0,0,1-1.844-1.528,1.878,1.878,0,0,1,1.495-2.193,1.858,1.858,0,0,1,1.406.293,1.863,1.863,0,0,1,.787,1.2,1.879,1.879,0,0,1-1.495,2.194A1.893,1.893,0,0,1-216.18,1051.407Zm0-3.734a1.866,1.866,0,0,0-.349.033,1.86,1.86,0,0,0-1.479,2.169,1.858,1.858,0,0,0,2.169,1.478,1.858,1.858,0,0,0,1.478-2.169,1.841,1.841,0,0,0-.778-1.188A1.845,1.845,0,0,0-216.176,1047.673Z" fill="#1a2e35"/><path d="M-338.519,1004.7l151.829,4.136.094-4.524Z" fill="#e1e1e1"/><rect width="156.718" height="3.376" transform="translate(-340.057 1001.32)" fill="#375a64"/><path d="M-173.662,1045.343a4.546,4.546,0,0,1,4.822-.142,4.546,4.546,0,0,1,2.106,4.34,7.075,7.075,0,0,0-.254,2.628c.424,1.608,2.692,2.237,2.991,3.873a4.422,4.422,0,0,1-.284,1.928,2.533,2.533,0,0,0,.044,1.915,5.535,5.535,0,0,0,1.024,1.028,3.412,3.412,0,0,1,.159,4.3,4.921,4.921,0,0,1-4.124,1.812,9.1,9.1,0,0,1-4.386-1.5" fill="#1a2e35"/><path d="M-172.568,1046.374a4.589,4.589,0,0,0-3.349-2.993c-1.525-.364-3.417-.863-4.813-.15a4.009,4.009,0,0,0-2.052,2.008c-.406,1.088.219,3.118.53,4.237a4.264,4.264,0,0,1-.069,3.379c-.6.957-1.822,1.329-2.58,2.168a3.019,3.019,0,0,0,.314,4.192,2.54,2.54,0,0,0-2.44,2.647,3.884,3.884,0,0,0,2.239,3.146,8.7,8.7,0,0,0,3.945.741,23.881,23.881,0,0,0,4.986-.517,6.226,6.226,0,0,0,3.638-1.8,5.6,5.6,0,0,0,1.033-3.583c.008-4.489-2.348-8.938-1.326-13.309" fill="#1a2e35"/><path d="M-179.341,1094.286s-8.775,28.48-8.222,37.678,7.236,32.081,7.236,32.081Z" fill="#ff9a6c"/><path d="M-166.951,1089.436c.2-.053,4.044,5.6,4.172,10.461a12.574,12.574,0,0,1-.054,1.43,17.827,17.827,0,0,1-1.212,4.956c-3.253,8.215-6.608,17.96-6.663,20.178-.171,6.839-3.127,37.543-3.127,37.543l-6.489.169-1.943-37.524,3.213-37.524Z" fill="#ffbf9d"/><path d="M-216.914,1069.563c.663-.693,3.684,1.927,3.956,2.13s.574-.183.319-.353c-.367-.245-4.16-2.906-3.516-3.593.357-.381.981.324.981.324s3.365,2.751,3.659,2.417-1.624-2.022-2.312-2.543-.711-1.048-.233-1.16c.326-.076,2.471,1.471,3.139,2s2.476,2.022,2.183.562a3.82,3.82,0,0,1,.351-2.964c.32-.272.815.074.708.523a5.444,5.444,0,0,0,.011,1.5,3.571,3.571,0,0,0,.328,1.159c.205.424.395.775.565,1.07,2.021,1.219,7.835,4.448,13.757,5.134,1.07.124,5.209-6.342,5.209-6.342l6.454,5.245s.049.418-4.593,6.147c-6.319,7.8-24.708-5.516-24.708-5.516l.012-.019a44.39,44.39,0,0,1-4.305-2.114c-1.886-1.163-1.784-1.334-1.611-1.53.465-.528,3.4,1.921,3.071,1.029S-217.422,1070.095-216.914,1069.563Z" fill="#ffbf9d"/><path d="M-222.054,1064.9s-1.062,9.706.3,15.021l12.97-.567s-2.779-9.575-1.073-13.817Z" fill="#ececec"/><path d="M-222,1064.592s.088,10.479.621,13.676l13.144-.621s-1.154-10.3-.71-13.055Z" fill="#a0a603"/><path d="M-210.928,1068.993c0,.061-1.968.229-4.4.376s-4.414.216-4.417.155,1.967-.229,4.4-.376S-210.932,1068.933-210.928,1068.993Z" fill="#fff"/><path d="M-210.925,1071.213c0,.061-1.968.229-4.4.376s-4.413.216-4.417.155,1.968-.229,4.4-.376S-210.928,1071.152-210.925,1071.213Z" fill="#fff"/><path d="M-213.159,1073.393a14.619,14.619,0,0,1-2.506.261,14.473,14.473,0,0,1-2.519.041,14.449,14.449,0,0,1,2.506-.262A14.432,14.432,0,0,1-213.159,1073.393Z" fill="#fff"/><path d="M-160.388,1121.4s1.273-27.215-2.645-29.589-22.026,1.451-22.026,1.451-5.636,25.688-5.39,25.9C-188.582,1120.794-160.388,1121.4-160.388,1121.4Z" fill="#375a64"/><path d="M-160.28,1119.019a24.088,24.088,0,0,1-3.265-.057,24.2,24.2,0,0,1-3.254-.277,24.072,24.072,0,0,1,3.265.057A24.18,24.18,0,0,1-160.28,1119.019Z" fill="#1a2e35"/><path d="M-162.277,1121.389a2.9,2.9,0,0,1-.051-1.118,2.9,2.9,0,0,1,.17-1.106,2.93,2.93,0,0,1,.05,1.118A2.893,2.893,0,0,1-162.277,1121.389Z" fill="#1a2e35"/><path d="M-165.611,1121.392a3.759,3.759,0,0,1-.209-1.259,3.741,3.741,0,0,1,.011-1.276,3.73,3.73,0,0,1,.209,1.259A3.741,3.741,0,0,1-165.611,1121.392Z" fill="#1a2e35"/><path d="M-180.468,1164.79l.012-.841,6.694-.128.013,2.613-.414.027c-1.841.1-9.369.4-10.6.025C-186.136,1166.07-180.468,1164.79-180.468,1164.79Z" fill="#a0a603"/><g opacity="0.6"><path d="M-176.162,1166.468a2.32,2.32,0,0,1,.851-1.424,2.248,2.248,0,0,1,1.559-.486l0,1.865Z" fill="#fff"/></g><g opacity="0.6"><path d="M-183.227,1165.51s-1.987.574-1.739.9,7.867.317,11.227.019l-.011-.149-8.886.087S-182.839,1165.526-183.227,1165.51Z" fill="#fff"/></g><path d="M-173.7,1166.228a.528.528,0,0,1-.115.013l-.329.02-1.213.054c-1.024.038-2.44.072-4,.076s-2.98-.025-4-.059l-1.213-.049-.329-.019a.58.58,0,0,1-.115-.012.616.616,0,0,1,.115,0l.33,0,1.214.023c1.024.019,2.439.038,4,.035s2.978-.028,4-.052l1.213-.028.33-.005A.828.828,0,0,1-173.7,1166.228Z" fill="#1a2e35"/><path d="M-182.636,1166.5a2.755,2.755,0,0,0-.227-.579,2.829,2.829,0,0,0-.414-.464.9.9,0,0,1,.483.422A.9.9,0,0,1-182.636,1166.5Z" fill="#1a2e35"/><path d="M-180.541,1165.339c-.019.012-.113-.1-.211-.255s-.161-.288-.142-.3.113.1.21.256S-180.522,1165.327-180.541,1165.339Z" fill="#1a2e35"/><path d="M-180,1165.053c-.015.017-.121-.054-.236-.157s-.2-.2-.181-.217.12.054.235.157S-179.986,1165.036-180,1165.053Z" fill="#1a2e35"/><path d="M-179.661,1164.423a.8.8,0,0,1-.348.045.78.78,0,0,1-.349-.037.8.8,0,0,1,.348-.044A.765.765,0,0,1-179.661,1164.423Z" fill="#1a2e35"/><path d="M-179.544,1163.978a.674.674,0,0,1-.388.114.672.672,0,0,1-.4-.053,2.219,2.219,0,0,1,.395-.028A2.244,2.244,0,0,1-179.544,1163.978Z" fill="#1a2e35"/><path d="M-180.768,1164.758a1.246,1.246,0,0,1-.429,0,2.415,2.415,0,0,1-.457-.1,1.191,1.191,0,0,1-.261-.107.226.226,0,0,1-.106-.133.168.168,0,0,1,.064-.171.787.787,0,0,1,.973.228.769.769,0,0,1,.14.286c.017.074.016.115.011.116a1.216,1.216,0,0,0-.2-.366.774.774,0,0,0-.367-.237.663.663,0,0,0-.511.035c-.068.051-.041.131.035.176a1.294,1.294,0,0,0,.241.1,3.054,3.054,0,0,0,.441.114C-180.932,1164.744-180.768,1164.744-180.768,1164.758Z" fill="#1a2e35"/><path d="M-180.879,1164.779a.421.421,0,0,1-.05-.3.707.707,0,0,1,.116-.313.431.431,0,0,1,.357-.219.171.171,0,0,1,.133.2.474.474,0,0,1-.073.191,1.32,1.32,0,0,1-.2.26.624.624,0,0,1-.245.174c-.008-.011.085-.077.2-.213a1.479,1.479,0,0,0,.179-.258c.059-.09.1-.253-.009-.272s-.216.1-.282.182a.72.72,0,0,0-.121.279A1.551,1.551,0,0,0-180.879,1164.779Z" fill="#1a2e35"/><path d="M-173.658,1164.53c0,.015-.191-.018-.493.018a2.147,2.147,0,0,0-1.075.444,2.158,2.158,0,0,0-.671.951c-.1.286-.111.478-.126.476a.386.386,0,0,1,0-.134,1.758,1.758,0,0,1,.072-.36,2.065,2.065,0,0,1,.675-1,2.056,2.056,0,0,1,1.119-.438,1.813,1.813,0,0,1,.368.008A.4.4,0,0,1-173.658,1164.53Z" fill="#1a2e35"/><path d="M-176.873,1165.6a3.887,3.887,0,0,1-.974.1,3.8,3.8,0,0,1-.976-.077c0-.024.438,0,.975,0S-176.876,1165.575-176.873,1165.6Z" fill="#1a2e35"/><path d="M-175.566,1165.595c.017.016-.035.092-.08.192s-.068.189-.091.188-.035-.106.018-.221S-175.58,1165.579-175.566,1165.595Z" fill="#1a2e35"/><path d="M-175.074,1164.981c.016.016-.027.085-.1.155s-.137.114-.153.1.027-.085.1-.156S-175.09,1164.965-175.074,1164.981Z" fill="#1a2e35"/><path d="M-174.369,1164.7c0,.022-.093.022-.191.056s-.169.087-.186.072.038-.107.16-.148S-174.362,1164.679-174.369,1164.7Z" fill="#1a2e35"/><path d="M-173.867,1164.567c.008.021-.03.055-.086.076s-.106.023-.114,0,.03-.055.085-.077S-173.875,1164.546-173.867,1164.567Z" fill="#1a2e35"/><path d="M-191.881,1074.971l7.47,4.2.519-.528.549,1.036-.508,13.914,20.262-3.831-1.654-2.381c-1.592-2.2-1.235-5.282-.582-7.915l.223-.9,4.276.069a35.006,35.006,0,0,0,0-7.773c-.006-.079-.012-.157-.02-.235a9.206,9.206,0,0,0-9.8-8.333l-7.384.5s-5.876-1.208-9.882,5.7Z" fill="#356fa1"/><path d="M-182.876,1072.717a5.3,5.3,0,0,1-.265,1.046c-.222.708-.485,1.547-.775,2.474a3.73,3.73,0,0,0-.166,1.371,3.732,3.732,0,0,0,.3,1.093,9.243,9.243,0,0,1,.438.98,3.669,3.669,0,0,1-.579-.915,3.515,3.515,0,0,1-.362-1.136,3.708,3.708,0,0,1,.156-1.453c.3-.98.615-1.835.839-2.463A5.184,5.184,0,0,1-182.876,1072.717Z" fill="#356fa1"/><path d="M-161.326,1078.48a2.923,2.923,0,0,1-.579-.007l-1.572-.1c-1.327-.095-3.158-.241-5.18-.416l-.965-.084-.106-.009.007-.107c.112-1.794.107-3.392.179-4.537.032-.572.072-1.031.109-1.346a2.12,2.12,0,0,1,.081-.485,2.409,2.409,0,0,1,0,.491c-.011.357-.025.807-.042,1.346-.034,1.142,0,2.738-.107,4.545l-.1-.116.965.083c2.022.175,3.851.345,5.174.48l1.566.17A2.869,2.869,0,0,1-161.326,1078.48Z" fill="#356fa1"/><path d="M-161.433,1070.507a1.375,1.375,0,0,1-.287-.05l-.815-.183a24.781,24.781,0,0,0-3.012-.529,11.146,11.146,0,0,0-2.1-.024,10.386,10.386,0,0,0-2.352.505c-1.625.509-3.312,1.393-5.259,1.865a9.1,9.1,0,0,1-1.465.222,7.25,7.25,0,0,1-1.441-.081,8.994,8.994,0,0,1-2.551-.915,30.617,30.617,0,0,0-4.041-2.059,5.815,5.815,0,0,0-2.985-.329,6.02,6.02,0,0,0-1.063.341,2.9,2.9,0,0,1,1.045-.425,5.734,5.734,0,0,1,3.053.265,29.028,29.028,0,0,1,4.083,2.025,8.877,8.877,0,0,0,2.495.884,7.006,7.006,0,0,0,2.82-.144c1.908-.46,3.6-1.337,5.247-1.843a10.372,10.372,0,0,1,2.4-.493,11.1,11.1,0,0,1,2.132.05,21.775,21.775,0,0,1,3.017.6l.805.224A1.493,1.493,0,0,1-161.433,1070.507Z" fill="#356fa1"/><path d="M-170.063,1081.992a4.056,4.056,0,0,1-.557.034,9.434,9.434,0,0,0-1.493.219,20.376,20.376,0,0,0-2.151.644c-.8.276-1.681.6-2.641.842a7.841,7.841,0,0,1-2.777.24,4.993,4.993,0,0,1-2.145-.767,3.542,3.542,0,0,1-1.077-1.095,2.5,2.5,0,0,1-.185-.375c-.035-.089-.049-.137-.042-.14s.1.176.3.468a3.751,3.751,0,0,0,1.089,1.01,5.011,5.011,0,0,0,2.084.7,7.906,7.906,0,0,0,2.7-.253c.944-.235,1.821-.553,2.629-.82a17.73,17.73,0,0,1,2.184-.6,7.668,7.668,0,0,1,1.523-.152A2,2,0,0,1-170.063,1081.992Z" fill="#356fa1"/><path d="M-178.818,1113.152" fill="none" stroke="#fff" stroke-miterlimit="10" stroke-width="0.021"/><g opacity="0.3"><path d="M-169.443,1071.678c-.913,2.256-1.021,4.741-1.336,7.154s-.911,4.922-2.562,6.71c-1.7,1.843-4.235,2.62-6.643,3.321l10.551-.922Z"/></g><path d="M-170.014,1131.608s3.788-16.107,7.17-25.933c3.409-9.907-1.478-16.2-1.478-16.2l-19.172,2.24-3.688,14.175s-2.933,15.137-1.758,26.3Z" fill="#356fa1"/><path d="M-164.491,1109.373c-.023.012-.14-.31-.5-.793a5.054,5.054,0,0,0-2-1.53,7.522,7.522,0,0,0-3.695-.562,33.541,33.541,0,0,0-4.585.841,13.046,13.046,0,0,1-4.682.32,10.039,10.039,0,0,1-3.551-1.439,22.513,22.513,0,0,0-2.261-1.22c-.555-.243-.88-.333-.874-.353a.956.956,0,0,1,.24.051,5.88,5.88,0,0,1,.667.223,18.671,18.671,0,0,1,2.305,1.163,10.174,10.174,0,0,0,3.5,1.374,13.138,13.138,0,0,0,4.606-.336,32.023,32.023,0,0,1,4.617-.827,7.559,7.559,0,0,1,3.773.623,4.959,4.959,0,0,1,2.006,1.621,2.691,2.691,0,0,1,.215.347,1.938,1.938,0,0,1,.133.267A1.052,1.052,0,0,1-164.491,1109.373Z" fill="#356fa1"/><path d="M-169.014,1125.542a6.438,6.438,0,0,0-.6-.621,4.325,4.325,0,0,0-2.1-.938,7.008,7.008,0,0,0-3.4.4c-1.247.41-2.532,1.1-3.975,1.623a8.8,8.8,0,0,1-4.273.517,9.056,9.056,0,0,1-3.337-1.123,8.1,8.1,0,0,1-1.876-1.456,5.037,5.037,0,0,1-.424-.487.943.943,0,0,1-.131-.184c.019-.015.213.227.616.61a8.7,8.7,0,0,0,1.891,1.38,9.138,9.138,0,0,0,3.286,1.058,8.74,8.74,0,0,0,4.173-.523c1.421-.519,2.715-1.2,3.985-1.608a7.031,7.031,0,0,1,3.5-.363,4.26,4.26,0,0,1,2.134,1.028,2.989,2.989,0,0,1,.427.489A.833.833,0,0,1-169.014,1125.542Z" fill="#356fa1"/><g opacity="0.2"><path d="M-185.8,1114.388a5.216,5.216,0,0,0-.143,2.331,1.79,1.79,0,0,0,1.626,1.45c.413-.012.862-.212,1.215,0a1.384,1.384,0,0,1,.462.88,4.583,4.583,0,0,0,3.422,3.19,4.583,4.583,0,0,0,4.4-1.593,6.265,6.265,0,0,0,1.049-4.763,25.387,25.387,0,0,0-1.417-4.8,61.3,61.3,0,0,1-2.461-10,3.457,3.457,0,0,1,.075-2.025c.48-1.036,1.78-1.338,2.9-1.533a106.637,106.637,0,0,0,12.682-3.014,18.356,18.356,0,0,0-7.21.276q-3.965.726-7.873,1.724a3.8,3.8,0,0,0-1.822.841,3.978,3.978,0,0,0-.85,1.879,63.071,63.071,0,0,1-6.406,15.614" fill="#356fa1"/></g><path d="M-179.995,1097.166l18.359-2.97a22.281,22.281,0,0,0-.828-2.606,7.089,7.089,0,0,0-1.858-2.113c-1.093-1.1-16.4,5.651-16.4,5.651Z" fill="#375a64"/><path d="M-180,1097.166l-5.064-1.684.754-4.187,4.963,3.87Z" fill="#375a64"/><path d="M-179.927,1097.162a38.21,38.21,0,0,0-1.36,8.388c.046,3.338.172,10.308.636,12.768s7.141-.351,5.853-2.635a51.7,51.7,0,0,1-3.632-12.417c-.058-1.933.118-6.736.118-6.736Z" fill="#375a64"/><path d="M-175.206,1114.983a2.512,2.512,0,0,1-.5.8,5.9,5.9,0,0,1-1.758,1.449,5.868,5.868,0,0,1-2.176.677,2.5,2.5,0,0,1-.943-.024c0-.037.359-.037.922-.131a6.85,6.85,0,0,0,2.092-.716,6.839,6.839,0,0,0,1.745-1.358C-175.434,1115.263-175.238,1114.963-175.206,1114.983Z" fill="#1a2e35"/><path d="M-178.764,1119.28c-.057.022-.227-.287-.38-.69s-.23-.747-.173-.769.227.287.38.69S-178.707,1119.259-178.764,1119.28Z" fill="#1a2e35"/><path d="M-176.682,1118.5c-.055.028-.257-.264-.452-.651s-.309-.724-.254-.752.257.265.451.652S-176.628,1118.469-176.682,1118.5Z" fill="#1a2e35"/><path d="M-174.942,1117.193c-.053.03-.274-.259-.494-.645s-.356-.724-.3-.754.275.258.495.644S-174.889,1117.162-174.942,1117.193Z" fill="#1a2e35"/><path d="M-181.144,1096.232c-1.763,3.221-1.008,7.458-3.074,10.492-.825,1.212-2.068,2.17-2.546,3.555a3.388,3.388,0,0,0,.586,3.284,2.877,2.877,0,0,0,3.175.791,3.507,3.507,0,0,0,1.746-1.855,10.378,10.378,0,0,0,.651-2.518q.978-5.7,1.954-11.406a3.469,3.469,0,0,0-.123-2.262c-.372-.674-1.461-.968-1.9-.338" fill="#375a64"/><path d="M-181.122,1114.158a4.147,4.147,0,0,1-.087-.68c-.043-.439-.091-1.075-.135-1.862-.091-1.573-.152-3.752-.1-6.158s.217-4.58.38-6.148c.081-.784.157-1.418.22-1.854a4.056,4.056,0,0,1,.119-.675,4.177,4.177,0,0,1-.033.685c-.039.477-.09,1.1-.151,1.858-.122,1.569-.258,3.739-.314,6.139s-.018,4.574.033,6.147l.065,1.863A3.972,3.972,0,0,1-181.122,1114.158Z" fill="#1a2e35"/><path d="M-182.308,1113.805a2.151,2.151,0,0,1-.836-.1,5.428,5.428,0,0,1-1.842-.859,5.433,5.433,0,0,1-1.4-1.472,2.112,2.112,0,0,1-.357-.762,8.425,8.425,0,0,0,1.887,2.055A8.463,8.463,0,0,0-182.308,1113.805Z" fill="#1a2e35"/><path d="M-184.467,1113.057c.038.049-.2.292-.523.543s-.62.417-.658.368.2-.291.524-.543S-184.5,1113.009-184.467,1113.057Z" fill="#1a2e35"/><path d="M-186.13,1111.748c.032.054-.119.2-.282.384s-.291.351-.349.326-.008-.258.184-.473S-186.158,1111.695-186.13,1111.748Z" fill="#1a2e35"/><path d="M-178.169,1094.708c.01-.005.075.081.136.264a1.814,1.814,0,0,1,.062.81,1.968,1.968,0,0,1-.532,1.088,1.913,1.913,0,0,1-1.378.549,1.912,1.912,0,0,1-1.37-.568,1.97,1.97,0,0,1-.517-1.1,1.809,1.809,0,0,1,.073-.809c.064-.182.13-.267.14-.262a2.693,2.693,0,0,0-.059,1.046,1.9,1.9,0,0,0,.508.978,1.756,1.756,0,0,0,1.227.491,1.754,1.754,0,0,0,1.232-.474,1.891,1.891,0,0,0,.522-.97A2.717,2.717,0,0,0-178.169,1094.708Z" fill="#1a2e35"/><path d="M-179.143,1097.11a10.4,10.4,0,0,0-.442-1.255,10.325,10.325,0,0,0-.781-1.077,1.85,1.85,0,0,1,.977.974A1.852,1.852,0,0,1-179.143,1097.11Z" fill="#1a2e35"/><path d="M-194.171,1093.111c.194-.939,4.145-.323,4.483-.3s.389-.46.083-.469c-.441-.012-5.069-.253-4.888-1.177.1-.512,1-.247,1-.247s4.313.545,4.384.106-2.45-.851-3.31-.927-1.159-.511-.813-.859c.236-.238,2.875-.066,3.723.029s3.172.4,2.148-.682a3.823,3.823,0,0,1-1.276-2.7.466.466,0,0,1,.878.067,5.424,5.424,0,0,0,.806,1.266,3.545,3.545,0,0,0,.894.807c.4.25.746.447,1.046.607,2.36-.041,9-.393,14.384-2.957.972-.462,1.041-7.859,1.041-7.859l8.258.735a74.093,74.093,0,0,1-.627,7.649c-1.155,9.97-23.865,8.448-23.865,8.448v-.022a44.255,44.255,0,0,1-4.77.495c-2.216.016-2.22-.182-2.178-.441.114-.694,3.9-.175,3.149-.758S-194.319,1093.831-194.171,1093.111Z" fill="#ffbf9d"/><g opacity="0.3"><path d="M-186.66,1078.046a18.224,18.224,0,0,0,3.739-5.261,13.427,13.427,0,0,0-1.169,4.973,1.835,1.835,0,0,1-.315,1.435,8.32,8.32,0,0,0-2.215-1.134"/></g><path d="M-170.383,1047.145l-.021,1.067-.215,15.979a3.426,3.426,0,0,1-3.625,3.269h0a3.621,3.621,0,0,1-3.641-3.469c-.006-1.967-.049-4.038-.049-4.038s-2.534-.421-3.059-3.727a35.416,35.416,0,0,1-.04-6.545,3.492,3.492,0,0,1,3.852-3.255Z" fill="#ffbf9d"/><path d="M-177.934,1059.953a8.42,8.42,0,0,0,4.429-1.181s-1.075,2.271-4.384,1.962Z" fill="#ff9a6c"/><path d="M-169.825,1062.3c-.976-.339-2.13-.684-2.5-1.65a4.889,4.889,0,0,1-.071-3.047,2.049,2.049,0,0,0,.114-1.4,2.645,2.645,0,0,0-.722-.74,3.081,3.081,0,0,1-.938-2.085,5.354,5.354,0,0,1,.419-2.287,1.83,1.83,0,0,0,.2-1.243,1.942,1.942,0,0,0-.575-.7,5.423,5.423,0,0,1-1.148-1.537,1.532,1.532,0,0,1-.157-1.311,1.615,1.615,0,0,1,1.412-.693,4.177,4.177,0,0,1,3.589,1.2,5.555,5.555,0,0,1,.886,3.351,50.973,50.973,0,0,1-.31,11.1" fill="#1a2e35"/><path d="M-182.286,1046.777a5.3,5.3,0,0,0,.565.307,3.5,3.5,0,0,1,.477.415c.086.082.179.174.261.268.022.024.036.048.06.073l.094.094.229.218a5.731,5.731,0,0,0,.708.558,3.749,3.749,0,0,0,1.23.537,3.82,3.82,0,0,0,2.508-.306,3.891,3.891,0,0,0,1.376-1.1c.564-.75.65-1.358.391-1.688s-.911-.283-1.641-.1a9.954,9.954,0,0,1-1.082.214,2.548,2.548,0,0,1-.86-.024,1.924,1.924,0,0,1-.4-.143c-.184-.082-.416-.205-.683-.331-.133-.063-.274-.127-.425-.185-.074-.03-.154-.058-.23-.084s-.177-.058-.263-.079a2.892,2.892,0,0,0-.99-.081,1.792,1.792,0,0,0-1.353.7A.542.542,0,0,0-182.286,1046.777Z" fill="#1a2e35"/><path d="M-366.54,1162.115-367.5,1166l6.6.742.236-3.845Z" fill="#375a64"/><path d="M-363.559,1162.305a8.107,8.107,0,0,1-.217,1.782,8.25,8.25,0,0,1-.414,1.753,8.181,8.181,0,0,1,.217-1.782A8.321,8.321,0,0,1-363.559,1162.305Z" fill="#1a2e35"/><path d="M-360.868,1166.316a5.635,5.635,0,0,1-.957-.109l-2.291-.338c-.895-.136-1.7-.273-2.285-.391a4.683,4.683,0,0,1-.93-.235,5.467,5.467,0,0,1,.956.109l2.292.338c.894.135,1.7.273,2.284.391A4.525,4.525,0,0,1-360.868,1166.316Z" fill="#1a2e35"/><path d="M-336.346,1164.715l-.07-2.41h-7.151l.047,4.344.445.018c1.979.066,10.071.192,11.384-.238C-330.227,1165.949-336.346,1164.715-336.346,1164.715Z" fill="#375a64"/><path d="M-343.625,1166.487a.7.7,0,0,0,.123.01l.355.014,1.3.027c1.1.016,2.623.017,4.3-.018s3.2-.1,4.3-.164l1.3-.083.354-.028a.673.673,0,0,0,.122-.016.7.7,0,0,0-.123,0l-.355.013-1.3.055c-1.1.046-2.619.1-4.3.138s-3.2.044-4.3.044h-1.3l-.354,0A.588.588,0,0,0-343.625,1166.487Z" fill="#1a2e35"/><path d="M-333.967,1166.472a3.013,3.013,0,0,1,.23-.627,2.973,2.973,0,0,1,.433-.509.97.97,0,0,0-.508.465A.97.97,0,0,0-333.967,1166.472Z" fill="#1a2e35"/><path d="M-336.1,1165.446c.02.012.118-.113.219-.28s.166-.313.146-.325-.119.113-.22.28S-336.125,1165.433-336.1,1165.446Z" fill="#1a2e35"/><path d="M-336.691,1165.151c.016.018.127-.06.248-.174s.206-.22.19-.237-.128.06-.249.174S-336.708,1165.134-336.691,1165.151Z" fill="#1a2e35"/><path d="M-337.073,1164.483a.843.843,0,0,0,.375.04.852.852,0,0,0,.374-.048.851.851,0,0,0-.375-.039A.843.843,0,0,0-337.073,1164.483Z" fill="#1a2e35"/><path d="M-337.21,1164.009a.725.725,0,0,0,.42.112.726.726,0,0,0,.43-.067,2.477,2.477,0,0,0-.425-.02A2.323,2.323,0,0,0-337.21,1164.009Z" fill="#1a2e35"/><path d="M-335.875,1164.815a1.3,1.3,0,0,0,.46-.013,2.619,2.619,0,0,0,.488-.119,1.321,1.321,0,0,0,.278-.122.246.246,0,0,0,.111-.145.181.181,0,0,0-.074-.183.846.846,0,0,0-1.039.27.818.818,0,0,0-.143.311.248.248,0,0,0-.009.124,1.3,1.3,0,0,1,.2-.4.83.83,0,0,1,.388-.264.712.712,0,0,1,.549.025c.075.053.048.139-.032.19a1.422,1.422,0,0,1-.257.116,3.214,3.214,0,0,1-.471.134C-335.7,1164.8-335.876,1164.8-335.875,1164.815Z" fill="#1a2e35"/><path d="M-335.755,1164.835a.458.458,0,0,0,.046-.321.767.767,0,0,0-.133-.333.465.465,0,0,0-.389-.227.184.184,0,0,0-.137.216.5.5,0,0,0,.083.2,1.386,1.386,0,0,0,.223.274.678.678,0,0,0,.268.181c.008-.012-.094-.081-.224-.224a1.582,1.582,0,0,1-.2-.272c-.065-.1-.112-.27,0-.293s.235.1.307.188a.75.75,0,0,1,.137.3A1.708,1.708,0,0,1-335.755,1164.835Z" fill="#1a2e35"/><path d="M-343.522,1164.523c0,.016.205-.024.53.007a2.31,2.31,0,0,1,1.165.45,2.312,2.312,0,0,1,.745,1.005c.116.3.131.511.147.508a.411.411,0,0,0,0-.144,1.934,1.934,0,0,0-.087-.385,2.218,2.218,0,0,0-.749-1.053,2.222,2.222,0,0,0-1.214-.443,1.912,1.912,0,0,0-.394.019A.384.384,0,0,0-343.522,1164.523Z" fill="#1a2e35"/><path d="M-340.037,1165.816a4.087,4.087,0,0,0,1.048.081,4.126,4.126,0,0,0,1.047-.107c0-.026-.471.013-1.048.02S-340.035,1165.79-340.037,1165.816Z" fill="#1a2e35"/><path d="M-341.441,1165.844c-.018.018.04.1.09.2s.079.2.1.2.035-.114-.024-.237S-341.426,1165.827-341.441,1165.844Z" fill="#1a2e35"/><path d="M-341.985,1165.2c-.017.017.031.091.107.165s.151.119.167.1-.031-.091-.107-.165S-341.968,1165.18-341.985,1165.2Z" fill="#1a2e35"/><path d="M-342.749,1164.913c.005.024.1.021.207.056s.183.089.2.072-.043-.114-.175-.155S-342.757,1164.891-342.749,1164.913Z" fill="#1a2e35"/><path d="M-343.291,1164.783c-.009.022.033.058.093.08s.115.021.124,0-.034-.058-.094-.08S-343.283,1164.76-343.291,1164.783Z" fill="#1a2e35"/><path d="M-310.142,1071.432l-2.036.971-1.874-2.94,1.1-2.269c.1-.211.215-.447.332-.719a3.1,3.1,0,0,0,.241-1,4.7,4.7,0,0,0-.033-1.277c-.1-.379.3-.689.573-.469a3.318,3.318,0,0,1,.374,2.508c-.2,1.251,1.254-.076,1.793-.55a11.624,11.624,0,0,1,2.546-1.8c.4.079.388.533-.161.993s-2.1,1.959-1.845,2.238h.012a1.532,1.532,0,0,1,1.329,1.188c.138.616.25,1.466-.1,1.747A20.089,20.089,0,0,1-310.142,1071.432Z" fill="#c78976"/><path d="M-349.609,1044.015l-.054,17.678,7.584.361.219-4.3s2.694.534,3.389-1.967c.444-1.6.333-13.949.333-13.949Z" fill="#c78976"/><path d="M-336.425,1043.582a15.011,15.011,0,0,1-2.944,2.99l-1.1,2.945c-.955-.748-2.237-.7-2.479.972-.176,1.213,1.331,1.458,1.331,1.458a21.969,21.969,0,0,1-2.749,4.12,4.069,4.069,0,0,1-3.657,1.717h-1.653s-3.383-2.827-2.715-10.273,7.363-5.273,8.961-7.134C-340.826,1037.347-334.72,1040.056-336.425,1043.582Z" fill="#1a2e35"/><path d="M-352.013,1053.737s.074,0,.212,0a3.323,3.323,0,0,0,.6-.071,4.287,4.287,0,0,0,1.939-1.03A10.832,10.832,0,0,0-347.3,1050a9.51,9.51,0,0,1,2.554-3.13,6.141,6.141,0,0,1,1.937-.825c.659-.172,1.307-.277,1.918-.395a7.224,7.224,0,0,0,3.06-1.142,3.315,3.315,0,0,0,1.24-1.787,2.743,2.743,0,0,0,.069-.809s.011.072.023.211a2.46,2.46,0,0,1-.058.606,3.315,3.315,0,0,1-1.236,1.828,7.207,7.207,0,0,1-3.083,1.172,10.157,10.157,0,0,0-3.82,1.214,9.517,9.517,0,0,0-2.534,3.1,10.7,10.7,0,0,1-1.995,2.64,4.255,4.255,0,0,1-1.974,1.017A2.4,2.4,0,0,1-352.013,1053.737Z" fill="#375a64"/><path d="M-352.4,1047.681s.119-.048.351-.126a5.039,5.039,0,0,1,1.039-.249,2.359,2.359,0,0,1,1.63.351,1.36,1.36,0,0,1,.583.87,1.225,1.225,0,0,1-.335,1.114.963.963,0,0,1-.6.241,1.245,1.245,0,0,1-.651-.175,1.955,1.955,0,0,1-.871-1.1,2.719,2.719,0,0,1,.753-2.885,2.737,2.737,0,0,1,1.535-.687,4.706,4.706,0,0,1,1.746.226,12.151,12.151,0,0,0,1.761.422,7.13,7.13,0,0,0,1.857,0,6.139,6.139,0,0,0,1.785-.493,2.1,2.1,0,0,0,1.194-1.251,1.623,1.623,0,0,0-.395-1.582,1.388,1.388,0,0,0-1.523-.225,1.156,1.156,0,0,0-.562.526,1.271,1.271,0,0,0-.121.744,1.726,1.726,0,0,0,.768,1.21,2.523,2.523,0,0,0,1.322.372,3.98,3.98,0,0,0,1.27-.19,4.583,4.583,0,0,0,1.881-1.145,4.858,4.858,0,0,0,.973-1.361,5.137,5.137,0,0,0,.358-1c.047-.239.076-.364.076-.364s-.018.127-.059.368a4.915,4.915,0,0,1-.344,1.012,4.858,4.858,0,0,1-.969,1.381,4.626,4.626,0,0,1-1.9,1.169,4.011,4.011,0,0,1-1.29.2,2.59,2.59,0,0,1-1.361-.379,1.8,1.8,0,0,1-.805-1.261,1.355,1.355,0,0,1,.127-.791,1.229,1.229,0,0,1,.6-.563,1.468,1.468,0,0,1,1.615.238,1.708,1.708,0,0,1,.421,1.667,2.195,2.195,0,0,1-1.239,1.306,6.22,6.22,0,0,1-1.813.5,7.207,7.207,0,0,1-1.879-.005,12.01,12.01,0,0,1-1.773-.426,4.624,4.624,0,0,0-1.715-.225,2.655,2.655,0,0,0-1.489.664,2.644,2.644,0,0,0-.737,2.8,1.883,1.883,0,0,0,.835,1.065,1.172,1.172,0,0,0,.615.168.892.892,0,0,0,.559-.222,1.169,1.169,0,0,0,.322-1.057,1.314,1.314,0,0,0-.556-.84,2.34,2.34,0,0,0-1.6-.357,5.355,5.355,0,0,0-1.038.232Z" fill="#375a64"/><path d="M-357.4,1095.8l-10.1,66.311,8.385,1.065,11.832-55.62,2.979,55.993,9.088-.159-1.548-69.3Z" fill="#1a2e35"/><path d="M-344.5,1163.768l-.011-.2-2.893-54.391-11.539,54.241-8.794-1.116,10.154-66.692.167-.013,20.864-1.731.005.225L-335,1163.6Zm-2.651-57.822,3.053,57.391,8.671-.151-1.539-68.865-20.248,1.68-10.039,65.93,7.977,1.014Z" fill="#1a2e35"/><path d="M-337.915,1163.288c-.061,0-.111-13.286-.111-29.672s.05-29.675.111-29.675.11,13.284.11,29.675S-337.854,1163.288-337.915,1163.288Z" fill="#375a64"/><path d="M-360.958,1163.046a.657.657,0,0,1,.018-.145l.074-.42c.073-.382.176-.923.308-1.613.282-1.411.685-3.431,1.182-5.92,1.014-5,2.454-11.889,4.109-19.489s3.216-14.471,4.372-19.436l1.389-5.875c.167-.682.3-1.216.391-1.594l.107-.413a.645.645,0,0,1,.044-.139.815.815,0,0,1-.022.144l-.086.418-.351,1.6c-.314,1.4-.764,3.413-1.319,5.89-1.117,4.974-2.652,11.847-4.309,19.448s-3.119,14.486-4.172,19.474c-.526,2.483-.953,4.5-1.251,5.906l-.348,1.6-.1.416A.712.712,0,0,1-360.958,1163.046Z" fill="#375a64"/><path d="M-344.3,1107.5a9.4,9.4,0,0,1-1.43.14c-.885.063-2.108.126-3.45.258s-2.555.311-3.435.422a9.625,9.625,0,0,1-1.43.143,9.025,9.025,0,0,1,1.407-.3c.874-.151,2.085-.353,3.436-.488s2.578-.171,3.465-.194A9.055,9.055,0,0,1-344.3,1107.5Z" fill="#375a64"/><path d="M-336.545,1103.194a2.22,2.22,0,0,1-.994.114,4.281,4.281,0,0,1-2.28-.79,4.282,4.282,0,0,1-1.477-1.91,2.218,2.218,0,0,1-.208-.978c.037-.007.1.37.352.917a4.576,4.576,0,0,0,1.462,1.791,4.58,4.58,0,0,0,2.163.815C-336.928,1103.217-336.55,1103.157-336.545,1103.194Z" fill="#375a64"/><path d="M-358.4,1099.555h22.089l-.855-17.855c-.141-3.508-.119-3.926-.206-7.165,0,0,3.3,3.987,5.891,6.783a5.284,5.284,0,0,0,6.134,1.177l13.571-9.468-2.541-6.5-12.333,7.549c-.565-.351-5.367-7.2-8.685-10.544a11.74,11.74,0,0,0-8-3.461,58.532,58.532,0,0,0-7.493.3,7.839,7.839,0,0,0-6.976,7.145c-.24,2.866-.047,6.194-.047,11.85Z" fill="#a0a603"/><path d="M-354.851,1062.008c-2.084.925-10.782,12.068-11.4,19.307-.458,5.4,10.038,4.809,10.038,4.809s.716-22.138.4-21.825" fill="#a0a603"/><path d="M-356.979,1063.9s0,.08-.013.232l-.052.662c-.044.575-.1,1.408-.157,2.438-.117,2.06-.217,4.909-.314,8.056s-.187,6-.293,8.059c-.05,1.031-.1,1.865-.148,2.44l-.055.663c-.014.151-.026.23-.026.23s0-.08.008-.232l.039-.663.12-2.44c.089-2.062.169-4.912.266-8.06s.208-6,.34-8.056c.063-1.031.131-1.863.186-2.438l.069-.661C-356.993,1063.975-356.979,1063.9-356.979,1063.9Z" fill="#1a2e35"/><path d="M-357.838,1078.1a2.7,2.7,0,0,1-.3.417c-.193.249-.471.584-.793.941s-.63.667-.858.884a2.623,2.623,0,0,1-.385.335,3.176,3.176,0,0,1,.341-.379c.216-.228.514-.544.836-.9s.606-.684.811-.922A3.258,3.258,0,0,1-357.838,1078.1Z" fill="#1a2e35"/><path d="M-327.164,1076.27a6.891,6.891,0,0,1,.208-1.084,6.851,6.851,0,0,1,.294-1.064,7.065,7.065,0,0,1-.208,1.084A6.925,6.925,0,0,1-327.164,1076.27Z" fill="#1a2e35"/><path d="M-325.927,1076.46a9.016,9.016,0,0,1-.324-1.22,8.954,8.954,0,0,1-.237-1.239,9.011,9.011,0,0,1,.324,1.22A9.142,9.142,0,0,1-325.927,1076.46Z" fill="#1a2e35"/><path d="M-336.8,1075.111s-.047-.038-.129-.115l-.355-.344c-.307-.3-.75-.735-1.277-1.294a14.949,14.949,0,0,1-3.312-4.965,8.1,8.1,0,0,1-.52-3.253,6.7,6.7,0,0,1,.587-2.626,3.839,3.839,0,0,1,1.145-1.4,3.511,3.511,0,0,1,.414-.271c.1-.057.152-.082.152-.082s-.208.116-.545.38a3.9,3.9,0,0,0-1.11,1.4,6.722,6.722,0,0,0-.561,2.6,8.069,8.069,0,0,0,.521,3.219,15.267,15.267,0,0,0,3.274,4.953c.521.563.957,1.005,1.256,1.312l.344.355C-336.842,1075.065-336.8,1075.111-336.8,1075.111Z" fill="#1a2e35"/><path d="M-351.9,1068.8c-.048.038-.412-.342-.814-.849a3.191,3.191,0,0,1-.641-.987c.047-.038.412.343.814.85A3.193,3.193,0,0,1-351.9,1068.8Z" fill="#fafafa"/><path d="M-346.625,1074.8a6.172,6.172,0,0,1-1.084,1.238,6.228,6.228,0,0,1-1.241,1.082,6.2,6.2,0,0,1,1.085-1.238A6.2,6.2,0,0,1-346.625,1074.8Z" fill="#fafafa"/><path d="M-341.516,1083.393a9.863,9.863,0,0,1-.6-1.082,9.71,9.71,0,0,1-.65-1.054,2.257,2.257,0,0,1,.84.942A2.248,2.248,0,0,1-341.516,1083.393Z" fill="#fafafa"/><path d="M-354.76,1082.419a4.318,4.318,0,0,1-.566-1.694,4.306,4.306,0,0,1-.045-1.786c.065,0,.092.793.262,1.748S-354.7,1082.4-354.76,1082.419Z" fill="#fafafa"/><path d="M-347.727,1086.2a2.907,2.907,0,0,1-.406-1.429,2.892,2.892,0,0,1,.146-1.48c.064.01,0,.663.074,1.46S-347.665,1086.184-347.727,1086.2Z" fill="#fafafa"/><path d="M-350.508,1091.707a7.632,7.632,0,0,1-1.607-.874,7.7,7.7,0,0,1-1.491-1.062,7.592,7.592,0,0,1,1.608.874A7.668,7.668,0,0,1-350.508,1091.707Z" fill="#fafafa"/><path d="M-339.572,1090.079a19.591,19.591,0,0,1-1.666,1.036c-.913.573-1.61,1.107-1.652,1.058a5.742,5.742,0,0,1,1.534-1.245A5.74,5.74,0,0,1-339.572,1090.079Z" fill="#fafafa"/><path d="M-353.327,1096.3a6.85,6.85,0,0,1-1.716-.229,6.822,6.822,0,0,1-1.672-.447,6.892,6.892,0,0,1,1.715.23A6.924,6.924,0,0,1-353.327,1096.3Z" fill="#fafafa"/><path d="M-345.287,1097.427a2.727,2.727,0,0,1-.827-1.055,2.729,2.729,0,0,1-.431-1.268,8.443,8.443,0,0,1,.625,1.163A8.328,8.328,0,0,1-345.287,1097.427Z" fill="#fafafa"/><path d="M-337.745,1095.678c.047.039-.182.39-.511.784s-.634.682-.681.643.182-.39.512-.784S-337.791,1095.639-337.745,1095.678Z" fill="#fafafa"/><path d="M-352.836,1072.359c.034.051-.263.309-.664.576s-.753.444-.787.393.263-.309.664-.576S-352.87,1072.308-352.836,1072.359Z" fill="#fafafa"/><path d="M-347.111,1065.964a6.432,6.432,0,0,1-.632-1.74,6.46,6.46,0,0,1-.323-1.822,9.978,9.978,0,0,1,.537,1.765A9.968,9.968,0,0,1-347.111,1065.964Z" fill="#fafafa"/><path d="M-341.613,1071.786a8,8,0,0,1-1.157-.24,7.9,7.9,0,0,1-1.163-.2,2.124,2.124,0,0,1,1.205-.013A2.125,2.125,0,0,1-341.613,1071.786Z" fill="#fafafa"/><path d="M-337.834,1066.84a2.318,2.318,0,0,1-1.3.064,2.328,2.328,0,0,1-1.219-.451,11.579,11.579,0,0,1,1.253.233A11.725,11.725,0,0,1-337.834,1066.84Z" fill="#fafafa"/><path d="M-333.967,1072.357a5.234,5.234,0,0,1,.072-1.874,5.234,5.234,0,0,1,.523-1.8,17,17,0,0,1-.3,1.836A16.929,16.929,0,0,1-333.967,1072.357Z" fill="#fafafa"/><path d="M-329.424,1078.854a6.188,6.188,0,0,1-1.223-1.1,6.188,6.188,0,0,1-1.064-1.256,6.218,6.218,0,0,1,1.223,1.1A6.229,6.229,0,0,1-329.424,1078.854Z" fill="#fafafa"/><path d="M-325.643,1078.355a3.718,3.718,0,0,1-.591,1.12,3.708,3.708,0,0,1-.777,1,3.7,3.7,0,0,1,.591-1.12A3.691,3.691,0,0,1-325.643,1078.355Z" fill="#fafafa"/><path d="M-321.259,1076.218a5.192,5.192,0,0,1-.752-1.3,5.133,5.133,0,0,1-.552-1.392,5.159,5.159,0,0,1,.751,1.3A5.146,5.146,0,0,1-321.259,1076.218Z" fill="#fafafa"/><path d="M-315.287,1073.747a5.659,5.659,0,0,1-1.562-.165,5.644,5.644,0,0,1-1.524-.384,5.687,5.687,0,0,1,1.562.166A5.688,5.688,0,0,1-315.287,1073.747Z" fill="#fafafa"/><path d="M-362.713,1080.1a6.352,6.352,0,0,1,.61-1.555,6.32,6.32,0,0,1,.81-1.46,6.4,6.4,0,0,1-.61,1.554A6.426,6.426,0,0,1-362.713,1080.1Z" fill="#fafafa"/><path d="M-359.548,1074.516a4.825,4.825,0,0,1-1.044-1,4.8,4.8,0,0,1-.88-1.144,4.825,4.825,0,0,1,1.044,1A4.8,4.8,0,0,1-359.548,1074.516Z" fill="#fafafa"/><path d="M-359.81,1083.483c.039.047-.19.3-.511.569s-.613.445-.652.4.189-.3.511-.568S-359.849,1083.437-359.81,1083.483Z" fill="#fafafa"/><path d="M-358.742,1068.582c.048.038-.087.286-.3.553s-.426.453-.474.415.087-.285.3-.553S-358.789,1068.544-358.742,1068.582Z" fill="#fafafa"/><g opacity="0.3"><path d="M-341.012,1070.125c1.434,4.508,2.542,9.24,3.977,13.748l-.342-9.338A22.389,22.389,0,0,1-341.012,1070.125Z"/></g><g opacity="0.3"><path d="M-358.09,1086.142a26.438,26.438,0,0,1,.86-14.956Z"/></g></g></svg>