<svg xmlns="http://www.w3.org/2000/svg" width="1030.001" height="228" viewBox="0 0 1030.001 228"><g transform="translate(-285 -481)"><rect width="735" height="85" transform="translate(475 481)" fill="#ecedcc"/><rect width="735" height="133" transform="translate(475 576)" fill="#dcebf8"/><text transform="translate(600 514)" fill="#12263f" font-size="16" font-family="Roboto-Regular, Roboto"><tspan x="0" y="17" xml:space="preserve"> Son adquiridas con mínimo esfuerzo, como ir a comprar un dulce en la </tspan></text><text transform="translate(600 592)" fill="#12263f" font-size="16" font-family="Roboto-Regular, Roboto"><tspan x="0" y="17">Requieren de un proceso de análisis, comparando con otros productos si </tspan><tspan x="0" y="37">realmente es necesario y según las especialidades. </tspan><tspan x="0" y="57"></tspan><tspan x="0" y="77">Cuando implica una inversión significativa, se debe estar dispuesto a realizar </tspan><tspan x="0" y="97">el esfuerzo por quedarse con el producto que más le conviene.</tspan></text><g transform="translate(285 498)"><path d="M8,0H287a8,8,0,0,1,8,8V36a8,8,0,0,1-8,8H8a8,8,0,0,1-8-8V8A8,8,0,0,1,8,0Z" fill="#a0a603"/><text transform="translate(43 12)" fill="#fff" font-size="16" font-family="Roboto-Black, Roboto" font-weight="800" letter-spacing="0.02em"><tspan x="51.502" y="17">Las convenientes</tspan></text><path d="M11,0,22,9H0Z" transform="translate(159 52) rotate(180)" fill="#a0a603"/></g><g transform="translate(285 617)"><rect width="295" height="44" rx="8" fill="#529ad9"/><text transform="translate(27 12)" fill="#fff" font-size="16" font-family="Roboto-Black, Roboto" font-weight="800" letter-spacing="0.02em"><tspan x="54.557" y="17">Las de selección</tspan></text><path d="M11,0,22,9H0Z" transform="translate(159 52) rotate(180)" fill="#529ad9"/></g><ellipse cx="42.5" cy="7" rx="42.5" ry="7" transform="translate(1230 695)" fill="#f6f6f6"/><g transform="translate(-1181.887 -405.817)"><g transform="translate(2403.836 927.585)"><path d="M2780.129,1506.919l-2.917,12.283-4.368-.025-.16-12.259Z" transform="translate(-2711.553 -1344.136)" fill="#c97e67"/><path d="M2643.652,1504.772l-8.3,11.76-3.234-4.153,4.994-9.224Z" transform="translate(-2611.822 -1341.466)" fill="#c97e67"/><path d="M2734.521,947.927a8.461,8.461,0,0,1,4.579-.876,2.143,2.143,0,0,0-.966-.458,7.1,7.1,0,0,1,2.534.661c10.9-4.2,12.617,11.853,12.388,15.584s3.664,4.947,9.337,7.886c10.824,5.607,11.775,13.116,11.775,13.116-.084.05-.173.106-.266.171-.537-.91-1.642-2.618-2.575-2.876a38.61,38.61,0,0,1,1.5,3.653c-3.193,2.429-9.167,7.811-13.33,11.627a6.121,6.121,0,0,0-.284-2.364l-.514,3.1c-2.228,2.048-3.764,3.489-3.764,3.489.275-3.014-13.632-18.921-20.888-23.684-1.767-2.6-2.395-7.194-2.441-7.555a19.824,19.824,0,0,0,1.485,6.836C2726.947,970.578,2730.524,950.2,2734.521,947.927Z" transform="translate(-2681.117 -946.558)" fill="#33353b"/><path d="M2745.932,1025.765c-.036.016,3.5,1.854,6.166,1.126,2.5-.683,4.141-3.93,4.106-3.937-1.061-.211-1.366-1.668-1.344-7.931l-.479.094-8.062,1.6s.184,2.537.189,4.927C2746.513,1023.647,2746.392,1025.55,2745.932,1025.765Z" transform="translate(-2692.572 -995.133)" fill="#c97e67"/><path d="M2755.408,955.564a6.444,6.444,0,0,0-8.97-.217A34.942,34.942,0,0,1,2755.408,955.564Z" transform="translate(-2692.931 -951.566)" fill="#e37970"/><path d="M2747.264,1016.943s.184,2.537.189,4.927c4.512-.127,6.9-4.242,7.873-6.523Z" transform="translate(-2693.517 -995.364)" fill="#b2604d"/><path d="M2743.758,971.868a23.705,23.705,0,0,0,2.932-6.93c.405-2.28-.757-10.733-9.251-9.516a11.54,11.54,0,0,0-4.786,1.809c-1.844,1.246-4.506,3.935-1.53,11.311l.773,2.492Z" transform="translate(-2681.117 -952.763)" fill="#33353b"/><path d="M2636.652,1297.97l4.273.131,4.626.141a91.3,91.3,0,0,0,16.677-30.965q.21-.665.443-1.346c3.28-9.564,10.08-21.568,13.663-32.435.571-1.731,1.083-3.36,1.542-4.9.147-.494.29-.979.427-1.456a115.225,115.225,0,0,0,4.11-21.636l-25.875.207A482.339,482.339,0,0,1,2636.652,1297.97Z" transform="translate(-2615.038 -1130.281)" fill="#44474f"/><path d="M2708.419,1073.135c.065,12.313-1.806,17.6-1.806,17.6a34.77,34.77,0,0,0,24.246,1.486c.155-.049,10.9-2.5,10.9-2.5-.221-.5-2.18-8.8-2.395-9.253-2.78-5.97-4.891-8.588-5.221-10.423a39.035,39.035,0,0,1-.32-10.316,82.76,82.76,0,0,1,3.193-16.2,84.076,84.076,0,0,1-10.681-3.651c-.859,1.07-3.485,2.188-5.763,2.137-2.623-.058-3.473-1.181-3.337-2.406-2.8,1.555-5.025,3.025-5.025,3.025-2.375,4.126-7.193,8.133-7.542,14.463C2704.584,1058.647,2708.417,1072.791,2708.419,1073.135Z" transform="translate(-2663.296 -1012.574)" fill="#fff"/><path d="M2612.318,1054.844c3.8-4.437,13.64-14.06,23.8-15.241l-8.764,17.072a7.553,7.553,0,0,1-3.087,4.631,50.859,50.859,0,0,1-14.438,6.024,75.841,75.841,0,0,1-12.956-7.87c-2.348-1.721-6.475-8.284-6.475-8.284l1.113-3.724s7.006,3.917,9.509,5.047c1.427.644,4.71,2.181,7.023,3.268A3.61,3.61,0,0,0,2612.318,1054.844Z" transform="translate(-2582.218 -1012.574)" fill="#a0a603"/><path d="M2733.4,984.644s10.674.176,10.681-6.473,1.39-11.1-5.425-11.5-8.141,2.142-8.683,4.361S2730.619,984.427,2733.4,984.644Z" transform="translate(-2681.156 -960.802)" fill="#c97e67"/><path d="M2743.438,962.912s2.922,7.8,7.407,8.953,6.431-.048,6.431-.048a12.7,12.7,0,0,1-4.154-7.5S2745.643,959.2,2743.438,962.912Z" transform="translate(-2690.803 -957.203)" fill="#33353b"/><path d="M2732.731,965.286a9.427,9.427,0,0,0-2.715,3.435c-.532,1.693-.771,5.178-1.787,5.06,0,0-2.2-5.3.273-8.3C2731.126,962.3,2732.731,965.286,2732.731,965.286Z" transform="translate(-2679.372 -958.943)" fill="#33353b"/><path d="M2571.537,1055.064a6.662,6.662,0,0,0-7.467-4.657c-.684.214-2.683,1.012-1.406,3.152.942,1.578,1.35.764,2.832,2.884s3.09,2.6,4.927,2.345Z" transform="translate(-2562.247 -1020.187)" fill="#c97e67"/><path d="M2774.977,1546.84a11.836,11.836,0,0,0,.556,5.036s.715,3.258-2.493,3.318-4-.242-3.633-2.24,1.054-5.453,1.054-5.453Z" transform="translate(-2709.17 -1372.46)" fill="#c97e67"/><path d="M2768.557,1568.682s.069.042.2.107h6.28a1.484,1.484,0,0,0,.177-.107,15.759,15.759,0,0,0-.23-4.71c-3.634,3.33-5.907-.083-5.907-.083A17.03,17.03,0,0,0,2768.557,1568.682Z" transform="translate(-2708.623 -1384.557)" fill="#44474f"/><path d="M2605.5,1544.815s5.916-6.566,7.732-9.907l4.4,2.254-9.833,9.234-2.3-.3Z" transform="translate(-2592.931 -1363.995)" fill="#c97e67"/><path d="M2592.869,1553.729h8.095a11.5,11.5,0,0,0,2.413-3.741,3.966,3.966,0,0,1,2.678-1.79v5.468h1.679l1.59-5.813c1.046-1.925.083-3.67-.655-5.19-.857,0-3.163.585-7.532,5.509a5.728,5.728,0,0,1-4.6,2.145.386.386,0,0,1-.064.034C2593.839,1551.537,2593.085,1553.01,2592.869,1553.729Z" transform="translate(-2583.973 -1369.498)" fill="#44474f"/><path d="M2708.455,1039.6s-6.176,15.256-6.357,18.343-.726,50.489-.726,50.489.363,2.18-3.814,1.272-5.267-1.816-5.267-1.816,4-29.24,2.906-39.41,8.354-26.758,8.354-26.758Z" transform="translate(-2654.514 -1012.574)" fill="#a0a603"/><path d="M2651.362,1343.883l4.626.141a91.3,91.3,0,0,0,16.678-30.965q.21-.665.443-1.346c3.28-9.564,10.08-21.568,13.663-32.435.571-1.731,1.083-3.36,1.542-4.9.147-.494.29-.979.427-1.457l-3.81-2.891s-11.44,18.525-14.981,35.958C2666.872,1321.13,2654.551,1339.351,2651.362,1343.883Z" transform="translate(-2625.475 -1176.062)" fill="#33353b"/><path d="M2693.174,1119.756l.224.691,11.975-3.892a.461.461,0,0,0,.076-.426.34.34,0,0,0-.3-.265Z" transform="translate(-2655.14 -1066.681)" fill="#33353b"/><path d="M2759.337,1295.6c-.066,8.478.363,27.969,1.467,36.038h4.1c2.265,0,3.395-.032,3.395-.032,2.77-14.03,4.74-25.639,6.175-35.642,1.177-8.209,2.223-15.246,3.028-21.3.81-6.1,1.373-11.2,1.575-15.516q.046-1.019.067-1.981t.011-1.88l-22.357-2.179C2757.075,1267.959,2759.373,1290.676,2759.337,1295.6Z" transform="translate(-2700.279 -1164.054)" fill="#44474f"/><path d="M2784.7,1346.394c2.265,0,3.395-.032,3.395-.032,2.77-14.03,4.74-25.639,6.175-35.642,1.177-8.209,2.223-15.246,3.028-21.305.81-6.1,1.373-11.2,1.575-15.515l-8.2,4.826s5.236,1.847,3.239,15.831S2787.482,1344.414,2784.7,1346.394Z" transform="translate(-2720.08 -1178.808)" fill="#33353b"/><path d="M2762.409,1108.287s1.574,5.69,7.023,4.963,13.2-4,13.2-4-2.328-7.357-5.223-17.023c-3.505-11.7-7.844-26.786-9.889-36.3a58.935,58.935,0,0,1-1.111-6.487l-4.52-8.77s-6.74,15.126-7.1,18.94S2762.409,1108.287,2762.409,1108.287Z" transform="translate(-2698.842 -1013.334)" fill="#a0a603"/><path d="M2748.361,1059.046l-5.966-18.372a91.994,91.994,0,0,1,11.317,4.148s2.364,3.048,3.827,10.079c0,0,1.545,16.881-1.905,23.057,0,0-10.9,2.179-28.332-3.814v-4s19.07,1,22.974,1.453Z" transform="translate(-2679.354 -1013.334)" fill="#c97e67"/><path d="M2781.887,1104.869c.243,6.175,1.7,18.161,14.651,24.578.034.016.069.035.1.049-3.5-11.7-7.844-26.786-9.889-36.3C2784.374,1096.751,2781.755,1101.469,2781.887,1104.869Z" transform="translate(-2718.079 -1050.598)" fill="#6f7302"/><path d="M2777.7,1040.674s11.059.779,13.723,6.712,3.511,25.668.121,31.48c0,0-4.667,1.329-12.922-.214l-.305-.058s-2.633-6.447-.272-7.718c0,0,6.962.363,6.236-1.937S2777.7,1040.674,2777.7,1040.674Z" transform="translate(-2714.656 -1013.334)" fill="#a0a603"/><path d="M2710.737,1127.29a9.536,9.536,0,0,1-1.843-3.721c-.324-1.879-1.329-3.274-3.952-3.618s-3.75-.382-3.743.357,2.142,5.9,5.9,8.981S2710.737,1127.29,2710.737,1127.29Z" transform="translate(-2660.835 -1069.413)" fill="#c97e67"/><path d="M2690.209,1129.93l.861-.667.224.691Z" transform="translate(-2653.037 -1076.188)" fill="#33353b"/></g><path d="M2409.421,963.353a.5.5,0,0,1-.261-.073l-69.94-42.529a.5.5,0,1,1,.523-.861l69.94,42.528a.5.5,0,0,1-.262.934Z" transform="translate(0 0)" fill="#33353b"/></g><rect width="190" height="228" transform="translate(1125 481)" fill="none"/></g></svg>