<svg xmlns="http://www.w3.org/2000/svg" xmlns:xlink="http://www.w3.org/1999/xlink" width="400" height="260.63" viewBox="0 0 400 260.63"><defs><linearGradient id="a" x1="0.493" y1="0.905" x2="0.506" y2="0.207" gradientUnits="objectBoundingBox"><stop offset="0" stop-color="#d9d9d9"/><stop offset="1" stop-color="#b1b1b1"/></linearGradient><linearGradient id="b" x1="3.207" y1="0.288" x2="4.212" y2="0.96" xlink:href="#a"/><linearGradient id="c" x1="-0.107" y1="0.142" x2="1.791" y2="1.111" gradientUnits="objectBoundingBox"><stop offset="0" stop-color="#ffe465"/><stop offset="0.173" stop-color="#ffce5d"/><stop offset="0.736" stop-color="#ff8b46"/><stop offset="1" stop-color="#ff713e"/></linearGradient><linearGradient id="d" x1="3.629" y1="0.5" x2="4.629" y2="0.5" gradientUnits="objectBoundingBox"><stop offset="0" stop-color="#ffdc6d"/><stop offset="0.447" stop-color="#ffc173"/><stop offset="1" stop-color="#ff9c7c"/></linearGradient><clipPath id="e"><path d="M377.69,318.819l60.783,23.564a6.827,6.827,0,0,0,9.295-6.365V111.459a6.827,6.827,0,0,0-9.295-6.365L377.69,128.658a6.826,6.826,0,0,0-4.359,6.365V312.454A6.826,6.826,0,0,0,377.69,318.819Z" transform="translate(-373.331 -104.626)" fill="none"/></clipPath><linearGradient id="f" x1="0.265" y1="0.322" x2="1.139" y2="0.985" gradientUnits="objectBoundingBox"><stop offset="0" stop-color="#4d70dc"/><stop offset="1" stop-color="#213e9f"/></linearGradient><linearGradient id="g" x1="2.983" y1="0.5" x2="3.983" y2="0.5" gradientUnits="objectBoundingBox"><stop offset="0" stop-color="#301a61"/><stop offset="1" stop-color="#240973"/></linearGradient><radialGradient id="h" cx="0.5" cy="0.5" r="0.691" gradientTransform="translate(0.202) scale(0.595 1)" gradientUnits="objectBoundingBox"><stop offset="0" stop-color="#fff"/><stop offset="0.179" stop-color="#e8efec"/><stop offset="0.54" stop-color="#c0d2cc"/><stop offset="0.826" stop-color="#a7c1b8"/><stop offset="1" stop-color="#9ebbb1"/></radialGradient><radialGradient id="i" cx="0.852" cy="0.206" r="2.724" gradientTransform="matrix(-0.596, 0, 0, 1, 5.137, 0)" xlink:href="#h"/><linearGradient id="j" x1="0.093" y1="1.134" x2="0.81" y2="0.09" gradientUnits="objectBoundingBox"><stop offset="0" stop-color="#ff7e00"/><stop offset="1" stop-color="#ffe500"/></linearGradient><linearGradient id="k" x1="0.147" y1="0.947" x2="1.051" y2="0" xlink:href="#j"/><linearGradient id="l" x1="0.061" y1="1.06" x2="1.222" y2="-0.229" xlink:href="#j"/><linearGradient id="m" x1="0.19" y1="0.921" x2="1.21" y2="-0.232" xlink:href="#j"/><linearGradient id="n" x1="0" y1="0.5" x2="1" y2="0.5" xlink:href="#g"/><radialGradient id="p" cx="0.5" cy="0.5" r="0.42" gradientTransform="translate(-0.279) scale(1.557 1)" gradientUnits="objectBoundingBox"><stop offset="0" stop-color="#fff"/><stop offset="0.237" stop-color="#deecff"/><stop offset="0.572" stop-color="#b6d6ff"/><stop offset="0.838" stop-color="#9dc9ff"/><stop offset="1" stop-color="#94c4ff"/></radialGradient><linearGradient id="q" x1="-0.072" y1="-0.168" x2="0.822" y2="0.876" gradientUnits="objectBoundingBox"><stop offset="0" stop-color="#7796ff"/><stop offset="1" stop-color="#415fc5"/></linearGradient><clipPath id="r"><ellipse cx="11.267" cy="17.548" rx="11.267" ry="17.548" fill="none"/></clipPath><linearGradient id="u" x1="0" y1="0.5" x2="1" y2="0.5" xlink:href="#q"/><radialGradient id="v" cx="0.03" cy="-0.31" r="1.146" gradientTransform="translate(1.589 0.123) scale(1.398 1.398)" xlink:href="#p"/><linearGradient id="x" x1="-4.821" y1="0.5" x2="-3.283" y2="0.5" xlink:href="#g"/><radialGradient id="z" cx="0.5" cy="0.5" r="0.353" gradientTransform="translate(1.333 -0.208) scale(1.417 1.417)" xlink:href="#p"/><linearGradient id="aa" x1="-0.026" y1="-0.176" x2="0.796" y2="0.88" xlink:href="#q"/><linearGradient id="ab" x1="14.909" y1="0.745" x2="13.331" y2="-0.077" gradientUnits="objectBoundingBox"><stop offset="0" stop-color="#ff9724"/><stop offset="1" stop-color="#ffdb49"/></linearGradient><linearGradient id="ac" x1="16.532" y1="0.668" x2="14.846" y2="-0.155" gradientUnits="objectBoundingBox"><stop offset="0" stop-color="#6f6f6e"/><stop offset="1" stop-color="#c6c6c5"/></linearGradient><linearGradient id="ad" x1="340.722" y1="-2.932" x2="303.772" y2="-18.733" xlink:href="#ab"/><linearGradient id="ae" x1="21.726" y1="0.5" x2="22.726" y2="0.5" xlink:href="#g"/></defs><g transform="translate(-180 -531.542)"><g transform="translate(233.875 531.543)"><g transform="translate(5.802 121.527)"><g transform="translate(0 50.658)"><path d="M224.934,354.92s-22.269-9.263-24.763-19.234,17.747-6.6,33.215,13.715c0,0-22.849-38.314-8.63-41.091s21.929,37.421,21.929,37.421,4.018-19.767,13.311-18.8,3.9,16.2-11.444,27.988Z" transform="translate(-199.96 -308.171)" fill="#9da059"/><path d="M243.762,353.524a115.544,115.544,0,0,0-16.514-43.856" transform="translate(-203.024 -308.339)" fill="#9da059"/><path d="M233.9,355.659s-20.257-9.82-29.381-21.766" transform="translate(-200.472 -311.059)" fill="#9da059"/><path d="M265.45,332.271s-6.884,20.073-16.9,23.206" transform="translate(-205.415 -310.877)" fill="#9da059"/></g><g transform="translate(49.048 4.249)"><path d="M330.69,342.253s-31.712,2.343-49.089-1.107c-10.049-1.995-14.443-8.491-1.243-11.09,6.651-1.31,19.321-12-6.578-15.318-22.591-2.9-24.975-19.378-4.924-19.045,4.71.079-1.785-2.972-7.531-13.633-4.42-8.2-3.66-21.168,3.809-24.864,15.745-7.79,15.328,21.783,21.757,23.169,6.173,1.332,8.55-15.324,17.142-13.265,11.223,2.689-6.987,34.291-4.751,37.114,4.77,6.017,13.678-23.777,22.042-21.381S303.518,334.884,330.69,342.253Z" transform="translate(-255.211 -255.893)" fill="#9da059"/><path d="M324.4,340.988c-17.229-6.885-14.873-19.646-34.868-36.459-16.53-13.9-20.9-29.658-19.562-47.7" transform="translate(-256.842 -255.998)" fill="#9da059"/></g><g transform="translate(121.848 44.446)"><path d="M376.852,346.329s22.269-9.262,24.763-19.234-16.579-8.869-32.048,11.447c0,0,23.116-34.449,8.9-37.227S355.1,337.139,355.1,337.139s-4.018-19.766-13.311-18.8-3.9,16.2,11.444,27.988Z" transform="translate(-337.218 -301.173)" fill="#9da059"/><path d="M364.106,344.935s3.791-24.145,17.946-42.259" transform="translate(-340.236 -301.342)" fill="#9da059"/><path d="M372.344,347.131s18.292-16.624,29.381-19.689" transform="translate(-341.161 -304.122)" fill="#9da059"/><path d="M342.369,323.48s6.884,20.073,16.9,23.206" transform="translate(-337.796 -303.677)" fill="#9da059"/></g><g transform="translate(212.706)"><path d="M439.566,337.287s31.713,2.343,49.089-1.107c10.049-2,14.443-8.491,1.243-11.09-6.651-1.309-17.787-5.929,6.578-15.318,20.353-7.841,23.061-21.187,3.657-16.126-10.057,2.622,3.053-5.89,8.8-16.551,4.42-8.2,3.659-21.169-3.81-24.865-15.745-7.789-18.582,27.39-25.01,28.776-6.173,1.332.874-22.816-10.217-19.63s4.084,30.805,1.08,37.872-4.956-24.234-13.32-21.838S466.739,329.917,439.566,337.287Z" transform="translate(-439.566 -251.106)" fill="#9da059"/><path d="M448.49,336.477c17.229-6.886,14.873-19.647,34.867-36.46,16.53-13.9,22.474-25.873,21.14-43.916" transform="translate(-440.568 -251.667)" fill="#9da059"/></g></g><ellipse cx="137.423" cy="21.761" rx="137.423" ry="21.761" transform="translate(0 206.19)" fill="#afb087" opacity="0.46"/><g transform="translate(116.967 0)"><g transform="translate(43.451 0)"><path d="M385.3,128.658,441.932,106.7v-2.078h6.461v.011a6.827,6.827,0,0,1,6.985,6.822V336.018a6.827,6.827,0,0,1-6.985,6.822v.011h-6.461v-2.078L385.3,318.819a6.826,6.826,0,0,1-4.359-6.365V135.023A6.826,6.826,0,0,1,385.3,128.658Z" transform="translate(-374.418 -104.626)" fill="url(#a)"/><path d="M377.69,318.819l60.783,23.564a6.827,6.827,0,0,0,9.295-6.365V111.459a6.827,6.827,0,0,0-9.295-6.365L377.69,128.658a6.826,6.826,0,0,0-4.359,6.365V312.454A6.826,6.826,0,0,0,377.69,318.819Z" transform="translate(-373.331 -104.626)" fill="url(#b)"/><path d="M441.881,336.328a1.42,1.42,0,0,0,1.351-1.4V115.164a1.42,1.42,0,0,0-1.351-1.4,1.351,1.351,0,0,0-.5.081l-60.8,21.461a1.343,1.343,0,0,0-.9,1.262V313.524a1.343,1.343,0,0,0,.9,1.262l60.8,21.461A1.352,1.352,0,0,0,441.881,336.328Z" transform="translate(-374.239 -105.931)" fill="url(#c)"/><path d="M443.232,249.386V115.164a1.42,1.42,0,0,0-1.351-1.4,1.334,1.334,0,0,0-.5.081l-21.955,7.749c-16.226,21.413,14.2,49.782,11.8,83.186-1.253,17.46-15.678,48.49-51.549,43.948v15.3C414.745,272.036,436.42,259.878,443.232,249.386Z" transform="translate(-374.239 -105.931)" fill="url(#d)"/><path d="M379.683,328.835v15.42a1.343,1.343,0,0,0,.9,1.262l60.8,21.461a1.351,1.351,0,0,0,.5.081,1.42,1.42,0,0,0,1.351-1.4V336.991Z" transform="translate(-374.239 -136.661)" fill="#fffffc" opacity="0.56"/><g clip-path="url(#e)"><g transform="translate(-17.804 49.15)" opacity="0.33" style="mix-blend-mode:multiply;isolation:isolate"><path d="M358.744,207.261,424.2,209.29c4.394.136,8.219-4.24,8.219-9.427V169.951c0-5.187-3.825-8.814-8.219-7.818l-65.451,14.845c-3.515.8-6.185,4.683-6.185,8.986v13.521C352.559,203.789,355.229,207.152,358.744,207.261Z" transform="translate(-352.559 -161.968)" fill="#606060"/></g><ellipse cx="13.719" cy="17.364" rx="13.719" ry="17.364" transform="translate(-1.667 137.095)" fill="#606060" opacity="0.33" style="mix-blend-mode:multiply;isolation:isolate"/><ellipse cx="11.332" cy="16.056" rx="11.332" ry="16.056" transform="translate(43.962 176.203)" fill="#606060" opacity="0.33" style="mix-blend-mode:multiply;isolation:isolate"/><ellipse cx="12.089" cy="18.828" rx="12.089" ry="18.828" transform="translate(37.919 110.371)" fill="#606060" opacity="0.33" style="mix-blend-mode:multiply;isolation:isolate"/></g><path d="M408.941,344.5c0,3.4-.977,6.151-2.183,6.151s-2.183-2.754-2.183-6.151.978-6.152,2.183-6.152S408.941,341.1,408.941,344.5Z" transform="translate(-377.795 -138.02)" fill="url(#f)"/></g><g transform="translate(0 31.84)"><g transform="translate(4.104)"><path d="M335.17,198.582l79.034.546c5.12.036,9.561-5.359,9.561-11.619V151.4c0-6.261-4.441-10.638-9.561-9.428L335.17,160.643c-4.4,1.038-7.745,5.953-7.745,11.36V189C327.425,194.405,330.775,198.551,335.17,198.582Z" transform="translate(-327.425 -141.774)" fill="url(#g)"/></g><g transform="translate(4.104)"><path d="M335.17,198.582l79.034.546c5.12.036,9.561-5.359,9.561-11.619V151.4c0-6.261-4.441-10.638-9.561-9.428L335.17,160.643c-4.4,1.038-7.745,5.953-7.745,11.36V189C327.425,194.405,330.775,198.551,335.17,198.582Z" transform="translate(-327.425 -141.774)" fill="url(#h)"/></g><g transform="translate(0 0)"><path d="M330.376,198.562l78.978.546c5.117.036,9.554-5.356,9.554-11.616V151.4c0-6.26-4.437-10.633-9.554-9.425l-78.978,18.66c-4.392,1.038-7.739,5.951-7.739,11.357v16.988C322.637,194.387,325.984,198.532,330.376,198.562Z" transform="translate(-322.637 -141.774)" fill="url(#i)"/></g><g transform="translate(3.749 17.508)"><path d="M409.775,163.266l-1.675,5.362a1.437,1.437,0,0,1-.818.981l-3.741,1.237a1.9,1.9,0,0,0-.567,2.669l2.712,3.5a1.881,1.881,0,0,1,.307,1.358L405.3,183.9c-.159,1.274.749,2.184,1.522,1.516l3.41-2.948a.811.811,0,0,1,1.039-.083l3.549,2.488c.837.586,1.833-.5,1.658-1.814l-.759-5.67a2.175,2.175,0,0,1,.335-1.488l3.052-4.39c.716-1.03.324-2.651-.651-2.7l-4.126-.191a1.022,1.022,0,0,1-.863-.769l-1.731-4.921C411.341,161.814,410.165,162.015,409.775,163.266Z" transform="translate(-337.82 -162.201)" fill="#72720a"/><g transform="translate(-334.336 -162.836)" stroke-miterlimit="10" fill="url(#j)"><path d="M 381.2324523925781 188.3289794921875 C 380.8938903808594 188.3289794921875 380.5688171386719 188.1738739013672 380.317138671875 187.8922119140625 C 379.9346618652344 187.4642181396484 379.7538757324219 186.7867889404297 379.8335571289062 186.0800628662109 L 380.3975219726562 181.0888977050781 C 380.4407043457031 180.7043609619141 380.3457336425781 180.4089202880859 380.2512512207031 180.2728881835938 L 378.0399475097656 177.0896148681641 C 377.6533813476562 176.5327606201172 377.5632629394531 175.68017578125 377.8102416992188 174.9174041748047 C 377.998779296875 174.3350982666016 378.3495178222656 173.9277191162109 378.7978210449219 173.7702941894531 L 381.8457336425781 172.6997528076172 C 381.8985595703125 172.6812591552734 382.0422668457031 172.5377502441406 382.1288757324219 172.2304992675781 L 383.4892578125 167.4215545654297 C 383.7268981933594 166.5821685791016 384.3036499023438 166.0398712158203 384.9586181640625 166.0398712158203 C 385.5418090820312 166.0398712158203 386.0196838378906 166.4512481689453 386.2370300292969 167.1403045654297 L 387.6377258300781 171.5917205810547 C 387.6994018554688 171.7877502441406 387.7821044921875 171.8606262207031 387.8059692382812 171.8728637695312 L 391.1280212402344 172.0961456298828 C 391.5978393554688 172.1274719238281 392.0094299316406 172.4239196777344 392.2569885253906 172.9094543457031 C 392.6422119140625 173.6649780273438 392.5868835449219 174.7086181640625 392.1224975585938 175.4473724365234 L 389.6632690429688 179.3560485839844 C 389.5103759765625 179.5987396240234 389.4405517578125 179.9589996337891 389.4808654785156 180.2965698242188 L 390.0937194824219 185.3942260742188 C 390.1828918457031 186.1397857666016 389.98193359375 186.8710174560547 389.5561828613281 187.3506774902344 C 389.2769165039062 187.6652984619141 388.9210815429688 187.8385772705078 388.5542602539062 187.8385772705078 C 388.5542297363281 187.8385772705078 388.55419921875 187.8385772705078 388.5541687011719 187.8385772705078 C 388.2811889648438 187.8385620117188 388.0144653320312 187.7422180175781 387.7828369140625 187.5599670410156 L 384.910400390625 185.2978668212891 C 384.907958984375 185.2959442138672 384.90576171875 185.2943115234375 384.9037780761719 185.2929229736328 C 384.8932495117188 185.2989654541016 384.8772888183594 185.31005859375 384.8576965332031 185.3285980224609 L 382.0892028808594 187.9625854492188 C 381.7707214355469 188.2654418945312 381.447509765625 188.3289794921875 381.2324523925781 188.3289794921875 Z" stroke="none"/><path d="M 384.9586181640625 166.6437225341797 C 384.6107482910156 166.6436462402344 384.24462890625 166.9701538085938 384.0703125 167.5859222412109 L 382.7100830078125 172.3943634033203 C 382.5848999023438 172.8383636474609 382.3346557617188 173.1683502197266 382.0458374023438 173.2694854736328 L 378.9978637695312 174.3400421142578 C 378.3070678710938 174.5826110839844 378.0319213867188 176.0191345214844 378.535888671875 176.7451019287109 L 380.7472534179688 179.928466796875 C 380.95556640625 180.2284545898438 381.0498046875 180.6912994384766 380.99755859375 181.1567077636719 L 380.43359375 186.147705078125 C 380.3041687011719 187.2962188720703 381.0437622070312 188.1234588623047 381.6729736328125 187.5251007080078 L 384.4423217773438 184.8903350830078 C 384.70458984375 184.6417541503906 385.0208435058594 184.6160736083984 385.2839965820312 184.8234710693359 L 388.15625 187.0854187011719 C 388.8315734863281 187.6167449951172 389.6355285644531 186.6483001708984 389.4942016601562 185.46630859375 L 388.8812866210938 180.3681793212891 C 388.8247680664062 179.8950347900391 388.9259033203125 179.3936157226562 389.1521606445312 179.0344848632812 L 391.6112670898438 175.1260070800781 C 392.187255859375 174.2097320556641 391.871826171875 172.7509307861328 391.0875244140625 172.6986389160156 L 387.7593994140625 172.4749450683594 C 387.455078125 172.4543609619141 387.1928100585938 172.1895141601562 387.0617065429688 171.7729644775391 L 385.6611328125 167.3219299316406 C 385.5163879394531 166.8630065917969 385.2436218261719 166.6437683105469 384.9586181640625 166.6437225341797 M 384.9585266113281 165.4360198974609 L 384.9588928222656 165.4360198974609 C 385.623046875 165.4361572265625 386.4588928222656 165.8362274169922 386.8128967285156 166.9586791992188 L 388.1766052246094 171.2925567626953 L 391.1685180664062 171.49365234375 C 391.8553771972656 171.5394592285156 392.4484252929688 171.9555358886719 392.7949523925781 172.6351623535156 C 393.2718505859375 173.5705261230469 393.2055358886719 174.8591003417969 392.6337280273438 175.7687377929688 L 390.1743774414062 179.6776275634766 C 390.1076354980469 179.7835540771484 390.05419921875 180.0051422119141 390.0804443359375 180.2249298095703 L 390.6932678222656 185.3221588134766 C 390.8026428222656 186.2368011474609 390.54638671875 187.1446533203125 390.0078735351562 187.7514343261719 C 389.6123657226562 188.1970367431641 389.0961303710938 188.4424285888672 388.5542297363281 188.4424285888672 C 388.1444396972656 188.4424285888672 387.7485961914062 188.3013916015625 387.4094543457031 188.0345306396484 L 384.9365539550781 186.0870819091797 L 382.5054321289062 188.4000701904297 C 382.1387939453125 188.7486877441406 381.6986999511719 188.9328308105469 381.2324523925781 188.9328308105469 C 380.7196350097656 188.9328308105469 380.2346496582031 188.7061614990234 379.8668518066406 188.2945709228516 C 379.3716735839844 187.7404174804688 379.1348876953125 186.8872833251953 379.2334899902344 186.0124359130859 L 379.7974853515625 181.0211029052734 C 379.8204956054688 180.8162689208984 379.7771301269531 180.6573944091797 379.7530212402344 180.6141052246094 L 377.5440063476562 177.4341125488281 C 377.0537109375 176.7278289794922 376.9328002929688 175.6670684814453 377.2357482910156 174.7313842773438 C 377.4837341308594 173.9655456542969 377.9674072265625 173.4218902587891 378.5977172851562 173.2005615234375 L 381.5066223144531 172.1788482666016 C 381.5194702148438 172.1515502929688 381.5343017578125 172.1141662597656 381.5476989746094 172.066650390625 L 382.908203125 167.2571868896484 C 383.221435546875 166.1507720947266 384.0262145996094 165.4360198974609 384.9585266113281 165.4360198974609 Z" stroke="none" fill="#fff"/></g><g transform="translate(-331.465 -163.355)" stroke-miterlimit="10" fill="url(#k)"><path d="M 360.6409301757812 190.0343627929688 C 360.3424987792969 190.0343627929688 360.0555114746094 189.8983764648438 359.832763671875 189.6514434814453 C 359.475830078125 189.2557220458984 359.304931640625 188.6110382080078 359.3756103515625 187.9269256591797 L 359.8435363769531 183.3843841552734 C 359.8771362304688 183.0584869384766 359.8081970214844 182.7785034179688 359.7250061035156 182.6455535888672 L 357.8879089355469 179.7237701416016 C 357.4975891113281 179.1026611328125 357.5239868164062 178.2304840087891 357.7232360839844 177.6415863037109 C 357.8922119140625 177.1423034667969 358.1936340332031 176.7895660400391 358.572021484375 176.6483612060547 L 361.0926513671875 175.7111511230469 C 361.1217346191406 175.6881408691406 361.2170715332031 175.5771789550781 361.2797546386719 175.3338470458984 L 362.4060668945312 170.9741058349609 C 362.5682373046875 170.3467102050781 362.9981689453125 169.6763916015625 363.718505859375 169.6763916015625 C 364.2599487304688 169.6763916015625 364.6968078613281 170.0743255615234 364.8870544433594 170.7408447265625 L 366.0434265136719 174.8040313720703 C 366.0789489746094 174.9281616210938 366.1206970214844 174.9915618896484 366.1427612304688 175.0185852050781 L 368.832763671875 175.2557830810547 C 369.2395935058594 175.2914886474609 369.5856018066406 175.5447998046875 369.8068542480469 175.9690246582031 C 370.1661987304688 176.6580505371094 370.1353454589844 177.6654815673828 369.7334594726562 178.3644866943359 L 367.7108154296875 181.8861541748047 C 367.5889282226562 182.0975646972656 367.5314636230469 182.4281768798828 367.5638732910156 182.7293243408203 L 368.0686340332031 187.3604125976562 C 368.1456604003906 188.0696411132812 367.9525451660156 188.7786712646484 367.5646057128906 189.2109832763672 C 367.3226013183594 189.4806518554688 367.0144958496094 189.6291656494141 366.6970520019531 189.6291656494141 C 366.697021484375 189.6291656494141 366.6969909667969 189.6291656494141 366.6969604492188 189.6291656494141 C 366.4352111816406 189.6291351318359 366.1832885742188 189.5297088623047 365.9684143066406 189.3416442871094 L 363.6814575195312 187.3431701660156 L 361.4386596679688 189.6697235107422 C 361.1482849121094 189.9710845947266 360.8445434570312 190.0343627929688 360.6409301757812 190.0343627929688 Z" stroke="none"/><path d="M 363.7184753417969 170.2802429199219 C 363.432861328125 170.2801971435547 363.1337585449219 170.5718383789062 362.99072265625 171.1251525878906 L 361.864501953125 175.4844665527344 C 361.7607421875 175.8872985839844 361.5533447265625 176.1838684082031 361.314208984375 176.2730102539062 L 358.7831420898438 177.214111328125 C 358.2088623046875 177.4284057617188 357.9800415039062 178.7355041503906 358.3991088867188 179.40234375 L 360.23681640625 182.3251342773438 C 360.4090576171875 182.6002807617188 360.4879760742188 183.0219421386719 360.4442138671875 183.4462585449219 L 359.9762573242188 187.9889831542969 C 359.8682250976562 189.0346527099609 360.4819030761719 189.7924346923828 361.00390625 189.2506408691406 L 363.2984619140625 186.8704223632812 C 363.515380859375 186.6458587646484 363.7776489257812 186.6244659423828 363.9944458007812 186.8147277832031 L 366.3660888671875 188.8872375488281 C 366.92236328125 189.3740692138672 367.5848388671875 188.4989471435547 367.4683227539062 187.4258422851562 L 366.9635009765625 182.7939758300781 C 366.9171752929688 182.3637084960938 367.0003662109375 181.909423828125 367.1871948242188 181.5854187011719 L 369.2099609375 178.0635070800781 C 369.6840209960938 177.2389831542969 369.42431640625 175.9138793945312 368.7797241210938 175.8572998046875 L 366.0386352539062 175.6156005859375 C 365.7875366210938 175.5933227539062 365.571533203125 175.3499145507812 365.462646484375 174.9693298339844 L 364.306396484375 170.9065856933594 C 364.1855773925781 170.4832611083984 363.9567260742188 170.2802886962891 363.7184753417969 170.2802429199219 M 363.7184143066406 169.0725555419922 L 363.7186279296875 169.0725555419922 C 364.3569030761719 169.0726623535156 365.1515502929688 169.4674377441406 365.4677124023438 170.5751190185547 L 366.5705261230469 174.4501190185547 L 368.8858032226562 174.6542663574219 C 369.4959411621094 174.7078247070312 370.0269775390625 175.0852661132812 370.3422546386719 175.6897888183594 C 370.7974853515625 176.5626678466797 370.7624206542969 177.7863159179688 370.2569580078125 178.6654663085938 L 368.2344360351562 182.1869049072266 C 368.1941833496094 182.2567291259766 368.1407165527344 182.4461212158203 368.1642761230469 182.6646881103516 L 368.6689147949219 187.2949829101562 C 368.765380859375 188.1828918457031 368.5205688476562 189.0497131347656 368.0140991210938 189.6141662597656 C 367.6560363769531 190.0132446289062 367.1882934570312 190.2330017089844 366.697021484375 190.2330017089844 C 366.2868041992188 190.2330017089844 365.8973388671875 190.0818939208984 365.5707092285156 189.7960205078125 L 363.7171325683594 188.1762390136719 L 361.8733825683594 190.0888214111328 C 361.5320739746094 190.4430236816406 361.0942993164062 190.6382141113281 360.6408996582031 190.6382141113281 C 360.1693420410156 190.6382141113281 359.7231140136719 190.4314117431641 359.3843688964844 190.0558929443359 C 358.9148254394531 189.5353240966797 358.6869812011719 188.7162322998047 358.7749633789062 187.8648529052734 L 359.2428588867188 183.322509765625 C 359.2614440917969 183.1422729492188 359.2291259765625 183.0031433105469 359.2093505859375 182.9599151611328 L 357.376708984375 180.0451812744141 C 356.8468627929688 179.2020874023438 356.9241333007812 178.1192321777344 357.1512756347656 177.4480438232422 C 357.3795166015625 176.7734375 357.8091125488281 176.2885284423828 358.3609008789062 176.0826110839844 L 360.6850280761719 175.2184753417969 C 360.6883239746094 175.2077789306641 360.6916809082031 175.196044921875 360.6949768066406 175.1832275390625 L 361.8214111328125 170.8230590820312 C 362.0963134765625 169.7595977783203 362.8409118652344 169.0725555419922 363.7184143066406 169.0725555419922 Z" stroke="none" fill="#fff"/></g><g transform="translate(-329.058 -163.788)" stroke-miterlimit="10" fill="url(#l)"><path d="M 343.413818359375 191.4599151611328 C 343.1441345214844 191.4599151611328 342.8848571777344 191.3381805419922 342.6837463378906 191.1171569824219 C 342.3497314453125 190.7500457763672 342.1877746582031 190.1350250244141 342.25048828125 189.4719696044922 L 342.644775390625 185.3029327392578 C 342.6731872558594 185.0040588378906 342.6163635253906 184.7493743896484 342.5474853515625 184.6294403076172 L 340.9960632324219 181.9286956787109 C 340.6463317871094 181.3197021484375 340.6862182617188 180.4866333007812 340.880859375 179.9311370849609 C 341.0351257324219 179.490966796875 341.2918090820312 179.1892852783203 341.6231689453125 179.0587158203125 L 343.7251892089844 178.2331237792969 C 343.7532043457031 178.1994781494141 343.8129272460938 178.1017913818359 343.8549499511719 177.9246368408203 L 344.8030090332031 173.9386444091797 C 345.0183410644531 173.0320892333984 345.5610656738281 172.7090148925781 345.9971923828125 172.7090148925781 C 346.1882934570312 172.7090148925781 346.8311462402344 172.7835845947266 347.08056640625 173.7430267333984 L 348.052490234375 177.4791259765625 C 348.0722045898438 177.5551147460938 348.094970703125 177.6074676513672 348.1124877929688 177.6395416259766 L 350.3132019042969 177.8794250488281 C 350.6695861816406 177.9184265136719 350.9742126464844 178.1447296142578 351.1713256835938 178.5166473388672 C 351.50537109375 179.1470336914062 351.4925231933594 180.1222839355469 351.1413879394531 180.78515625 L 349.4479675292969 183.9894256591797 C 349.3476867675781 184.1789398193359 349.3006896972656 184.4777679443359 349.3280639648438 184.7510070800781 L 349.7506713867188 188.9950256347656 C 349.8187866210938 189.6810455322266 349.637451171875 190.3540496826172 349.2774658203125 190.7515563964844 C 349.0625610351562 190.9888610839844 348.7882690429688 191.1195526123047 348.5051879882812 191.1195526123047 C 348.5051574707031 191.1195526123047 348.5051574707031 191.1195526123047 348.5051574707031 191.1195526123047 C 348.3275146484375 191.1195526123047 348.0622863769531 191.0680999755859 347.8073120117188 190.822998046875 L 345.975830078125 189.063232421875 L 344.1694030761719 191.0941162109375 C 343.9000549316406 191.3964996337891 343.60986328125 191.4599151611328 343.413818359375 191.4599151611328 Z" stroke="none"/><path d="M 345.9971923828125 173.3128662109375 C 345.7586059570312 173.3128204345703 345.5097351074219 173.5762481689453 345.3904724121094 174.0783843994141 L 344.4425048828125 178.0640106201172 C 344.3550720214844 178.4325561523438 344.18017578125 178.7025451660156 343.9788208007812 178.7822570800781 L 341.8445434570312 179.6205291748047 C 341.3594360351562 179.8116760253906 341.1657409667969 181.0116271972656 341.5196838378906 181.6279144287109 L 343.0711059570312 184.3286895751953 C 343.2168273925781 184.5823974609375 343.2828369140625 184.9715270996094 343.2459411621094 185.3598022460938 L 342.8516540527344 189.5288391113281 C 342.7608032226562 190.4888610839844 343.2777099609375 191.1873168945312 343.7182006835938 190.6927947998047 L 345.6493225097656 188.521728515625 C 345.8319091796875 188.3168640136719 346.0521850585938 188.2988433837891 346.2347106933594 188.4745635986328 L 348.2257995605469 190.3876800537109 C 348.692138671875 190.8359832763672 349.2474975585938 190.038818359375 349.1497802734375 189.0548553466797 L 348.7272338867188 184.8112335205078 C 348.6878051757812 184.4178161621094 348.7580871582031 184.0021057128906 348.9140930175781 183.707275390625 L 350.6077880859375 180.5025024414062 C 351.0046081542969 179.7533721923828 350.7877502441406 178.5388336181641 350.2477722167969 178.4797058105469 L 347.9515380859375 178.2294158935547 C 347.7406921386719 178.206298828125 347.5590209960938 177.9817199707031 347.4681091308594 177.6311645507812 L 346.4961547851562 173.8949737548828 C 346.3939819335938 173.5019226074219 346.1992492675781 173.3129119873047 345.9971923828125 173.3128662109375 M 345.9971313476562 172.1051635742188 L 345.9973754882812 172.1051635742188 C 346.6168518066406 172.1052856445312 347.3802185058594 172.4957122802734 347.6650085449219 173.5910949707031 L 348.5732421875 177.0823364257812 L 350.3786315917969 177.2791137695312 C 350.9322509765625 177.3397369384766 351.4154357910156 177.6877136230469 351.7048645019531 178.23388671875 C 352.1380920410156 179.0514068603516 352.1258239746094 180.2167510986328 351.6750183105469 181.0678100585938 L 349.9818420410156 184.2715759277344 C 349.9494934082031 184.3327484130859 349.9105529785156 184.5077362060547 349.9289245605469 184.6907958984375 L 350.3515319824219 188.9351959228516 C 350.4372863769531 189.7986450195312 350.2030639648438 190.6290435791016 349.7250366210938 191.1568756103516 C 349.3941955566406 191.522216796875 348.9609680175781 191.7234039306641 348.5051574707031 191.7234039306641 C 348.0972595214844 191.7234039306641 347.7008056640625 191.5582275390625 347.3888244628906 191.2583160400391 L 346.0099487304688 189.9334411621094 L 344.6205749511719 191.4954376220703 C 344.2939453125 191.8621520996094 343.8655700683594 192.0637512207031 343.4137878417969 192.0637512207031 C 342.9719543457031 192.0637512207031 342.5540771484375 191.8719024658203 342.2370910644531 191.5235443115234 C 341.7905883789062 191.0327758789062 341.5708618164062 190.2445678710938 341.6493225097656 189.4150848388672 L 342.0436096191406 185.24609375 C 342.0587158203125 185.0871429443359 342.0338745117188 184.9617309570312 342.0180053710938 184.9200286865234 L 340.4724731445312 182.2294769287109 C 339.9971618652344 181.40185546875 340.0884094238281 180.3665618896484 340.3110046386719 179.7314300537109 C 340.4602661132812 179.3055267333984 340.7706604003906 178.74560546875 341.4017944335938 178.4969024658203 L 343.27294921875 177.7619934082031 L 344.2155456542969 173.7989349365234 C 344.5121154785156 172.5502166748047 345.3303527832031 172.1051635742188 345.9971313476562 172.1051635742188 Z" stroke="none" fill="#fff"/></g><g transform="translate(-327.011 -164.155)" stroke-miterlimit="10" fill="url(#m)"><path d="M 328.7880249023438 192.6690826416016 C 328.5391845703125 192.6690826416016 328.3003540039062 192.5579376220703 328.1155090332031 192.3561248779297 C 327.8016662597656 192.0134735107422 327.6480712890625 191.4250640869141 327.70458984375 190.7821044921875 L 328.0414428710938 186.9304809570312 C 328.0657348632812 186.6554260253906 328.0178527832031 186.4218902587891 327.9596252441406 186.3122406005859 L 326.633056640625 183.8006439208984 C 326.3188781738281 183.2068023681641 326.3721618652344 182.3904571533203 326.5547180175781 181.8834381103516 C 326.7308654785156 181.3942413330078 327.0101623535156 181.1911010742188 327.2134704589844 181.1068267822266 L 328.9834899902344 180.3743896484375 C 329.0069274902344 180.3368988037109 329.046142578125 180.2549743652344 329.0761108398438 180.1202087402344 L 329.8840637207031 176.4495697021484 C 330.0752563476562 175.5840301513672 330.5797119140625 175.2757873535156 330.9880676269531 175.2757873535156 C 331.1700744628906 175.2757873535156 331.7811279296875 175.3484497070312 332.0040283203125 176.2833251953125 L 332.8318786621094 179.7412414550781 C 332.8436889648438 179.7908477783203 332.8567504882812 179.829345703125 332.8683471679688 179.8575897216797 L 334.6852722167969 180.0929718017578 C 335.0030517578125 180.1346282958984 335.2752380371094 180.3394470214844 335.4525756835938 180.6698150634766 C 335.7681274414062 181.2576599121094 335.7696228027344 182.1841583251953 335.4560546875 182.8249206542969 L 334.0169067382812 185.7640991210938 C 333.9326782226562 185.935791015625 333.8933410644531 186.2090454101562 333.9164733886719 186.4606781005859 L 334.2764892578125 190.3759918212891 C 334.3372802734375 191.0394592285156 334.1666564941406 191.6798248291016 333.8312683105469 192.04736328125 C 333.6363830566406 192.2609100341797 333.38671875 192.3785247802734 333.1282653808594 192.3785247802734 C 333.1282653808594 192.3785247802734 333.1282653808594 192.3785247802734 333.1282348632812 192.3785247802734 C 332.9532775878906 192.3785095214844 332.6940307617188 192.3253631591797 332.4523620605469 192.0722045898438 L 330.9765625 190.5269622802734 L 329.5123291015625 192.30029296875 C 329.3156127929688 192.5382080078125 329.0584716796875 192.6690826416016 328.7880249023438 192.6690826416016 Z" stroke="none"/><path d="M 330.9880981445312 175.879638671875 C 330.7857666015625 175.8796081542969 330.5752868652344 176.1198425292969 330.4737854003906 176.5793762207031 L 329.6655578613281 180.2512664794922 C 329.590087890625 180.5906982421875 329.4409790039062 180.8383941650391 329.2695617675781 180.9095306396484 L 327.4447021484375 181.6646575927734 C 327.029052734375 181.8369445800781 326.8636169433594 182.9451904296875 327.1670227050781 183.5186157226562 L 328.4929809570312 186.0290832519531 C 328.6181335449219 186.2648162841797 328.6747131347656 186.6239624023438 328.6430053710938 186.9830932617188 L 328.3061218261719 190.8349914550781 C 328.2281188964844 191.7220764160156 328.67041015625 192.3709716796875 329.0466918945312 191.9158172607422 L 330.6949462890625 189.9195861816406 C 330.8500671386719 189.7318420410156 331.0377502441406 189.7164306640625 331.1937866210938 189.8801422119141 L 332.88916015625 191.6552581787109 C 333.285888671875 192.0709533691406 333.7582702636719 191.3381042480469 333.6751708984375 190.4312896728516 L 333.3151550292969 186.5159606933594 C 333.28173828125 186.1525421142578 333.3417053222656 185.7693939208984 333.4745788574219 185.4985504150391 L 334.9136657714844 182.5594940185547 C 335.2496643066406 181.8729248046875 335.0653686523438 180.7518157958984 334.6076965332031 180.6918182373047 L 332.656005859375 180.4389801025391 C 332.4760131835938 180.4158172607422 332.3217468261719 180.2058410644531 332.24462890625 179.8818511962891 L 331.4166259765625 176.4233703613281 C 331.3291625976562 176.0565032958984 331.16162109375 175.8796691894531 330.9880981445312 175.879638671875 M 330.988037109375 174.6719360351562 L 330.9882507324219 174.6719360351562 C 331.5936889648438 174.6720428466797 332.3327941894531 175.0586242675781 332.5914001464844 176.1432800292969 L 333.3498229980469 179.3110656738281 L 334.7628479003906 179.4941253662109 C 335.2720947265625 179.5608825683594 335.7167358398438 179.8852233886719 335.984619140625 180.3842163085938 C 336.3902282714844 181.1398010253906 336.3960266113281 182.2779235839844 335.9984130859375 183.0903625488281 L 334.5592346191406 186.0296325683594 C 334.5367431640625 186.0763549804688 334.5019836425781 186.2335052490234 334.5177917480469 186.4053955078125 L 334.8778076171875 190.3207092285156 C 334.9547729492188 191.1605224609375 334.7302856445312 191.9580230712891 334.2773132324219 192.4543762207031 C 333.9666137695312 192.7948608398438 333.5585327148438 192.9823608398438 333.1282653808594 192.9823608398438 C 332.7143859863281 192.9823608398438 332.3192443847656 192.8072204589844 332.015625 192.4892120361328 L 331.0093688964844 191.4356079101562 L 329.9779663085938 192.6847534179688 C 329.6642456054688 193.0642547607422 329.2417907714844 193.2729339599609 328.7880249023438 193.2729339599609 C 328.3677978515625 193.2729339599609 327.9708251953125 193.0921936035156 327.6702270507812 192.7639923095703 C 327.2439575195312 192.2986145019531 327.0319519042969 191.5379333496094 327.1030578613281 190.7292022705078 L 327.4398803710938 186.8778839111328 C 327.4524841308594 186.7353973388672 327.4326477050781 186.6220092773438 327.4196166992188 186.5827789306641 L 326.09912109375 184.0826416015625 C 325.6972351074219 183.3230438232422 325.7528991699219 182.3278503417969 325.986572265625 181.6788787841797 C 326.2374267578125 180.9821624755859 326.6664733886719 180.6799011230469 326.9822387695312 180.5490112304688 L 328.5018310546875 179.9202117919922 L 329.2943115234375 176.3197631835938 C 329.5627746582031 175.1045837402344 330.3452453613281 174.6719360351562 330.988037109375 174.6719360351562 Z" stroke="none" fill="#fff"/></g></g></g><g transform="translate(71.439 105.511)"><ellipse cx="12.089" cy="18.828" rx="12.089" ry="18.828" transform="translate(2.571 0)" fill="url(#n)"/><rect width="1.869" height="37.656" transform="translate(12.791)" fill="url(#n)"/><ellipse cx="12.089" cy="18.828" rx="12.089" ry="18.828" transform="translate(0 0)" fill="url(#p)"/><ellipse cx="11.267" cy="17.548" rx="11.267" ry="17.548" transform="translate(0.822 1.28)" fill="url(#q)"/><g transform="translate(0.822 1.28)"><g clip-path="url(#r)"><g transform="translate(4.326 4.779)"><path d="M423.614,241.383c0,3.638-1.894,6.589-4.23,6.589s-4.231-2.95-4.231-6.589,1.894-6.589,4.231-6.589S423.614,237.743,423.614,241.383Z" transform="translate(-412.442 -234.794)" fill="#fff"/><path d="M425.873,267.694H411.99v-7.881a6.942,6.942,0,0,1,6.942-6.941h0a6.941,6.941,0,0,1,6.941,6.941Z" transform="translate(-411.99 -237.377)" fill="#fff"/></g></g></g></g><g transform="translate(36.838 133.157)"><rect width="3.004" height="34.378" transform="translate(12.258)" fill="url(#n)"/><ellipse cx="12.297" cy="17.19" rx="12.297" ry="17.19" transform="translate(2.662 0)" fill="url(#n)"/><ellipse cx="12.297" cy="17.19" rx="12.297" ry="17.19" transform="translate(0 0)" fill="url(#u)"/><ellipse cx="11.273" cy="15.758" rx="11.273" ry="15.758" transform="translate(1.024 1.432)" fill="url(#v)"/><g transform="translate(3.125 6.625)"><path d="M383.658,286.99h-6.433V274.515h7.669c1.505,0,2.543,1.836,2.318,4.1l-.424,4.274C386.564,285.154,385.163,286.99,383.658,286.99Z" transform="translate(-370.4 -268.681)" fill="#fffffc"/><path d="M377.225,273.543l.906-2.666v-2.043c0-.771.545-1.319,1.064-1.059.6.3,1.241,1.016,1.241,2.677,0,3.159,1.4,3.475,1.4,3.475Z" transform="translate(-370.4 -267.709)" fill="#fffffc"/><rect width="5.876" height="12.475" transform="translate(0 5.833)" fill="url(#u)"/><ellipse cx="1.106" cy="1.547" rx="1.106" ry="1.547" transform="translate(2.787 14.166)" fill="#fff"/><rect width="4.403" height="3.439" rx="1.697" transform="translate(13.941 5.833)" fill="#fffffc"/><rect width="4.403" height="3.439" rx="1.697" transform="translate(13.322 8.846)" fill="#fffffc"/><rect width="4.403" height="3.439" rx="1.697" transform="translate(12.702 11.858)" fill="#fffffc"/><rect width="4.403" height="3.439" rx="1.697" transform="translate(12.083 14.87)" fill="#fffffc"/></g></g><g transform="translate(81.166 172.594)"><ellipse cx="10.837" cy="15.354" rx="10.837" ry="15.354" transform="translate(2.792)" fill="url(#x)"/><rect width="2.912" height="30.695" transform="translate(10.837)" fill="url(#n)"/><ellipse cx="10.837" cy="15.354" rx="10.837" ry="15.354" fill="url(#z)"/><ellipse cx="10.101" cy="14.311" rx="10.101" ry="14.311" transform="translate(0.737 1.044)" fill="url(#aa)"/><path d="M432.148,314.363a4.027,4.027,0,0,0-3.377,2.537,4.029,4.029,0,0,0-3.378-2.537c-2.253,0-4.127,2.315-3.828,6.254.488,6.414,6.856,12.423,7.206,12.748.349-.325,6.717-6.334,7.2-12.748C436.275,316.678,434.4,314.363,432.148,314.363Z" transform="translate(-417.933 -307.187)" fill="#fdfdfd"/></g></g><g transform="translate(40.954 26.882)"><g transform="translate(50.443 35.473)"><g transform="translate(30.999 4.081)"><rect width="15.387" height="6.426" transform="matrix(-0.866, 0.5, -0.5, -0.866, 16.538, 14.004)" fill="#ffb9a1"/><path d="M350.459,203.758c-3,1.344-4.582.183-5.031-.277-2.169-2.221-2.136-5.281.776-7.658a36.7,36.7,0,0,1,4.759-3.5c2.072-1.344,5.82,5.587,5.82,5.587.348.465-.173,1.3-1.824,2.787A30,30,0,0,1,350.459,203.758Z" transform="translate(-332.714 -189.397)" fill="#ffb9a1"/><path d="M349.293,193.425s-4.057-.364-2.843,4.576" transform="translate(-332.975 -189.539)" fill="none" stroke="#ffb9a1" stroke-linecap="round" stroke-linejoin="round" stroke-width="5.136"/><path d="M350.5,193.82s2.316-1.647,7.334-4.772" transform="translate(-333.456 -189.048)" fill="none" stroke="#ffb9a1" stroke-linecap="round" stroke-linejoin="round" stroke-width="3.545"/><path d="M352.967,194.49a1.649,1.649,0,1,0,1.649-1.649A1.65,1.65,0,0,0,352.967,194.49Z" transform="translate(-333.732 -189.474)" fill="#ffb9a1"/><path d="M354.042,196.515a1.649,1.649,0,1,0,1.649-1.649A1.65,1.65,0,0,0,354.042,196.515Z" transform="translate(-333.853 -189.701)" fill="#ffb9a1"/><path d="M355.05,198.809a1.649,1.649,0,1,0,1.649-1.649A1.649,1.649,0,0,0,355.05,198.809Z" transform="translate(-333.966 -189.959)" fill="#ffb9a1"/></g><path d="M306.432,184.451,318.558,207.3,337.8,197.41l3.883,7.7s-18.556,16.751-23.214,16.751-22.085-18.322-22.085-18.322Z" transform="translate(-296.38 -184.451)" fill="#a0a603"/><path d="M305.01,187.493q3.931,16.179,8.506,32.19c-6.879-5.02-17.136-15.8-17.136-15.8Z" transform="translate(-296.38 -184.793)" fill="#72720a"/></g><g transform="translate(28.024 84.524)"><path d="M298.57,351.566l.719,9.623,6.1-.07q-.1-5.023-.193-10.046Z" transform="translate(-274.207 -252.208)" fill="#ffbe97"/><path d="M271.126,239.75c3.933,7.543,16.206,56.774,16.206,56.774s5.589,39.493,7.758,52.729c2.707.058,5.711-.515,8.454-.527,1.941-16.144.235-57.7.052-61.543-.4-8.331-3.728-43.624-3.728-43.624S278.983,239.219,271.126,239.75Z" transform="translate(-271.126 -239.705)" fill="url(#ab)"/><path d="M271.126,239.75c3.933,7.543,16.206,56.774,16.206,56.774s5.589,39.493,7.758,52.729c2.707.058,5.711-.515,8.454-.527,1.941-16.144.235-57.7.052-61.543-.4-8.331-3.728-43.624-3.728-43.624S278.983,239.219,271.126,239.75Z" transform="translate(-271.126 -239.705)" fill="#6b6b6b"/><path d="M291.8,242.027a2.717,2.717,0,0,0-1.446,2.759c1.212,17.345,1.119,34.729.621,52.1-.2,6.892-.57,13.789-.629,20.685-1.646-11.375-3.015-21.047-3.015-21.047s-12.274-49.231-16.206-56.774C275.791,239.434,285.05,240.836,291.8,242.027Z" transform="translate(-271.126 -239.705)" fill="#3f3f3f"/><path d="M298.142,364.705c.018-.661-.059-1.607-.022-2.2a.787.787,0,0,1,.829-.866c.792-.083,1.887,0,2.664-.06a3.14,3.14,0,0,0,2.557-1.5c.221-.3.181-.557.449-.889a3.517,3.517,0,0,1,4.371-1.094c1.609.912,2.875,2.223,4.981,2.732s4.961,1.035,5.436,3.559Q308.787,364.553,298.142,364.705Z" transform="translate(-274.155 -252.953)" fill="#250a20"/><path d="M319.447,367.31l-21.268.32q-.016-1.037-.031-2.075l21.268-.32Q319.432,366.272,319.447,367.31Z" transform="translate(-274.16 -253.798)" fill="#d4894d"/></g><g transform="translate(15.574 86.428)"><path d="M264.269,353.209q-.21,4.822-.41,9.642l6.066.642q.491-5,.989-10Z" transform="translate(-257.86 -254.352)" fill="#ffbe97"/><path d="M267.352,296.959l-.787-34.973.441-15.89,27.045-4.246-4.044,23.808-4.748,32.171s-13.042,39.226-14.627,52.951c-2.826.829-5.1.312-7.721.253C262.262,333.745,267.352,296.959,267.352,296.959Z" transform="translate(-257.747 -241.85)" fill="url(#ac)"/><path d="M271.823,360.941c.227-.895.455-1.783.684-2.674-.441,2.126-.771,4.021-.952,5.583-.161.047-.315.075-.472.115Q271.442,362.446,271.823,360.941Z" transform="translate(-258.671 -254.92)" fill="url(#ad)"/><g transform="translate(0 104.575)"><path d="M266.778,359.748q-1.178-.067-2.361-.1a3.827,3.827,0,0,0-3.349,1.919,5.359,5.359,0,0,1-.759.987c-3.364,3.436-3.207,4.937-3.207,4.937h13.747c.017-2.227.062-3.778,0-5.131a6.207,6.207,0,0,1-2.218-1.694A2.576,2.576,0,0,0,266.778,359.748Z" transform="translate(-257.102 -359.65)" fill="#250a20"/><path d="M257.106,370.557v-2.072h13.773v2.072" transform="translate(-257.102 -360.642)" fill="#d4894d"/></g></g><g transform="translate(20.962 30.158)"><path d="M279.67,178.464l7.26,4,3.462-3.3s9.478,1.441,12.312,4.609c2.777,10.564-3.116,38.655-3.116,38.655l-.71,16.546H267.042l-3.865-51.285a4.293,4.293,0,0,1,2.733-4.208Z" transform="translate(-263.171 -178.464)" fill="#a0a603"/></g><g transform="translate(21.387 43.975)"><path d="M270.88,194.028c.766,2.372,1.326,4.195,1.326,4.195l5.314,42.5H267.1l-3.445-45.718C266.041,194.565,268.48,194.3,270.88,194.028Z" transform="translate(-263.65 -194.028)" fill="#72720a"/></g><g transform="translate(32.974)"><path d="M280.671,177.071s3.689-1.71,3.843-1.759c.228-.074,7.647,1.373,7.647,1.373l3.37,3.485,2.292,8.174-6.139-2.814-4.117,6.348L276.7,180Z" transform="translate(-276.702 -147.952)" fill="#72720a"/><g transform="translate(0.911)"><path d="M281.836,166.5l-.091,11.923,10.11,5.2.622-4.32-.627-9.3Z" transform="translate(-278.179 -146.962)" fill="#ffb9a1"/><path d="M281.825,169.15l.02-2.653,10.014,3.5.627,9.3-.069.485C288.888,176.239,285.284,172.755,281.825,169.15Z" transform="translate(-278.188 -146.962)" fill="#f9a992"/><path d="M293.795,163.349s5.422-2.023,5.715-7.088a7.253,7.253,0,0,0-3.267-6.524l-3.652.9Z" transform="translate(-279.396 -145.081)" fill="#0f0f0f"/><path d="M293.951,149.307a2.3,2.3,0,0,1,2.432,2.17l.808,14.1h0a5.031,5.031,0,0,1-4.735,5.31l-2.711.155a7.761,7.761,0,0,1-4.477-1.752,10.76,10.76,0,0,1-3.5-4.725l-.592-10.34a4.181,4.181,0,0,1,3.935-4.413Z" transform="translate(-278.115 -145.032)" fill="#ffb9a1"/><path d="M294.628,162.518l.778,1.71-.407.555" transform="translate(-279.625 -146.516)" fill="none" stroke="#d0816c" stroke-linecap="round" stroke-linejoin="round" stroke-width="0.921"/><path d="M295.6,166.985s-1.124.011-4.954.317a3.2,3.2,0,0,0,2.745,1.543A1.953,1.953,0,0,0,295.6,166.985Z" transform="translate(-279.178 -147.017)" fill="#fff"/><path d="M299.1,150.11c.1-2.55-1.241-5.237-6.365-5.586-3.106-.212-11.1.533-12.1,4.089-1.5-.668-2.715,2.612-2.827,3.631-.518,4.891,1.739,6.947,1.739,6.947a3.848,3.848,0,0,1,2.043-.1,12.318,12.318,0,0,1,.383,2.632l1.091-.034c1.206-.707,1.85-2.643,1.7-4.275,0,0,3.395-.686,1.309-4.424C291.45,153.329,298.947,153.961,299.1,150.11Z" transform="translate(-277.728 -144.492)" fill="url(#ae)"/><path d="M299.1,150.11c.1-2.55-1.241-5.237-6.365-5.586-3.106-.212-11.1.533-12.1,4.089-1.5-.668-2.715,2.612-2.827,3.631-.518,4.891,1.739,6.947,1.739,6.947a3.848,3.848,0,0,1,2.043-.1,12.318,12.318,0,0,1,.383,2.632l1.091-.034c1.206-.707,1.85-2.643,1.7-4.275,0,0,3.395-.686,1.309-4.424C291.45,153.329,298.947,153.961,299.1,150.11Z" transform="translate(-277.728 -144.492)" fill="#0f0f0f"/><path d="M281.869,148.7s-1.437-.958-.056-3.048c0,0-2.509,1.286-1.114,4.443Z" transform="translate(-278.014 -144.622)" fill="#0f0f0f"/><path d="M289.607,161.467c.021.383.264.68.541.664s.485-.338.462-.721-.265-.68-.542-.664S289.585,161.084,289.607,161.467Z" transform="translate(-279.061 -146.316)" fill="#250a20"/><path d="M295.931,160.71c.021.383.264.68.541.664s.484-.339.463-.722-.265-.68-.542-.664S295.909,160.327,295.931,160.71Z" transform="translate(-279.771 -146.231)" fill="#250a20"/><path d="M279.446,163.856c.617,1.394,1.869,2.192,2.795,1.782s1.175-1.873.557-3.267-1.869-2.193-2.795-1.783S278.828,162.462,279.446,163.856Z" transform="translate(-277.883 -146.287)" fill="#ffb9a1"/><path d="M291.19,158.843a3.01,3.01,0,0,0-3.052.984" transform="translate(-278.897 -146.092)" fill="none" stroke="#401411" stroke-linecap="round" stroke-linejoin="round" stroke-width="1.11"/><path d="M294.917,158.527a1.94,1.94,0,0,1,2.33.162" transform="translate(-279.658 -146.032)" fill="none" stroke="#401411" stroke-linecap="round" stroke-linejoin="round" stroke-width="1.112"/></g></g><g transform="translate(0 35.398)"><g transform="translate(18.028 40.025)"><path d="M273.216,235.266a1.671,1.671,0,0,1,1.025,1.536l.76,2.179-.124,1.648a1.126,1.126,0,0,1-.265.8h0c-.579.724-1.624.666-1.744-.1l.052-2.415-1.159-2.155Z" transform="translate(-261.201 -230.105)" fill="#ffb9a1"/><path d="M264.763,229.776l4.7,4.145a1.293,1.293,0,0,1,.354.512l2.282,4.944a1.294,1.294,0,0,0,.21.363l1.212.532c.59.72.721,1.082-.512,2.06-1.149.911-2.913,2.82-4.433,2.767-1.007-.036-3.405.256-4.125-.46-.2-.2-.451-.344-.57-.6l-3.892-10.68a1.3,1.3,0,0,1,.4-1.577l2.745-2.067A1.3,1.3,0,0,1,264.763,229.776Z" transform="translate(-259.865 -229.452)" fill="#ffb9a1"/><path d="M272.933,241.082l1.129.5c.59.72.721,1.082-.512,2.06-1.149.911-2.913,2.82-4.433,2.767-1.007-.036-3.405.256-4.125-.46-.089-.088-.186-.165-.277-.246A44.725,44.725,0,0,0,272.933,241.082Z" transform="translate(-260.41 -230.758)" fill="#f9a992"/><path d="M267.507,231.693l5.231,3.172.945,1.714a1.086,1.086,0,0,1-.684,1.576l-3.014.763Z" transform="translate(-260.723 -229.704)" fill="#ffb9a1"/></g><path d="M262.7,184.366s-14.091,9.406-21.81,18.086a5.416,5.416,0,0,0-.157,6.932l17.956,21.955,7.081-4.223-11.566-19.749,14.165-6.267s6.684-3.537,6.755-10.027S262.7,184.366,262.7,184.366Z" transform="translate(-239.558 -184.366)" fill="#a0a603"/></g></g></g><rect width="400" height="260.63" transform="translate(180 531.542)" fill="none"/></g></svg>