<svg xmlns="http://www.w3.org/2000/svg" width="295" height="204" viewBox="0 0 295 204"><g transform="translate(-285 -1002)"><g transform="translate(-1550.239 -1941.226)"><rect width="167.31" height="3.899" transform="translate(1896.537 3130.288)" fill="#162a70"/><path d="M1936.517,2976.621c-5.481,0-5.329,6.376-2.642,8.484-2.309-.726-5.5-1.038-7.555.62-3.062,2.476-2.664,7.686-.37,8.6,2.181.873,3.865.372,3.911,1.473-3.267,6.028,3.335,11.313,7.517,5.579,5.234,4.127,14.448-1.731,9.356-7.674,7.038-2.993,3.327-14.738-3.142-15.777C1941.695,2978.6,1939.3,2976.623,1936.517,2976.621Z" transform="translate(12.439 11.117)" fill="#0e1d49"/><g transform="translate(1965.778 3004.345)"><path d="M1958.729,3008.225c-.485-.441-2.164-4.766-3.487-8.562s-2.648-10.064-5.251-10.623l-4.018,13.711s5.473,14.125,10.726,14.125a11.449,11.449,0,0,0,4.97-1.882l-1.6-7.12C1959.312,3008.161,1958.815,3008.3,1958.729,3008.225Z" transform="translate(-1945.972 -2989.04)" fill="#9cd3d9"/><path d="M1955.925,3002.821c-1.456-3.634-3.863-6.572-5.06-10.128h-2.305l-2.587,8.827s5.473,14.125,10.726,14.125a11.449,11.449,0,0,0,4.97-1.882l-1.384-6.154s-1.651.741-2.029.429A49.106,49.106,0,0,1,1955.925,3002.821Z" transform="translate(-1945.972 -2987.808)" fill="#31d9e7"/><path d="M1982.276,2992.693l-4.414,3.045-2.781.662a4.37,4.37,0,0,0,1.458-3.045l-1.678-.309a14.522,14.522,0,0,1-3.4,4.366c-.927.746-1.325,2.917-1.9,3.225-.471.254-9.561,4.683-13.05,6.005l1.6,7.12c6.187-3.6,14.275-11.094,14.275-11.094,5.3-.177,9.887-4.5,9.887-4.5C1984.924,2994.5,1982.276,2992.693,1982.276,2992.693Z" transform="translate(-1942.417 -2987.808)" fill="#ba4a2b"/><path d="M1971.3,2999.1a1.312,1.312,0,0,0-1.376,0c-.346.24-10.625,5.306-13.253,6.415h0l1.384,6.154c5.19-2.716,13.515-12.1,13.448-12.035C1971.507,2999.633,1971.545,2999.234,1971.3,2999.1Z" transform="translate(-1942.363 -2985.714)" fill="#d89c9a"/><path d="M1968.023,2998.7c.557-.766,1.547-1.167,3.186-1.032s2.737-1.122,3.747-.9c0,0-.4-.539-2.244.089S1969.077,2996.684,1968.023,2998.7Z" transform="translate(-1938.536 -2986.505)" fill="#903b22"/><path d="M1970.778,2995.775l-1.506.254,2.454-1.481A5.828,5.828,0,0,1,1970.778,2995.775Z" transform="translate(-1938.115 -2987.183)" fill="#903b22"/></g><g transform="translate(1945.587 3002.246)"><path d="M1931.565,2990.519a5.266,5.266,0,0,1,4.022-2.713c5.817-1.26,15.333,1.419,19.5,1.764a23.184,23.184,0,0,0,2.86,9.752c3.978,7.6-2.868,10.6-2.868,19.116h-19.047s.54-4.5-.961-7.38C1930.98,3003.229,1930.031,2993.1,1931.565,2990.519Z" transform="translate(-1930.872 -2987.471)" fill="#31d9e7"/><path d="M1936.7,2995.655s-2.531.01-5.612.036a39.647,39.647,0,0,0,3.907,12.606c1.5,2.88.962,7.38.962,7.38h4.563a24.527,24.527,0,0,0,1.807-5.669,2.973,2.973,0,0,0-.905-2.815C1938.608,3004.207,1936.706,3001.694,1936.7,2995.655Z" transform="translate(-1930.8 -2984.711)" fill="#23b1b5"/></g><g transform="translate(1931.103 3033.212)"><g transform="translate(21.524)"><path d="M1939.629,3010.628c-9.244,20.517,2.21,24.711,7.421,43.6,3.732,13.527-3.124,20.184-.936,34.088a120.461,120.461,0,0,0,3.906,17.393h8.9V3040.45c0-16.314-5.626-25.664-5.626-29.823" transform="translate(-1936.137 -3010.628)" fill="#eebbb8"/><path d="M1953.3,3010.628h-13.67c-9.244,20.517,2.21,24.711,7.421,43.6,3.732,13.527-3.124,20.184-.936,34.088a120.461,120.461,0,0,0,3.906,17.393h2.761l-1.182-14.338,7.325-1.354V3040.45C1958.925,3024.136,1953.3,3014.787,1953.3,3010.628Z" transform="translate(-1936.137 -3010.628)" fill="#d89c9a"/></g><g transform="translate(7.172)"><path d="M1937.871,3010.628c-.947,3.965-5.958,8.555-7.912,16.427-1.521,6.122-.452,11.964,2.726,29.92,2.077,11.733-10.108,21.667-6.664,48.732h7.874l14.8-75.668a4.518,4.518,0,0,1,1.424-2.551h0a4.514,4.514,0,0,0,1.486-3.055l.932-13.805Z" transform="translate(-1925.404 -3010.628)" fill="#eebbb8"/><path d="M1938.717,3090.015h0l9.976-59.976a4.518,4.518,0,0,1,1.424-2.551,4.514,4.514,0,0,0,1.486-3.055l.932-13.805h-14.664c-.947,3.965-5.958,8.555-7.912,16.427-1.521,6.122-.452,11.964,2.726,29.92,2.077,11.733-10.108,21.667-6.664,48.732h2.653a61.821,61.821,0,0,1,2.213-13.478Z" transform="translate(-1925.404 -3010.628)" fill="#d89c9a"/></g><g transform="translate(7.479)"><path d="M1962.467,3040.45c0-16.314-5.626-25.664-5.626-29.823h-19.047c-.947,3.965-5.958,8.555-7.912,16.427-1.521,6.122-.452,11.964,2.727,29.92,1.591,8.993-5.965,18.747-6.974,33.04h36.833Z" transform="translate(-1925.634 -3010.628)" fill="#162a70"/></g><path d="M1931.785,3040.087c-2.18-13.536,8.5-22.785,10.571-29.459h-4.563c-.947,3.965-5.958,8.555-7.912,16.427-1.521,6.122-.452,11.964,2.727,29.92,1.591,8.993-5.965,18.747-6.974,33.04h4.251s3.741-20.149,5.207-26.465S1933.965,3053.624,1931.785,3040.087Z" transform="translate(-1918.155 -3010.628)" fill="#0e1d49"/><path d="M1946.475,3081.058c-.374.187-.453.554-.269,1.1.62,1.844-1.416,1.939-.3,3.669h22.8a2.359,2.359,0,0,0-.988-2.367c-1.305-.845-9.953-2.748-11.655-3.2s-1.907,1.988-5.921,1.988a9.025,9.025,0,0,1-3.461-.494Z" transform="translate(-1911.433 -2987.166)" fill="#162a70"/><path d="M1920.125,3085.755a1.706,1.706,0,0,1,1.421-2.243c5.667-1.5,4.009-2.7,6.086-2.944,1.387-.161,3.918-.327,4.744.258s.455,1.137,1.634,1.222a2.527,2.527,0,0,0,1.805-.452l.1-.525s.586.237.444,1.234.855,1.812.512,3.45Z" transform="translate(-1920.041 -2987.094)" fill="#162a70"/></g><g transform="translate(1968.124 2987.274)"><path d="M1974.059,2976.354a3.271,3.271,0,0,0-2.484.442l-15.714,8.376c-4.763,2.167-8.134,7.508-8.134,13.759h26.333Z" transform="translate(-1947.726 -2976.275)" fill="#162a70"/><path d="M1947.726,2993.218c0,6.252,3.371,11.593,8.134,13.759l15.714,8.375a3.271,3.271,0,0,0,2.484.444v-22.578Z" transform="translate(-1947.726 -2970.561)" fill="#162a70"/></g><g transform="translate(1980.981 2966.722)"><path d="M2006.413,2960.905l-37.085,21.495c-7.082,3.832-11.987,12.113-11.987,21.715h49.072Z" transform="translate(-1957.341 -2960.905)" fill="#529ad9"/><path d="M1957.341,2993.218c0,9.6,4.905,17.883,11.987,21.715l37.085,21.494v-43.21Z" transform="translate(-1957.341 -2950.008)" fill="#266ead"/></g><ellipse cx="46.217" cy="62.858" rx="46.217" ry="62.858" transform="translate(2002.442 2943.656)" fill="#529ad9"/><path d="M42.311,0C65.679,0,84.622,26.853,84.622,59.979s-18.943,59.979-42.311,59.979S0,93.1,0,59.979,18.943,0,42.311,0Z" transform="translate(2008.138 2946.536)" fill="#529ad9"/><path d="M23.1,0c12.756,0,23.1,23.931,23.1,53.451S35.852,106.9,23.1,106.9,0,82.971,0,53.451,10.341,0,23.1,0Z" transform="translate(2008.138 2953.064)" fill="#5288b8"/><g transform="translate(2008.138 2986.378)"><path d="M2037.455,2995.741c0-7.406-3.708-13.468-8.413-14.007L1980.1,2975.6a84.075,84.075,0,0,0,0,40.274l48.858-6.119C2033.7,3009.286,2037.455,3003.192,2037.455,2995.741Z" transform="translate(-1977.649 -2975.604)" fill="#162a70"/><ellipse cx="7.562" cy="11.682" rx="7.562" ry="11.682" transform="translate(43.832 8.455)" fill="#0b6de3"/><path d="M1980.1,2975.6a84.075,84.075,0,0,0,0,40.274l41.384-5.181c-17.044,2.133-31.918-12.861-31.27-33.829Z" transform="translate(-1977.649 -2975.604)" fill="#111b3d"/></g><g transform="translate(1940.714 3002.685)"><g transform="translate(0)"><path d="M1936.316,2987.814c-5.047,1.158-6.8,8.255-8.086,15.564s-1.383,12.916,0,14.949,9.675-5.507,9.675-8.431v-7.051C1937.9,3000.81,1938.613,2987.286,1936.316,2987.814Z" transform="translate(-1927.229 -2987.799)" fill="#31d9e7"/><path d="M1928.627,3006.073l1.865,7.813c2.91-1.718,6.94-6,6.94-8.037v-6.056a2.538,2.538,0,0,1-1.546,2.34C1933.521,3002.833,1930.582,3003.975,1928.627,3006.073Z" transform="translate(-1926.758 -2983.754)" fill="#31d9e7"/></g><path d="M1933.612,3002.705a11.609,11.609,0,0,0-3.663,1.66,6.8,6.8,0,0,0-1.742,8.935,2.335,2.335,0,0,0,3.041.876C1930.771,3009.738,1931.853,3004.919,1933.612,3002.705Z" transform="translate(-1927.229 -2982.772)" fill="#23b1b5"/><path d="M1927.393,3009.385a4.684,4.684,0,0,0,.758,1.662,2.335,2.335,0,0,0,3.041.876c-.059-.542-.092-1.087-.106-1.634C1928.257,3011.319,1927.535,3009.8,1927.393,3009.385Z" transform="translate(-1927.173 -2980.52)" fill="#7dc8cc"/><path d="M1957.115,2993.688l-2.939,1.8a14.674,14.674,0,0,1-3.787.608,9.322,9.322,0,0,0,3.072-1.774l-1.218-.635a8.958,8.958,0,0,1-2.012.4c-.637-.027-3.92,3.5-5.059,5.005l-9.666,6.17a14.3,14.3,0,0,0-2.879.485c-1.758,2.215-2.84,7.033-2.364,11.471a36.008,36.008,0,0,0,3.336-1.907c5.481-3,7.24-5.683,13.426-12.061,0,0,5.928-1.144,7.011-2.39a42.831,42.831,0,0,0,3.556-5.211l.688-.873Z" transform="translate(-1926.244 -2985.813)" fill="#eebbb8"/><g transform="translate(3.913 9.434)"><path d="M1945.408,2995.7a2.961,2.961,0,0,1-.487-.136,22.684,22.684,0,0,0,2.332-.714A13.28,13.28,0,0,1,1945.408,2995.7Z" transform="translate(-1925.176 -2994.854)" fill="#d89c9a"/><path d="M1944.213,3001.757c-1.436,1.233-6.845,8.392-14.058,11.424.013.547.047,1.092.106,1.634a36.008,36.008,0,0,0,3.336-1.907c5.481-3,7.24-5.683,13.426-12.062A3.4,3.4,0,0,0,1944.213,3001.757Z" transform="translate(-1930.155 -2992.846)" fill="#d89c9a"/></g></g><g transform="translate(1953.256 2976.985)"><g transform="translate(2.38 3.059)"><g transform="translate(0.832 13.534)"><path d="M1940.282,2980.988s-1.133,7.607-1.262,8.954c-.143,1.488,1.13,3.74,4.548,4.156,2.394.292,4.762-1.02,4.762-2.517,0-1.113,1.424-10.593,1.424-10.593Z" transform="translate(-1939.009 -2980.988)" fill="#eebbb8"/></g><path d="M1940.282,2980.988s-1.133,7.607-1.262,8.954a3.769,3.769,0,0,0,2.273,3.484c.679-5.188,4.34-5.347,7.441-5.349.421-3.107,1.019-7.09,1.019-7.09Z" transform="translate(-1938.177 -2967.455)" fill="#d89c9a"/><path d="M1954.675,2979.063a8.144,8.144,0,0,1-16.287,0c0-5.225,3.808-8.663,9.7-8.144C1952.566,2971.313,1954.675,2974.281,1954.675,2979.063Z" transform="translate(-1938.387 -2970.867)" fill="#eebbb8"/><path d="M1954.547,2977.135h-12.881c-1.705.077-3.191,1.661-2.875,2.694a8.142,8.142,0,0,0,15.756-2.694Z" transform="translate(-1938.265 -2968.754)" fill="#eebbb8"/><g transform="translate(1.364 0.766)"><path d="M1953.965,2978.5c.2-4-1.944-7.064-5.929-7.064s-7.65,2.926-7.262,7.083c.053.571.258,2.79.325,3.382.726,6.361,5.627,8.671,8.157,8.312,3.458-.493,4.619-3.668,4.537-8.314C1953.782,2981.306,1953.937,2979.076,1953.965,2978.5Z" transform="translate(-1938.956 -2971.44)" fill="#eebbb8"/><path d="M1941.444,2981.537a2.2,2.2,0,0,1,.178-4.4Z" transform="translate(-1939.407 -2969.52)" fill="#eebbb8"/></g><g transform="translate(6.036 7.468)"><path d="M1945.559,2978.331a.523.523,0,1,1-.523-.523A.523.523,0,0,1,1945.559,2978.331Zm4.924,0a.523.523,0,1,0,.523-.523A.523.523,0,0,0,1950.482,2978.331Z" transform="translate(-1942.357 -2975.995)" fill="#111b3d"/><g transform="translate(3.147 5.749)"><path d="M1949.885,2980.876a.068.068,0,0,0-.123-.045c-.356.519-.8.7-2,.7-1.24,0-1.969-.191-2.385-.749a.067.067,0,0,0-.122.038c-.009.723,0,3.265,2.612,3.055C1949.481,2983.743,1949.885,2981.991,1949.885,2980.876Z" transform="translate(-1945.254 -2980.752)" fill="#111b3d"/><path d="M1945.693,2982.2a1.8,1.8,0,0,1,2.967.8,2.448,2.448,0,0,1-1.819.279A1.658,1.658,0,0,1,1945.693,2982.2Z" transform="translate(-1945.106 -2980.43)" fill="#ed8768"/></g><path d="M1942.9,2977.7a5.619,5.619,0,0,1,1.742-.924,2.3,2.3,0,0,1,1.951.294l-.016.051a7.99,7.99,0,0,0-1.9.034,6.252,6.252,0,0,0-1.739.586Zm10.321-.6a3.835,3.835,0,0,0-1.432-.6,1.76,1.76,0,0,0-1.629.428l.018.049a5.821,5.821,0,0,1,1.615-.1,4.382,4.382,0,0,1,1.417.409Z" transform="translate(-1942.901 -2976.452)" fill="#111b3d"/><path d="M1946.5,2980.339v.035h1.541a.333.333,0,0,0,.338-.393c-.029-.148-.866-2.222-.866-2.222l-.033.013a14.546,14.546,0,0,0,.556,2.292A8.431,8.431,0,0,0,1946.5,2980.339Z" transform="translate(-1941.686 -2976.012)" fill="#903b22"/></g></g><path d="M1951.651,2971.018l0,.008c-3.011-4.144-7.637-2.238-9.335-.017-1.129,1.475-5.509,1.983-5.7,6.345-.249,5.634,4.049,7.765,4.049,8.617a1.738,1.738,0,0,1-.487,1.274,1.135,1.135,0,0,0,.685,2.1c1.01,0,2.031-1.643,1.459-3.256s-1.2-1.807-1.716-2.807a2.2,2.2,0,0,1-.108-1.843h0a3.546,3.546,0,0,0,.319,1.187c5.637-.783,6.312-3.956,6.312-3.956,2.987-.353,6.643-1.523,7.476-3.208a8.046,8.046,0,0,1,.753,4c-.028.572-.183,2.8-.173,3.4C1959.482,2976.256,1955.25,2971.941,1951.651,2971.018Z" transform="translate(-1936.607 -2968.58)" fill="#0e1d49"/></g><g transform="translate(1887.238 3009.112)"><path d="M1894.979,2992.6h20.285a7.742,7.742,0,0,1,7.742,7.741v8.569a7.737,7.737,0,0,1-7.581,7.733,10.117,10.117,0,0,0,11.7,7.881,10.716,10.716,0,0,1-5.294,1.394,12.391,12.391,0,0,1-10.506-5.532,8.131,8.131,0,0,0-6.9-3.735h-9.448a7.741,7.741,0,0,1-7.741-7.741v-8.569A7.742,7.742,0,0,1,1894.979,2992.6Z" transform="translate(-1887.238 -2992.605)" fill="#fff"/><g transform="translate(7.385 10.065)"><circle cx="1.914" cy="1.914" r="1.914" transform="translate(8.578)" fill="#e5dec1"/><circle cx="1.914" cy="1.914" r="1.914" fill="#e5dec1"/><circle cx="1.914" cy="1.914" r="1.914" transform="translate(17.155)" fill="#e5dec1"/></g></g></g><rect width="295" height="204" transform="translate(285 1002)" fill="none"/></g></svg>