<svg xmlns="http://www.w3.org/2000/svg" xmlns:xlink="http://www.w3.org/1999/xlink" width="294" height="199" viewBox="0 0 294 199"><defs><clipPath id="a"><path d="M-226.844,740.4h-91.7a9.177,9.177,0,0,0-9.151,9.15V894.907a9.177,9.177,0,0,0,9.151,9.15h91.7a9.177,9.177,0,0,0,9.15-9.15V749.553a9.177,9.177,0,0,0-9.15-9.15" fill="none" clip-rule="evenodd"/></clipPath><linearGradient id="b" x1="0.5" y1="0.934" x2="0.5" y2="-0.726" gradientUnits="objectBoundingBox"><stop offset="0" stop-color="#0075f9"/><stop offset="1" stop-color="#f2f8fc"/></linearGradient><clipPath id="c"><path d="M-241.59,823.811h53.957a2.342,2.342,0,0,1,2.337,2.337l-.184,75.572a2.346,2.346,0,0,1-2.337,2.337h-53.957a2.342,2.342,0,0,1-2.337-2.337l.184-75.572a2.346,2.346,0,0,1,2.337-2.337" fill="none" clip-rule="evenodd"/></clipPath><linearGradient id="d" x1="0.5" y1="0.665" x2="0.5" y2="-0.122" gradientUnits="objectBoundingBox"><stop offset="0" stop-color="#0033b4"/><stop offset="0.75" stop-color="#1a84e8"/><stop offset="1" stop-color="#24a1fb"/></linearGradient><clipPath id="e"><path d="M-241.59,823.811h53.957a2.286,2.286,0,0,1,2.337,2.219v20.432h-58.631V826.03a2.286,2.286,0,0,1,2.337-2.219" fill="none" clip-rule="evenodd"/></clipPath><linearGradient id="f" x1="0.5" y1="0.502" x2="0.5" y2="-0.474" xlink:href="#d"/><clipPath id="g"><rect width="10.448" height="10.448" transform="translate(-238.976 850.718)" fill="none"/></clipPath><linearGradient id="h" x1="0.403" y1="0.874" x2="0.75" y2="-0.468" gradientUnits="objectBoundingBox"><stop offset="0" stop-color="#2491ff"/><stop offset="1" stop-color="#fdfdfd"/></linearGradient><clipPath id="i"><rect width="10.448" height="10.448" transform="translate(-226.216 850.718)" fill="none"/></clipPath><clipPath id="k"><rect width="10.448" height="10.448" transform="translate(-213.456 850.718)" fill="none"/></clipPath><clipPath id="m"><rect width="10.448" height="10.448" transform="translate(-238.976 862.738)" fill="none"/></clipPath><linearGradient id="n" x1="0.403" y1="0.874" x2="0.75" y2="-0.468" xlink:href="#h"/><clipPath id="o"><rect width="10.448" height="10.448" transform="translate(-226.216 862.738)" fill="none"/></clipPath><clipPath id="q"><rect width="10.448" height="10.448" transform="translate(-213.456 862.738)" fill="none"/></clipPath><clipPath id="s"><rect width="10.448" height="10.448" transform="translate(-200.696 862.738)" fill="none"/></clipPath><clipPath id="u"><rect width="10.448" height="10.448" transform="translate(-238.976 874.758)" fill="none"/></clipPath><linearGradient id="v" x1="0.403" y1="0.874" x2="0.75" y2="-0.468" xlink:href="#h"/><clipPath id="w"><rect width="10.448" height="10.448" transform="translate(-226.216 874.758)" fill="none"/></clipPath><clipPath id="y"><rect width="10.448" height="10.448" transform="translate(-213.456 874.758)" fill="none"/></clipPath><clipPath id="aa"><rect width="10.448" height="10.448" transform="translate(-200.696 874.758)" fill="none"/></clipPath><linearGradient id="ab" x1="0.403" y1="0.874" x2="0.75" y2="-0.468" xlink:href="#h"/><clipPath id="ac"><rect width="10.448" height="10.448" transform="translate(-238.976 886.778)" fill="none"/></clipPath><linearGradient id="ad" x1="0.403" y1="0.874" x2="0.75" y2="-0.468" xlink:href="#h"/><clipPath id="ae"><rect width="10.448" height="10.448" transform="translate(-226.216 886.778)" fill="none"/></clipPath><clipPath id="ag"><rect width="10.448" height="10.448" transform="translate(-213.456 886.778)" fill="none"/></clipPath><clipPath id="ai"><rect width="10.448" height="10.448" transform="translate(-200.696 886.778)" fill="none"/></clipPath><clipPath id="ak"><path d="M-341.7,835.353c2.044,4.486,3.543,8.5,9.393,9.376,4.138.114,8.68-14.5,8.12-15.927-.609-1.551,1.3-.8-1.078-.751-3.16-.009-6.675,9.73-7.388,9.681-.675-.048-4.023-9.169-8.17-10.675-.492-.317-2.316,6.129-.877,8.3" fill="#827e00" clip-rule="evenodd"/></clipPath><clipPath id="al"><path d="M-336.008,854.715c1.855,8.143-.8,27.064-1.8,42.294-.068,1.036.13,3.15,1.247,3.758,1.021.558,3.06,1.015,3.664,1.593.435.416,2.1,2.775-3.864,2.618-4.237-.111-5.247-.406-5.7-1.094-.064-.1-3.1-33.283-3.541-35.936-.757,3.381-9.774,32.3-9.772,32.313a7.245,7.245,0,0,0,1.5,2.709c.231.827.784,2.282-3.324,2.247s-3.146-1.631-3.161-1.882c1.823-17.146,4.632-39.5,5.383-49.435,0,0,5.466-.078,8.447-1.762,4.528-2.558,7.326-12.966,6.479-2.254-.158,2.008,3.734,2.063,4.44,4.831" fill="none" clip-rule="evenodd"/></clipPath><linearGradient id="am" x1="0.452" y1="0.87" x2="0.615" y2="-0.391" gradientUnits="objectBoundingBox"><stop offset="0" stop-color="#031542"/><stop offset="0.108" stop-color="#041c4b"/><stop offset="0.291" stop-color="#093065"/><stop offset="0.525" stop-color="#115090"/><stop offset="0.798" stop-color="#1b7ccb"/><stop offset="1" stop-color="#24a1fb"/></linearGradient><clipPath id="an"><path d="M-356.712,842.321a83.512,83.512,0,0,1,.839,17.158c8,1.373,15.631.939,20.407-.582-.224-5.277,1.335-30.6-6.485-32.274-5.29-1.483-12.385-1.014-15.316,1.876-2.686,2.521-5.4,10.458-6.335,14.05-2.732,10.51,4.6,4.706,6.89-.228" fill="#a0a603" clip-rule="evenodd"/></clipPath><clipPath id="ao"><path d="M-342.488,841.768l-.324,8.276-3.614-7.609-.217-10.784-.848-1.187.91-1,1.124.6-.375,1.366c1.111,2.96,2.605,8.028,3.344,10.335" fill="none" clip-rule="evenodd"/></clipPath><linearGradient id="ap" x1="0.5" y1="0.665" x2="0.5" y2="-0.122" gradientUnits="objectBoundingBox"><stop offset="0" stop-color="#022fa0"/><stop offset="0.678" stop-color="#187bdc"/><stop offset="1" stop-color="#24a1fb"/></linearGradient><clipPath id="aq"><path d="M-343.422,822.143a5.178,5.178,0,0,1-2.228,2.4l.03,1.626.237.2c.927.994-.077,3.032-1.132,2.97-2.669.131-4.718-2.057-3.916-3.245l.349-.389.076-2.3c-.137-.008-1.139-.578-1.438-.67a1.545,1.545,0,0,1-.765-1.273c-.03-.607.908-.411.908-.411-1.136-1.554-2.422-2.824-.754-4.224s5.5-2.217,5.5-2.217l2.306-.8c-.293.8.1,3.45.692,5.108.53,1.487.891,1.718.136,3.221" fill="none"/></clipPath><linearGradient id="ar" x1="0.797" y1="1.074" x2="0.576" y2="0.647" gradientUnits="objectBoundingBox"><stop offset="0" stop-color="#ff7f98"/><stop offset="1" stop-color="#f2aebf"/></linearGradient><clipPath id="as"><path d="M-325.823,818.568l9.5-6.563a3.433,3.433,0,0,1,1.654,1.534l-6.13,9.691-3.781-2.706Z" fill="none" clip-rule="evenodd"/></clipPath><linearGradient id="at" x1="-0.254" y1="1.023" x2="1.241" y2="-0.014" gradientUnits="objectBoundingBox"><stop offset="0" stop-color="#a2bee5"/><stop offset="1" stop-color="#fff"/></linearGradient><clipPath id="au"><path d="M-362.5,868.159l4.422-4.743a.713.713,0,0,0,.55-.2c.517-.557-.278-2.134-1.775-3.523s-3.129-2.063-3.646-1.507a.733.733,0,0,0-.15.593l-4.381,4.727Z" fill="none" clip-rule="evenodd"/></clipPath><linearGradient id="av" x1="0.689" y1="0.666" x2="-0.17" y2="-0.089" xlink:href="#at"/><clipPath id="aw"><path d="M-362.888,857.575l-.123,1.12.857,1.738c.172.238.925,1.862.267,1.525-.461-.237-1.316-1.083-1.355-1.05-.507.433-.7,3.789-.75,3.831-.632.591-.631-1.546-.647-1.909a13.18,13.18,0,0,1-.4,1.418.723.723,0,0,1-.339-.625,9.007,9.007,0,0,0,.022-1.414c-.091-.083-.394,1.439-.473,1.354a.634.634,0,0,1-.188-.5,12.389,12.389,0,0,0,.091-1.391c-.075-.112-.227.99-.287.881-.047-.085-.215-.075-.222-.169-.185-2.521,1.124-2.221.834-5.1-.161-1.6,2.361-.194,2.715.295" fill="none"/></clipPath><linearGradient id="ax" x1="-0.03" y1="0.077" x2="0.374" y2="0.4" xlink:href="#ar"/><clipPath id="ay"><path d="M-325.763,830.228s-1.918-.882-1.693-1.28,1.384.152,1.384.152l-1.374-1.077s-.04-.355.31-.319,1.616.4,1.616.4l-1.276-1.025c-.562-.452-.225-.78-.02-.7.281.114,1.525.786,1.525.786l-1.064-1.253a.574.574,0,0,1,.7-.1,9.52,9.52,0,0,1,1.1.612c2.689,1.847-.593,4.235-1.2,3.8" fill="none"/></clipPath><linearGradient id="az" x1="0.112" y1="0.92" x2="0.362" y2="0.65" xlink:href="#ar"/><clipPath id="ba"><path d="M-353.762,816.782a3.4,3.4,0,0,1,1.341-3.761c2.723-2.127,5.061-.951,6.071-.7.7.172,1.17.153,1.856.3,1.717.359,1.863,3.929.625,5.1-.123.116-.313-1.519-.451-1.415a3.019,3.019,0,0,1-.482.346c-2.016,1.033-4.338-.193-5.513,1.19-.581.685-.523,1.673.129,3.2.191.449.448.78-.311.429-.349-.162-.922-.387-1.119-.229a.9.9,0,0,0,.132,1.332c.156.107.45.266.45.266-3.205-.608-3.955-5.1-2.728-6.051" fill="none" clip-rule="evenodd"/></clipPath><linearGradient id="bb" x1="0.514" y1="0.869" x2="0.471" y2="-0.285" xlink:href="#am"/></defs><g transform="translate(410.966 -721.809)"><path d="M0,0H294V199H0Z" transform="translate(-410.966 721.809)" fill="none"/><path d="M-363.492,891.564s-18.522-7.7-20.6-16,14.761-5.49,27.627,11.408c0,0-19.006-31.869-7.178-34.179s18.24,31.126,18.24,31.126,3.342-16.441,11.071-15.636,3.243,13.472-9.518,23.28Z" fill="#ecedcc"/><path d="M-350.379,890.263a96.106,96.106,0,0,0-13.736-36.478" fill="#ecedcc"/><path d="M-356.462,889.778s-16.85-8.168-24.439-18.106" fill="#ecedcc"/><path d="M-334.329,870.475s-5.726,16.7-14.057,19.3" fill="#ecedcc"/><path d="M-280.684,885.911s-26.378,1.948-40.832-.921c-8.358-1.66-12.013-7.063-1.033-9.225,5.532-1.089,16.071-9.979-5.472-12.741-18.791-2.409-20.774-16.118-4.1-15.84,3.918.065-1.485-2.472-6.264-11.34-3.677-6.822-3.044-17.607,3.169-20.681,13.1-6.48,12.75,18.119,18.1,19.272,5.136,1.107,7.112-12.747,14.259-11.035,9.335,2.237-5.812,28.524-3.952,30.871,3.967,5.006,11.377-19.777,18.334-17.784S-303.286,879.781-280.684,885.911Z" fill="#ecedcc"/><path d="M-287.273,884.771c-14.331-5.728-12.372-16.342-29-30.327-13.75-11.562-17.381-24.669-16.272-39.677" fill="#ecedcc"/><path d="M-249.946,885.073s18.522-7.7,20.6-16-13.79-7.377-26.656,9.522c0,0,19.227-28.655,7.4-30.965s-19.433,29.8-19.433,29.8-3.342-16.442-11.071-15.636-3.244,13.471,9.518,23.28Z" fill="#ecedcc"/><path d="M-263.059,883.772s3.153-20.083,14.928-35.15" fill="#ecedcc"/><path d="M-256.976,883.286s15.215-13.827,24.439-16.377" fill="#ecedcc"/><path d="M-279.109,863.984s5.726,16.7,14.057,19.3" fill="#ecedcc"/><path d="M-207.339,882.227s26.378,1.948,40.832-.921c8.358-1.66,12.013-7.063,1.033-9.225-5.532-1.089-14.795-4.932,5.472-12.741,16.929-6.523,19.182-17.623,3.041-13.413-8.365,2.181,2.54-4.9,7.319-13.767,3.677-6.822,3.044-17.608-3.169-20.682-13.1-6.479-15.456,22.783-20.8,23.935-5.135,1.108.728-18.978-8.5-16.327s3.4,25.624.9,31.5-4.123-20.158-11.079-18.165S-184.737,876.1-207.339,882.227Z" fill="#ecedcc"/><path d="M-200.75,881.087c14.331-5.728,12.372-16.342,29-30.327,13.75-11.562,18.693-21.521,17.584-36.529" fill="#ecedcc"/><g clip-path="url(#a)"><rect width="110.001" height="163.655" transform="translate(-327.695 740.403)" fill="url(#b)"/></g><rect width="99.829" height="152.957" transform="translate(-322.758 746.165)" fill="#fff"/><path d="M-302.506,780.408a11.127,11.127,0,0,1,11.126,11.126,11.127,11.127,0,0,1-11.126,11.126,11.127,11.127,0,0,1-11.126-11.126,11.127,11.127,0,0,1,11.126-11.126" fill="#b7ebff" fill-rule="evenodd"/><path d="M-282.693,782.444h47.4a1.615,1.615,0,0,1,1.61,1.61h0a1.614,1.614,0,0,1-1.61,1.609h-47.4a1.614,1.614,0,0,1-1.609-1.609h0a1.615,1.615,0,0,1,1.609-1.61" fill="#9ed8f5" fill-rule="evenodd"/><path d="M-282.693,789.263h47.4a1.615,1.615,0,0,1,1.61,1.61h0a1.614,1.614,0,0,1-1.61,1.609h-47.4a1.614,1.614,0,0,1-1.609-1.609h0a1.615,1.615,0,0,1,1.609-1.61" fill="#9ed8f5" fill-rule="evenodd"/><path d="M-282.693,796.823h9.475a1.615,1.615,0,0,1,1.61,1.61h0a1.614,1.614,0,0,1-1.61,1.609h-9.475a1.614,1.614,0,0,1-1.609-1.609h0a1.615,1.615,0,0,1,1.609-1.61" fill="#9ed8f5" fill-rule="evenodd"/><path d="M-295.608,736.789h44.26a2.849,2.849,0,0,1,2.841,2.841v3.965a6.826,6.826,0,0,1-6.806,6.806h-36.33a6.825,6.825,0,0,1-6.806-6.806V739.63a2.849,2.849,0,0,1,2.841-2.841" fill="#6d8ec8" fill-rule="evenodd"/><path d="M-302.506,806.8a11.126,11.126,0,0,1,11.126,11.125,11.126,11.126,0,0,1-11.126,11.126,11.126,11.126,0,0,1-11.126-11.126A11.126,11.126,0,0,1-302.506,806.8" fill="#b7ebff" fill-rule="evenodd"/><path d="M-282.693,808.835h47.4a1.614,1.614,0,0,1,1.61,1.61h0a1.615,1.615,0,0,1-1.61,1.61h-47.4a1.615,1.615,0,0,1-1.609-1.61h0a1.614,1.614,0,0,1,1.609-1.61" fill="#9ed8f5" fill-rule="evenodd"/><path d="M-282.693,815.654h47.4a1.614,1.614,0,0,1,1.61,1.61h0a1.614,1.614,0,0,1-1.61,1.61h-47.4a1.614,1.614,0,0,1-1.609-1.61h0a1.614,1.614,0,0,1,1.609-1.61" fill="#9ed8f5" fill-rule="evenodd"/><path d="M-282.693,823.214h9.475a1.614,1.614,0,0,1,1.61,1.61h0a1.615,1.615,0,0,1-1.61,1.61h-9.475a1.615,1.615,0,0,1-1.609-1.61h0a1.614,1.614,0,0,1,1.609-1.61" fill="#9ed8f5" fill-rule="evenodd"/><path d="M-304.605,794.15l7.868-7.336a1.523,1.523,0,0,1,2.149.078,1.523,1.523,0,0,1-.078,2.15l-9.027,8.412-.022.018a1.526,1.526,0,0,1-2.145-.142l-4.348-4.977a1.526,1.526,0,0,1,.142-2.146,1.525,1.525,0,0,1,2.144.143Z" fill="#a0a603" fill-rule="evenodd"/><path d="M-304.605,821.033l7.868-7.337a1.524,1.524,0,0,1,2.149.078,1.523,1.523,0,0,1-.078,2.15l-9.027,8.413-.022.018a1.527,1.527,0,0,1-2.145-.142l-4.348-4.978a1.524,1.524,0,0,1,.142-2.145,1.525,1.525,0,0,1,2.144.142Z" fill="#a0a603" fill-rule="evenodd"/><path d="M-302.506,833.266a11.126,11.126,0,0,1,11.126,11.125,11.126,11.126,0,0,1-11.126,11.126,11.126,11.126,0,0,1-11.126-11.126,11.126,11.126,0,0,1,11.126-11.125" fill="#b7ebff" fill-rule="evenodd"/><path d="M-282.693,835.3h47.4a1.615,1.615,0,0,1,1.61,1.61h0a1.614,1.614,0,0,1-1.61,1.609h-47.4a1.614,1.614,0,0,1-1.609-1.609h0a1.615,1.615,0,0,1,1.609-1.61" fill="#9ed8f5" fill-rule="evenodd"/><path d="M-282.693,842.121h47.4a1.614,1.614,0,0,1,1.61,1.61h0a1.615,1.615,0,0,1-1.61,1.61h-47.4a1.615,1.615,0,0,1-1.609-1.61h0a1.614,1.614,0,0,1,1.609-1.61" fill="#9ed8f5" fill-rule="evenodd"/><path d="M-282.693,849.68h9.475a1.615,1.615,0,0,1,1.61,1.611h0a1.615,1.615,0,0,1-1.61,1.61h-9.475a1.615,1.615,0,0,1-1.609-1.61h0a1.615,1.615,0,0,1,1.609-1.611" fill="#9ed8f5" fill-rule="evenodd"/><path d="M-302.506,859.656a11.126,11.126,0,0,1,11.126,11.126,11.126,11.126,0,0,1-11.126,11.125,11.126,11.126,0,0,1-11.126-11.125,11.126,11.126,0,0,1,11.126-11.126" fill="#b7ebff" fill-rule="evenodd"/><path d="M-282.693,861.692h47.4a1.614,1.614,0,0,1,1.61,1.61h0a1.614,1.614,0,0,1-1.61,1.61h-47.4a1.614,1.614,0,0,1-1.609-1.61h0a1.614,1.614,0,0,1,1.609-1.61" fill="#9ed8f5" fill-rule="evenodd"/><path d="M-282.693,868.511h47.4a1.614,1.614,0,0,1,1.61,1.61h0a1.614,1.614,0,0,1-1.61,1.61h-47.4a1.614,1.614,0,0,1-1.609-1.61h0a1.614,1.614,0,0,1,1.609-1.61" fill="#9ed8f5" fill-rule="evenodd"/><path d="M-282.693,876.071h9.475a1.614,1.614,0,0,1,1.61,1.61h0a1.614,1.614,0,0,1-1.61,1.61h-9.475a1.614,1.614,0,0,1-1.609-1.61h0a1.614,1.614,0,0,1,1.609-1.61" fill="#9ed8f5" fill-rule="evenodd"/><path d="M-304.605,847.007l7.868-7.336a1.523,1.523,0,0,1,2.149.078,1.523,1.523,0,0,1-.078,2.15l-9.027,8.412-.022.019a1.526,1.526,0,0,1-2.145-.143l-4.348-4.977a1.526,1.526,0,0,1,.142-2.146,1.525,1.525,0,0,1,2.144.143Z" fill="#a0a603" fill-rule="evenodd"/><path d="M-304.605,873.89l7.868-7.337a1.523,1.523,0,0,1,2.149.079,1.523,1.523,0,0,1-.078,2.15l-9.027,8.412-.022.018a1.527,1.527,0,0,1-2.145-.142l-4.348-4.978a1.524,1.524,0,0,1,.142-2.145,1.526,1.526,0,0,1,2.144.142Z" fill="#a0a603" fill-rule="evenodd"/><path d="M-297.2,766.409a2.8,2.8,0,0,1,.554,1.75,2.628,2.628,0,0,1-1.205,2.312,6.214,6.214,0,0,1-3.484.814h-6.154v-11.4h5.828a5.73,5.73,0,0,1,3.322.806,2.531,2.531,0,0,1,1.139,2.174,2.706,2.706,0,0,1-.4,1.457,2.783,2.783,0,0,1-1.131,1.017A3.2,3.2,0,0,1-297.2,766.409Zm-7.1-4.193v2.2h2.214q1.628,0,1.628-1.107,0-1.09-1.628-1.091Zm4.4,5.585q0-1.156-1.693-1.156h-2.7v2.312h2.7Q-299.9,768.957-299.9,767.8Z" fill="#6d8ec8"/><path d="M-294.076,770.129a5.258,5.258,0,0,1-1.408-3.924v-6.317h3.224v6.219q0,2.736,2.165,2.736,2.15,0,2.149-2.736v-6.219h3.175v6.317a5.258,5.258,0,0,1-1.408,3.924,5.4,5.4,0,0,1-3.948,1.384A5.4,5.4,0,0,1-294.076,770.129Z" fill="#6d8ec8"/><path d="M-283.006,759.888h5.389a7.553,7.553,0,0,1,3.321.7,5.266,5.266,0,0,1,2.246,1.987,5.593,5.593,0,0,1,.8,3.012,5.592,5.592,0,0,1-.8,3.011,5.267,5.267,0,0,1-2.246,1.987,7.553,7.553,0,0,1-3.321.7h-5.389Zm5.258,8.824a3.3,3.3,0,0,0,2.353-.83,2.991,2.991,0,0,0,.887-2.3,2.992,2.992,0,0,0-.887-2.3,3.3,3.3,0,0,0-2.353-.83h-2.035v6.251Z" fill="#6d8ec8"/><path d="M-262.34,765.342h2.849v4.722a7.407,7.407,0,0,1-2.246,1.074,8.936,8.936,0,0,1-2.54.375,6.8,6.8,0,0,1-3.224-.757,5.645,5.645,0,0,1-2.246-2.109,5.811,5.811,0,0,1-.814-3.06,5.812,5.812,0,0,1,.814-3.061,5.613,5.613,0,0,1,2.263-2.109,6.963,6.963,0,0,1,3.272-.757,7.27,7.27,0,0,1,2.865.538,5.523,5.523,0,0,1,2.117,1.546l-2.052,1.856a3.616,3.616,0,0,0-2.767-1.27,3.207,3.207,0,0,0-2.361.888,3.184,3.184,0,0,0-.895,2.369,3.435,3.435,0,0,0,.407,1.685,2.909,2.909,0,0,0,1.139,1.155,3.343,3.343,0,0,0,1.677.416,4.113,4.113,0,0,0,1.742-.375Z" fill="#6d8ec8"/><path d="M-248.706,768.794v2.491h-9.15v-11.4h8.938v2.491h-5.747V764.3h5.063v2.41h-5.063v2.084Z" fill="#6d8ec8"/><path d="M-244.907,762.444h-3.5v-2.556H-238.2v2.556h-3.484v8.841h-3.224Z" fill="#6d8ec8"/><rect width="32.442" height="4.16" transform="translate(-309.711 894.926)" fill="#fda600"/><rect width="4.111" height="4.16" transform="translate(-281.38 894.926)" fill="#fda600"/><rect width="4.32" height="4.16" transform="translate(-285.857 894.926)" fill="#ffd115"/><rect width="14.641" height="4.16" transform="translate(-300.498 894.926)" fill="#fca700"/><rect width="6.29" height="4.16" transform="translate(-306.788 894.926)" fill="#ec830e"/><rect width="29.322" height="0.396" transform="translate(-308.174 899.086)" fill="#df641e"/><rect width="33.686" height="4.16" transform="translate(-310.954 899.483)" fill="#fda600"/><rect width="4.269" height="4.16" transform="translate(-281.537 899.483)" fill="#fda600"/><rect width="4.32" height="4.16" transform="translate(-285.857 899.483)" fill="#ffd115"/><rect width="15.531" height="4.16" transform="translate(-301.389 899.483)" fill="#fca700"/><rect width="7.422" height="4.16" transform="translate(-307.92 899.483)" fill="#ec830e"/><rect width="30.446" height="0.396" transform="translate(-309.359 903.643)" fill="#df641e"/><rect width="32.442" height="4.16" transform="translate(-330.136 894.926)" fill="#fda600"/><rect width="4.111" height="4.16" transform="translate(-301.806 894.926)" fill="#fda600"/><rect width="4.32" height="4.16" transform="translate(-306.283 894.926)" fill="#ffd115"/><rect width="14.641" height="4.16" transform="translate(-320.924 894.926)" fill="#fca700"/><rect width="6.29" height="4.16" transform="translate(-327.214 894.926)" fill="#ec830e"/><rect width="29.322" height="0.396" transform="translate(-328.6 899.086)" fill="#df641e"/><rect width="33.686" height="4.16" transform="translate(-331.38 899.483)" fill="#fda600"/><rect width="4.269" height="4.16" transform="translate(-301.963 899.483)" fill="#fda600"/><rect width="4.32" height="4.16" transform="translate(-306.283 899.483)" fill="#ffd115"/><rect width="15.531" height="4.16" transform="translate(-321.815 899.483)" fill="#fca700"/><rect width="7.422" height="4.16" transform="translate(-328.346 899.483)" fill="#ec830e"/><rect width="30.446" height="0.396" transform="translate(-329.785 903.643)" fill="#df641e"/><rect width="32.442" height="4.16" transform="translate(-330.136 890.369)" fill="#fda600"/><rect width="4.111" height="4.16" transform="translate(-301.806 890.369)" fill="#fda600"/><rect width="4.32" height="4.16" transform="translate(-306.283 890.369)" fill="#ffd115"/><rect width="14.641" height="4.16" transform="translate(-320.924 890.369)" fill="#fca700"/><rect width="6.29" height="4.16" transform="translate(-327.214 890.369)" fill="#ec830e"/><rect width="29.322" height="0.396" transform="translate(-328.6 894.529)" fill="#df641e"/><rect width="33.686" height="4.16" transform="translate(-331.38 885.812)" fill="#fda600"/><rect width="4.269" height="4.16" transform="translate(-301.963 885.812)" fill="#fda600"/><rect width="4.32" height="4.16" transform="translate(-306.283 885.812)" fill="#ffd115"/><rect width="15.531" height="4.16" transform="translate(-321.815 885.812)" fill="#fca700"/><rect width="7.422" height="4.16" transform="translate(-328.346 885.812)" fill="#ec830e"/><rect width="30.446" height="0.396" transform="translate(-329.785 889.972)" fill="#df641e"/><rect width="32.442" height="4.16" transform="translate(-356.7 894.926)" fill="#fda600"/><rect width="4.111" height="4.16" transform="translate(-328.369 894.926)" fill="#fda600"/><rect width="4.16" height="4.16" transform="translate(-332.529 894.926)" fill="#ffd115"/><rect width="14.958" height="4.16" transform="translate(-347.487 894.926)" fill="#fca700"/><rect width="6.29" height="4.16" transform="translate(-353.778 894.926)" fill="#ec830e"/><rect width="29.322" height="0.396" transform="translate(-355.164 899.086)" fill="#df641e"/><rect width="32.442" height="4.16" transform="translate(-356.7 899.483)" fill="#fda600"/><rect width="4.111" height="4.16" transform="translate(-328.369 899.483)" fill="#fda600"/><rect width="4.16" height="4.16" transform="translate(-332.529 899.483)" fill="#ffd115"/><rect width="14.958" height="4.16" transform="translate(-347.487 899.483)" fill="#fca700"/><rect width="6.29" height="4.16" transform="translate(-353.778 899.483)" fill="#ec830e"/><rect width="29.322" height="0.396" transform="translate(-355.164 903.643)" fill="#df641e"/><rect width="32.442" height="4.16" transform="translate(-356.7 890.369)" fill="#fda600"/><rect width="4.111" height="4.16" transform="translate(-328.369 890.369)" fill="#fda600"/><rect width="4.16" height="4.16" transform="translate(-332.529 890.369)" fill="#ffd115"/><rect width="14.958" height="4.16" transform="translate(-347.487 890.369)" fill="#fca700"/><rect width="6.29" height="4.16" transform="translate(-353.778 890.369)" fill="#ec830e"/><rect width="29.322" height="0.397" transform="translate(-355.164 894.529)" fill="#df641e"/><rect width="33.686" height="4.16" transform="translate(-331.38 881.255)" fill="#fda600"/><rect width="4.269" height="4.16" transform="translate(-301.963 881.255)" fill="#fda600"/><rect width="4.32" height="4.16" transform="translate(-306.283 881.255)" fill="#ffd115"/><rect width="15.531" height="4.16" transform="translate(-321.815 881.255)" fill="#fca700"/><rect width="7.422" height="4.16" transform="translate(-328.346 881.255)" fill="#ec830e"/><rect width="30.446" height="0.396" transform="translate(-329.785 885.416)" fill="#df641e"/><rect width="33.686" height="4.16" transform="translate(-331.38 876.698)" fill="#fda600"/><rect width="4.269" height="4.16" transform="translate(-301.963 876.698)" fill="#fda600"/><rect width="4.32" height="4.16" transform="translate(-306.283 876.698)" fill="#ffd115"/><rect width="15.531" height="4.16" transform="translate(-321.815 876.698)" fill="#fca700"/><rect width="7.422" height="4.16" transform="translate(-328.346 876.698)" fill="#ec830e"/><rect width="30.446" height="0.396" transform="translate(-329.785 880.859)" fill="#df641e"/><path d="M-321.743,899.419c6.127-5.645,7.5-14.106,3.059-18.9l-1.61-1.762-.239.218c-4.7-3-11.919-1.852-17.279,3.086-5.32,4.9-7.052,11.927-4.51,16.83l-.239.219,1.61,1.762h0c.026.029.052.059.079.088,4.437,4.793,13,4.1,19.128-1.541" fill="#ec830e"/><path d="M-323.434,897.569c6.127-5.644,7.5-14.1,3.06-18.9s-13-4.1-19.128,1.541-7.5,14.106-3.059,18.9,13,4.1,19.127-1.542" fill="#fbca0d"/><path d="M-323.5,897.629c.032-.03.063-.06.1-.089l-16.066-17.356-.1.087c-6.092,5.612-7.433,14.046-2.995,18.84s12.971,4.129,19.062-1.482" fill="#ffd915"/><ellipse cx="12.727" cy="10.037" rx="12.727" ry="10.037" transform="matrix(0.738, -0.675, 0.675, 0.738, -347.698, 890.128)" fill="#fca700"/><ellipse cx="12.727" cy="10.037" rx="12.727" ry="10.037" transform="matrix(0.738, -0.675, 0.675, 0.738, -347.698, 890.128)" fill="none" stroke="#fca700" stroke-miterlimit="10" stroke-width="0.021"/><path d="M-327.111,877.736a15.753,15.753,0,0,0-8.32,3.746c-8.943,8.239-4.747,16.775,4.613,18.309-3.809,1.084-7.65.379-10.064-2.228-3.765-4.068-2.627-11.226,2.542-15.989a13.77,13.77,0,0,1,11.229-3.838" fill="#ec830e"/><path d="M-322.314,891.107a.688.688,0,0,0-.511-.994,1.159,1.159,0,0,0-1.165.752,10.311,10.311,0,0,1-5.9,5.537,1.144,1.144,0,0,0-.8,1.127.7.7,0,0,0,.992.535,12.459,12.459,0,0,0,4.455-2.754,11.569,11.569,0,0,0,2.923-4.2" fill="#ffd915"/><path d="M-332.714,883.039a6.319,6.319,0,0,0-.528.829l-.03.027c-.005.091-.234.628-.278.784-.074.262-.093.553-.155.754.014.051,0,.5,0,.593.008.23.047.331.076.575.054.191.09.383.159.611a8.477,8.477,0,0,0,.753,1.719,5.6,5.6,0,0,1,.931,2.337c-.009.995-.875,1.763-1.785,1.284a5.485,5.485,0,0,1-1.594-1.412c-.122-.167-.231-.363-.353-.529a9.011,9.011,0,0,1-.474-.973l-.106-.146a.5.5,0,0,1-.178.172,1.522,1.522,0,0,1-.35.406,11.081,11.081,0,0,1-.888.942c-.048.093-.217.316-.3.449a.348.348,0,0,1,.02.069l.018.14a1.7,1.7,0,0,1,.249.455l.631.947.318.4.514.547a.27.27,0,0,1,.116.092s.03.045.033.052c.027.052.013.025.016.052l-.024.095c-.065.151-.874,1.419-1.008,1.722l1.424,1.111c.37-.553.752-1.236,1.1-1.812.122-.2.125-.132.3-.064a10.157,10.157,0,0,0,1.013.27c.074-.02.446.018.574.01a2.362,2.362,0,0,0,.291-.027.759.759,0,0,1,.267-.034,6.612,6.612,0,0,0,1.074-.515,4.717,4.717,0,0,0,1.028-.987l.469-.79a4.723,4.723,0,0,1,.223-.5,4.627,4.627,0,0,0,.038-2.984c-.483-1.527-2.1-3.467-1.561-4.629a1.015,1.015,0,0,1,1.374-.53,3.7,3.7,0,0,1,1.41,1.156c.254.33.863,1.4.886,1.421.136-.061.2-.206.307-.25a1.749,1.749,0,0,1,.33-.372,13.777,13.777,0,0,0,1.048-1.237c-.073-.271-.171-.32-.2-.474h-.016a2.335,2.335,0,0,1-.355-.56,4.124,4.124,0,0,1-.5-.588,5.231,5.231,0,0,1-.54-.572c-.08-.236.676-1.262.919-1.759l-1.426-1.115A16.836,16.836,0,0,1-328.581,882a3.453,3.453,0,0,0-4.133,1.042" fill="#ffd915" fill-rule="evenodd"/><g clip-path="url(#c)"><rect width="58.821" height="80.246" transform="translate(-244.114 823.811)" fill="url(#d)"/></g><g clip-path="url(#e)"><rect width="58.631" height="22.651" transform="translate(-243.927 823.811)" fill="url(#f)"/></g><rect width="48.503" height="13.5" transform="translate(-238.863 828.433)" fill="#fff"/><g clip-path="url(#g)"><rect width="10.448" height="10.448" transform="translate(-238.976 850.718)" fill="url(#h)"/></g><g clip-path="url(#i)"><rect width="10.448" height="10.448" transform="translate(-226.216 850.718)" fill="url(#h)"/></g><g clip-path="url(#k)"><rect width="10.448" height="10.448" transform="translate(-213.456 850.718)" fill="url(#h)"/></g><rect width="10.448" height="10.448" transform="translate(-200.696 850.718)" fill="#da0982"/><g clip-path="url(#m)"><rect width="10.448" height="10.448" transform="translate(-238.976 862.738)" fill="url(#n)"/></g><g clip-path="url(#o)"><rect width="10.448" height="10.448" transform="translate(-226.216 862.738)" fill="url(#n)"/></g><g clip-path="url(#q)"><rect width="10.448" height="10.448" transform="translate(-213.456 862.738)" fill="url(#n)"/></g><g clip-path="url(#s)"><rect width="10.448" height="10.448" transform="translate(-200.696 862.738)" fill="url(#n)"/></g><g clip-path="url(#u)"><rect width="10.448" height="10.448" transform="translate(-238.976 874.758)" fill="url(#v)"/></g><g clip-path="url(#w)"><rect width="10.448" height="10.448" transform="translate(-226.216 874.758)" fill="url(#v)"/></g><g clip-path="url(#y)"><rect width="10.448" height="10.448" transform="translate(-213.456 874.758)" fill="url(#v)"/></g><g clip-path="url(#aa)"><rect width="10.448" height="10.448" transform="translate(-200.696 874.758)" fill="url(#ab)"/></g><g clip-path="url(#ac)"><rect width="10.448" height="10.448" transform="translate(-238.976 886.778)" fill="url(#ad)"/></g><g clip-path="url(#ae)"><rect width="10.448" height="10.448" transform="translate(-226.216 886.778)" fill="url(#ad)"/></g><g clip-path="url(#ag)"><rect width="10.448" height="10.448" transform="translate(-213.456 886.778)" fill="url(#ad)"/></g><g clip-path="url(#ai)"><rect width="10.448" height="10.448" transform="translate(-200.696 886.778)" fill="url(#ad)"/></g><path d="M-231.372,882.708h-4.409v-.848h1.734v-3.637a5.7,5.7,0,0,1-1.574,1.038v-1.038a6.413,6.413,0,0,0,.9-.39,4.769,4.769,0,0,0,.532-.43,2.4,2.4,0,0,0,.494-.572H-233v5.029h1.628Z" fill="#fff"/><path d="M-218.756,881.72v.9H-223V881.61l1.763-1.173a4.044,4.044,0,0,0,1.106-.972,1.44,1.44,0,0,0,.283-.779.991.991,0,0,0-.283-.717.979.979,0,0,0-.734-.291q-.987,0-1.135,1.2l-1-.249a2.235,2.235,0,0,1,.681-1.314,2.057,2.057,0,0,1,1.488-.546,2.116,2.116,0,0,1,1.523.542,1.821,1.821,0,0,1,.569,1.377,1.948,1.948,0,0,1-.506,1.319,11.164,11.164,0,0,1-2.51,1.711Z" fill="#fff"/><path d="M-208.523,880.261v-.818h.528a1.39,1.39,0,0,0,.789-.211.706.706,0,0,0,.316-.629.729.729,0,0,0-.268-.616,1.093,1.093,0,0,0-.69-.206,1.15,1.15,0,0,0-1.16.835l-.949-.165a1.832,1.832,0,0,1,.74-1.076,2.333,2.333,0,0,1,1.4-.417,2.294,2.294,0,0,1,1.39.42,1.322,1.322,0,0,1,.576,1.124,1.35,1.35,0,0,1-.31.895,1.074,1.074,0,0,1-.766.405,1.463,1.463,0,0,1,.909.468,1.334,1.334,0,0,1,.344.924,1.5,1.5,0,0,1-.6,1.221,2.459,2.459,0,0,1-1.588.479,2.382,2.382,0,0,1-1.513-.466,2,2,0,0,1-.753-1.07l.983-.24a1.228,1.228,0,0,0,1.274.962,1.232,1.232,0,0,0,.817-.26.79.79,0,0,0,.31-.626.913.913,0,0,0-.268-.652,1.069,1.069,0,0,0-.808-.281Z" fill="#fff"/><path d="M-232.618,871.205h-1.067V869.9h-2.557v-.76l2.557-3.81h1.067v3.684h.865v.886h-.865Zm-.991-4.793-1.633,2.6h1.557V867.42a3.684,3.684,0,0,1,.025-.456Z" fill="#fff"/><path d="M-222.927,865.539h3.583l-.093.89h-2.73l-.16,1.671a1.638,1.638,0,0,1,1.354-.663,1.906,1.906,0,0,1,1.4.574,1.866,1.866,0,0,1,.571,1.363,1.929,1.929,0,0,1-.6,1.418,2.234,2.234,0,0,1-1.645.6A2.714,2.714,0,0,1-222.7,871a1.8,1.8,0,0,1-.808-1.2l1-.147a1.172,1.172,0,0,0,1.211.882,1.107,1.107,0,0,0,.871-.342,1.2,1.2,0,0,0,.306-.827,1.155,1.155,0,0,0-.3-.812,1.02,1.02,0,0,0-.789-.332,1.21,1.21,0,0,0-1.113.671l-.929-.181Z" fill="#fff"/><path d="M-205.954,866.664l-.878.169a1,1,0,0,0-1.012-.81,1.042,1.042,0,0,0-1.028.635,3.165,3.165,0,0,0-.293,1.34c0,.092,0,.185,0,.278a1.522,1.522,0,0,1,1.485-.865,1.91,1.91,0,0,1,1.367.519,1.724,1.724,0,0,1,.549,1.308,1.863,1.863,0,0,1-.587,1.4,2.047,2.047,0,0,1-1.476.563,2.124,2.124,0,0,1-1.745-.783,3.311,3.311,0,0,1-.635-2.145,3.544,3.544,0,0,1,.622-2.173,1.976,1.976,0,0,1,1.669-.836A1.81,1.81,0,0,1-205.954,866.664Zm-1.907,3.772a1.14,1.14,0,0,0,.782-.28,1.085,1.085,0,0,0,.319-.859,1.094,1.094,0,0,0-.3-.734,1.058,1.058,0,0,0-.837-.342,1.023,1.023,0,0,0-.789.325,1.132,1.132,0,0,0-.3.8,1.063,1.063,0,0,0,.308.784A1.1,1.1,0,0,0-207.861,870.436Z" fill="#fff"/><path d="M-235.832,853.1h4.089v.734a8.9,8.9,0,0,0-1.411,2.392,9.52,9.52,0,0,0-.42,2.633h-1.186a7.4,7.4,0,0,1,2.135-4.869h-3.295Z" fill="#fff"/><path d="M-222.079,855.95a1.482,1.482,0,0,1-1.013-1.379,1.441,1.441,0,0,1,.559-1.167,2.4,2.4,0,0,1,1.563-.458,2.42,2.42,0,0,1,1.471.41,1.281,1.281,0,0,1,.555,1.084q0,.824-1.026,1.249,1.254.535,1.253,1.515a1.452,1.452,0,0,1-.626,1.2,2.724,2.724,0,0,1-1.69.477,2.743,2.743,0,0,1-1.694-.441,1.347,1.347,0,0,1-.572-1.108Q-223.3,856.386-222.079,855.95Zm.713.342a1.746,1.746,0,0,0-.68.42.819.819,0,0,0-.257.572.754.754,0,0,0,.323.578,1.544,1.544,0,0,0,.993.266,1.554,1.554,0,0,0,.88-.218.646.646,0,0,0,.323-.554.645.645,0,0,0-.268-.511A4.871,4.871,0,0,0-221.366,856.292Zm.679-.9q.8-.328.8-.915a.671.671,0,0,0-.324-.595,1.346,1.346,0,0,0-.751-.211,1.456,1.456,0,0,0-.762.19.607.607,0,0,0-.319.552.628.628,0,0,0,.346.574A5.179,5.179,0,0,0-220.687,855.389Z" fill="#fff"/><path d="M-209.949,857.816l.869-.249a1.056,1.056,0,0,0,.971.6,1.1,1.1,0,0,0,1-.6,3.427,3.427,0,0,0,.358-1.684,1.568,1.568,0,0,1-.7.749,2.024,2.024,0,0,1-.806.167,1.909,1.909,0,0,1-1.352-.509,1.741,1.741,0,0,1-.547-1.339,1.856,1.856,0,0,1,.564-1.386,2.047,2.047,0,0,1,1.495-.551,2.171,2.171,0,0,1,1.7.728,3.03,3.03,0,0,1,.648,2.082,3.785,3.785,0,0,1-.625,2.253,2.042,2.042,0,0,1-1.764.874,2,2,0,0,1-1.2-.338A1.607,1.607,0,0,1-209.949,857.816Zm1.882-1.861a1.187,1.187,0,0,0,.8-.3,1.063,1.063,0,0,0,.344-.852,1,1,0,0,0-.3-.7,1.091,1.091,0,0,0-.827-.314,1.081,1.081,0,0,0-.8.314,1.06,1.06,0,0,0-.31.774,1.1,1.1,0,0,0,.289.739A1.012,1.012,0,0,0-208.067,855.955Z" fill="#fff"/><path d="M-193.311,871.111h-1.211l-1.274-2.27-1.35,2.27h-.966l1.823-3-1.566-2.759h1.207l1.063,1.916,1.127-1.916h.97l-1.6,2.629Z" fill="#fff"/><path d="M-194.225,856.858l.962.106a2.254,2.254,0,0,1-.669,1.424,2.082,2.082,0,0,1-1.512.559,1.98,1.98,0,0,1-1.281-.4,2.524,2.524,0,0,1-.757-1.076,4.082,4.082,0,0,1-.266-1.5,3.455,3.455,0,0,1,.624-2.141,2.037,2.037,0,0,1,1.718-.825,2.021,2.021,0,0,1,1.426.527,2.485,2.485,0,0,1,.717,1.511l-.962.1q-.265-1.3-1.173-1.3a1,1,0,0,0-.9.542,3.108,3.108,0,0,0-.323,1.571,2.938,2.938,0,0,0,.346,1.581,1.051,1.051,0,0,0,.916.533,1,1,0,0,0,.776-.358A1.43,1.43,0,0,0-194.225,856.858Z" fill="#fff"/><path d="M-194.369,880.276v.789h-2.118v-.789Z" fill="#fff"/><path d="M-193.488,891.57v.806h-1.734v1.793h-.8v-1.793h-1.734v-.806h1.734v-1.8h.8v1.8Z" fill="#fff"/><path d="M-233.848,894.724a1.873,1.873,0,0,1-1.633-.821,3.553,3.553,0,0,1-.574-2.086,3.666,3.666,0,0,1,.6-2.2,1.892,1.892,0,0,1,1.614-.832,1.95,1.95,0,0,1,1.234.391,2.3,2.3,0,0,1,.751,1.084,3.888,3.888,0,0,1,.247,1.3,5.039,5.039,0,0,1-.232,1.668,2.419,2.419,0,0,1-.738,1.072A1.924,1.924,0,0,1-233.848,894.724Zm0-.814a.958.958,0,0,0,.709-.27,1.432,1.432,0,0,0,.367-.756,7.167,7.167,0,0,0,.1-1.341,3.8,3.8,0,0,0-.238-1.346.9.9,0,0,0-.914-.637q-1.173,0-1.173,2.168a4.183,4.183,0,0,0,.249,1.582A.9.9,0,0,0-233.853,893.91Z" fill="#fff"/><path d="M-220.374,893.44v1.106h-1.043V893.44Z" fill="#fff"/><path d="M-206.088,890.884v.806h-4.269v-.806Zm0,1.262v.806h-4.269v-.806Z" fill="#fff"/><path d="M-204.587,828.433h6.064l-13.039,13.5h-6.064Zm-13.393,0h10.259l-13.039,13.5h-10.258Z" fill="#dbdcdc" fill-rule="evenodd"/><rect width="5.987" height="5.651" transform="translate(-180.033 881.227)" fill="#4b6cd4"/><rect width="5.988" height="5.651" transform="translate(-170.608 881.227)" fill="#4b6cd4"/><path d="M-168.912,865.315c-.908,6.619,3.54,8.662-.815,14.783,0,0-2.667-2.936-3.809-3.144s-1.295-3.8-1.295-3.983,1.017-7.345,1.017-7.345Z" fill="#0e437f" fill-rule="evenodd"/><rect width="7.713" height="7.713" transform="translate(-164.202 889.8)" fill="#a5dbfd"/><path d="M-167.875,907.123l6.173,1.851a4.742,4.742,0,0,1,.866,1.557c.173.729.481,1.051.938,1.081.836.054,1.192-5.359,1.319-6.214l-7.034-1.977Z" fill="#f4b1b1" fill-rule="evenodd"/><path d="M-171.1,874.585h-10.379c-1.295,0-4.484,2.453-5.045,5.651h0c-1.055,5.145-.586,16.467,3.059,20.505l4.13-.054,12.656-3.138V876.185a6.894,6.894,0,0,0-4.421-1.6" fill="#a0a603" fill-rule="evenodd"/><path d="M-181.477,874.619c-5.124.5-5.6,6.942-5.535,10.963h5.533Z" fill="#a0a603" fill-rule="evenodd"/><path d="M-173.069,874.453a2.788,2.788,0,0,1-1.263,4.082c-1.631-1.059-3.1-2.091-3.1-4.082,0,0-1.6-.578-1.969.315,3.389,8.788,2.409,19.928,2.409,19.928,2.353-.073,8.628-1.122,8.678-.936.254-2.142.222-16.036-3.845-19.27Z" fill="#fff" fill-rule="evenodd"/><path d="M-181.979,885.621l-5.033-.039c0,3.04,4.948,10.058,10.82,10.058h7.328a5.987,5.987,0,0,0-3.611-2.164c-2.053-.167-2.133.116-2.133.116-1.135.039-6.353-3-7.371-7.971" fill="#f4b1b1" fill-rule="evenodd"/><path d="M-158.4,895.64h-21.93a3.883,3.883,0,0,0-.728.068h0c-5.912,0-6.021,3.665-6.464,7.809H-158.4a3.951,3.951,0,0,0,3.939-3.939,3.95,3.95,0,0,0-3.939-3.938" fill="#356fa1" fill-rule="evenodd"/><path d="M-157.425,896.026a8.088,8.088,0,0,0-2.9-.377c-3.25.422-22.583,6.269-22.583,6.269l3.409,3.955c3.984-.251,19.962,1.163,23-.927,3.17-2.177,3.9-7.82-.935-8.92" fill="#356fa1" fill-rule="evenodd"/><path d="M-170.239,869.793c.42,1.53-1.489,4.119-2.832,4.047l0,.614.005.007a2.789,2.789,0,0,1-1.268,4.074h0c-1.626-1.056-3.088-2.084-3.1-4.064v-2.312c-.113-.035-.118.168-.348.028a2.58,2.58,0,0,1-.648-1.713c.093-.535.778-.84.778-.84-.644-1.586-1.153-1.837.506-2.718s5.008-.815,5.008-.815l1.519.51a10.2,10.2,0,0,0,.375,3.182" fill="#f4b1b1" fill-rule="evenodd"/><path d="M-172.736,873.848a2.912,2.912,0,0,1-.335-.008,7.883,7.883,0,0,1-2.779-.572,2.927,2.927,0,0,0,1.519,1.625,5.762,5.762,0,0,0,1.656.508,3.486,3.486,0,0,0-.389-.94l-.005-.007,0-.614Z" fill="#ed8d8f" fill-rule="evenodd"/><path d="M-166.786,876.1a19.508,19.508,0,0,1,5.46,9.63c-1.847-.121-3.779-.112-5.609-.171Z" fill="#a0a603" fill-rule="evenodd"/><path d="M-171.863,883.021h15.87c.612,0,1.247.516,1.112,1.113l-2.371,10.489c-.135.6-.5,1.113-1.113,1.113h-15.87c-.612,0-1.248-.516-1.113-1.113l2.372-10.489c.135-.6.5-1.113,1.113-1.113" fill="#e8f5fc" fill-rule="evenodd"/><path d="M-171.152,883.021h15.87c.612,0,1.248.516,1.113,1.113l-2.372,10.489c-.135.6-.5,1.113-1.113,1.113h-15.869c-.613,0-1.248-.516-1.113-1.113l2.371-10.489c.135-.6.5-1.113,1.113-1.113" fill="#b9e4ff" fill-rule="evenodd"/><path d="M-164.068,888.336a1.016,1.016,0,0,1,.534,1.321,1.015,1.015,0,0,1-1.2.763,1.016,1.016,0,0,1-.533-1.321,1.016,1.016,0,0,1,1.2-.763" fill="#fff" fill-rule="evenodd"/><path d="M-182.877,894.7h8.058v1.04H-183.4v-.52a.522.522,0,0,1,.52-.52" fill="#e8f5fc" fill-rule="evenodd"/><path d="M-182.991,895.868c3.274.156,20.139,6.554,20.139,6.554l-1.783,6.081c-2.487-.3-20.125-2.64-21.463-3.407-5.671-3.25-1.639-9.655,3.107-9.228" fill="#356fa1" fill-rule="evenodd"/><path d="M-175.027,867.174a13.39,13.39,0,0,0,5.129.133c2.8-.675,1.688-3.788-.092-5.046-2.675-1.889-7.4-1.13-8.927,2.078-1.964,4.133-2.1,5.87-6.3,8.208-1.707.949-3.262,1.98-3.471,4.855-.025.341.624-.007,1.692-.281-1.243,1.593-.124,4.438.141,4.769.42-7.3,7.9-7.12,9.466-7.3.071-.884.414-1.465.417-2.016a1.868,1.868,0,0,1-.794-1.485c.055-.906.174-.648.278-.626a7.087,7.087,0,0,1,.7.366c.209-1.176.162-3.52,1.767-3.65" fill="#0e437f" fill-rule="evenodd"/><path d="M-341.7,835.353c2.044,4.486,3.543,8.5,9.393,9.376,4.138.114,8.68-14.5,8.12-15.927-.609-1.551,1.3-.8-1.078-.751-3.16-.009-6.675,9.73-7.388,9.681-.675-.048-4.023-9.169-8.17-10.675-.492-.317-2.316,6.129-.877,8.3" fill="#827e00" fill-rule="evenodd"/><g clip-path="url(#ak)"><rect width="20.251" height="18.103" transform="translate(-343.144 826.74)" fill="#827e00"/></g><g clip-path="url(#al)"><rect width="30.909" height="66.08" transform="translate(-361.705 839.172)" fill="url(#am)"/></g><path d="M-361.188,835.369c-2.776,6.775-3.778,14.243-4.645,21.458a2.342,2.342,0,0,0,1.41,2.063c.572.306.372.588,1.428-.342,1.6-1.932,2.9-9.591,4.648-12.442,3.445-5.629,6.763-11.09,4.933-14.7-.087-.506-7.225,1.744-7.774,3.96" fill="#827e00" fill-rule="evenodd"/><path d="M-356.712,842.321a83.512,83.512,0,0,1,.839,17.158c8,1.373,15.631.939,20.407-.582-.224-5.277,1.335-30.6-6.485-32.274-5.29-1.483-12.385-1.014-15.316,1.876-2.686,2.521-5.4,10.458-6.335,14.05-2.732,10.51,4.6,4.706,6.89-.228" fill="#a0a603" fill-rule="evenodd"/><g clip-path="url(#an)"><rect width="32.203" height="35.712" transform="translate(-366.334 825.14)" fill="#a0a603"/></g><path d="M-344.005,826.112c.96,4.357,1.294,19.071,1.193,23.932-.186-.366-8.328-20.623-9.017-23.986a16.715,16.715,0,0,1,7.824.054" fill="#fff" fill-rule="evenodd"/><g clip-path="url(#ao)"><rect width="5.003" height="20.581" transform="translate(-347.491 829.463)" fill="url(#ap)"/></g><path d="M-356.712,842.321a120.125,120.125,0,0,1,.839,17.158c2.1-5.2.985-18.8.578-20.9a26.226,26.226,0,0,1-1.417,3.741" fill="#827e00" fill-rule="evenodd"/><g clip-path="url(#aq)"><rect width="11.056" height="15.66" transform="translate(-353.723 813.814)" fill="url(#ar)"/></g><path d="M-348.919,823.727s1.3,2.237,2.376,2.44.524.053.923.005l-.03-1.626c-.738.118-1.461.06-3.269-.819" fill="#df5b7a" fill-rule="evenodd"/><path d="M-342.812,850.043h0l2.231-18.239-1.807-1.525,1.144-1.355-1.123-2.414a11.187,11.187,0,0,1-1.638-.4c.96,4.357,1.294,19.07,1.193,23.931" fill="#827e00" fill-rule="evenodd"/><path d="M-342.812,850.043h0l-11.006-16.909,1.281-1.988-1.49-.961.534-3.7a14.662,14.662,0,0,1,1.668-.409c.716,3.42,8.822,23.588,9.013,23.964" fill="#827e00" fill-rule="evenodd"/><path d="M-313.192,809.733a.562.562,0,0,1,.732.679l-2.726,3.724-1.743-1.617Z" fill="#f85c24" fill-rule="evenodd"/><g clip-path="url(#as)"><rect width="11.155" height="11.226" transform="translate(-325.823 812.005)" fill="url(#at)"/></g><path d="M-320.8,823.23l-36.931,39.807-5.026-4.662,36.932-39.807c.478-.516,1.991.11,3.379,1.4s2.125,2.75,1.646,3.265" fill="#ff8c63" fill-rule="evenodd"/><path d="M-360.521,860.447l-.719-.667,37.72-40.668a8.563,8.563,0,0,1,1.076.853,8.668,8.668,0,0,1,.927,1l-37.722,40.669Z" fill="#f85c24" fill-rule="evenodd"/><path d="M-359.376,859.772c1.388,1.288,2.125,2.749,1.647,3.265s-1.992-.109-3.38-1.4-2.125-2.749-1.646-3.265,1.992.11,3.379,1.4" fill="#ffd600" fill-rule="evenodd"/><path d="M-357.729,863.037-320.8,823.23l.1-.152c.181-.441-.145-1.252-.816-2.11l-.975,1.05-35.952,38.762c.755.969,1.07,1.874.715,2.257" fill="#c84904" fill-rule="evenodd"/><g clip-path="url(#au)"><rect width="10.469" height="10.525" transform="translate(-367.484 857.635)" fill="url(#av)"/></g><path d="M-359.143,859.524a8.043,8.043,0,0,1,1.693,2.141,1.643,1.643,0,0,1,.15,1.651v.009c-.021.022-.047.054-.069.074a1.061,1.061,0,0,1-.917.241l.559-.568.032-.026c.169-.2.088-.632-.182-1.166a7.524,7.524,0,0,0-1.586-2l-.007-.006a7.519,7.519,0,0,0-2.118-1.437c-.565-.234-1.006-.28-1.188-.083a.345.345,0,0,0-.075.134l-.457.51a1.059,1.059,0,0,1,.181-.97l.015-.016c.337-.343.963-.325,1.706-.018a8.014,8.014,0,0,1,2.262,1.529Z" fill="#cb4700"/><path d="M-363.984,865.048c1.388,1.288,1.959,2.6,1.48,3.111s-1.826.045-3.213-1.242-2.246-2.89-1.767-3.406,2.112.25,3.5,1.537" fill="#94b2dd" fill-rule="evenodd"/><g clip-path="url(#aw)"><rect width="5.393" height="9.653" transform="translate(-366.622 855.677)" fill="url(#ax)"/></g><g clip-path="url(#ay)"><rect width="5.809" height="5.046" transform="translate(-327.681 825.622)" fill="url(#az)"/></g><path d="M-222.66,769.8h48.608a5.065,5.065,0,0,1,5.05,5.05v28.865a5.066,5.066,0,0,1-5.05,5.05H-222.66a5.065,5.065,0,0,1-5.05-5.05V774.852a5.064,5.064,0,0,1,5.05-5.05" fill="#ecedcc" fill-rule="evenodd"/><rect width="6.133" height="8.466" transform="translate(-216.753 794.421)" fill="#6f7302"/><rect width="6.133" height="12.402" transform="translate(-210.621 790.485)" fill="#a0a603"/><rect width="6.133" height="19.247" transform="translate(-204.488 783.64)" fill="#6f7302"/><rect width="6.133" height="15.54" transform="translate(-198.355 787.347)" fill="#a0a603"/><rect width="6.133" height="22.575" transform="translate(-192.223 780.312)" fill="#6f7302"/><rect width="6.133" height="26.868" transform="translate(-186.09 776.019)" fill="#a0a603"/><g clip-path="url(#ba)"><rect width="12.358" height="11.939" transform="translate(-354.989 810.894)" fill="url(#bb)"/></g></g></svg>