<svg xmlns="http://www.w3.org/2000/svg" xmlns:xlink="http://www.w3.org/1999/xlink" width="190" height="219" viewBox="0 0 190 219"><defs><clipPath id="a"><path d="M-746.457-360.236q.24-7.832.883-15.643a6.411,6.411,0,0,1,.625-2.684,3.849,3.849,0,0,1,3.257-1.763c4.2-.136,8.3.705,12.494,1.333q8.824,1.32,17.551,2.963c2.324.437,5.356,1.625,7.71,1.332,2.278-.283,4.607-1.9,6.8-2.589,2.16-.68,4.7-.837,6.518.513,1.929,1.43,2.517,4.143,4.375,5.665.989.81,2.268,1.218,3.222,2.068a5.935,5.935,0,0,1,1.687,4.957c-.233,2.625-1.665,4.9-2.592,7.309a42.353,42.353,0,0,0-2.263,8.395,79.828,79.828,0,0,0-1.19,20.351,41.089,41.089,0,0,0,6.876,19.577c-1.422-.915-3.677-1.077-5.328-1.13-1.781-.056-2.961,1.056-4.7,1.327a15.9,15.9,0,0,1-4.377-.135l-29.9-3.7-13.067-1.615a11.119,11.119,0,0,1-4.834-1.367c-2.618-1.723-2.653-6.7-2.869-9.494A330.223,330.223,0,0,1-746.457-360.236Z" transform="translate(746.604 380.341)" fill="#a0a603"/></clipPath><clipPath id="b"><path d="M-752.991-386.962a27.532,27.532,0,0,0-.5,9.575c.295,2.409.7,6.142,3.169,7.275a8.722,8.722,0,0,0,2.979.593c11.036.878,22.084,1.758,33.152,1.812,7.959.039,16.24-.437,23.248-4.323a53.73,53.73,0,0,0,9.017-6.828c1.584-1.382,4.438-3.9,2.773-6.165-1.552-2.114-4.26-2.668-6.647-2.954-20.133-2.422-40.361-4.3-60.63-4.346a7.427,7.427,0,0,0-3.816.683C-751.833-390.716-752.565-388.785-752.991-386.962Z" transform="translate(753.7 392.323)" fill="#a0a603"/></clipPath><clipPath id="c"><ellipse cx="3.23" cy="10.842" rx="3.23" ry="10.842" fill="#a0a603"/></clipPath><clipPath id="d"><path d="M-782.143-332.315l-2.249,13.44h-4.1l-4.5-13.44Z" transform="translate(792.992 332.315)" fill="#84722f"/></clipPath><clipPath id="e"><path d="M-735.042-331.92l-1.681,13.647-4.389-.452-2.376-13.179Z" transform="translate(743.488 331.92)" fill="#84722f"/></clipPath><clipPath id="f"><path d="M-719.286-450.363c-.806.024-1.721.206-2.271.25A10.586,10.586,0,0,0-725.272-449a15.486,15.486,0,0,0-6.465,6.441c-2.4,4.531-2.823,9.815-3.2,14.93q-1.2,16.421-2.4,32.84-.6,8.21-1.2,16.421c-.191,2.619-.484,3.921.979,6.151a24.573,24.573,0,0,0,4.145,4.811,24.3,24.3,0,0,0,7.328,4.528,4.232,4.232,0,0,0,2.8.35,3.106,3.106,0,0,0,1.849-2.078,7.259,7.259,0,0,0,.037-3.106,24.885,24.885,0,0,1,.262-4.318c.317-3.38.6-6.764.825-10.152a170.661,170.661,0,0,0,.262-20,210.073,210.073,0,0,1,.2-24.924q.4-6.026,1.1-12.026c.161-1.392.166-2.838.4-4.2.271-1.551.758-3.034.944-4.611.093-.789.077-1.746-.59-2.18A2.353,2.353,0,0,0-719.286-450.363Z" transform="translate(738.699 450.366)" fill="#a0a603"/></clipPath><clipPath id="g"><path d="M-717.832-358.189c3.2.184,6.869.215,9.042-1.841,1.864-1.763,1.915-4.42,1.88-6.819a469.164,469.164,0,0,1,5.46-81.188c-21.644-2.127-43.645.913-65.266-1.375-3.031-.32-6.125-.744-9.112-.185s-5.9,2.36-6.522,4.965c-2.372,9.87-2.453,19.872-2.828,29.951-.385,10.335.059,20.7-.941,31q-.509,5.255-1.518,10.461c-.481,2.49-2.764,6.922-.422,9.021a8.02,8.02,0,0,0,2.957,1.5c4.8,1.526,10.291,1.224,15.333,1.514l17.312,1Z" transform="translate(789.098 449.869)" fill="#a0a603"/></clipPath><clipPath id="h"><path d="M-738.643-390.392c-1.674-.307-1.726-2.84-2.138-4.269l-1.939-6.746a5.3,5.3,0,0,1,.442-4.847,24.048,24.048,0,0,1,3.136-3.729,36.886,36.886,0,0,0,7.5-12.316c1.012.381,1.984.785,3.009,1.083a9.371,9.371,0,0,1,3.853,1.892,7.1,7.1,0,0,1,2.053,5.125,17.549,17.549,0,0,1-1.041,5.554,40.733,40.733,0,0,1-4.543,10.043,22.5,22.5,0,0,1-7.909,7.567,4.758,4.758,0,0,1-1.939.67A2.061,2.061,0,0,1-738.643-390.392Z" transform="translate(743.097 422.299)" fill="#e09260"/></clipPath><clipPath id="i"><path d="M-735.932-432.381c-1.17,1.388-2.373,2.687-3.591,4.044a67.865,67.865,0,0,0-7.226,9.652c-.856,1.385-1.658,3.207-.727,4.545a4.38,4.38,0,0,0,2.13,1.361l5.475,2.138a2.376,2.376,0,0,0,1.382.239c1.022-.243,1.232-1.579,1.272-2.631a39.138,39.138,0,0,1,5.038-17.755,8.091,8.091,0,0,0,.964-2.106C-730.3-436.847-734.923-433.58-735.932-432.381Z" transform="translate(747.892 434.79)" fill="#529ad9"/></clipPath><clipPath id="j"><path d="M-794.575-359.413c3.354-3.841,3.754-9.356,3.992-14.449q1.315-28.086,2.63-56.174c.286-6.1.717-12.634,4.629-17.324,1.835-2.2,5.29-2.564,7.86-1.3a10.794,10.794,0,0,1,5.165,6.568,30.737,30.737,0,0,1,1.055,8.494c.693,25.281-.52,50.572-1.733,75.831-.053,1.127-.227,1.706-1.249,2.184a6.408,6.408,0,0,1-3.332.274,160.532,160.532,0,0,1-17.37-2.3A1.827,1.827,0,0,1-794.575-359.413Z" transform="translate(794.576 449.384)" fill="#a0a603"/></clipPath><clipPath id="k"><path d="M-707.352-310.332a4.536,4.536,0,0,1-.846,3.054,4.573,4.573,0,0,1-3.244,1q-35.834,1.48-71.7-.576a10.48,10.48,0,0,1-4.42-.914c-2.026-1.092-3.1-3.345-3.964-5.476a72.1,72.1,0,0,1-5.718-24.91,45,45,0,0,1,6.036-24.612c2.45-4.029,5.773-7.67,10.038-9.685,6.148-2.9,13.3-2.1,20.1-1.832a116.029,116.029,0,0,0,23.953-1.545,116.526,116.526,0,0,0,11.8-2.637q2.915-.811,5.783-1.776c1.8-.6,3.792-1.7,5.7-1.815,3.521-.216,2.576,2.669,2.594,5.048.033,4.083.819,8.272,1.221,12.335.841,8.49,1.591,16.991,2.1,25.509C-707.348-329.565-707.087-319.944-707.352-310.332Z" transform="translate(797.266 382.067)" fill="#a0a603"/></clipPath><clipPath id="l"><path d="M-737.463-311.8a3.044,3.044,0,0,0,.905.258,43.738,43.738,0,0,0,6.853.569,16.3,16.3,0,0,1-1.631-3.383q-.378-1.644-.745-3.293c-.489-2.2-.955-4.407-1.38-6.622-2-10.4-3.124-21.173-1.142-31.671a71.7,71.7,0,0,1,2-7.87c.281-.911.361-1.843.667-2.732.412-1.2.877-2.379,1.314-3.567a5.548,5.548,0,0,0,.467-2.021c-.046-1.868-1.693-1.718-3.083-1.985a4.933,4.933,0,0,0-2.761-.027c-.949.375-1.235,1.265-1.659,2.126a45.862,45.862,0,0,0-2.379,5.961c-.624,1.9-.958,3.884-1.406,5.828a80.45,80.45,0,0,0-1.9,13.267A85.835,85.835,0,0,0-740-317.814a22.242,22.242,0,0,0,1.173,3.431c.367.763.459,1.938,1.179,2.472A1.514,1.514,0,0,0-737.463-311.8Z" transform="translate(743.488 374.332)" fill="#7c7a27"/></clipPath><clipPath id="m"><path d="M-670.493-326.513c1.1,5.816-4.454,5.524-8.312,4.822-4.844-.883-9.781-.627-14.67-.369-2.45.129-4.9.265-7.355.252-1.08-.006-5.509.671-4.121-1.705.849-1.455,4.474-1.782,5.927-2.138a44.066,44.066,0,0,0,10.746-4.517c2.841-1.575,5.122-2.878,5.761-6.339.222-1.206-.776-3.33.028-4.149a2.247,2.247,0,0,1,1.434-.49c2.1-.2,4.2-.415,6.311-.456,1.329-.027,3.278-.535,3.154,1.083-.046.582-.643,1.235-.807,1.81a8.948,8.948,0,0,0-.21,2.666,21.136,21.136,0,0,0,1.093,6.273A25.142,25.142,0,0,1-670.493-326.513Z" transform="translate(705.218 341.698)" fill="#e09260"/></clipPath><clipPath id="n"><path d="M-737.689-362.43l-24.66.644-6.165.161c-1.206.031-3.906.647-4.951-.013-1.1-.7-1.444-3.669-1.643-4.838a47.157,47.157,0,0,1-.5-5.084c-.573-9.387-1.124-18.8-.523-28.188s2.384-18.786,6.291-27.34c1.1-2.415,2.53-4.909,4.937-6.032,2.028-.947,4.038-.425,6.131-.883a24.417,24.417,0,0,0,5.9-2.489,18.087,18.087,0,0,1,5.856-2.152c1.929-.252,2.955.333,4.54,1.295l9.094,5.515a31.293,31.293,0,0,1,5.4,3.819,13.379,13.379,0,0,1,3.215,5.194,34.7,34.7,0,0,1,2.146,6.168c1.013,4.974.861,10.1.7,15.178-.31,9.986-.639,20.091-3.386,29.7-.835,2.924-2.043,5.983-4.576,7.666C-732.129-362.619-734.989-362.5-737.689-362.43Z" transform="translate(776.393 438.702)" fill="#529ad9"/></clipPath><clipPath id="o"><path d="M-680.888-322.758c1.1,5.816-4.454,5.522-8.31,4.82-4.845-.881-9.781-.627-14.671-.369-2.449.129-4.9.267-7.353.252-1.081-.006-5.509.673-4.123-1.7.849-1.455,4.475-1.782,5.928-2.138a44.034,44.034,0,0,0,10.744-4.517c2.843-1.575,5.124-2.878,5.762-6.34.222-1.206-.776-3.329.027-4.148a2.246,2.246,0,0,1,1.435-.49c2.1-.2,4.2-.416,6.31-.456,1.329-.027,3.278-.535,3.152,1.083-.045.582-.641,1.234-.806,1.81a8.989,8.989,0,0,0-.212,2.666,21.109,21.109,0,0,0,1.095,6.272A25.263,25.263,0,0,1-680.888-322.758Z" transform="translate(715.611 337.943)" fill="#eb9965"/></clipPath><clipPath id="p"><path d="M-720.8-316.929a13.058,13.058,0,0,1-1.668,4.069c-.864,1.338-2.225,1.625-3.733,1.967a19.377,19.377,0,0,1-6.617.476c-3.924-.5-4.222-2.247-3.985-5.776.28-4.146.763-8.278,1.394-12.384,1.247-8.106,3.072-16.111,5.091-24.056a72.972,72.972,0,0,1,4.582-13.351c1.976-4.238,4.1-8.408,6.149-12.609a26.171,26.171,0,0,1,4.438-7.02c2.406-2.456,4.893-2.735,8.078-3.179,3.932-.548,7.89-1.012,11.8-1.544,2.115-.287,4.462.111,6.6.1a54.688,54.688,0,0,0,7.048-.452,16.558,16.558,0,0,1,5.894-.24c-1.926,1.889-4.757,2.472-7.436,2.773-2.27.253-4.74.311-6.868,1.228a25.539,25.539,0,0,0-5.475,3.73,43.188,43.188,0,0,0-9.168,10.46c-4.5,7.109-7.177,15.218-9.184,23.389s-3.385,16.487-5.528,24.623C-720.065-322.143-720.188-319.459-720.8-316.929Z" transform="translate(736.86 391.122)" fill="#7b91ad"/></clipPath><clipPath id="q"><path d="M-739.162-314.906l.224-2.215c.48-4.725.4-9.728,1.292-14.339.99-5.131,2-10.26,3.127-15.363a191.365,191.365,0,0,1,8.841-29.975,20.807,20.807,0,0,1,4.235-7.27c2.8-2.775,6.188-2.98,9.878-3.663,4-.741,7.987-1.512,12.011-2.1,2.272-.33,5.127-1.139,7.41-.952,2.189.178,1.72,4.035,1.752,5.607a71.016,71.016,0,0,1-.467,9.064,12.426,12.426,0,0,0-.093,4.133c.28,1.292,1.169,3.257,1.035,4.57-.135,1.342-1.866,1.57-2.982,1.776a47.374,47.374,0,0,1-11.1.71,3.643,3.643,0,0,0-1.832.2,2.36,2.36,0,0,0-1.161,1.763c-.19,1.153-.034,2.215-.281,3.382-.261,1.237-.554,2.461-.905,3.675a79.609,79.609,0,0,1-3.269,8.953c-1.75,4.127-4.037,8.02-5.582,12.228-1.392,3.8-1.741,7.833-2.972,11.636a110.289,110.289,0,0,0-3.493,11.946c-.407,1.992-.792,4.124-2.188,5.6a6.643,6.643,0,0,1-5.288,1.819c-2.6-.178-7.161.016-8.334-2.884a9.147,9.147,0,0,1-.264-4.346Z" transform="translate(739.696 390.81)" fill="#7f96b3"/></clipPath><clipPath id="r"><path d="M-738.956-392.265a9.142,9.142,0,0,1,2.373.068c3.936.4,7.955,1.095,11.9.944q6.173-.238,12.35-.253,2.78-.007,5.559.031,2.438.033,4.874.1c2.1.059,5.093-.261,6.826,1.108a.964.964,0,0,1,.434.64c.022.391-.373.662-.72.844a15.531,15.531,0,0,1-6.647,2.253,75.387,75.387,0,0,1-8.182-.013c-3.743-.265-7.467-.747-11.212-.991-4.822-.315-9.642-.674-14.449-1.172q-1.2-.124-2.389-.259a2.338,2.338,0,0,1-1.758-.673,2.03,2.03,0,0,1,.212-2.315A2.155,2.155,0,0,1-738.956-392.265Z" transform="translate(740.262 392.323)" fill="#8a8c8c"/></clipPath><clipPath id="s"><path d="M-750.575-392.567c2.41-.812,4.912-1.68,6.713-3.477,1.834-1.829,2.7-4.386,3.515-6.847a139.275,139.275,0,0,1,4.617-13.168c.087-.2.2-.415.407-.47a.732.732,0,0,1,.49.105,29.026,29.026,0,0,0,3.7,1.772c1.129.351,2.391.517,3.557.788l4,.932a19.824,19.824,0,0,0,3.994.93c.649.151,1.386.108,2.013.316.6.2.892.627,1.578.355a6.573,6.573,0,0,0,2.152-1.4,38.21,38.21,0,0,1-2.471,6.909,141.78,141.78,0,0,1-7.131,14.708c-1.2,2.146-2.287,4.256-3.369,6.454a12.548,12.548,0,0,1-4.278,5.337,12.149,12.149,0,0,1-4.859,1.56,51.869,51.869,0,0,1-7.2.311l-24.79-.077a7.2,7.2,0,0,1-3.7-.677,4.861,4.861,0,0,1-2.046-4.459c.076-1.511.432-3.992,2.067-4.466,2.148-.622,4.608-.656,6.814-1.163C-759.977-389.4-755.269-390.985-750.575-392.567Z" transform="translate(773.699 416.541)" fill="#eb9965"/></clipPath><clipPath id="t"><path d="M-774.809-406.214a3.106,3.106,0,0,1-1.828-2.375,6.306,6.306,0,0,1,.929-3.055l6.148-12.178a21.967,21.967,0,0,1,4.465-6.668c2-1.8,4.931-2.828,7.438-1.85,4.487,1.754,6.6,7.762,7.811,12.424a23.89,23.89,0,0,1-.705,14.212,4.977,4.977,0,0,1-1.53,2.392,4.97,4.97,0,0,1-1.773.721,25.748,25.748,0,0,1-13.976-.492,38.712,38.712,0,0,1-5.5-2.369C-773.778-405.673-774.307-405.918-774.809-406.214Z" transform="translate(776.641 432.717)" fill="#529ad9"/></clipPath><clipPath id="u"><path d="M-795.718-384.913a30.266,30.266,0,0,0-.585,10.821c.344,2.723.813,6.942,3.687,8.223a10.379,10.379,0,0,0,3.465.67c12.842.994,25.7,1.986,38.574,2.047,9.263.043,18.9-.493,27.049-4.885a62.339,62.339,0,0,0,10.492-7.715c1.843-1.564,5.164-4.41,3.226-6.97-1.807-2.388-4.957-3.014-7.734-3.339-23.424-2.736-46.96-4.86-70.544-4.911a8.875,8.875,0,0,0-4.44.77C-794.372-389.157-795.223-386.974-795.718-384.913Z" transform="translate(796.543 390.972)" fill="#a0a603"/></clipPath><clipPath id="v"><path d="M-691.873-377.415l-3.146-38.721a1.587,1.587,0,0,0-1.5-1.456l-37.755-1.872a1.588,1.588,0,0,0-1.655,1.782q2.389,19.085,4.779,38.171a1.588,1.588,0,0,0,1.468,1.388q18.063,1.209,36.124,2.421A1.587,1.587,0,0,0-691.873-377.415Z" transform="translate(735.944 419.466)" fill="#999b9b"/></clipPath><clipPath id="w"><path d="M-746.326-443.718a36.626,36.626,0,0,0,1.554,9.291,3.792,3.792,0,0,1,.225,1.043c.012.633-.523,1.29-.791,1.85q-.567,1.189-1.228,2.329a38.114,38.114,0,0,1-2.908,4.3,46.458,46.458,0,0,1-6.465,6.731A5.815,5.815,0,0,1-759-416.439c-1.253.166-2.578-.114-2.9-1.548a4.482,4.482,0,0,1,.705-2.9,21.121,21.121,0,0,0,1.258-3.324,9.932,9.932,0,0,0-.218-6.854,5.043,5.043,0,0,1-.742-2.148,2.706,2.706,0,0,1,1.037-1.9,13.139,13.139,0,0,1,1.88-1.2c3.616-2.167,5.994-5.86,8.955-8.86a3.236,3.236,0,0,1,1.012-.772,1.178,1.178,0,0,1,1.21.127C-746.3-445.383-746.356-444.385-746.326-443.718Z" transform="translate(761.959 446.059)" fill="#e09260"/></clipPath><clipPath id="x"><path d="M-760.885-455.121c-.022.043-.044.089-.065.139-.441,1.028-.126,2.382-.087,3.457q.111,3.044.484,6.072a70.228,70.228,0,0,0,2.478,11.726,13.621,13.621,0,0,0,2.345,4.946c2.632,3.115,7.5,3.546,11.257,1.954s6.58-4.788,8.967-8.1a20.089,20.089,0,0,0,2.889-5.14,8.4,8.4,0,0,0,.049-5.793,12.063,12.063,0,0,0-3.416-4.246q-2.613-2.344-5.4-4.481a16.63,16.63,0,0,0-4.177-2.538,6.353,6.353,0,0,0-4.782-.034,20.834,20.834,0,0,1-8.284,1.468C-759.537-455.672-760.422-455.98-760.885-455.121Z" transform="translate(761.183 457.605)" fill="#eb9965"/></clipPath><clipPath id="y"><path d="M-762.013-459.574c-.991.114-2.186.3-2.567,1.227-.455,1.1.584,2.618-.277,3.441-.477.456-1.234.348-1.893.394s-1.452.552-1.243,1.179c.129.39.573.557.96.692a15.865,15.865,0,0,1,8.959,7.944,49.677,49.677,0,0,0,2.089,4.517c.6.964,1.7,1.517,2.28,2.489.689,1.154.693,2.946.929,4.26a.65.65,0,0,0,.264.5c.216.11,2.1-1.936,2.407-2.2a11.049,11.049,0,0,1,3.64-2.352c.812-.268,1.767-.441,2.216-1.17.6-.969-.1-2.244.145-3.357.2-.908.984-1.554,1.481-2.341,1.425-2.249-.084-4.6-1.1-6.651-1.087-2.191-2.287-4.5-4.408-5.718-1.847-1.058-4.257-1.188-5.7-2.751a12.13,12.13,0,0,0-1.3-1.495C-757.615-462.879-759.707-459.843-762.013-459.574Z" transform="translate(768.028 461.595)" fill="#3b3b40"/></clipPath><clipPath id="z"><path d="M-747.749-451.376a18.06,18.06,0,0,1-5.469,1.624,15.13,15.13,0,0,1-6.641.228c-2.6-.7-4.614-2.715-6.491-4.651-.782-.806-1.628-1.884-1.225-2.933.259-.675.979-1.09,1.252-1.761.336-.828-.1-1.794.142-2.655.29-1.053,1.446-1.584,2.492-1.895a4.724,4.724,0,0,0,2.813-1.529c.361-.557.45-1.268.864-1.788a2.348,2.348,0,0,1,2.05-.748,6.391,6.391,0,0,1,2.145.717,15.253,15.253,0,0,0,1.785.833,8.447,8.447,0,0,0,1.924.179,5.792,5.792,0,0,1,1.589.41c.51.2.843.447,1.385.332,1.209-.253,2.354-.787,3.582-.951,1.1-.147,2.086-.652,3.214-.3a8.754,8.754,0,0,1,2.293,1.3,6.521,6.521,0,0,0,2.351,1.178,22.286,22.286,0,0,0,2.541.1,6.018,6.018,0,0,1,3.468,2.249,27.181,27.181,0,0,0,2.006,2.453c1.341,1.249,3.458,1.545,3.767,3.628a12.438,12.438,0,0,1-.156,2.951,12.073,12.073,0,0,0,.135,3.185,22.5,22.5,0,0,1,.744,2.972c.084,2.523-2.375,1.628-3.912,1.539-1.613-.093-2.764.778-4.349-.078a10.3,10.3,0,0,1-2.748-2.449,85.143,85.143,0,0,1-5.7-7.54c-1.142-1.656-1.586-.468-2.6.678A12.308,12.308,0,0,1-747.749-451.376Z" transform="translate(767.679 467.496)" fill="#3b3b40"/></clipPath><clipPath id="aa"><path d="M-749.793-466.23a7.931,7.931,0,0,0-6.017-1.594,19.417,19.417,0,0,0-5.482,2.041,17.4,17.4,0,0,1,9.227,4.644,22.6,22.6,0,0,1,4.283,5.432,21.66,21.66,0,0,1,1.44,3.08c.191.514.355,1.038.548,1.552.179.48.133,1.126.567,1.472a1.438,1.438,0,0,0,1.083.206,3.165,3.165,0,0,0,1.572-.6,2.084,2.084,0,0,0,.821-1.437c.058-.729-.39-1.207-.554-1.864-.145-.579-.255-1.19-.41-1.779a22.593,22.593,0,0,0-3.706-7.691A16.1,16.1,0,0,0-749.793-466.23Z" transform="translate(761.292 467.916)" fill="#e5e8f5"/></clipPath><clipPath id="ab"><path d="M-751.681-451.494c.276.716,1.7,4.678-.68,8.124a8.556,8.556,0,0,1-5.958,3.44,8.054,8.054,0,0,1-5.472-1.225,8.16,8.16,0,0,1-3.015-4.032c-.175-.449-2.136-5.771,1.216-9.644a8.037,8.037,0,0,1,5.29-2.785C-756.313-457.916-752.937-454.741-751.681-451.494Z" transform="translate(767.534 457.636)" fill="#e5e8f5"/></clipPath><clipPath id="ac"><path d="M-756.908-449.872a3.607,3.607,0,0,1-2.912,3.623,3.865,3.865,0,0,1-2.631-.683,4.484,4.484,0,0,1-1.954-3.007,3.772,3.772,0,0,1,1.178-3.339C-760.724-455.471-756.982-452.795-756.908-449.872Z" transform="translate(764.445 454.082)" fill="#b5b8c2"/></clipPath><clipPath id="ad"><ellipse cx="4.155" cy="3.422" rx="4.155" ry="3.422" transform="translate(5.476 10.76) rotate(-131.224)" fill="#b3b5b5"/></clipPath><clipPath id="ae"><ellipse cx="6.706" cy="12.688" rx="6.706" ry="12.688" fill="#a0a603"/></clipPath></defs><ellipse cx="95" cy="10.5" rx="95" ry="10.5" transform="translate(0 198)" fill="#e8e8e8"/><g transform="translate(7 0)"><g transform="translate(30.073 129.729)"><path d="M-746.457-360.236q.24-7.832.883-15.643a6.411,6.411,0,0,1,.625-2.684,3.849,3.849,0,0,1,3.257-1.763c4.2-.136,8.3.705,12.494,1.333q8.824,1.32,17.551,2.963c2.324.437,5.356,1.625,7.71,1.332,2.278-.283,4.607-1.9,6.8-2.589,2.16-.68,4.7-.837,6.518.513,1.929,1.43,2.517,4.143,4.375,5.665.989.81,2.268,1.218,3.222,2.068a5.935,5.935,0,0,1,1.687,4.957c-.233,2.625-1.665,4.9-2.592,7.309a42.353,42.353,0,0,0-2.263,8.395,79.828,79.828,0,0,0-1.19,20.351,41.089,41.089,0,0,0,6.876,19.577c-1.422-.915-3.677-1.077-5.328-1.13-1.781-.056-2.961,1.056-4.7,1.327a15.9,15.9,0,0,1-4.377-.135l-29.9-3.7-13.067-1.615a11.119,11.119,0,0,1-4.834-1.367c-2.618-1.723-2.653-6.7-2.869-9.494A330.223,330.223,0,0,1-746.457-360.236Z" transform="translate(746.604 380.341)" fill="#a0a603"/><g clip-path="url(#a)"><path d="M-702.2-346.569c-1.318,10.214-4.216,20.148-7.1,30.033-.733,2.509-1.52,5.117-3.289,7.042-2.3,2.5-5.927,3.42-9.315,3.2a34.217,34.217,0,0,1-9.793-2.652c-2.727-1.037-5.717-2.315-6.9-4.98-1.016-2.281-.4-4.922.233-7.339l7.066-27.014c1.718-6.568,3.472-13.228,6.867-19.108s8.693-10.989,15.281-12.627c5.691-1.415,11.666-.142,17.391,1.132,3.706.825,8.817,2.626,7.795,7.419-.764,3.585-3.574,3.539-6.494,4.133C-700.227-365.348-701.141-354.749-702.2-346.569Z" transform="translate(738.876 380.198)" fill="#a0a603" opacity="0.35" style="mix-blend-mode:multiply;isolation:isolate"/><path d="M-727.785-371.019a13.845,13.845,0,0,0,3.081.258,4.05,4.05,0,0,0,2.764-1.221,1.653,1.653,0,0,0,.355-1.862,2.186,2.186,0,0,0-1.659-.787,38.587,38.587,0,0,0-7.95-.348c-1.65.105-6.267.107-7.456,1.43-1.449,1.612,1.332,1.724,2.689,1.837C-733.223-371.486-730.51-371.433-727.785-371.019Z" transform="translate(776.34 382.888)" fill="#a0a603" opacity="0.35" style="mix-blend-mode:multiply;isolation:isolate"/></g></g><g transform="translate(31.635 111.979)"><path d="M-752.991-386.962a27.532,27.532,0,0,0-.5,9.575c.295,2.409.7,6.142,3.169,7.275a8.722,8.722,0,0,0,2.979.593c11.036.878,22.084,1.758,33.152,1.812,7.959.039,16.24-.437,23.248-4.323a53.73,53.73,0,0,0,9.017-6.828c1.584-1.382,4.438-3.9,2.773-6.165-1.552-2.114-4.26-2.668-6.647-2.954-20.133-2.422-40.361-4.3-60.63-4.346a7.427,7.427,0,0,0-3.816.683C-751.833-390.716-752.565-388.785-752.991-386.962Z" transform="translate(753.7 392.323)" fill="#a0a603"/><g clip-path="url(#b)"><path d="M-709.884-388.777c2.038-1.456,4.54-2.822,6.934-2.084.487.15,1.009.464,1.071.97s-.36.933-.747,1.27l-13.265,11.529a.882.882,0,0,1-.647.3c-.355-.047-.5-.474-.563-.828a16.136,16.136,0,0,1-.156-4.139c.086-.954.135-3.041.9-3.729.655-.59,2.192-.622,3.028-1.038A26.3,26.3,0,0,0-709.884-388.777Z" transform="translate(723.035 392.927)" fill="#a0a603" opacity="0.35" style="mix-blend-mode:multiply;isolation:isolate"/><path d="M-702.552-391.588c.2-.056.442-.156.465-.363.027-.239-.249-.387-.479-.452-2.191-.624-4.528-.148-6.743.381-.441.105-.963.289-1.058.733C-710.913-388.75-703.222-391.4-702.552-391.588Z" transform="translate(712.984 392.142)" fill="#a0a603" opacity="0.35" style="mix-blend-mode:screen;isolation:isolate"/></g></g><g transform="translate(31.635 113.027)"><ellipse cx="3.23" cy="10.842" rx="3.23" ry="10.842" fill="#a0a603"/><g clip-path="url(#c)"><path d="M-702.994-380.78c-.84,2.265-2.733,4.3-5.13,4.591.653,1.28.9,2.739,1.584,4s2.059,2.358,3.454,2.023a2.987,2.987,0,0,0,1.911-1.766,8.7,8.7,0,0,0,.561-2.623,52.141,52.141,0,0,0,.4-7.322c-.046-1.324-.138-6.259-1.563-6.8a7.646,7.646,0,0,0-.723,3.992A9.35,9.35,0,0,1-702.994-380.78Z" transform="translate(707.732 393.031)" fill="#a0a603" opacity="0.35" style="mix-blend-mode:multiply;isolation:isolate"/></g></g><g transform="translate(154.041 200.871)"><path d="M-782.143-332.315l-2.249,13.44h-4.1l-4.5-13.44Z" transform="translate(792.992 332.315)" fill="#84722f"/><g clip-path="url(#d)"><g transform="translate(-0.252 1.388)" opacity="0.35" style="mix-blend-mode:multiply;isolation:isolate"><path d="M-784.787-327.569a2.771,2.771,0,0,0,2.483.363c.753-.43.88-1.443.923-2.308a1.7,1.7,0,0,0-.3-1.312,1.694,1.694,0,0,0-1.2-.335l-5.893-.1c-.755-.013-5.414-.436-5.29.415.11.754,3.367,1.071,3.863,1.212A32.839,32.839,0,0,1-784.787-327.569Z" transform="translate(794.069 331.379)" fill="#84722f"/></g></g></g><g transform="translate(83.112 201.457)"><path d="M-735.042-331.92l-1.681,13.647-4.389-.452-2.376-13.179Z" transform="translate(743.488 331.92)" fill="#84722f"/><g clip-path="url(#e)"><g transform="translate(0.118 -0.963)" opacity="0.35" style="mix-blend-mode:multiply;isolation:isolate"><path d="M-739.138-328.3c.222.187.441.381.656.579a7.878,7.878,0,0,0,1.267,1.053,2.052,2.052,0,0,0,1.581.289c1.206-.345,1.071-2.121,1.124-3.1a3.152,3.152,0,0,0-.467-2.222,3.046,3.046,0,0,0-2.189-.835c-2.495-.2-4.717.474-7.161.465-.875,0-.542.471-.053.729.665.351,1.406.572,2.078.924A17.719,17.719,0,0,1-739.138-328.3Z" transform="translate(744.87 332.57)" fill="#84722f"/></g></g></g><path d="M-745.926-318.278l1.907-.929,3.385-12.7-3.611.3Z" transform="translate(835.802 533.382)" fill="#5c4f21"/><path d="M-780.9-318.876l-1.588-.929-6.218-12.511h3.307Z" transform="translate(939.438 533.186)" fill="#5c4f21"/><g transform="translate(63.123 25.998)"><path d="M-719.286-450.363c-.806.024-1.721.206-2.271.25A10.586,10.586,0,0,0-725.272-449a15.486,15.486,0,0,0-6.465,6.441c-2.4,4.531-2.823,9.815-3.2,14.93q-1.2,16.421-2.4,32.84-.6,8.21-1.2,16.421c-.191,2.619-.484,3.921.979,6.151a24.573,24.573,0,0,0,4.145,4.811,24.3,24.3,0,0,0,7.328,4.528,4.232,4.232,0,0,0,2.8.35,3.106,3.106,0,0,0,1.849-2.078,7.259,7.259,0,0,0,.037-3.106,24.885,24.885,0,0,1,.262-4.318c.317-3.38.6-6.764.825-10.152a170.661,170.661,0,0,0,.262-20,210.073,210.073,0,0,1,.2-24.924q.4-6.026,1.1-12.026c.161-1.392.166-2.838.4-4.2.271-1.551.758-3.034.944-4.611.093-.789.077-1.746-.59-2.18A2.353,2.353,0,0,0-719.286-450.363Z" transform="translate(738.699 450.366)" fill="#a0a603"/><g clip-path="url(#f)"><path d="M-724.765-442.365c-1.6,3.567-1.9,7.561-2.231,11.458q-1.32,15.665-3.709,31.213c-.191,1.246-.616,2.749-1.844,3.029-1.126.258-2.142-.729-2.752-1.708-2.323-3.724-2.388-8.384-2.228-12.769a106.252,106.252,0,0,1,3.26-24.075c1.119-4.109,2.652-8.224,5.451-11.433a14.409,14.409,0,0,1,6.454-4.315c1.157-.361,6.454-1.413,6.719.719.144,1.164-3.489,1.681-4.407,2.26A12.863,12.863,0,0,0-724.765-442.365Z" transform="translate(735.327 449.798)" fill="#a0a603" opacity="0.35" style="mix-blend-mode:screen;isolation:isolate"/></g></g><g transform="translate(71.473 26.735)"><path d="M-717.832-358.189c3.2.184,6.869.215,9.042-1.841,1.864-1.763,1.915-4.42,1.88-6.819a469.164,469.164,0,0,1,5.46-81.188c-21.644-2.127-43.645.913-65.266-1.375-3.031-.32-6.125-.744-9.112-.185s-5.9,2.36-6.522,4.965c-2.372,9.87-2.453,19.872-2.828,29.951-.385,10.335.059,20.7-.941,31q-.509,5.255-1.518,10.461c-.481,2.49-2.764,6.922-.422,9.021a8.02,8.02,0,0,0,2.957,1.5c4.8,1.526,10.291,1.224,15.333,1.514l17.312,1Z" transform="translate(789.098 449.869)" fill="#a0a603"/><g clip-path="url(#g)"><path d="M-730.48-434.338c-.24,3.394-.176,6.847-.35,10.19l-1.076,20.751q-.46,8.872-.92,17.743c-.175,3.386-.311,6.964,1.275,9.962,1.85,3.493,5.623,5.445,9.171,7.186a18.429,18.429,0,0,1-8.153,3.868c-3.009.437-6.368-.517-8.139-2.986-1.687-2.354-1.638-5.491-1.478-8.381.31-5.583.781-11.154,1.253-16.726l3.657-43.218a25.56,25.56,0,0,1,1.2-6.8,15.758,15.758,0,0,1,3.651-4.97,7.1,7.1,0,0,1,3.044-1.872,17,17,0,0,1,3.1-.157c-.849,1.871-2.7,3.154-3.69,5.035a21.679,21.679,0,0,0-2.123,6.619C-730.258-436.856-730.39-435.6-730.48-434.338Z" transform="translate(737.627 449.908)" fill="#a0a603" opacity="0.35" style="mix-blend-mode:multiply;isolation:isolate"/><path d="M-760.038-432.949c2.895,2.84,6.681,4.727,9.248,7.866,4.342,5.315,4.234,12.827,4.543,19.683.523,11.649,2.856,23.322,1.381,34.889a22.918,22.918,0,0,1-3.129,9.761c-1.889,2.883-5.034,5.115-8.481,5.174a8.551,8.551,0,0,1-7.254-3.943c-2.625-4.206-1.1-9.642.314-14.4,2.383-8.018,4.229-16.3,4.066-24.661-.132-6.722-1.715-13.7-6.091-18.806-2.794-3.259-6.533-5.545-9.713-8.427s-5.931-6.786-5.688-11.072c.237-4.2,3.271-6.558,6.339-8.9a18.593,18.593,0,0,1,11.112-3.8c1.106,0,2.441.252,2.837,1.287s-.418,2.093-1.028,3.019A9.687,9.687,0,0,0-760.038-432.949Z" transform="translate(819.823 450.009)" fill="#a0a603" opacity="0.35" style="mix-blend-mode:multiply;isolation:isolate"/></g></g><g transform="translate(70.603 67.575)"><path d="M-738.643-390.392c-1.674-.307-1.726-2.84-2.138-4.269l-1.939-6.746a5.3,5.3,0,0,1,.442-4.847,24.048,24.048,0,0,1,3.136-3.729,36.886,36.886,0,0,0,7.5-12.316c1.012.381,1.984.785,3.009,1.083a9.371,9.371,0,0,1,3.853,1.892,7.1,7.1,0,0,1,2.053,5.125,17.549,17.549,0,0,1-1.041,5.554,40.733,40.733,0,0,1-4.543,10.043,22.5,22.5,0,0,1-7.909,7.567,4.758,4.758,0,0,1-1.939.67A2.061,2.061,0,0,1-738.643-390.392Z" transform="translate(743.097 422.299)" fill="#e09260"/><g clip-path="url(#h)"><path d="M-739.334-397.252c-1.327.892-2.943,2.083-2.64,3.653a3.825,3.825,0,0,0,1.253,1.865,5.179,5.179,0,0,0,3.121,1.859,4.665,4.665,0,0,0,2.951-1.256,23.963,23.963,0,0,0,8.487-13.147,23.787,23.787,0,0,0,.541-7.913c-.176-1.8-.422-5.259-1.772-6.55-.887.973-.761,3.133-.984,4.394a26.428,26.428,0,0,1-2.041,6.528A25.806,25.806,0,0,1-739.334-397.252Z" transform="translate(744.27 424.011)" fill="#e09260" opacity="0.5" style="mix-blend-mode:multiply;isolation:isolate"/></g></g><g transform="translate(81.284 49.071)"><path d="M-735.932-432.381c-1.17,1.388-2.373,2.687-3.591,4.044a67.865,67.865,0,0,0-7.226,9.652c-.856,1.385-1.658,3.207-.727,4.545a4.38,4.38,0,0,0,2.13,1.361l5.475,2.138a2.376,2.376,0,0,0,1.382.239c1.022-.243,1.232-1.579,1.272-2.631a39.138,39.138,0,0,1,5.038-17.755,8.091,8.091,0,0,0,.964-2.106C-730.3-436.847-734.923-433.58-735.932-432.381Z" transform="translate(747.892 434.79)" fill="#529ad9"/><g clip-path="url(#i)"><path d="M-740.66-418.555a2.331,2.331,0,0,0-.815-.047.66.66,0,0,0-.554.529.95.95,0,0,0,.424.712,44.792,44.792,0,0,0,5.087,3.884c.428.281,1,.557,1.419.27.4-.268.39-.847.338-1.324a24.406,24.406,0,0,1,.513-5.034q.3-2.711.61-5.42l-1.093,2.231a14.054,14.054,0,0,1-1.447,2.5A4.41,4.41,0,0,1-740.66-418.555Z" transform="translate(741.754 439.51)" fill="#529ad9" opacity="0.5" style="mix-blend-mode:multiply;isolation:isolate"/></g></g><g transform="translate(141.702 27.452)"><path d="M-794.575-359.413c3.354-3.841,3.754-9.356,3.992-14.449q1.315-28.086,2.63-56.174c.286-6.1.717-12.634,4.629-17.324,1.835-2.2,5.29-2.564,7.86-1.3a10.794,10.794,0,0,1,5.165,6.568,30.737,30.737,0,0,1,1.055,8.494c.693,25.281-.52,50.572-1.733,75.831-.053,1.127-.227,1.706-1.249,2.184a6.408,6.408,0,0,1-3.332.274,160.532,160.532,0,0,1-17.37-2.3A1.827,1.827,0,0,1-794.575-359.413Z" transform="translate(794.576 449.384)" fill="#a0a603"/><g clip-path="url(#j)"><path d="M-775.75-430.937c.2,9.651-1.025,19.244-1.782,28.846-.376,4.779-1.139,10.067-.542,14.846.541,4.339.415,8.586.633,12.923.184,3.684.255,6.8-2.167,9.919a11.9,11.9,0,0,1-8.541,4.515c-1.7.107-3.41-.159-5.117-.124A6.94,6.94,0,0,0-798-358.4a59.925,59.925,0,0,0,16.524,2.391c4.539.016,8.374,3.02,9.737-2.82a183.608,183.608,0,0,0-.3-84.308,13.905,13.905,0,0,0-1.68-4.5c-1.095-1.652-3.226-3-5.22-2.118-2.714,1.2-.613,3.087.3,4.773C-776.342-440.729-775.848-435.7-775.75-430.937Z" transform="translate(797.593 449.068)" fill="#a0a603" opacity="0.35" style="mix-blend-mode:multiply;isolation:isolate"/><path d="M-778.538-434.173c-.665,5.164-.364,10.4-.231,15.6a242.89,242.89,0,0,1-5.245,56.82c-2.884-1.314-2.847-5.355-2.4-8.491a304.819,304.819,0,0,0,2.96-48.507c-.111-5.882-.385-11.849.984-17.57,1-4.167,4.468-12.739,9.436-13.354-.188,1.941-1.672,3.723-2.533,5.459A31.6,31.6,0,0,0-778.538-434.173Z" transform="translate(786.816 449.245)" fill="#a0a603" opacity="0.35" style="mix-blend-mode:screen;isolation:isolate"/></g></g><g transform="translate(81.203 127.172)"><path d="M-707.352-310.332a4.536,4.536,0,0,1-.846,3.054,4.573,4.573,0,0,1-3.244,1q-35.834,1.48-71.7-.576a10.48,10.48,0,0,1-4.42-.914c-2.026-1.092-3.1-3.345-3.964-5.476a72.1,72.1,0,0,1-5.718-24.91,45,45,0,0,1,6.036-24.612c2.45-4.029,5.773-7.67,10.038-9.685,6.148-2.9,13.3-2.1,20.1-1.832a116.029,116.029,0,0,0,23.953-1.545,116.526,116.526,0,0,0,11.8-2.637q2.915-.811,5.783-1.776c1.8-.6,3.792-1.7,5.7-1.815,3.521-.216,2.576,2.669,2.594,5.048.033,4.083.819,8.272,1.221,12.335.841,8.49,1.591,16.991,2.1,25.509C-707.348-329.565-707.087-319.944-707.352-310.332Z" transform="translate(797.266 382.067)" fill="#a0a603"/><g clip-path="url(#k)"><path d="M-779.253-361.4c7.308,1.418,14.762,2.585,21.554,5.629s12.99,8.307,15.249,15.4c2.8,8.786-1.17,18.743-8.039,24.894s-16.121,9.005-25.27,10.153c-6.174.775-12.464.861-18.495,2.4-3.038.773-6.352,2.284-7.269,5.282s1.1,6.233,3.812,7.776,5.946,1.786,9.06,1.992c17.776,1.184,35.646,2.329,53.38.627,6.275-.6,13.332-2.072,16.612-7.457,2.058-3.376,2.121-7.556,2.124-11.512.021-24.3.028-48.757-4.28-72.675-.287-1.6-.677-3.339-1.95-4.352-1.935-1.541-4.755-.628-7.054.283a138.516,138.516,0,0,1-63.419,9.141c-2.5-.23-6.437-.438-7.481,2.578-.856,2.475,1.662,3.551,3.533,4.443A73.653,73.653,0,0,0-779.253-361.4Z" transform="translate(813.188 381.101)" fill="#a0a603" opacity="0.35" style="mix-blend-mode:multiply;isolation:isolate"/></g></g><g transform="translate(77.774 138.63)"><path d="M-737.463-311.8a3.044,3.044,0,0,0,.905.258,43.738,43.738,0,0,0,6.853.569,16.3,16.3,0,0,1-1.631-3.383q-.378-1.644-.745-3.293c-.489-2.2-.955-4.407-1.38-6.622-2-10.4-3.124-21.173-1.142-31.671a71.7,71.7,0,0,1,2-7.87c.281-.911.361-1.843.667-2.732.412-1.2.877-2.379,1.314-3.567a5.548,5.548,0,0,0,.467-2.021c-.046-1.868-1.693-1.718-3.083-1.985a4.933,4.933,0,0,0-2.761-.027c-.949.375-1.235,1.265-1.659,2.126a45.862,45.862,0,0,0-2.379,5.961c-.624,1.9-.958,3.884-1.406,5.828a80.45,80.45,0,0,0-1.9,13.267A85.835,85.835,0,0,0-740-317.814a22.242,22.242,0,0,0,1.173,3.431c.367.763.459,1.938,1.179,2.472A1.514,1.514,0,0,0-737.463-311.8Z" transform="translate(743.488 374.332)" fill="#7c7a27"/><g clip-path="url(#l)"><path d="M-741.905-361.987c-.164.551-.305,1.284.187,1.585a.857.857,0,0,0,1-.188,2.5,2.5,0,0,0,.53-.945q1.616-4.24,3.166-8.5c.361-.994.684-2.219-.01-3.019a3.027,3.027,0,0,0-1.818-.781c-2.779-.51-7.506-2.64-4.954,1.364C-741.757-369.259-740.763-365.793-741.905-361.987Z" transform="translate(751.963 374.078)" fill="#7c7a27" opacity="0.35" style="mix-blend-mode:multiply;isolation:isolate"/><path d="M-739.832-368.608a5.82,5.82,0,0,0,1.521-3.154,1.475,1.475,0,0,0-.114-.979,1.63,1.63,0,0,0-.939-.593,11.1,11.1,0,0,0-4.271-.831c-.053.607,1.948,1.661,2.388,2.187A6.049,6.049,0,0,1-739.832-368.608Z" transform="translate(752.282 374.4)" fill="#7c7a27" opacity="0.35" style="mix-blend-mode:multiply;isolation:isolate"/></g></g><g transform="translate(0 186.972)"><path d="M-670.493-326.513c1.1,5.816-4.454,5.524-8.312,4.822-4.844-.883-9.781-.627-14.67-.369-2.45.129-4.9.265-7.355.252-1.08-.006-5.509.671-4.121-1.705.849-1.455,4.474-1.782,5.927-2.138a44.066,44.066,0,0,0,10.746-4.517c2.841-1.575,5.122-2.878,5.761-6.339.222-1.206-.776-3.33.028-4.149a2.247,2.247,0,0,1,1.434-.49c2.1-.2,4.2-.415,6.311-.456,1.329-.027,3.278-.535,3.154,1.083-.046.582-.643,1.235-.807,1.81a8.948,8.948,0,0,0-.21,2.666,21.136,21.136,0,0,0,1.093,6.273A25.142,25.142,0,0,1-670.493-326.513Z" transform="translate(705.218 341.698)" fill="#e09260"/><g clip-path="url(#m)"><path d="M-676.608-330.808a4.335,4.335,0,0,1,.63,3.6c-.751,2.332-2.865,1.791-4.73,2l-8.084.924-16.166,1.85c-.627.073-1.45.384-1.348,1.006.078.476.658.655,1.133.733a185.07,185.07,0,0,0,21.641,1.812c3.281.145,6.662.276,9.749-.846,2.4-.871,4.687-2.788,4.906-5.33.16-1.844-.782-3.576-1.373-5.33a14.544,14.544,0,0,1-.538-7.121,5.959,5.959,0,0,0,.167-1.73,1.59,1.59,0,0,0-.953-1.352,2.294,2.294,0,0,0-1.441.161l-9,3.069c-2.9.987,1.583,3.206,2.589,3.9a10.023,10.023,0,0,1,2.785,2.6Z" transform="translate(705.349 342.201)" fill="#e09260" opacity="0.5" style="mix-blend-mode:multiply;isolation:isolate"/></g></g><g transform="translate(85.709 43.277)"><path d="M-737.689-362.43l-24.66.644-6.165.161c-1.206.031-3.906.647-4.951-.013-1.1-.7-1.444-3.669-1.643-4.838a47.157,47.157,0,0,1-.5-5.084c-.573-9.387-1.124-18.8-.523-28.188s2.384-18.786,6.291-27.34c1.1-2.415,2.53-4.909,4.937-6.032,2.028-.947,4.038-.425,6.131-.883a24.417,24.417,0,0,0,5.9-2.489,18.087,18.087,0,0,1,5.856-2.152c1.929-.252,2.955.333,4.54,1.295l9.094,5.515a31.293,31.293,0,0,1,5.4,3.819,13.379,13.379,0,0,1,3.215,5.194,34.7,34.7,0,0,1,2.146,6.168c1.013,4.974.861,10.1.7,15.178-.31,9.986-.639,20.091-3.386,29.7-.835,2.924-2.043,5.983-4.576,7.666C-732.129-362.619-734.989-362.5-737.689-362.43Z" transform="translate(776.393 438.702)" fill="#529ad9"/><g clip-path="url(#n)"><path d="M-775.729-409.453c-.578,12.049-1.155,24.1-2.17,36.124a9.011,9.011,0,0,0,.249,3.958c.861,2.275,3.342,3.422,5.594,4.343a31.681,31.681,0,0,0,8.863,2.647c3.081.292,6.408-.434,8.593-2.625,2.121-2.124,2.85-5.229,3.49-8.162,1.32-6.059,2.641-12.123,3.554-18.258,1.376-9.25,1.782-18.9-1.212-27.763s-9.931-16.825-19.04-18.943a4.869,4.869,0,0,0-3.454.15,5.34,5.34,0,0,0-1.921,2.431q-1.3,2.566-2.484,5.183c-.758,1.671-1.949,3.609-2.3,5.414-.283,1.478.948,2.895,1.4,4.277a20.7,20.7,0,0,1,.89,5.145A56.237,56.237,0,0,1-775.729-409.453Z" transform="translate(803.49 438.86)" fill="#fdb5bf" opacity="0.5" style="mix-blend-mode:multiply;isolation:isolate"/><path d="M-755.835-426.745A7.221,7.221,0,0,0-757-431.3c-1.462-2.681-3.423-5.4-6.158-6.9a10.974,10.974,0,0,0-5.922-1.269,3.17,3.17,0,0,0-2.349,1.6c-.156.234-1.326,3.106-.824,3.152a12.737,12.737,0,0,1,10.375,6.822c.616,1.3,1.178,3.3,2.788,3.684C-757.54-423.841-756.088-425.3-755.835-426.745Z" transform="translate(804.421 438.31)" fill="#fdb5bf" opacity="0.5" style="mix-blend-mode:multiply;isolation:isolate"/><path d="M-770.21-402.75a1.426,1.426,0,0,1,1.229,1.115,4.136,4.136,0,0,1-.044,1.766,106.533,106.533,0,0,1-4.6,18.173c-.7,1.935-1.6,3.982-3.386,5.005-.8.456-1.825.787-2.089,1.665a1.99,1.99,0,0,0,1.05,2.089c1.478.927,3.375.7,5.1.438a6.959,6.959,0,0,0,3.3-1.092,6.631,6.631,0,0,0,1.936-3.367c.916-2.841,1.635-5.743,2.352-8.641a105.727,105.727,0,0,0,3.183-16.627,35.527,35.527,0,0,0-2.189-16.64c-.326-.776-1.007-1.681-1.8-1.392a1.734,1.734,0,0,0-.846,1.059l-3.949,9.273c-1.13,2.655-2.259,5.309-3.3,8-.55,1.415.084,2.4,1.385,1.338C-772.108-401.215-771.336-402.773-770.21-402.75Z" transform="translate(820.706 447.553)" fill="#fdb5bf" opacity="0.5" style="mix-blend-mode:multiply;isolation:isolate"/><path d="M-750.879-421.951a3.12,3.12,0,0,1-1.963-3.017,6.156,6.156,0,0,1,1.206-2.629,21.534,21.534,0,0,0,2.843-6.885,25.613,25.613,0,0,1,.628,9.3,6.283,6.283,0,0,0,.033,1.834c.059.313.435.868.276,1.188C-748.263-421.346-750.236-421.687-750.879-421.951Z" transform="translate(767.537 440.732)" fill="#fdb5bf" opacity="0.5" style="mix-blend-mode:multiply;isolation:isolate"/></g></g><g transform="translate(15.398 192.535)"><path d="M-680.888-322.758c1.1,5.816-4.454,5.522-8.31,4.82-4.845-.881-9.781-.627-14.671-.369-2.449.129-4.9.267-7.353.252-1.081-.006-5.509.673-4.123-1.7.849-1.455,4.475-1.782,5.928-2.138a44.034,44.034,0,0,0,10.744-4.517c2.843-1.575,5.124-2.878,5.762-6.34.222-1.206-.776-3.329.027-4.148a2.246,2.246,0,0,1,1.435-.49c2.1-.2,4.2-.416,6.31-.456,1.329-.027,3.278-.535,3.152,1.083-.045.582-.641,1.234-.806,1.81a8.989,8.989,0,0,0-.212,2.666,21.109,21.109,0,0,0,1.095,6.272A25.263,25.263,0,0,1-680.888-322.758Z" transform="translate(715.611 337.943)" fill="#eb9965"/><g clip-path="url(#o)"><path d="M-686.448-323.287a7.573,7.573,0,0,1-5.86,1.48,31.95,31.95,0,0,0-7.753.1c-5.151.584-10.359,1.8-15.554.97-.6-.095-1.478,0-1.471.606a.97.97,0,0,0,.455.68c2.213,1.733,5.24,1.875,8.05,1.942l16.431.4a47.008,47.008,0,0,0,10.012-.474c1.573-.3,3.277-.89,4.032-2.3a5.974,5.974,0,0,0,.116-4.066q-.829-3.835-2-7.589a3.342,3.342,0,0,0-1.03-1.81,3.225,3.225,0,0,0-1.862-.441c-1.862-.038-5.042-.514-6.62.708-2.5,1.936,3.57,4.608,4.2,6.031a3.359,3.359,0,0,1-1.124,3.746Z" transform="translate(714.743 339.881)" fill="#eb9965" opacity="0.5" style="mix-blend-mode:multiply;isolation:isolate"/></g></g><g transform="translate(20.603 113.758)"><path d="M-720.8-316.929a13.058,13.058,0,0,1-1.668,4.069c-.864,1.338-2.225,1.625-3.733,1.967a19.377,19.377,0,0,1-6.617.476c-3.924-.5-4.222-2.247-3.985-5.776.28-4.146.763-8.278,1.394-12.384,1.247-8.106,3.072-16.111,5.091-24.056a72.972,72.972,0,0,1,4.582-13.351c1.976-4.238,4.1-8.408,6.149-12.609a26.171,26.171,0,0,1,4.438-7.02c2.406-2.456,4.893-2.735,8.078-3.179,3.932-.548,7.89-1.012,11.8-1.544,2.115-.287,4.462.111,6.6.1a54.688,54.688,0,0,0,7.048-.452,16.558,16.558,0,0,1,5.894-.24c-1.926,1.889-4.757,2.472-7.436,2.773-2.27.253-4.74.311-6.868,1.228a25.539,25.539,0,0,0-5.475,3.73,43.188,43.188,0,0,0-9.168,10.46c-4.5,7.109-7.177,15.218-9.184,23.389s-3.385,16.487-5.528,24.623C-720.065-322.143-720.188-319.459-720.8-316.929Z" transform="translate(736.86 391.122)" fill="#7b91ad"/><g clip-path="url(#p)"><path d="M-698.177-387.863a3.966,3.966,0,0,1,.612,3.733,13.141,13.141,0,0,1-1.871,3.462,57.088,57.088,0,0,0-6.679,13.326c-1.859,5.518-2.687,11.32-3.506,17.084l-3.16,22.236c-.585,4.118-1.243,8.421-3.7,11.78a16.2,16.2,0,0,1-10.777,6.01,11.4,11.4,0,0,0,15,1.573c2.864-2.183,4.474-5.61,5.727-8.987,3.776-10.18,5.266-21.035,7.687-31.619s5.962-21.263,13.067-29.474a20.713,20.713,0,0,0,3.052-3.994,5.25,5.25,0,0,0,.2-4.837c-1.038-1.859-3.386-2.478-5.5-2.754-4.626-.6-9.918-.649-14.409.747C-701.544-387.85-699.422-389.251-698.177-387.863Z" transform="translate(728.93 391.314)" fill="#7b91ad" opacity="0.25" style="mix-blend-mode:multiply;isolation:isolate"/><path d="M-722.392-388.3c.626.2,1.112.462,1.184.867a1.091,1.091,0,0,1-.413.961c-1.646,1.464-2.89,2.794-3.164,5.134,1.166-.274,1.461-.821,2.407-1.475a19.225,19.225,0,0,1,3.106-1.658,45.974,45.974,0,0,0,6.1-2.822c.456-.284.942-.68.945-1.218a1.16,1.16,0,0,0-.791-1.007,3.413,3.413,0,0,0-1.344-.141L-720-389.5a30.664,30.664,0,0,0-5.469.212C-724.953-388.831-723.467-388.65-722.392-388.3Z" transform="translate(756.492 391.823)" fill="#7b91ad" opacity="0.25" style="mix-blend-mode:multiply;isolation:isolate"/></g></g><g transform="translate(36.148 114.221)"><path d="M-739.162-314.906l.224-2.215c.48-4.725.4-9.728,1.292-14.339.99-5.131,2-10.26,3.127-15.363a191.365,191.365,0,0,1,8.841-29.975,20.807,20.807,0,0,1,4.235-7.27c2.8-2.775,6.188-2.98,9.878-3.663,4-.741,7.987-1.512,12.011-2.1,2.272-.33,5.127-1.139,7.41-.952,2.189.178,1.72,4.035,1.752,5.607a71.016,71.016,0,0,1-.467,9.064,12.426,12.426,0,0,0-.093,4.133c.28,1.292,1.169,3.257,1.035,4.57-.135,1.342-1.866,1.57-2.982,1.776a47.374,47.374,0,0,1-11.1.71,3.643,3.643,0,0,0-1.832.2,2.36,2.36,0,0,0-1.161,1.763c-.19,1.153-.034,2.215-.281,3.382-.261,1.237-.554,2.461-.905,3.675a79.609,79.609,0,0,1-3.269,8.953c-1.75,4.127-4.037,8.02-5.582,12.228-1.392,3.8-1.741,7.833-2.972,11.636a110.289,110.289,0,0,0-3.493,11.946c-.407,1.992-.792,4.124-2.188,5.6a6.643,6.643,0,0,1-5.288,1.819c-2.6-.178-7.161.016-8.334-2.884a9.147,9.147,0,0,1-.264-4.346Z" transform="translate(739.696 390.81)" fill="#7f96b3"/><g clip-path="url(#q)"><path d="M-705.479-368.625a8.946,8.946,0,0,1-5.355-2.472c-.923,1.287-.674,3.446-1.277,4.959-.64,1.6-1.471,3.124-2.129,4.721-1.548,3.761-4,7.161-5.943,10.717-3.914,7.156-5.748,15.138-7.331,23.07-1.4,7-1.558,16.724-8.327,20.835a12.743,12.743,0,0,1-4.229,1.618c-1.13.215-3.146.01-2.6,1.757.821,2.609,5.884,3.232,8.026,2.877a13.254,13.254,0,0,0,8.263-5.574,32.225,32.225,0,0,0,4.228-9.263c4.053-12.738,5.988-26.245,11.937-38.216,1.573-3.163,3.655-6.4,6.956-7.657,2.034-.775,4.277-.692,6.433-.982s4.463-1.126,5.5-3.037a8.62,8.62,0,0,0,.718-4.037q.131-8.381.261-16.764a6.036,6.036,0,0,0-.806-3.835c-1.142-1.486-3.315-1.569-5.188-1.48-7.06.335-14.816.766-21.625,2.77.859,2.866,6.952,2.908,9.245,3.015,2.989.141,6.275.505,8.318,2.692,2.68,2.868,2.016,7,2.019,10.593,0,2.909-3.794,3.78-6.269,3.742C-704.924-368.579-705.2-368.6-705.479-368.625Z" transform="translate(744.668 390.52)" fill="#7f96b3" opacity="0.25" style="mix-blend-mode:multiply;isolation:isolate"/></g></g><g transform="translate(41.159 111.979)"><path d="M-738.956-392.265a9.142,9.142,0,0,1,2.373.068c3.936.4,7.955,1.095,11.9.944q6.173-.238,12.35-.253,2.78-.007,5.559.031,2.438.033,4.874.1c2.1.059,5.093-.261,6.826,1.108a.964.964,0,0,1,.434.64c.022.391-.373.662-.72.844a15.531,15.531,0,0,1-6.647,2.253,75.387,75.387,0,0,1-8.182-.013c-3.743-.265-7.467-.747-11.212-.991-4.822-.315-9.642-.674-14.449-1.172q-1.2-.124-2.389-.259a2.338,2.338,0,0,1-1.758-.673,2.03,2.03,0,0,1,.212-2.315A2.155,2.155,0,0,1-738.956-392.265Z" transform="translate(740.262 392.323)" fill="#8a8c8c"/><g clip-path="url(#r)"><path d="M-700.9-386.761a10.79,10.79,0,0,0,5.828-1.939,1.592,1.592,0,0,0,.527-.622.675.675,0,0,0-.142-.758,1.025,1.025,0,0,0-.526-.173c-1.022-.139-2.043-.28-3.068-.393a5.793,5.793,0,0,0-1.986-.21,1.919,1.919,0,0,0-1.2,1.018,1.809,1.809,0,0,0-.021.73c.2,1.856-3.531,1.644-4.687,1.558l-33.083-2.466c-.335-.025-.753,0-.895.3-.222.477.481.828,1,.889,10.79,1.235,21.632,2.475,32.513,2.215C-704.895-386.658-702.87-386.585-700.9-386.761Z" transform="translate(740.01 393.005)" fill="#8a8c8c" opacity="0.5" style="mix-blend-mode:multiply;isolation:isolate"/></g></g><path d="M-729.065-369.837a8.489,8.489,0,0,0,.738-2.018,10.68,10.68,0,0,0,.287-2.136,10.653,10.653,0,0,0-.138-2.151,8.587,8.587,0,0,0-.6-2.062c.05.716.105,1.413.135,2.109s.03,1.391.006,2.083-.077,1.385-.15,2.078S-728.964-370.548-729.065-369.837Z" transform="translate(798.224 511.098)" fill="#697c94"/><g transform="translate(76.458 76.104)"><path d="M-750.575-392.567c2.41-.812,4.912-1.68,6.713-3.477,1.834-1.829,2.7-4.386,3.515-6.847a139.275,139.275,0,0,1,4.617-13.168c.087-.2.2-.415.407-.47a.732.732,0,0,1,.49.105,29.026,29.026,0,0,0,3.7,1.772c1.129.351,2.391.517,3.557.788l4,.932a19.824,19.824,0,0,0,3.994.93c.649.151,1.386.108,2.013.316.6.2.892.627,1.578.355a6.573,6.573,0,0,0,2.152-1.4,38.21,38.21,0,0,1-2.471,6.909,141.78,141.78,0,0,1-7.131,14.708c-1.2,2.146-2.287,4.256-3.369,6.454a12.548,12.548,0,0,1-4.278,5.337,12.149,12.149,0,0,1-4.859,1.56,51.869,51.869,0,0,1-7.2.311l-24.79-.077a7.2,7.2,0,0,1-3.7-.677,4.861,4.861,0,0,1-2.046-4.459c.076-1.511.432-3.992,2.067-4.466,2.148-.622,4.608-.656,6.814-1.163C-759.977-389.4-755.269-390.985-750.575-392.567Z" transform="translate(773.699 416.541)" fill="#eb9965"/><g clip-path="url(#s)"><path d="M-718.833-405.878a9.548,9.548,0,0,1-1.212,5.045q-2.32,5.106-5.044,10.017c-1.512,2.726-3.179,5.474-5.674,7.345a16.491,16.491,0,0,1-8.344,2.932,57.844,57.844,0,0,1-8.946-.114q-8.655-.5-17.33-.321c-2.739.056-5.641.215-7.9,1.758,5.357,3.518,11.781,5.139,18.172,5.611s12.808-.15,19.183-.791c3.22-.324,6.574-.7,9.3-2.453,2.966-1.911,4.74-5.173,6.318-8.33a233.949,233.949,0,0,0,10.233-23.658c.434-1.178.819-2.622.012-3.583-.944-1.121-2.714-.72-4.139-.375a20.468,20.468,0,0,1-14.147-1.828C-725.3-411.925-719.431-410.509-718.833-405.878Z" transform="translate(768.845 417.464)" fill="#eb9965" opacity="0.5" style="mix-blend-mode:multiply;isolation:isolate"/></g></g><g transform="translate(113.114 52.142)"><path d="M-774.809-406.214a3.106,3.106,0,0,1-1.828-2.375,6.306,6.306,0,0,1,.929-3.055l6.148-12.178a21.967,21.967,0,0,1,4.465-6.668c2-1.8,4.931-2.828,7.438-1.85,4.487,1.754,6.6,7.762,7.811,12.424a23.89,23.89,0,0,1-.705,14.212,4.977,4.977,0,0,1-1.53,2.392,4.97,4.97,0,0,1-1.773.721,25.748,25.748,0,0,1-13.976-.492,38.712,38.712,0,0,1-5.5-2.369C-773.778-405.673-774.307-405.918-774.809-406.214Z" transform="translate(776.641 432.717)" fill="#529ad9"/><g clip-path="url(#t)"><path d="M-768.467-422.6a34.6,34.6,0,0,1,.317,10.435,16.629,16.629,0,0,1-1.816,6.986c-1.232,2.092-3.533,3.72-5.949,3.486a3.793,3.793,0,0,0-1.637-.012c-.519.187-.883.9-.5,1.3a1.2,1.2,0,0,0,.564.271l4.694,1.292a20.68,20.68,0,0,0,5.5.991A6.967,6.967,0,0,0-762.2-399.8c1.529-1.637,1.826-4.044,1.963-6.281a86.948,86.948,0,0,0-.23-13.477,28,28,0,0,0-1.819-8.368,11.976,11.976,0,0,0-5.613-6.263c-2.268-1.073-6.724-.107-4.869,3.109C-771.074-428.145-769.209-426.073-768.467-422.6Z" transform="translate(789.955 431.806)" fill="#529ad9" opacity="0.5" style="mix-blend-mode:multiply;isolation:isolate"/></g></g><g transform="translate(82.828 113.98)"><path d="M-795.718-384.913a30.266,30.266,0,0,0-.585,10.821c.344,2.723.813,6.942,3.687,8.223a10.379,10.379,0,0,0,3.465.67c12.842.994,25.7,1.986,38.574,2.047,9.263.043,18.9-.493,27.049-4.885a62.339,62.339,0,0,0,10.492-7.715c1.843-1.564,5.164-4.41,3.226-6.97-1.807-2.388-4.957-3.014-7.734-3.339-23.424-2.736-46.96-4.86-70.544-4.911a8.875,8.875,0,0,0-4.44.77C-794.372-389.157-795.223-386.974-795.718-384.913Z" transform="translate(796.543 390.972)" fill="#a0a603"/><g clip-path="url(#u)"><path d="M-720.9-381.224a22.516,22.516,0,0,1-2.019,2.6c-6.488,7.2-15.711,7.747-24.807,8.085a220.049,220.049,0,0,1-30.116-.948c-1.739-.173-3-.279-4.324-1.453a19.312,19.312,0,0,1-2.958-3.317,19.385,19.385,0,0,1-3.352-8.377c.169,1.182-.7,3.25-.9,4.475-.267,1.649-.5,3.306-.92,4.925-.7,2.732-2.711,4.524-4.973,6.171a5.168,5.168,0,0,0-2.219,2.358,3.045,3.045,0,0,0,1.229,3.126,8.253,8.253,0,0,0,3.295,1.307c11.123,2.535,22.666,2.332,34.069,1.973,8.78-.277,17.672-.659,26.069-3.237s16.373-7.63,20.682-15.284a6.615,6.615,0,0,0,1.11-3.856,5.092,5.092,0,0,0-2.834-3.726c-.831-.443-2.637-1.444-3.616-1.129-1,.32-1.095,1.775-1.474,2.684A21.325,21.325,0,0,1-720.9-381.224Z" transform="translate(799.867 392.598)" fill="#a0a603" opacity="0.35" style="mix-blend-mode:multiply;isolation:isolate"/><path d="M-774.314-385.293q-1.242.038-2.484.164a33.649,33.649,0,0,1-5.334.419c-3.566-.2-6.183-2.732-8.476-5.2-.166-.179-.345-.4-.287-.638.068-.287.422-.381.715-.422a44.284,44.284,0,0,1,8.307-.5c2.781.121,5.552.477,8.34.381,4.214-.144,8.424-.15,12.639.012,8.432.323,16.831,1.213,25.2,2.281a58.181,58.181,0,0,1,8.724.772c1.492.227,2.979.486,4.466.745.87.153,3.317.136,3.9.822,1.588,1.881-4.806,2.158-5.7,2.243-3,.283-6.02.313-9.032.342-9.457.092-18.933.184-28.354-.637A107.031,107.031,0,0,0-774.314-385.293Z" transform="translate(797.332 390.714)" fill="#a0a603" opacity="0.35" style="mix-blend-mode:screen;isolation:isolate"/></g></g><g transform="translate(36.306 71.771)"><path d="M-691.873-377.415l-3.146-38.721a1.587,1.587,0,0,0-1.5-1.456l-37.755-1.872a1.588,1.588,0,0,0-1.655,1.782q2.389,19.085,4.779,38.171a1.588,1.588,0,0,0,1.468,1.388q18.063,1.209,36.124,2.421A1.587,1.587,0,0,0-691.873-377.415Z" transform="translate(735.944 419.466)" fill="#999b9b"/><g clip-path="url(#v)"><path d="M-698.608-387.955c-.321,3.28-1.038,6.939-3.774,8.776-2.109,1.413-4.845,1.335-7.38,1.2q-12.383-.635-24.767-1.274c-1.032-.053-2.388.126-2.594,1.139a1.49,1.49,0,0,0,.769,1.478,4.275,4.275,0,0,0,1.7.474c12.573,1.661,25.313,1.354,37.992,1.044a3.861,3.861,0,0,0,2.549-.677c.89-.8.836-2.185.711-3.376q-1.853-17.758-3.706-35.518a6.843,6.843,0,0,0-.661-2.689,2.251,2.251,0,0,0-2.255-1.258,21.281,21.281,0,0,0,.628,4.951q.493,3.082.794,6.19a100.854,100.854,0,0,1,.433,12.587Q-698.271-391.423-698.608-387.955Z" transform="translate(739.192 419.85)" fill="#999b9b" opacity="0.5" style="mix-blend-mode:multiply;isolation:isolate"/><path d="M-721.625-405.052a3.792,3.792,0,0,1-.529-.434c-.689-.689-.735-1.4.36-1.628a5.383,5.383,0,0,0,3.061-1.335c.692-.724.265-1.613.73-2.33.6-.921,1.616,1.007,1.88,1.585a3.8,3.8,0,0,1,.222,2.758C-716.783-403.838-719.63-403.693-721.625-405.052Z" transform="translate(740.116 423.53)" fill="#999b9b" opacity="0.5" style="mix-blend-mode:multiply;isolation:isolate"/></g></g><g transform="translate(84.086 0)"><path d="M-742.614-458.157c.347.838,1.219,1.532,1.1,2.432-.068.508-.453.927-.548,1.432a2.206,2.206,0,0,0,.939,1.926,6.8,6.8,0,0,1,1.612,1.544,5.367,5.367,0,0,1,.489,1.634,2.887,2.887,0,0,0,.705,1.535,1.174,1.174,0,0,0,1.548.13c.477-.449.31-1.231.087-1.847a4.133,4.133,0,0,1-.378-2.634,11.458,11.458,0,0,0,.644-1.486c.184-1.049-.772-1.9-1.527-2.653-1.816-1.809-1.567-3.875-1.867-6.265.036.283-.231.517-.5.607a7.77,7.77,0,0,0-.827.215C-742.066-461.156-743.018-459.139-742.614-458.157Z" transform="translate(742.709 470.568)" fill="#36363b"/><g transform="translate(17.421 32.377)"><path d="M-746.326-443.718a36.626,36.626,0,0,0,1.554,9.291,3.792,3.792,0,0,1,.225,1.043c.012.633-.523,1.29-.791,1.85q-.567,1.189-1.228,2.329a38.114,38.114,0,0,1-2.908,4.3,46.458,46.458,0,0,1-6.465,6.731A5.815,5.815,0,0,1-759-416.439c-1.253.166-2.578-.114-2.9-1.548a4.482,4.482,0,0,1,.705-2.9,21.121,21.121,0,0,0,1.258-3.324,9.932,9.932,0,0,0-.218-6.854,5.043,5.043,0,0,1-.742-2.148,2.706,2.706,0,0,1,1.037-1.9,13.139,13.139,0,0,1,1.88-1.2c3.616-2.167,5.994-5.86,8.955-8.86a3.236,3.236,0,0,1,1.012-.772,1.178,1.178,0,0,1,1.21.127C-746.3-445.383-746.356-444.385-746.326-443.718Z" transform="translate(761.959 446.059)" fill="#e09260"/><g clip-path="url(#w)"><path d="M-757.331-429.214a7.909,7.909,0,0,1,1.284,2.718,16.745,16.745,0,0,1,.1,6.759,17.2,17.2,0,0,1,2.423-1.29,27.072,27.072,0,0,0,2.363-1.711,24.43,24.43,0,0,0,4.032-3.857,9.518,9.518,0,0,0,2.394-4.231c.293-1.744-.4-3.477-.837-5.189-.616-2.415-.742-4.967-1.687-7.272a4.714,4.714,0,0,0-.924-1.527,2.229,2.229,0,0,0-1.589-.724,3.483,3.483,0,0,0-2.193,1.253c-2.037,1.958-3.986,4.011-5.914,6.078a72.2,72.2,0,0,0-5.706,6.271A7.349,7.349,0,0,1-757.331-429.214Z" transform="translate(764.486 446.31)" fill="#e09260" opacity="0.5" style="mix-blend-mode:multiply;isolation:isolate"/><path d="M-747.157-432.2a6.206,6.206,0,0,0,.889-.382c1.308-.659.326-1.739.207-2.8a43.938,43.938,0,0,0-1.346-7.482,2.792,2.792,0,0,0-1.027-1.712,2.579,2.579,0,0,0-2.3.121,18.331,18.331,0,0,0-6.663,5.577c-1.843,2.244-3.726,4.438-5.691,6.574a6.712,6.712,0,0,0,4.813-.43c1.44-.819,2.492-1.644,4.25-1.68a6.573,6.573,0,0,1,4.376,1.575A2.315,2.315,0,0,0-747.157-432.2Z" transform="translate(764.674 446.668)" fill="#e09260" opacity="0.5" style="mix-blend-mode:multiply;isolation:isolate"/></g></g><g transform="translate(4.577 15.274)"><path d="M-760.885-455.121c-.022.043-.044.089-.065.139-.441,1.028-.126,2.382-.087,3.457q.111,3.044.484,6.072a70.228,70.228,0,0,0,2.478,11.726,13.621,13.621,0,0,0,2.345,4.946c2.632,3.115,7.5,3.546,11.257,1.954s6.58-4.788,8.967-8.1a20.089,20.089,0,0,0,2.889-5.14,8.4,8.4,0,0,0,.049-5.793,12.063,12.063,0,0,0-3.416-4.246q-2.613-2.344-5.4-4.481a16.63,16.63,0,0,0-4.177-2.538,6.353,6.353,0,0,0-4.782-.034,20.834,20.834,0,0,1-8.284,1.468C-759.537-455.672-760.422-455.98-760.885-455.121Z" transform="translate(761.183 457.605)" fill="#eb9965"/><g clip-path="url(#x)"><path d="M-742.366-453.3a2.924,2.924,0,0,1,2.2-1.487c.271-.016.625-.037.7-.3s-.231-.461-.481-.564q-1.24-.511-2.5-.975a1.658,1.658,0,0,0-1.16-.123c-.582.234-.7,1-.7,1.625a20.543,20.543,0,0,0,.75,5.443,12.323,12.323,0,0,1,.418-1.592A6.437,6.437,0,0,1-742.366-453.3Z" transform="translate(743.569 457.989)" fill="#eb9965" opacity="0.5" style="mix-blend-mode:multiply;isolation:isolate"/><path d="M-748.153-451.8c2.512,1.878,4.2,4.721,6.8,6.478.43.29,1,.55,1.44.268a.96.96,0,0,0,.357-.97,2.659,2.659,0,0,0-.456-.985,28.888,28.888,0,0,0-6.05-6.685,12.308,12.308,0,0,0-5.81-2.886c-2.4-.339-4.789.446-7.081,1.221a5.752,5.752,0,0,0,2.446,1.339c.988.089,1.983-.108,2.992.033A13.25,13.25,0,0,1-748.153-451.8Z" transform="translate(765.353 458.06)" fill="#eb9965" opacity="0.5" style="mix-blend-mode:multiply;isolation:isolate"/><path d="M-738.995-442.987a9.434,9.434,0,0,1-1.912,3.044,25.827,25.827,0,0,1-8.856,7.241c-3.508,1.575-7.747,1.865-11.138.052a6.977,6.977,0,0,0,4.5,4.429,10.229,10.229,0,0,0,6.447-.153,19.6,19.6,0,0,0,5.684-3.214,36.321,36.321,0,0,0,6.205-6.1c1.115-1.4,2.173-3.038,2.032-4.819a5.315,5.315,0,0,0-1.633-3.222,13.487,13.487,0,0,0-2.924-2.151C-739.414-446.272-738.281-445.178-738.995-442.987Z" transform="translate(764.708 462.286)" fill="#eb9965" opacity="0.5" style="mix-blend-mode:multiply;isolation:isolate"/></g></g><g transform="translate(17.836 9.364)"><path d="M-762.013-459.574c-.991.114-2.186.3-2.567,1.227-.455,1.1.584,2.618-.277,3.441-.477.456-1.234.348-1.893.394s-1.452.552-1.243,1.179c.129.39.573.557.96.692a15.865,15.865,0,0,1,8.959,7.944,49.677,49.677,0,0,0,2.089,4.517c.6.964,1.7,1.517,2.28,2.489.689,1.154.693,2.946.929,4.26a.65.65,0,0,0,.264.5c.216.11,2.1-1.936,2.407-2.2a11.049,11.049,0,0,1,3.64-2.352c.812-.268,1.767-.441,2.216-1.17.6-.969-.1-2.244.145-3.357.2-.908.984-1.554,1.481-2.341,1.425-2.249-.084-4.6-1.1-6.651-1.087-2.191-2.287-4.5-4.408-5.718-1.847-1.058-4.257-1.188-5.7-2.751a12.13,12.13,0,0,0-1.3-1.495C-757.615-462.879-759.707-459.843-762.013-459.574Z" transform="translate(768.028 461.595)" fill="#3b3b40"/><g clip-path="url(#y)"><path d="M-763.818-453.837a2.181,2.181,0,0,0,1.921.007c.481-.345.77-1.117,1.357-1.035.481.067.65.664.72,1.145a41.6,41.6,0,0,0,1.7,7.176,5.931,5.931,0,0,0,2.074,3.292c1.566,1.007,3.77.4,5.074-.93a10.042,10.042,0,0,0,2.281-5.016,8.849,8.849,0,0,1,.573-1.973,2.538,2.538,0,0,1,1.45-1.381,2.345,2.345,0,0,1,2.5,1,4.27,4.27,0,0,1,.6,2.766c-.2,2.557-1.689,4.805-2.589,7.208a5.072,5.072,0,0,1-1.7,2.8,7.3,7.3,0,0,1-2.489.566,5.423,5.423,0,0,0-3.145,1.843c-.459.551-.985,1.272-1.692,1.144a1.5,1.5,0,0,1-.981-1.028c-.818-2.047-.318-4.506-1.41-6.42-.739-1.295-2.077-2.106-3.194-3.093-2.542-2.244-4.01-5.481-6.416-7.869-.447-.443-1-.793-1.435-1.238-.575-.585-.083-.542.53-.35C-766.658-454.774-765.24-454.3-763.818-453.837Z" transform="translate(770.776 464.601)" fill="#3b3b40" opacity="0.5" style="mix-blend-mode:multiply;isolation:isolate"/></g></g><g transform="translate(0.815 0.623)"><path d="M-747.749-451.376a18.06,18.06,0,0,1-5.469,1.624,15.13,15.13,0,0,1-6.641.228c-2.6-.7-4.614-2.715-6.491-4.651-.782-.806-1.628-1.884-1.225-2.933.259-.675.979-1.09,1.252-1.761.336-.828-.1-1.794.142-2.655.29-1.053,1.446-1.584,2.492-1.895a4.724,4.724,0,0,0,2.813-1.529c.361-.557.45-1.268.864-1.788a2.348,2.348,0,0,1,2.05-.748,6.391,6.391,0,0,1,2.145.717,15.253,15.253,0,0,0,1.785.833,8.447,8.447,0,0,0,1.924.179,5.792,5.792,0,0,1,1.589.41c.51.2.843.447,1.385.332,1.209-.253,2.354-.787,3.582-.951,1.1-.147,2.086-.652,3.214-.3a8.754,8.754,0,0,1,2.293,1.3,6.521,6.521,0,0,0,2.351,1.178,22.286,22.286,0,0,0,2.541.1,6.018,6.018,0,0,1,3.468,2.249,27.181,27.181,0,0,0,2.006,2.453c1.341,1.249,3.458,1.545,3.767,3.628a12.438,12.438,0,0,1-.156,2.951,12.073,12.073,0,0,0,.135,3.185,22.5,22.5,0,0,1,.744,2.972c.084,2.523-2.375,1.628-3.912,1.539-1.613-.093-2.764.778-4.349-.078a10.3,10.3,0,0,1-2.748-2.449,85.143,85.143,0,0,1-5.7-7.54c-1.142-1.656-1.586-.468-2.6.678A12.308,12.308,0,0,1-747.749-451.376Z" transform="translate(767.679 467.496)" fill="#3b3b40"/><g clip-path="url(#z)"><path d="M-755.056-464.857a13.373,13.373,0,0,1,4.046,4.651,5.657,5.657,0,0,1-.474,5.878,7.255,7.255,0,0,1-2.785,1.837,23.123,23.123,0,0,1-12.974,1.5,1.058,1.058,0,0,0-.893.1c-.344.3-.144.871.138,1.231a5.2,5.2,0,0,0,3.417,1.8,11.68,11.68,0,0,0,3.928-.277,32.072,32.072,0,0,0,9.863-3.825,5.6,5.6,0,0,1,2.247-.955c1.348-.127,2.472.778,3.54,1.461a5.2,5.2,0,0,0,3.834.979c3.324-.456,7.38.129,9.223,3.258.4.671,1.849,3.05,2.8,1.785.37-.495.172-1.865.2-2.463q.06-1.382.114-2.763c.087-2.271.133-4.663-.93-6.672a13.193,13.193,0,0,0-3.615-3.835,11.812,11.812,0,0,0-4.056-2.462,7.262,7.262,0,0,0,2.5,4.2c1.019.835,2.286,1.41,3.059,2.478,1.012,1.4.936,3.275.819,5-.7.307-.75.39-1.372.076-.419-.213-.788-.561-1.209-.787-1.093-.588-2.338-.853-3.44-1.427-2.223-1.158-3.568-3.751-4.428-6.01a2.946,2.946,0,0,0-.784-1.364c-.419-.326-1.172-.273-1.342.231a1.245,1.245,0,0,0,.073.761l.747,2.369c.073.227.129.514-.052.671-.484.416-.779-.559-1.006-.741a7.136,7.136,0,0,0-1.043-.5,14.361,14.361,0,0,1-2.88-2.69,14.9,14.9,0,0,0-2.955-2.123,25.32,25.32,0,0,0-4.76-2.6,3.012,3.012,0,0,0,1.428,2.107Z" transform="translate(772.231 468.168)" fill="#3b3b40" opacity="0.5" style="mix-blend-mode:multiply;isolation:isolate"/></g></g><g transform="translate(14.3)"><path d="M-749.793-466.23a7.931,7.931,0,0,0-6.017-1.594,19.417,19.417,0,0,0-5.482,2.041,17.4,17.4,0,0,1,9.227,4.644,22.6,22.6,0,0,1,4.283,5.432,21.66,21.66,0,0,1,1.44,3.08c.191.514.355,1.038.548,1.552.179.48.133,1.126.567,1.472a1.438,1.438,0,0,0,1.083.206,3.165,3.165,0,0,0,1.572-.6,2.084,2.084,0,0,0,.821-1.437c.058-.729-.39-1.207-.554-1.864-.145-.579-.255-1.19-.41-1.779a22.593,22.593,0,0,0-3.706-7.691A16.1,16.1,0,0,0-749.793-466.23Z" transform="translate(761.292 467.916)" fill="#e5e8f5"/><g clip-path="url(#aa)"><path d="M-744.516-455.78a.626.626,0,0,1-.173.277,1.142,1.142,0,0,1-1.075.209,2.786,2.786,0,0,1-.985-.572,18.091,18.091,0,0,1-2.98-3.266,21.2,21.2,0,0,0-2.912-3.092,13.886,13.886,0,0,0-3.241-2.157,22.3,22.3,0,0,0-3.634-1.478,5.077,5.077,0,0,0-2.825-.03c.3-.093,1.135.452,1.391.6a3.251,3.251,0,0,1,1.1.926,11.669,11.669,0,0,0,2.323,2.124,30.65,30.65,0,0,1,4.937,4.5c1.844,2.3,2.877,5.149,4.494,7.617a4.523,4.523,0,0,0,1.558,1.613,3.741,3.741,0,0,0,2.478.224,4.241,4.241,0,0,0,3.172-2.3,4.385,4.385,0,0,0-.274-3.441,34.51,34.51,0,0,0-1.828-3.041c-.932-1.578-1.545-3.324-2.477-4.9a11.436,11.436,0,0,0-1.17-1.643,5.651,5.651,0,0,0-1.4-1.109c-.64-.41-1.206-1-1.815-1.456a14.267,14.267,0,0,1-1.763-1.253c1.04,1.1,2.29,1.911,3.327,3.012a13.631,13.631,0,0,1,2.746,4.486,17.063,17.063,0,0,1,.742,2.511C-744.7-456.971-744.359-456.267-744.516-455.78Z" transform="translate(761.744 468.152)" fill="#c8cbd6" style="mix-blend-mode:multiply;isolation:isolate"/></g></g><g transform="translate(26.563 15.228)"><path d="M-751.681-451.494c.276.716,1.7,4.678-.68,8.124a8.556,8.556,0,0,1-5.958,3.44,8.054,8.054,0,0,1-5.472-1.225,8.16,8.16,0,0,1-3.015-4.032c-.175-.449-2.136-5.771,1.216-9.644a8.037,8.037,0,0,1,5.29-2.785C-756.313-457.916-752.937-454.741-751.681-451.494Z" transform="translate(767.534 457.636)" fill="#e5e8f5"/><g clip-path="url(#ab)"><path d="M-763.309-455.887c.15-.036.3-.068.441-.093a6.153,6.153,0,0,1,4.128.748,8.653,8.653,0,0,1,4.1,7.43,7.785,7.785,0,0,1-3.247,5.933c-3.275,2.3-7.622,1.43-10.652-.865-.144-.11.016,1.409.132,1.6a8.5,8.5,0,0,0,5.967,3.893,9.933,9.933,0,0,0,6.99-1.675,8.273,8.273,0,0,0,3-3.477,10.218,10.218,0,0,0,.32-5.983,13.917,13.917,0,0,0-4.423-8.147,9.063,9.063,0,0,0-4.857-2.031,7.428,7.428,0,0,0-2.709.218,5.778,5.778,0,0,0-2.338,1.118c-.563.57-.487,1.581.3,1.742A6.79,6.79,0,0,0-763.309-455.887Z" transform="translate(769.938 457.175)" fill="#c8cbd6" style="mix-blend-mode:multiply;isolation:isolate"/><path d="M-759.232-450.582a7.067,7.067,0,0,0,1.243,4.217,1.793,1.793,0,0,0,.956.7c.431.064.557-.5.5-.858a3.267,3.267,0,0,0-.407-.99,6.557,6.557,0,0,1-.828-3.255,4.472,4.472,0,0,1,.533-1.989,4.506,4.506,0,0,1,1.363-1.434.875.875,0,0,0,.366-.587c.05-.578-.616-.64-1.043-.536a3.344,3.344,0,0,0-1.347,1.038A5.657,5.657,0,0,0-759.232-450.582Z" transform="translate(759.735 458.735)" fill="#e5e8f5" opacity="0.75" style="mix-blend-mode:screen;isolation:isolate"/><path d="M-760.848-455.057a9.415,9.415,0,0,1,3.336,5.518,7.888,7.888,0,0,1-1.469,6.219,8.919,8.919,0,0,1-4.3,2.853,16.647,16.647,0,0,1-5.173.687,3.553,3.553,0,0,0,2.537,1.184,8.468,8.468,0,0,0,2.837-.413,10.863,10.863,0,0,0,5.793-3.369,8.018,8.018,0,0,0,1.475-5.793,12.972,12.972,0,0,0-2.225-5.653,8.978,8.978,0,0,0-3.657-3.4,7.588,7.588,0,0,0-4.971-.293A11.767,11.767,0,0,1-760.848-455.057Z" transform="translate(773.654 457.556)" fill="#c8cbd6" style="mix-blend-mode:multiply;isolation:isolate"/></g></g><g transform="translate(30.977 20.493)"><path d="M-756.908-449.872a3.607,3.607,0,0,1-2.912,3.623,3.865,3.865,0,0,1-2.631-.683,4.484,4.484,0,0,1-1.954-3.007,3.772,3.772,0,0,1,1.178-3.339C-760.724-455.471-756.982-452.795-756.908-449.872Z" transform="translate(764.445 454.082)" fill="#b5b8c2"/><g clip-path="url(#ac)"><path d="M-760.159-448.926a3.976,3.976,0,0,1-4.422.809c-.1-.044-.228-.087-.3,0s-.015.178.033.258a4,4,0,0,0,4.125,1.831,4,4,0,0,0,3.089-3.292c.154-1.129-.376-3.22-1.6-3.66a2.712,2.712,0,0,0,.113.844,4.059,4.059,0,0,1-.026,1.16A3.891,3.891,0,0,1-760.159-448.926Z" transform="translate(765.823 454.611)" fill="#b5b8c2" opacity="0.5" style="mix-blend-mode:multiply;isolation:isolate"/><path d="M-761.2-452.443a2.854,2.854,0,0,0-.283,2.521c.116.314.394.655.717.564a.513.513,0,0,0,.327-.363,1.3,1.3,0,0,0,.018-.507,3.448,3.448,0,0,1,.123-2.225,1.651,1.651,0,0,1,.976-.678,1.41,1.41,0,0,0,.428-.147c.25-.164.219-.44-.058-.505a2.5,2.5,0,0,0-.76.209A2.855,2.855,0,0,0-761.2-452.443Z" transform="translate(762.133 454.224)" fill="#b5b8c2" opacity="0.5" style="mix-blend-mode:screen;isolation:isolate"/></g></g></g><g transform="translate(51.178 81.483)"><ellipse cx="4.155" cy="3.422" rx="4.155" ry="3.422" transform="translate(5.476 10.76) rotate(-131.224)" fill="#b3b5b5"/><g transform="translate(0 0)" clip-path="url(#ad)"><path d="M-718.784-406.491a3.869,3.869,0,0,1-4.241.96,4.046,4.046,0,0,0,3.872,1.622A4.051,4.051,0,0,0-716-406.685a4.015,4.015,0,0,0-.176-2.7c-.167-.393-1.092-2.031-1.7-1.681-.4.233.03,1.541.04,1.914A3.844,3.844,0,0,1-718.784-406.491Z" transform="translate(725.912 413.774)" fill="#b3b5b5" opacity="0.5" style="mix-blend-mode:multiply;isolation:isolate"/><path d="M-716.452-410.524a.891.891,0,0,1-.7.622c-.32.08-.659.064-.982.132a1.973,1.973,0,0,0-1.418,1.21c-.049.126-.124.286-.258.27-.114-.015-.164-.148-.184-.261a2.749,2.749,0,0,1,.511-2.112,2.359,2.359,0,0,1,1.718-1.007C-717.246-411.638-716.34-411.142-716.452-410.524Z" transform="translate(722.084 413.506)" fill="#b3b5b5" opacity="0.5" style="mix-blend-mode:screen;isolation:isolate"/></g></g><g transform="translate(81.53 114.221)"><ellipse cx="6.706" cy="12.688" rx="6.706" ry="12.688" fill="#a0a603"/><g clip-path="url(#ae)"><path d="M-735.173-375.946a8.752,8.752,0,0,1-3.369,4.663c-1.672,1.013-4.106.951-5.349-.558-.815-.99-1.188-2.555-2.44-2.832a9.2,9.2,0,0,0,5.478,10.061,5.679,5.679,0,0,0,4.3.124,7.069,7.069,0,0,0,3.281-4,23.664,23.664,0,0,0,1.521-12.46,19.774,19.774,0,0,0-1.8-6.233c-.561-1.067-.981-.873-.921.259.056,1.1.391,2.2.444,3.312A19.6,19.6,0,0,1-735.173-375.946Z" transform="translate(745.972 392.217)" fill="#a0a603" opacity="0.35" style="mix-blend-mode:multiply;isolation:isolate"/></g></g></g></svg>