<svg xmlns="http://www.w3.org/2000/svg" width="820" height="278.032" viewBox="0 0 820 278.032"><g transform="translate(-390 -621)"><text transform="translate(390 726)" fill="#a0a603" font-size="20" font-family="Roboto-Bold, Roboto" font-weight="700"><tspan x="106.592" y="21">Producto </tspan><tspan fill="#12263f" font-size="16" font-family="Roboto-Regular, Roboto" font-weight="400"><tspan x="25.289" y="45">Insumos, mano de obra y tiempos.</tspan></tspan></text><text transform="translate(810 621)" fill="#a89f7f" font-size="20" font-family="Roboto-Bold, Roboto" font-weight="700"><tspan x="163.008" y="21">Proceso </tspan><tspan fill="#12263f" font-size="16" font-family="Roboto-Regular, Roboto" font-weight="400"><tspan x="6.391" y="45">Sistema de actividades secuenciales que dependen en </tspan><tspan x="95.641" y="69">muchos casos una de la otra.</tspan></tspan></text><text transform="translate(475 621)" fill="#529ad9" font-size="20" font-family="Roboto-Bold, Roboto" font-weight="700"><tspan x="111.196" y="21">Proveedor </tspan><tspan fill="#12263f" font-size="16" font-family="Roboto-Regular, Roboto" font-weight="400"><tspan x="36.406" y="45">Confianza, credibilidad y atención. </tspan></tspan></text><text transform="translate(915 725)" fill="#55d8bf" font-size="20" font-family="Roboto-Bold, Roboto" font-weight="700"><tspan x="108.574" y="21">Contrato </tspan><tspan fill="#12263f" font-size="16" font-family="Roboto-Regular, Roboto" font-weight="400"><tspan x="14.578" y="45">Las clausulas o responsabilidades de </tspan><tspan x="96.367" y="69">ambas partes.</tspan></tspan></text><g transform="translate(459.905 -307.89)"><g transform="translate(252.831 996.28)"><path d="M271.577,1030.485a1.132,1.132,0,0,1-1-.6l-16.64-30.995a1.132,1.132,0,1,1,2-1.071l16.64,31a1.132,1.132,0,0,1-1,1.668Z" transform="translate(-253.804 -997.225)" fill="#4a4a4a"/></g><g transform="translate(266.243 1023.961)"><path d="M279.541,1036.053a4.258,4.258,0,1,1-5.766-1.737A4.258,4.258,0,0,1,279.541,1036.053Z" transform="translate(-271.53 -1033.809)" fill="#4a4a4a"/></g><g transform="translate(249.805 993.34)"><path d="M257.816,995.585a4.258,4.258,0,1,0-1.738,5.766A4.259,4.259,0,0,0,257.816,995.585Z" transform="translate(-249.805 -993.34)" fill="#4a4a4a"/></g></g><g transform="translate(-46.204 -3.449) rotate(-25)"><g transform="translate(252.831 996.28)"><path d="M271.577,1030.485a1.132,1.132,0,0,1-1-.6l-16.64-30.995a1.132,1.132,0,1,1,2-1.071l16.64,31a1.132,1.132,0,0,1-1,1.668Z" transform="translate(-253.804 -997.225)" fill="#4a4a4a"/></g><g transform="translate(266.243 1023.961)"><path d="M279.541,1036.053a4.258,4.258,0,1,1-5.766-1.737A4.258,4.258,0,0,1,279.541,1036.053Z" transform="translate(-271.53 -1033.809)" fill="#4a4a4a"/></g><g transform="translate(249.805 993.34)"><path d="M257.816,995.585a4.258,4.258,0,1,0-1.738,5.766A4.259,4.259,0,0,0,257.816,995.585Z" transform="translate(-249.805 -993.34)" fill="#4a4a4a"/></g></g><g transform="translate(983.459 826.722) rotate(-155)"><g transform="translate(3.026 2.939)"><path d="M17.773,0a1.132,1.132,0,0,0-1,.6L.135,31.592a1.132,1.132,0,1,0,2,1.071l16.64-31a1.132,1.132,0,0,0-1-1.668Z" transform="translate(0 0)" fill="#4a4a4a"/></g><g transform="translate(16.438 0)"><path d="M8.011,6.273A4.258,4.258,0,1,0,2.245,8.01,4.258,4.258,0,0,0,8.011,6.273Z" fill="#4a4a4a"/></g><g transform="translate(0 30.62)"><path d="M8.011,6.273A4.258,4.258,0,1,1,6.273.507,4.259,4.259,0,0,1,8.011,6.273Z" fill="#4a4a4a"/></g></g><g transform="translate(442.291 -307.89)"><g transform="translate(425.679 996.28)"><path d="M427.784,1030.485a1.132,1.132,0,0,1-1-1.668l16.64-31a1.132,1.132,0,0,1,2,1.071l-16.64,30.995A1.132,1.132,0,0,1,427.784,1030.485Z" transform="translate(-426.653 -997.225)" fill="#4a4a4a"/></g><g transform="translate(422.654 1023.961)"><path d="M430.665,1040.082a4.258,4.258,0,1,1-1.738-5.766A4.26,4.26,0,0,1,430.665,1040.082Z" transform="translate(-422.654 -1033.809)" fill="#4a4a4a"/></g><g transform="translate(439.092 993.34)"><path d="M452.39,999.613a4.258,4.258,0,1,0-5.766,1.738A4.258,4.258,0,0,0,452.39,999.613Z" transform="translate(-444.379 -993.34)" fill="#4a4a4a"/></g></g><path d="M351.194,1078.123a138.4,138.4,0,0,0-98.2,40.641l98.2,98.194Z" transform="translate(449.879 -320.477)" fill="#529ad9"/><path d="M353.744,1217.246l-104.352-98.482,1.8-1.8a140.472,140.472,0,0,1,100-41.388h2.551Zm-97.121-98.466,92.019,92.019V1080.7A135.315,135.315,0,0,0,256.623,1118.78Z" transform="translate(449.879 -320.477)" fill="#fff"/><g transform="translate(449.879 -320.477)"><path d="M449.388,1118.764a138.4,138.4,0,0,0-98.194-40.641v138.835Z" fill="#b4ad95"/><path d="M348.642,1218.822V1075.573h2.551a140.472,140.472,0,0,1,100,41.388l1.8,1.8Zm5.1-138.125v130.1l92.02-92.019A135.318,135.318,0,0,0,353.744,1080.7Z" fill="#fff"/></g><path d="M253,1118.764a138.4,138.4,0,0,0-40.64,98.194H351.194Z" transform="translate(449.879 -320.477)" fill="#a0a603"/><path d="M357.352,1219.509H209.808v-2.551a140.473,140.473,0,0,1,41.387-100l1.8-1.805Zm-142.419-5.1h130.1l-92.019-92.019A135.311,135.311,0,0,0,214.933,1214.407Z" transform="translate(449.879 -320.477)" fill="#fff"/><path d="M490.028,1216.958a138.4,138.4,0,0,0-40.64-98.194l-98.194,98.194Z" transform="translate(449.879 -320.477)" fill="#55d8bf"/><path d="M492.579,1219.509H345.035l104.353-104.353,1.8,1.805a140.477,140.477,0,0,1,41.387,100Zm-135.227-5.1h130.1a135.315,135.315,0,0,0-38.083-92.019Z" transform="translate(449.879 -320.477)" fill="#fff"/><path d="M412.587,1157.429a86.8,86.8,0,0,0-148.2,61.393H438A86.527,86.527,0,0,0,412.587,1157.429Z" transform="translate(449.879 -320.477)" fill="#fff"/><circle cx="35.838" cy="35.838" r="35.838" transform="translate(628.258 808.26)" fill="#fff"/><circle cx="30.319" cy="30.319" r="30.319" transform="translate(634 814)" fill="#a0a603"/><circle cx="35.838" cy="35.838" r="35.838" transform="translate(898.743 808.26)" fill="#fff"/><circle cx="30.319" cy="30.319" r="30.319" transform="translate(904 814)" fill="#55d8bf"/><circle cx="35.838" cy="35.838" r="35.838" transform="translate(711.797 727.921)" fill="#fff"/><circle cx="30.319" cy="30.319" r="30.319" transform="translate(713 788.855) rotate(-80.783)" fill="#529ad9"/><circle cx="35.838" cy="35.838" r="35.838" transform="translate(818.224 727.921)" fill="#fff"/><circle cx="30.319" cy="30.319" r="30.319" transform="translate(811 763.878) rotate(-45)" fill="#b4ad95"/><g transform="translate(450.347 -320.012)"><path d="M229.769,1155.774a1,1,0,0,0-.049-.3.893.893,0,0,0-.091-.146c-.022-.035-.037-.066-.061-.1a.933.933,0,0,0-.4-.313c-.006,0-.008-.008-.014-.01l-15.565-5.835a.956.956,0,0,0-.724.014l-13.619,5.835c-.013.006-.019.021-.033.027a.932.932,0,0,0-.34.286.85.85,0,0,0-.074.1.76.76,0,0,0-.065.093.987.987,0,0,0-.077.382v17.512a.974.974,0,0,0,.589.9l13.619,5.837h0a.966.966,0,0,0,.382.078,1.01,1.01,0,0,0,.342-.062l.035-.014h0l15.528-5.823a.973.973,0,0,0,.63-.911v-17.51C229.782,1155.8,229.769,1155.789,229.769,1155.774Zm-17.5,21.915-11.674-5V1157.3l11.674,5Zm1-17.082-11.172-4.788,11.172-4.787,12.771,4.787-3.045,1.142-5.459-2.446a.958.958,0,0,0-.854.033l-3.816,1.621a.976.976,0,0,0,.01,1.8l3.539,1.461Zm6.786-.467,1.946-.73v4.742l-1.946.729Zm-.969-1.714-3.327-1.372,1.378-.586,3.269,1.464Zm8.752,14.228-13.619,5.107v-15.432l3.891-1.46v5.417a.978.978,0,0,0,.418.8.967.967,0,0,0,.555.173,1.016,1.016,0,0,0,.342-.062l3.891-1.46a.973.973,0,0,0,.631-.91v-6.146l3.891-1.46Z" fill="#fff"/></g><g transform="translate(450.335 -320.717)"><path d="M420.918,1081.254l-4.1-.995a13.336,13.336,0,0,0-.862-2.084l2.1-3.5a1.027,1.027,0,0,0-.154-1.254l-2.9-2.9a1.027,1.027,0,0,0-1.254-.155l-3.5,2.1a13.2,13.2,0,0,0-2.085-.862l-.994-4.1a1.028,1.028,0,0,0-1-.785h-4.106a1.027,1.027,0,0,0-1,.785l-.995,4.1a13.186,13.186,0,0,0-2.084.862l-3.5-2.1a1.027,1.027,0,0,0-1.254.155l-2.9,2.9a1.026,1.026,0,0,0-.155,1.254l2.1,3.5a13.175,13.175,0,0,0-.864,2.089l-3.966.991a1.028,1.028,0,0,0-.778,1v4.106a1.027,1.027,0,0,0,.778,1l3.966.992a13.343,13.343,0,0,0,.863,2.089l-2.1,3.5a1.027,1.027,0,0,0,.154,1.254l2.9,2.9a1.026,1.026,0,0,0,1.254.154l3.5-2.1a13.27,13.27,0,0,0,2.089.863l.991,3.967a1.027,1.027,0,0,0,1,.777h4.106a1.026,1.026,0,0,0,1-.777l.992-3.967a13.349,13.349,0,0,0,2.089-.863l3.5,2.1a1.024,1.024,0,0,0,1.253-.154l2.9-2.9a1.027,1.027,0,0,0,.154-1.254l-2.1-3.5a13.357,13.357,0,0,0,.862-2.085l4.1-.994a1.027,1.027,0,0,0,.784-1v-4.106A1.027,1.027,0,0,0,420.918,1081.254Zm-1.269,4.3-3.89.944a1.026,1.026,0,0,0-.749.732,11.236,11.236,0,0,1-1.124,2.717,1.028,1.028,0,0,0,.009,1.042l1.992,3.322-1.769,1.769-3.322-1.992a1.026,1.026,0,0,0-1.042-.008,11.236,11.236,0,0,1-2.717,1.123,1.026,1.026,0,0,0-.73.742l-.94,3.76h-2.5l-.94-3.76a1.027,1.027,0,0,0-.731-.742,11.236,11.236,0,0,1-2.717-1.123,1.026,1.026,0,0,0-1.042.008l-3.321,1.992-1.77-1.769,1.993-3.322a1.026,1.026,0,0,0,.008-1.042,11.193,11.193,0,0,1-1.123-2.717,1.027,1.027,0,0,0-.743-.73l-3.76-.94v-2.5l3.76-.94a1.028,1.028,0,0,0,.743-.731,11.193,11.193,0,0,1,1.123-2.717,1.026,1.026,0,0,0-.008-1.042l-1.993-3.321,1.77-1.77,3.321,1.993a1.026,1.026,0,0,0,1.042.008,11.225,11.225,0,0,1,2.717-1.123,1.025,1.025,0,0,0,.732-.75l.944-3.89h2.492l.944,3.89a1.026,1.026,0,0,0,.732.75,11.209,11.209,0,0,1,2.717,1.123,1.026,1.026,0,0,0,1.042-.008l3.322-1.993,1.769,1.77-1.992,3.321a1.026,1.026,0,0,0-.009,1.042,11.254,11.254,0,0,1,1.124,2.717,1.027,1.027,0,0,0,.749.733l3.89.943Z" fill="#fff"/><path d="M404.115,1077.119a7.185,7.185,0,1,0,7.185,7.185A7.193,7.193,0,0,0,404.115,1077.119Zm0,12.318a5.133,5.133,0,1,1,5.132-5.133A5.138,5.138,0,0,1,404.115,1089.437Z" fill="#fff"/></g><g transform="translate(449.686 -320.551)"><path d="M292.442,1091.9h-2.68c-1.022,0-1.447-.429-1.447-1.457q0-4.182,0-8.363a5.888,5.888,0,0,1,4.612-5.96,1.249,1.249,0,0,0,.14-.06,5.928,5.928,0,0,1-.911-5.475,5.664,5.664,0,0,1,2.232-2.983,5.9,5.9,0,0,1,8.035,8.445,12.4,12.4,0,0,1,1.295.468,5.708,5.708,0,0,1,3.452,5.313c.055,2.933.014,5.869.01,8.8a1.178,1.178,0,0,1-1.268,1.265c-.932,0-1.865,0-2.856,0v.439q0,4.107,0,8.215a1.2,1.2,0,0,1-1.351,1.367q-3.96,0-7.921,0a1.2,1.2,0,0,1-1.34-1.342C292.441,1097.7,292.442,1094.832,292.442,1091.9Zm4.125,7.645v-.445c0-1.99,0-3.979,0-5.969a1.172,1.172,0,0,1,1.221-1.232,1.187,1.187,0,0,1,1.134,1.252q.006,3,0,6.005v.387H300.7v-.45q0-6.78,0-13.559a1.185,1.185,0,1,1,2.358,0c0,1.2,0,2.407,0,3.61v.375h1.769v-.346q0-3.573,0-7.147a3.54,3.54,0,0,0-3.69-3.685q-3.39,0-6.78,0a3.537,3.537,0,0,0-3.678,3.7q0,3.556,0,7.111v.369h1.767v-.387c0-1.24-.006-2.481.005-3.721a1.175,1.175,0,0,1,2.32-.259,2.308,2.308,0,0,1,.034.513q0,6.723,0,13.448v.436Zm-2.356-27.114a3.537,3.537,0,1,0,3.548-3.523A3.541,3.541,0,0,0,294.211,1072.431Z" fill="#fff"/></g><g transform="translate(449.937 -320.355)"><path d="M490.437,1162.434a1.189,1.189,0,0,0-1.189-1.189H477a1.189,1.189,0,0,0,0,2.378h12.247A1.189,1.189,0,0,0,490.437,1162.434Z" fill="#fff"/><path d="M477,1166a1.189,1.189,0,0,0,0,2.378h7.438a1.189,1.189,0,0,0,0-2.378Z" fill="#fff"/><path d="M479.8,1177.416h-3.977a2.381,2.381,0,0,1-2.378-2.378v-20.927a2.381,2.381,0,0,1,2.378-2.378h14.618a2.38,2.38,0,0,1,2.378,2.378v7.313a1.189,1.189,0,1,0,2.378,0v-7.313a4.761,4.761,0,0,0-4.756-4.756H475.819a4.761,4.761,0,0,0-4.756,4.756v20.927a4.761,4.761,0,0,0,4.756,4.756H479.8a1.189,1.189,0,1,0,0-2.378Z" fill="#fff"/><path d="M497.3,1166.57a3.572,3.572,0,0,0-5.044,0l-6.528,6.513a1.186,1.186,0,0,0-.3.5l-1.422,4.68a1.19,1.19,0,0,0,1.456,1.492l4.8-1.33a1.181,1.181,0,0,0,.522-.3l6.515-6.5A3.573,3.573,0,0,0,497.3,1166.57Zm-7.973,9.643-2.415.669.707-2.326,4.4-4.4,1.682,1.682Zm6.292-6.28-.23.23-1.682-1.682.23-.229a1.189,1.189,0,0,1,1.682,1.681Z" fill="#fff"/><path d="M489.248,1156.489H477a1.189,1.189,0,1,0,0,2.378h12.247a1.189,1.189,0,1,0,0-2.378Z" fill="#fff"/></g></g></svg>