<svg xmlns="http://www.w3.org/2000/svg" width="294" height="199" viewBox="0 0 294 199"><g transform="translate(410.966 -1466.844)"><path d="M0,0H294V199H0Z" transform="translate(-410.966 1466.844)" fill="none"/><path d="M-363.492,1636.6s-18.522-7.7-20.6-16,14.761-5.491,27.627,11.407c0,0-19.006-31.869-7.178-34.179s18.24,31.127,18.24,31.127,3.342-16.442,11.071-15.637,3.243,13.472-9.518,23.281Z" fill="#ecedcc"/><path d="M-350.379,1635.3a96.113,96.113,0,0,0-13.736-36.479" fill="#ecedcc"/><path d="M-356.462,1634.813s-16.85-8.168-24.439-18.1" fill="#ecedcc"/><path d="M-334.329,1615.51s-5.726,16.7-14.057,19.3" fill="#ecedcc"/><path d="M-280.684,1630.946s-26.378,1.949-40.832-.921c-8.358-1.659-12.013-7.062-1.033-9.224,5.532-1.09,16.071-9.979-5.472-12.741-18.791-2.41-20.774-16.119-4.1-15.841,3.918.065-1.485-2.472-6.264-11.34-3.677-6.821-3.044-17.607,3.169-20.681,13.1-6.479,12.75,18.119,18.1,19.272,5.136,1.107,7.112-12.747,14.259-11.034,9.335,2.236-5.812,28.523-3.952,30.871,3.967,5.005,11.377-19.777,18.334-17.784S-303.286,1624.816-280.684,1630.946Z" fill="#ecedcc"/><path d="M-287.273,1629.806c-14.331-5.727-12.372-16.342-29-30.327-13.75-11.561-17.381-24.669-16.272-39.677" fill="#ecedcc"/><path d="M-249.946,1630.108s18.522-7.7,20.6-16-13.79-7.377-26.656,9.522c0,0,19.227-28.654,7.4-30.965s-19.433,29.8-19.433,29.8-3.342-16.441-11.071-15.636-3.244,13.472,9.518,23.28Z" fill="#ecedcc"/><path d="M-263.059,1628.807s3.153-20.083,14.928-35.15" fill="#ecedcc"/><path d="M-256.976,1628.322s15.215-13.828,24.439-16.377" fill="#ecedcc"/><path d="M-279.109,1609.019s5.726,16.7,14.057,19.3" fill="#ecedcc"/><path d="M-207.339,1627.262s26.378,1.948,40.832-.921c8.358-1.66,12.013-7.063,1.033-9.224-5.532-1.09-14.795-4.933,5.472-12.742,16.929-6.522,19.182-17.623,3.041-13.413-8.365,2.181,2.54-4.9,7.319-13.767,3.677-6.822,3.044-17.607-3.169-20.681-13.1-6.479-15.456,22.782-20.8,23.935-5.135,1.107.728-18.978-8.5-16.328s3.4,25.624.9,31.5-4.123-20.157-11.079-18.164S-184.737,1621.132-207.339,1627.262Z" fill="#ecedcc"/><path d="M-200.75,1626.122c14.331-5.728,12.372-16.342,29-30.327,13.75-11.562,18.693-21.521,17.584-36.529" fill="#ecedcc"/><path d="M-307.819,1622.243c-6.783,0-12.445-.554-17.231-2.216-12.172-4.227-11.343-19.363-10.383-36.888.229-4.169.465-8.48.543-12.848.185-10.253-1.137-20.89-2.3-30.274-1.467-11.795-2.733-21.982-.784-28.4,3.808-12.543,10.655-13.52,13.419-13.356h0c.56.044,56.323,4.382,90.888.871q2.74-.279,5.274-.542c19.773-2.041,30.664-3.166,35.478,1.415,2.519,2.4,3.483,6.445,3.128,13.127-1.218,22.893-2.806,67.734-1.033,90.587.5,6.449-.514,10.73-3.2,13.474-5.008,5.125-15.554,4.552-31.515,3.685-6.48-.352-13.825-.751-22.053-.838-15.784-.167-28.752.629-40.2,1.332C-295.38,1621.836-302.011,1622.243-307.819,1622.243Zm-17.247-123.588c-2.916,0-9,1.5-12.517,13.079-1.924,6.337-.663,16.484.8,28.232,1.169,9.4,2.493,20.05,2.307,30.332-.078,4.376-.315,8.69-.543,12.863-.951,17.36-1.773,32.353,10.107,36.477,8.807,3.059,20.68,2.33,37.112,1.322,11.451-.7,24.43-1.5,40.226-1.333,8.236.087,15.586.486,22.07.838,15.851.861,26.322,1.43,31.2-3.562,2.592-2.652,3.57-6.832,3.08-13.154-1.775-22.874-.187-67.738,1.031-90.641.349-6.551-.576-10.5-3-12.807-4.677-4.45-15.5-3.333-35.153-1.3q-2.536.263-5.274.542c-34.562,3.51-90.273-.816-90.96-.87C-324.733,1498.66-324.894,1498.655-325.066,1498.655Z" fill="#fff"/><ellipse cx="31.138" cy="4.945" rx="31.138" ry="4.945" transform="translate(-282.351 1645.954)" fill="#f0f0f0"/><ellipse cx="85.909" cy="6.665" rx="85.909" ry="6.665" transform="translate(-350.495 1638.167)" fill="#f0f0f0"/><path d="M-290.007,1631.082s-2.215-2.122-5.751-7.934-4.249-10.136-.2-9.294,6.4,9.159,6.4,9.159-4.963-14.459-.411-18.9,5.6.808,5.4,6.082-2.1,17.4-2.1,17.4,4.984-13.126,8.749-11.038-2.216,12.136-2.216,12.136,7.287-6.977,7.967-4.2-5.092,8.169-5.092,8.169,8.688.431,5.92,1.421-29.41,1.569-26.043-.364A26.056,26.056,0,0,1-290.007,1631.082Z" fill="#a0a603"/><path d="M-290.413,1633.929l-.151-.139,1.829-1.982c-1.39-2-7.636-11.067-7.059-11.817.045-.058.136-.114.315-.05,1.525.555,4.768,4.257,5.641,5.276-.239-2.409-1.525-16.437.64-18.522a.883.883,0,0,1,.766-.266c3.141.449,1.654,19.83,1.381,23.083,1.107-1.78,5.812-9.195,7.369-9.195h.027a.471.471,0,0,1,.412.305c.846,1.835-1.575,7.7-2.211,9.178,1.391-.949,6.4-4.262,7.336-3.465.247.21.214.631-.1,1.285a14.62,14.62,0,0,1-5.662,5.821h3.842v.206h-4.676l.389-.195a14.608,14.608,0,0,0,5.922-5.921c.26-.543.313-.9.151-1.04-.688-.584-4.791,1.882-7.382,3.682l-.3.211.151-.337c.032-.073,3.268-7.363,2.356-9.339a.265.265,0,0,0-.237-.186h-.022c-1.336,0-5.8,6.821-7.413,9.464l-.229.375.039-.437c.7-7.9,1.364-22.93-1.169-23.292a.684.684,0,0,0-.6.211c-2.247,2.165-.562,18.516-.545,18.681l.035.335-.215-.258c-.041-.048-4.086-4.855-5.768-5.466-.064-.024-.086-.018-.085-.016-.319.429,3.366,6.256,7.115,11.64l.047.067Z" fill="#a0a603"/><path d="M-214.477,1632.893a23.006,23.006,0,0,0,3.094-4.268c1.9-3.126,2.286-5.452.108-5s-3.441,4.927-3.441,4.927,2.67-7.778.221-10.165-3.01.435-2.9,3.271,1.13,9.361,1.13,9.361-2.681-7.06-4.706-5.937,1.192,6.527,1.192,6.527-3.919-3.752-4.285-2.26,2.738,4.394,2.738,4.394-4.673.232-3.184.764,15.82.844,14.008-.2A13.99,13.99,0,0,0-214.477,1632.893Z" fill="#a0a603"/><path d="M-214.293,1634.457l-1.07-1.159.047-.068c1.853-2.661,3.774-5.659,3.823-6.173-.937.385-3.047,2.893-3.069,2.918l-.216.258.035-.335c.01-.088.914-8.86-.278-10.009a.33.33,0,0,0-.281-.1c-1.23.176-1.026,7.559-.588,12.478l.039.437-.229-.375c-1.2-1.966-3.327-5.068-3.945-5.068h-.01c-.028,0-.059.011-.088.072-.482,1.044,1.25,4.945,1.268,4.984l.15.337-.3-.211c-1.427-.992-3.585-2.265-3.912-1.983-.025.021-.091.119.093.5a7.807,7.807,0,0,0,3.164,3.163l.389.2h-2.716v-.206h1.894a7.825,7.825,0,0,1-2.916-3.063c-.066-.137-.267-.556-.041-.748.5-.428,2.908,1.12,3.868,1.769-.415-.985-1.563-3.876-1.124-4.826a.3.3,0,0,1,.261-.192h.017c.826,0,3.127,3.565,3.9,4.8-.2-2.416-.885-12.029.8-12.27a.516.516,0,0,1,.452.156c1.141,1.1.531,8.21.374,9.852a12.978,12.978,0,0,1,2.955-2.737.18.18,0,0,1,.224.042c.313.407-2.5,4.544-3.774,6.381l.958,1.038Z" fill="#a0a603"/><path d="M-339.511,1637.785s-1.541,3.082-2.2,4.733-1.211,3.521.11,3.962,7.044,0,7.044,0a2.012,2.012,0,0,0,1.32-1.871c0-1.431-.66-5.723-.66-5.723Z" fill="#4fbef5"/><path d="M-334.558,1646.48a2.074,2.074,0,0,0,1.245-1.321h-9.094a1.22,1.22,0,0,0,.805,1.321C-340.281,1646.92-334.558,1646.48-334.558,1646.48Z" fill="#180a61"/><path d="M-306.384,1638.556s4.182,2.641,5.5,3.191,3.192.881,3.082,1.871-.11,1.871-.551,2.091a29.94,29.94,0,0,1-7.594.33,23.347,23.347,0,0,0-4.4-.22c-.88,0-3.191.22-3.742-1.1s.661-5.283.661-5.283A47.281,47.281,0,0,1-306.384,1638.556Z" fill="#4fbef5"/><path d="M-298.35,1645.709c.281-.14.383-.551.448-1.087-4.249,1.356-9.6-.3-12-.784a13,13,0,0,0-4.324-.071,2.6,2.6,0,0,0,.142.952c.551,1.32,2.862,1.1,3.742,1.1a23.347,23.347,0,0,1,4.4.22A29.94,29.94,0,0,0-298.35,1645.709Z" fill="#180a61"/><path d="M-325.534,1572.741l-5.393,37.97s-6.823,22.342-7.593,22.892-1.871,1.1-1.651,1.981a18.356,18.356,0,0,1,.11,3.3h6.163a4.805,4.805,0,0,1,1.431-1.541c.88-.55.88-2.752,1.1-4.072s6.274-9.795,8.365-14.418,8.144-29.495,8.144-29.495l1.981-.99s-.33,25.863-.55,28.174-.771,6.273-.551,8.585.33,15.3.33,15.3l7.814-.88a12.776,12.776,0,0,0-.55-2.421c-.33-.771-.88-1.211-.77-1.981s5.5-23.222,5.5-32.137-.551-26.414-.771-27.184a8.356,8.356,0,0,0-.99-1.871Z" fill="#180a61"/><path d="M-336.87,1530.149l-3.411-2.641,15.408-1.651-.991-2.751s-11.116-1.211-16.839-1.981-10.565-.771-9.575,2.091S-341.6,1537.3-341.6,1537.3Z" fill="#f6b885"/><path d="M-327.354,1526.123l2.481-.266-.991-2.751s-1.058-.115-2.688-.3Z" fill="#dd9766"/><path d="M-320.911,1537.413H-326.3l1.211,36.649s13.757,2.862,21.681-.11l-6.6-33.237-2.861-1.871Z" fill="#fff"/><path d="M-321.866,1529.679s.355,7.274.266,9.137,3.194,8.25,6.21,7.54,2.839-4.613,2.4-6.83-.71-6.654-.71-6.654Z" fill="#f6b885"/><path d="M-313.7,1532.872l-8.161-3.193s.056,1.154.118,2.66l8.414,4.853C-313.571,1535.1-313.7,1532.872-313.7,1532.872Z" fill="#dd9766"/><path d="M-323.759,1516.337s-3.316,1.347-3.109,5.8a12.971,12.971,0,0,0,4.146,8.6c1.14,1.036,9.121,4.664,11.608,3.731s.311-9.846,0-12.023a7.478,7.478,0,0,0-5.182-6.426C-321.271,1514.16-323.759,1516.337-323.759,1516.337Z" fill="#f6b885"/><path d="M-323.24,1526.909s-3.939-3.006-4.043,0,3.835,3.42,4.457,2.9" fill="#f6b885"/><path d="M-321.689,1536.776l3.017,49.59a70.962,70.962,0,0,1-8.251-2.573l-3.193-1.331,2.838-18.008-3.016-15.259-12.863-10.911,6.287-8.135s8.439,6.36,8.883,6.449S-321.689,1536.776-321.689,1536.776Z" fill="#4fbef5"/><path d="M-323.108,1536.864s-.444-.709-1.153,2.839a90.336,90.336,0,0,0-1.065,9.492l4.38-.4-.743-12.019Z" fill="#71caf6"/><path d="M-297.359,1557.884s5.393-14.638,6.713-15.518,4.843-1.651,5.5-2.2,1.871-2.972,2.531-1.871-1.76,2.971-1.76,2.971,4.292-.99,4.732-1.21,1.761-1.651,1.651-.661-1.871,3.3-4.512,4.953-7.815,1.871-7.815,1.871-2.753,16.428-3.521,18.819c-.991,3.082-2.422,6.384-4.623,4.4s-6.933-8.695-6.933-8.695l6.163-4.182Z" fill="#f6b885"/><path d="M-299.23,1556.563l-6.163,4.182s2.043,2.9,4.069,5.449l.08.046,3.885-8.356Z" fill="#dd9766"/><path d="M-312.877,1538.844s3.742,14.748,4.952,21.791,3.632,24.653,3.632,24.653l5.283-2.641-3.522-20.581,5.173-4.182s-4.292-10.786-5.723-13.537-.991-2.862-1.761-3.412S-312.877,1538.844-312.877,1538.844Z" fill="#4fbef5"/><path d="M-310.346,1539.394l3.962,9.245-4.072-.22-2.421-9.575Z" fill="#71caf6"/><line x1="1.211" y1="14.197" transform="translate(-303.742 1547.869)" fill="#fff"/><rect width="0.411" height="14.249" transform="translate(-303.947 1547.886) rotate(-4.873)" fill="#2fa2e5"/><path d="M-263.553,1606.7s.637,8.655,1.548,16.672,1.731,21.044,1.367,22.046-4.282,3.188-5.922,3.644-2.186,1.366-1.093,1.64a38.684,38.684,0,0,0,6.559.182c1.367-.091,3.189-.182,4.282-.365s1.093-.911,1-2.733-1-2.55-.82-4.919,2.278-21.318,2.551-24.506-1.184-7.015-1.275-8.746-.365-3.37-.365-3.37Z" fill="#fed2a3"/><path d="M-255.354,1609.611c-.092-1.73-.365-3.37-.365-3.37l-7.834.455s.089,1.211.248,3.146a31.03,31.03,0,0,0,8.179,1.195A9.675,9.675,0,0,1-255.354,1609.611Z" fill="#dd9766"/><path d="M-264.2,1648.042a13.794,13.794,0,0,1-2.357,1.016c-1.64.455-2.186,1.366-1.093,1.64a38.684,38.684,0,0,0,6.559.182c1.367-.091,3.189-.182,4.282-.365,1.074-.179,1.092-.887,1.007-2.638a43.257,43.257,0,0,1-7.84,1.181Z" fill="#180a61"/><path d="M-254.99,1606.514s1.822,9.748,2.733,12.025,7.743,23.231,7.835,24.233.819,5.01,1.366,7.561,2.551,3.371,3.462,2.551,1-3.371.364-5.648a18.225,18.225,0,0,0-3.1-5.193s-.638-16.762-1.367-21.226-1.457-7.2-1.457-7.2l-.274-7.561Z" fill="#fed2a3"/><path d="M-254.1,1611.028a23.814,23.814,0,0,0,8.787-1.854l-.113-3.115-9.565.455S-254.6,1608.578-254.1,1611.028Z" fill="#dd9766"/><path d="M-243.056,1650.333c.547,2.551,2.551,3.371,3.462,2.551s1-3.319.382-5.579c-.465.912-1.274,2.163-2.295,2.39a2.766,2.766,0,0,1-1.722-.192C-243.17,1649.791-243.112,1650.071-243.056,1650.333Z" fill="#180a61"/><path d="M-265.771,1559.518l-5.661,9.357s-5.426-9.829-5.74-11.009-.708-3.853-1.337-4.324-1.887-.315-3.538-1.258-1.966.314-1.1,1.258a2.676,2.676,0,0,0,1.808.943l.786.787-6.526,1.336s-2.988.236-2.2.708,3.853,1.651,3.853,1.651l6.6,1.18s5.976,15.883,6.212,16.04.708.236,1.258-.471,8.65-12.974,8.65-12.974Z" fill="#fed2a3"/><path d="M-266.73,1561.1l2.556,3.862,1.47-2.222-3.067-3.224Z" fill="#dd9766"/><path d="M-285.429,1558.967s-3.931-4.089-2.909-4.167,3.381,2.988,3.381,2.988,3.853-1.494,5.033-.158.707,1.573.707,1.573" fill="#fed2a3"/><path d="M-243.6,1558.338l5.662,9.357s5.425-9.829,5.74-11.008.707-3.853,1.336-4.325,1.887-.314,3.539-1.258,1.966.315,1.1,1.258a2.676,2.676,0,0,1-1.809.944l-.786.786,6.526,1.337s2.988.236,2.2.708-3.853,1.651-3.853,1.651l-6.605,1.179s-5.976,15.884-6.212,16.041-.708.236-1.258-.472-8.649-12.974-8.649-12.974Z" fill="#fed2a3"/><path d="M-245.048,1564.006l2.642-3.7-1.191-1.969-3.066,3.224S-246,1562.562-245.048,1564.006Z" fill="#dd9766"/><path d="M-223.939,1557.788s3.931-4.089,2.909-4.168-3.381,2.988-3.381,2.988-3.853-1.494-5.032-.157-.708,1.573-.708,1.573" fill="#fed2a3"/><path d="M-261.938,1569.038s-5.787,10.835-5.91,16.867.246,21.3.246,21.3,7.141,1.969,11.943,1.846,13.173-1.354,13.173-1.354.616-20.93-.246-24.5-5.54-14.282-5.54-14.282Z" fill="#180a61"/><path d="M-257.515,1543.084s.158,5.347.079,6.212a1.547,1.547,0,0,1-1.494,1.494c-.865.078-4.089-.472-4.325-.394s-5.661,6.763-5.661,6.763l4.718,5.032a5.867,5.867,0,0,0,.55,1.494c.393.708,1.337,7.077,1.337,7.077a15.949,15.949,0,0,0,7.549,1.415,17.711,17.711,0,0,0,7.155-1.494l1.415-8.806,5.5-3.775s-3.617-6.133-4.324-6.605-5.426-.786-6.527-.865-1.651-.707-1.651-1.494.393-7.627.393-7.627Z" fill="#a0a603"/><path d="M-250.431,1550.713c-.48-.037-.876-.064-1.108-.081-1.1-.078-1.651-.707-1.651-1.494s.393-7.627.393-7.627l-4.718,1.573s.158,5.347.079,6.212a1.547,1.547,0,0,1-1.494,1.494,5.741,5.741,0,0,1-.855-.027c-.073.9.121,2.883,3.135,3.486C-253.9,1554.8-251.583,1552.283-250.431,1550.713Z" fill="#fed2a3"/><path d="M-252.8,1541.511l-4.718,1.573s.065,2.2.091,4.011l4.493-3.2C-252.857,1542.567-252.8,1541.511-252.8,1541.511Z" fill="#dd9766"/><path d="M-245.327,1525.47s-.157-3.459.551-4.4.786.315.786.55a4.168,4.168,0,0,1,4.8-2.594c3.853.707,8.1,7.312,7.077,13.052s-7.863,9.672-9.121,9.279-1.808-.865-1.022-1.966.943-7.784-.551-9.907-2.437-1.888-2.437-1.888Z" fill="#180a61"/><path d="M-260.109,1529.952a23.455,23.455,0,0,0-1.652,7.156c-.078,3.381.551,9.121,1.809,8.964s8.885-4.954,8.885-4.954,3.617-.157,4.4-1.415.629-1.966.55-4.325,1.966-4.325.472-6.605-7.627-2.988-10.537-1.966A7.007,7.007,0,0,0-260.109,1529.952Z" fill="#fed2a3"/><path d="M-259.716,1526.65s-3.381,2.123-2.91,3.145,4.4.708,9.515.079l5.111-.629s-2.674,1.022-2.359,3.695.55,4.875.55,4.875a10.7,10.7,0,0,1,2.281-1.258c.707-.157,1.494.787,1.494.787s1.336-4.168,1.887-5.976a5.678,5.678,0,0,0-4.01-7.156C-252.482,1523.033-257.986,1524.448-259.716,1526.65Z" fill="#180a61"/><path d="M-258.282,1529.166a16.524,16.524,0,0,1-1.731-.068c-.347-.041-.812-.131-.85-.437-.088-.7,2.666-1.793,3.22-2.006l.075.2c-1.311.505-3.136,1.392-3.087,1.784.006.042.069.183.667.254,3.051.357,14.406-.631,14.638-1.277-.173-.621-1.719-.867-2.3-.908l.014-.21c.092.006,2.24.17,2.488,1.072a.206.206,0,0,1-.051.195C-245.827,1528.494-254.173,1529.166-258.282,1529.166Z" fill="#fff"/><path d="M-235.507,1535.157l-.171-.124c1.308-1.811,1.6-5.927.64-8.987a5.924,5.924,0,0,0-3.37-4.059,4.255,4.255,0,0,0-3.4.1,6.542,6.542,0,0,0-2.8,3.466l-.2-.065a6.633,6.633,0,0,1,2.906-3.589,4.457,4.457,0,0,1,3.563-.108,6.126,6.126,0,0,1,3.5,4.2C-233.858,1529.1-234.165,1533.3-235.507,1535.157Z" fill="#fff"/><path d="M-241.267,1540.367l-.083-.194c1.806-.774,2.742-2.9,3.209-4.55,1.065-3.756.714-8.54-.782-10.663a2.3,2.3,0,0,0-1.863-1.123h-.026c-2,0-4.1,2.8-4.119,2.825l-.17-.125c.089-.119,2.185-2.91,4.288-2.91h.03a2.5,2.5,0,0,1,2.032,1.213c1.528,2.168,1.892,7.032.813,10.842C-238.418,1537.373-239.385,1539.56-241.267,1540.367Z" fill="#fff"/><path d="M-186.527,1642.084s.413,3.42-.044,3.6-5.5.27-5.5.27h-8.37s-.383-1.8.271-2.43,4.25-2.97,5.374-4.14,1.876-2.07,1.876-2.07Z" fill="#fffeff"/><path d="M-186.356,1644.453c.006.633-.042,1.163-.215,1.231-.456.18-5.5.27-5.5.27h-8.37a6.229,6.229,0,0,1-.108-.934Z" fill="#180a61"/><path d="M-190.2,1612.656s3.021,10.709,3.676,14.849,0,14.579,0,14.579-2.543.63-3.773-.18a8.249,8.249,0,0,0-2.659-1.08,112.62,112.62,0,0,0,1.252-11.879c.2-5.49.762-8.369.262-11.879S-191.113,1610.586-190.2,1612.656Z" fill="#180a61"/><path d="M-200.225,1637.764s-.767,1.26-4.72,3.51-6.733,1.98-6.674,2.79.3,1.71,1.37,1.89,18.179,0,18.179,0,.443.18.576-.99a13.277,13.277,0,0,0-.035-3.87C-191.769,1640.284-200.225,1637.764-200.225,1637.764Z" fill="#fffeff"/><path d="M-191.494,1644.964c-.133,1.17-.576.99-.576.99s-17.106.18-18.179,0a1.424,1.424,0,0,1-1.122-.831Z" fill="#180a61"/><path d="M-206.668,1575.145s1.537,10.693,1.3,14.563,1.656,20.788,2.665,25.108,2.314,12.779,2.237,14.849-.558,5.31-.558,5.31a6.709,6.709,0,0,0-.437,2.069c.063.72.116,1.71.116,1.71s1.947.9,4.61,1.89a28.142,28.142,0,0,0,5.259,1.35s.845-5.759,1.6-11.519a76.442,76.442,0,0,0,.314-18.089,93.3,93.3,0,0,1,.3-17.729c.38-2.969,1.925-8.189,2.072-12.149a27.741,27.741,0,0,0-1.647-8.819,29.867,29.867,0,0,1-10.244,1.89c-4.943-.18-6.253-1.26-6.253-1.26Z" fill="#212382"/><path d="M-207.709,1537.356s.829,1.042.376,1.562-1.3-.173-1.3-.173a4.189,4.189,0,0,0-.342,2.169c.228.868,2.029-.867,2.4-1.475a3.156,3.156,0,0,1,2.222-1.388c.69.086-.129,1.128-.849,1.822s-1.679,3.124-2.148,4.079a7.8,7.8,0,0,1-2.334,2.082l-1.062,8.439s7.19-10.558,7.568-10.992,1.869,2.242.813,5.351-3.141,12.511-3.586,12.8-10.248,5.279-13.286,5.279-1.04-7.014-1.04-7.014l6.482-12.995s-.995-3.558-.249-4.946,3.648-2.43,3.648-2.43S-209.486,1536.142-207.709,1537.356Z" fill="#fed2a3"/><path d="M-220.274,1559.9l2.656-5.324a4.414,4.414,0,0,0,3.121,3.588c1.425.579,3.659-1.157,3.659-1.157l.1-2.531s7.19-10.558,7.568-10.992,1.869,2.242.813,5.351-3.141,12.511-3.586,12.8-10.248,5.279-13.286,5.279S-220.274,1559.9-220.274,1559.9Z" fill="#4ebdf4"/><path d="M-195.2,1532.106s-6.618,6.168-7.328,7.489-2.539,11.383-3.891,18.723c-1.38,7.5-3.549,16.134-.419,17.181a29.274,29.274,0,0,0,7.269,1.34c4.066.22,11.168-2.552,11.168-2.552l4.242-19.273s-.484-9.643-1.169-11.956S-192.724,1533.648-195.2,1532.106Z" fill="#4ebdf4"/><path d="M-201.15,1526.8l6.529,7.532-7.418,5.261a12.148,12.148,0,0,0-2.281-2.476c-.759-.377-2.12-1.238-2.12-1.238s2.741-7.119,2.978-7.944.692-1.96.692-1.96Z" fill="#fed2a3"/><path d="M-203.794,1528.892l.965-1.14-.469,1.415s1.138,7.509.873,9.918a8.811,8.811,0,0,0-1.9-1.966c-.759-.377-2.12-1.238-2.12-1.238S-204.583,1531.057-203.794,1528.892Z" fill="#dd9766"/><path d="M-217.218,1525.171a3.1,3.1,0,0,1-1.474,1.582c-1.015.416-3.3-3-2.58-4.495a19.322,19.322,0,0,1,6.639-6.161c2.544-1.248,7.706-3.5,10.345-.582s2.662,6.743,3.158,9.074,1.319,2.58.878,3.246a1.547,1.547,0,0,1-2.577-.083c-.873-1.166-2.005.166-2.757.25s-1.362-1.416-1.964-.916a2.436,2.436,0,0,1-3.308-.583,13.371,13.371,0,0,1-1.211-3.246Z" fill="#180a61"/><path d="M-217.218,1525.171s1.22,3,1.6,3.83a7.174,7.174,0,0,0,1.6,1.831s-.3,3.5-.056,3.746a6.986,6.986,0,0,0,2.069.333s3.628,3.163,4.294,3.163a4.085,4.085,0,0,0,2.63-1.332c.527-.749,1.838-2.414,2.051-3.662a16.292,16.292,0,0,0-.27-3.913s1.671-.166,1.807-1.582-.545-3.246-1.375-3.329-1.755,2.414-1.755,2.414l-1.187.582s-.9-2.663-1.4-2.58-2.473,1.581-3.025.749-.233-4.912-.736-4.828S-217.218,1525.171-217.218,1525.171Z" fill="#fed2a3"/><path d="M-192.479,1532.987l-11.019,9.031.176-4.736,8.09-7.269Z" fill="#71caf6"/><path d="M-198.7,1540.592s5.684-7.627,9.3-4.212c1.7,1.6,9.29,16.211,10.836,19.074s4.065,6.168,2.58,7.6-12.423,11.233-12.423,11.233,1.391,1.1,1.244,2.093a12.2,12.2,0,0,1-.4,1.762l.167,1.432s-3.831,2.312-4.773.991-3.3-3.084-2.259-4.4a33.044,33.044,0,0,1,2.979-3.084l5.774-13.106-8.131-10.233" fill="#71caf6"/><path d="M-191.438,1573.076l3.954-8.975a8.245,8.245,0,0,0,5.091,4.789c-3.049,2.746-6.007,5.4-6.007,5.4s1.391,1.1,1.244,2.093a12.2,12.2,0,0,1-.4,1.762l.167,1.432s-3.831,2.312-4.773.991-3.3-3.084-2.259-4.4A33.044,33.044,0,0,1-191.438,1573.076Z" fill="#fed2a3"/><path d="M-189.495,1577.807c1-.116,1.781-.212,1.781-.212s.632-.958.984.231.164,1.982-.479,2.219-4.055,1.965-4.674.995c-.073-.114-1.15-1.6-1.221-1.716" fill="#fed2a3"/><path d="M-309.176,1493.418a15.158,15.158,0,0,0-15.158-15.158,15.159,15.159,0,0,0-15.159,15.158,15.159,15.159,0,0,0,15.159,15.159,15.232,15.232,0,0,0,2.971-.293l2.344,3.246,1.051-4.355A15.156,15.156,0,0,0-309.176,1493.418Z" fill="#a0a603"/><path d="M-329.332,1485.612a9.2,9.2,0,0,1,1.059-.764,8.293,8.293,0,0,1,1.231-.625,7.616,7.616,0,0,1,1.415-.421,8.359,8.359,0,0,1,1.639-.152,7.083,7.083,0,0,1,2.231.329,4.847,4.847,0,0,1,1.692.941,4.138,4.138,0,0,1,1.073,1.475,4.752,4.752,0,0,1,.375,1.915,4.894,4.894,0,0,1-.277,1.731,4.823,4.823,0,0,1-.7,1.27,5.369,5.369,0,0,1-.928.935q-.507.395-.961.73a7.55,7.55,0,0,0-.79.665,1.479,1.479,0,0,0-.428.737l-.369,1.843h-2.79l-.29-2.119a1.832,1.832,0,0,1,.132-1.126,3.019,3.019,0,0,1,.651-.868,7.714,7.714,0,0,1,.928-.738,8.857,8.857,0,0,0,.961-.75,4.145,4.145,0,0,0,.757-.9,2.175,2.175,0,0,0,.31-1.178,1.607,1.607,0,0,0-.52-1.257,2.059,2.059,0,0,0-1.429-.467,4.015,4.015,0,0,0-1.165.144,4.66,4.66,0,0,0-.8.323c-.224.118-.42.226-.586.322a.989.989,0,0,1-.5.145.906.906,0,0,1-.843-.487Zm2.422,15.361a2.192,2.192,0,0,1,.177-.882,2.231,2.231,0,0,1,.488-.711,2.319,2.319,0,0,1,.73-.48,2.337,2.337,0,0,1,.921-.178,2.306,2.306,0,0,1,.909.178,2.41,2.41,0,0,1,.737.48,2.185,2.185,0,0,1,.494.711,2.192,2.192,0,0,1,.177.882,2.244,2.244,0,0,1-.177.889,2.169,2.169,0,0,1-.494.717,2.308,2.308,0,0,1-.737.474,2.4,2.4,0,0,1-.909.171,2.427,2.427,0,0,1-.921-.171,2.224,2.224,0,0,1-.73-.474,2.214,2.214,0,0,1-.488-.717A2.244,2.244,0,0,1-326.91,1500.973Z" fill="#fff"/><path d="M-241.889,1496.43a18.17,18.17,0,0,0-18.17-18.17,18.17,18.17,0,0,0-18.17,18.17,18.17,18.17,0,0,0,18.17,18.17,18.255,18.255,0,0,0,3.562-.351l2.81,3.891,1.26-5.221A18.167,18.167,0,0,0-241.889,1496.43Z" fill="#356fa1"/><path d="M-266.216,1486.945A11.428,11.428,0,0,1-264.9,1486a10.369,10.369,0,0,1,1.524-.774,9.6,9.6,0,0,1,1.752-.521,10.345,10.345,0,0,1,2.029-.188,8.747,8.747,0,0,1,2.762.408,6,6,0,0,1,2.094,1.165,5.116,5.116,0,0,1,1.329,1.825,5.9,5.9,0,0,1,.464,2.371,6.061,6.061,0,0,1-.342,2.144,5.943,5.943,0,0,1-.864,1.572,6.622,6.622,0,0,1-1.149,1.157q-.627.489-1.19.905a9.262,9.262,0,0,0-.977.823,1.834,1.834,0,0,0-.53.912l-.456,2.282h-3.455l-.359-2.624a2.259,2.259,0,0,1,.163-1.393,3.742,3.742,0,0,1,.807-1.076,9.447,9.447,0,0,1,1.149-.912,11.306,11.306,0,0,0,1.189-.929,5.178,5.178,0,0,0,.937-1.108,2.687,2.687,0,0,0,.383-1.459,1.987,1.987,0,0,0-.643-1.556,2.55,2.55,0,0,0-1.768-.579,4.967,4.967,0,0,0-1.443.179,5.812,5.812,0,0,0-.994.4q-.416.219-.725.4a1.223,1.223,0,0,1-.619.179,1.121,1.121,0,0,1-1.043-.6Zm3,19.018a2.7,2.7,0,0,1,.22-1.092,2.782,2.782,0,0,1,.6-.88,2.882,2.882,0,0,1,.9-.595,2.919,2.919,0,0,1,1.141-.22,2.879,2.879,0,0,1,1.125.22,2.978,2.978,0,0,1,.912.595,2.693,2.693,0,0,1,.611.88,2.7,2.7,0,0,1,.22,1.092,2.757,2.757,0,0,1-.22,1.1,2.644,2.644,0,0,1-.611.888,2.851,2.851,0,0,1-.912.587,2.968,2.968,0,0,1-1.125.212,3.01,3.01,0,0,1-1.141-.212,2.762,2.762,0,0,1-.9-.587,2.729,2.729,0,0,1-.6-.888A2.757,2.757,0,0,1-263.217,1505.963Z" fill="#fff"/><path d="M-213.782,1495.022a12.309,12.309,0,0,1,12.308-12.308,12.308,12.308,0,0,1,12.308,12.308,12.307,12.307,0,0,1-12.308,12.308,12.285,12.285,0,0,1-2.412-.238l-1.9,2.636-.853-3.536A12.307,12.307,0,0,1-213.782,1495.022Z" fill="#a0a603"/><path d="M-205.788,1488.812a7.486,7.486,0,0,1,.87-.627,6.863,6.863,0,0,1,1.01-.513,6.388,6.388,0,0,1,1.161-.346,6.918,6.918,0,0,1,1.345-.124,5.8,5.8,0,0,1,1.83.27,3.954,3.954,0,0,1,1.388.773,3.388,3.388,0,0,1,.881,1.209,3.906,3.906,0,0,1,.307,1.572,4.018,4.018,0,0,1-.226,1.42,3.983,3.983,0,0,1-.573,1.042,4.355,4.355,0,0,1-.761.767c-.278.216-.54.416-.789.6a6.129,6.129,0,0,0-.648.545,1.218,1.218,0,0,0-.351.6l-.3,1.512h-2.29l-.238-1.739a1.5,1.5,0,0,1,.108-.923,2.469,2.469,0,0,1,.535-.713,6.394,6.394,0,0,1,.761-.6,7.436,7.436,0,0,0,.789-.616,3.4,3.4,0,0,0,.621-.734,1.785,1.785,0,0,0,.254-.967,1.318,1.318,0,0,0-.427-1.031,1.689,1.689,0,0,0-1.172-.384,3.285,3.285,0,0,0-.956.119,3.812,3.812,0,0,0-.659.265c-.183.1-.344.185-.48.264a.808.808,0,0,1-.411.119.743.743,0,0,1-.691-.4Zm1.988,12.6a1.793,1.793,0,0,1,.145-.723,1.856,1.856,0,0,1,.4-.584,1.924,1.924,0,0,1,.6-.394,1.927,1.927,0,0,1,.756-.146,1.9,1.9,0,0,1,.745.146,2.007,2.007,0,0,1,.605.394,1.791,1.791,0,0,1,.4.584,1.793,1.793,0,0,1,.146.723,1.837,1.837,0,0,1-.146.73,1.768,1.768,0,0,1-.4.588,1.887,1.887,0,0,1-.605.389,1.956,1.956,0,0,1-.745.141,1.98,1.98,0,0,1-.756-.141,1.812,1.812,0,0,1-.6-.389,1.831,1.831,0,0,1-.4-.588A1.837,1.837,0,0,1-203.8,1501.416Z" fill="#fff"/></g></svg>