<svg xmlns="http://www.w3.org/2000/svg" width="101" height="101" viewBox="0 0 101 101"><g transform="translate(-750 -2592)"><circle cx="50.5" cy="50.5" r="50.5" transform="translate(750 2592)" fill="#ecedcc"/><g transform="translate(119.542 2060.315)"><path d="M660.036,596.248h-15.26V573.734l2.243-3.159h10.42l2.6,3.159Z" fill="#e7ecf6"/><path d="M657.281,570.575v25.673h2.755V573.734Z" fill="#d8e2f1"/><path d="M717.964,607.835H641.5a1.011,1.011,0,0,1-1.011-1.011V598.63a2.382,2.382,0,0,1,2.383-2.382h73.722a2.382,2.382,0,0,1,2.383,2.382v8.194a1.011,1.011,0,0,1-1.011,1.011Z" fill="#365e7d"/><path d="M716.592,596.248h-3.4a2.382,2.382,0,0,1,2.383,2.382v9.205h2.388a1.011,1.011,0,0,0,1.01-1.011V598.63A2.381,2.381,0,0,0,716.592,596.248Z" fill="#2b4d66"/><path d="M658.787,552.534H646.025a1.249,1.249,0,0,0-1.249,1.249v19.951h15.26V553.783A1.249,1.249,0,0,0,658.787,552.534Z" fill="#80b4fb"/><path d="M658.787,552.534H656.1a1.249,1.249,0,0,1,1.249,1.249v19.951h2.689V553.783A1.249,1.249,0,0,0,658.787,552.534Z" fill="#61a2f9"/><path d="M714.686,596.248h-54.65V573.734h53.716a.934.934,0,0,1,.934.934Z" fill="#c3d5ef"/><path d="M713.752,573.734h-2.913a.934.934,0,0,1,.934.934v21.58h2.913v-21.58A.934.934,0,0,0,713.752,573.734Z" fill="#b7c8ea"/><path d="M708.724,569.74H660.036v3.994h52.083v-.6a3.4,3.4,0,0,0-3.4-3.394Z" fill="#365e7d"/><path d="M660.036,569.74h2.623v3.994h-2.623Z" fill="#2b4d66"/><path d="M708.724,569.74H705a3.4,3.4,0,0,1,3.394,3.4v.6h3.725v-.6A3.4,3.4,0,0,0,708.724,569.74Z" fill="#2b4d66"/><path d="M652.406,592.519a1.186,1.186,0,0,1-1.185-1.185v-6.96a1.185,1.185,0,1,1,2.369,0v6.96a1.185,1.185,0,0,1-1.184,1.185Z" fill="#365e7d"/><circle cx="2.755" cy="2.755" r="2.755" transform="translate(649.651 579.179)" fill="#df6b57"/><path d="M682.353,596.248H665.17V580.6a.568.568,0,0,1,.568-.568h16.047a.568.568,0,0,1,.568.568Z" fill="#e7ecf6"/><path d="M681.785,580.033h-2.853a.568.568,0,0,1,.568.568v15.647h2.853V580.6A.568.568,0,0,0,681.785,580.033Z" fill="#d8e2f1"/><circle cx="4.614" cy="4.614" r="4.614" transform="translate(686.656 582.806)" fill="#e7ecf6"/><path d="M691.27,582.806a4.583,4.583,0,0,0-1.328.195,4.614,4.614,0,0,1,0,8.837,4.614,4.614,0,1,0,1.328-9.032Z" fill="#d8e2f1"/><path d="M691.27,588.6a1.185,1.185,0,0,1-1.184-1.185v-4.613a1.184,1.184,0,1,1,2.368,0v4.613A1.185,1.185,0,0,1,691.27,588.6Z" fill="#df6b57"/><circle cx="4.614" cy="4.614" r="4.614" transform="translate(701.125 582.806)" fill="#e7ecf6"/><path d="M705.738,582.806a4.594,4.594,0,0,0-1.328.195,4.614,4.614,0,0,1,0,8.837,4.614,4.614,0,1,0,1.328-9.032Z" fill="#d8e2f1"/><path d="M705.738,588.6a1.185,1.185,0,0,1-.837-2.022l3.262-3.263a1.185,1.185,0,0,1,1.675,1.676l-3.262,3.262A1.183,1.183,0,0,1,705.738,588.6Z" fill="#df6b57"/><path d="M669.6,584.951h-.925a1.185,1.185,0,0,1,0-2.369h.925a1.185,1.185,0,0,1,0,2.369Z" fill="#2b4d66"/><path d="M674.224,584.951H673.3a1.185,1.185,0,0,1,0-2.369h.925a1.185,1.185,0,0,1,0,2.369Z" fill="#2b4d66"/><path d="M678.847,584.951h-.925a1.185,1.185,0,1,1,0-2.369h.925a1.185,1.185,0,0,1,0,2.369Z" fill="#2b4d66"/><path d="M669.6,589.325h-.925a1.185,1.185,0,0,1,0-2.369h.925a1.185,1.185,0,0,1,0,2.369Z" fill="#2b4d66"/><path d="M674.224,589.325H673.3a1.185,1.185,0,0,1,0-2.369h.925a1.185,1.185,0,0,1,0,2.369Z" fill="#2b4d66"/><path d="M678.847,589.325h-.925a1.185,1.185,0,1,1,0-2.369h.925a1.185,1.185,0,0,1,0,2.369Z" fill="#2b4d66"/><path d="M669.6,593.7h-.925a1.185,1.185,0,0,1,0-2.369h.925a1.185,1.185,0,0,1,0,2.369Z" fill="#2b4d66"/><path d="M674.224,593.7H673.3a1.185,1.185,0,0,1,0-2.369h.925a1.185,1.185,0,0,1,0,2.369Z" fill="#2b4d66"/><path d="M678.847,593.7h-.925a1.185,1.185,0,1,1,0-2.369h.925a1.185,1.185,0,0,1,0,2.369Z" fill="#2b4d66"/><path d="M655.095,559.224h-5.378a1.185,1.185,0,1,1,0-2.369h5.378a1.185,1.185,0,0,1,0,2.369Z" fill="#e7ecf6"/><path d="M655.095,563.542h-5.378a1.185,1.185,0,1,1,0-2.369h5.378a1.185,1.185,0,0,1,0,2.369Z" fill="#e7ecf6"/><path d="M655.095,567.86h-5.378a1.184,1.184,0,1,1,0-2.368h5.378a1.184,1.184,0,1,1,0,2.368Z" fill="#e7ecf6"/><path d="M653.775,592.519h-2.738a1.184,1.184,0,0,1,0-2.369h2.738a1.184,1.184,0,0,1,0,2.369Z" fill="#2b4d66"/></g><g transform="translate(95.391 2057.055)"><g transform="translate(687.37 550.447)"><path d="M689.216,550.447h4.35v1.969h-4.35Z" transform="translate(-687.138 -550.447)" fill="#6d6d93"/><path d="M693.635,552.156h-4.866v1.74h5.4v-1.74Z" transform="translate(-687.194 -550.233)" fill="#baabd4"/><path d="M701.5,557.827l-6.269-3.934a1.548,1.548,0,0,0-.828-.232h-5.468a1.534,1.534,0,0,0-1.546,1.522v15.729a1.549,1.549,0,0,0,1.533,1.565h11.755a1.55,1.55,0,0,0,1.546-1.552V559.152a1.561,1.561,0,0,0-.722-1.326Zm-1.613,9.442a.22.22,0,0,1-.211.218h-1.887a.2.2,0,0,1-.191-.218v-8.26a.2.2,0,0,1,.2-.208.205.205,0,0,1,.093.019l1.885.9a.205.205,0,0,1,.116.188Z" transform="translate(-687.367 -550.044)" fill="#f6f6f6"/><path d="M688.759,570.913v-15.7a1.535,1.535,0,0,1,1.521-1.548h-1.348a1.534,1.534,0,0,0-1.546,1.522v15.729a1.549,1.549,0,0,0,1.533,1.565H690.3a1.55,1.55,0,0,1-1.546-1.552Z" transform="translate(-687.367 -550.044)" fill="#e8e8e8"/><path d="M687.369,566.815V558.3h.012l4.8,0,0,8.516-4.8,0Z" transform="translate(-687.369 -549.463)" fill="#b3d1e7"/><path d="M687.386,558.3v8.516h1.373V558.3Z" transform="translate(-687.367 -549.463)" fill="#9bb8c9"/></g><g transform="translate(687.361 559.315)"><g transform="translate(0 2.482)"><path d="M690.014,563.466h-2.653v.549h2.653a.275.275,0,0,0,0-.55Z" transform="translate(-687.361 -560.167)" fill="#77919e"/><path d="M690.014,562l-2.653,0v.548h2.653a.277.277,0,1,0,0-.554Z" transform="translate(-687.361 -560.351)" fill="#77919e"/><path d="M690.014,561.087a.283.283,0,0,0,.275-.284.269.269,0,0,0-.271-.269h0l-2.653,0v.548Z" transform="translate(-687.361 -560.534)" fill="#77919e"/></g><g transform="translate(5.672)"><path d="M692.677,559a.274.274,0,0,1-.275-.275V558.6a.275.275,0,1,1,.549,0v.123A.274.274,0,0,1,692.677,559Z" transform="translate(-692.402 -558.328)" fill="#f4f8fc"/></g><g transform="translate(5.672 1.011)"><path d="M692.677,564.661a.275.275,0,0,1-.275-.275V559.5a.275.275,0,0,1,.549,0v4.886A.275.275,0,0,1,692.677,564.661Z" transform="translate(-692.402 -559.226)" fill="#f4f8fc"/></g></g></g></g></svg>