<svg xmlns="http://www.w3.org/2000/svg" xmlns:xlink="http://www.w3.org/1999/xlink" width="294" height="199" viewBox="0 0 294 199"><defs><linearGradient id="a" x1="-1099.953" y1="-6.447" x2="-1107.953" y2="-5.588" gradientUnits="objectBoundingBox"><stop offset="0" stop-color="#09005d"/><stop offset="1" stop-color="#1a0f91"/></linearGradient><linearGradient id="b" x1="-143.052" y1="-35.158" x2="-143.373" y2="-31.711" xlink:href="#a"/><linearGradient id="c" x1="1273.244" y1="-15.577" x2="1270.406" y2="-9.188" xlink:href="#a"/><linearGradient id="d" x1="5083.675" y1="-28.102" x2="5084.683" y2="-28.102" gradientUnits="objectBoundingBox"><stop offset="0" stop-color="#febbba"/><stop offset="1" stop-color="#ff928e"/></linearGradient><linearGradient id="e" x1="1591.702" y1="-1.874" x2="1588.685" y2="-1.019" xlink:href="#a"/><linearGradient id="f" x1="3150.089" y1="-20.071" x2="3143.07" y2="-12.506" xlink:href="#a"/><linearGradient id="g" x1="5926.165" y1="-21.319" x2="5927.179" y2="-21.319" xlink:href="#d"/><linearGradient id="h" x1="1064.635" y1="-1.913" x2="1062.618" y2="-1.071" xlink:href="#a"/><linearGradient id="i" x1="981.592" y1="-4.362" x2="982.585" y2="-4.362" xlink:href="#d"/><linearGradient id="j" x1="-1231.813" y1="-8.496" x2="-1229.833" y2="-5.813" xlink:href="#d"/><linearGradient id="k" x1="7061.071" y1="-22.792" x2="7063.073" y2="-24.572" xlink:href="#d"/><linearGradient id="l" x1="782.122" y1="-8.189" x2="783.124" y2="-8.189" xlink:href="#d"/><linearGradient id="m" x1="-0.104" y1="1.691" x2="0.844" y2="-0.028" xlink:href="#d"/><linearGradient id="n" x1="433.983" y1="780.307" x2="433.659" y2="779.241" xlink:href="#d"/><linearGradient id="o" x1="327.684" y1="597.764" x2="327.889" y2="598.947" xlink:href="#a"/><linearGradient id="p" x1="1410.796" y1="3751.62" x2="1409.849" y2="3747.008" xlink:href="#d"/><linearGradient id="q" x1="710.781" y1="-0.062" x2="711.295" y2="2.428" xlink:href="#a"/><linearGradient id="r" x1="2442.802" y1="0.5" x2="2443.802" y2="0.5" xlink:href="#d"/><linearGradient id="s" x1="324.604" y1="6.846" x2="323.51" y2="8.048" xlink:href="#d"/><linearGradient id="t" x1="-417.945" y1="54.629" x2="-418.557" y2="55.249" xlink:href="#a"/><linearGradient id="u" x1="-1884.327" y1="166.512" x2="-1884.102" y2="165.603" xlink:href="#d"/><linearGradient id="v" x1="-1086.876" y1="139.813" x2="-1085.667" y2="140.976" xlink:href="#d"/><linearGradient id="w" x1="-1285.439" y1="166.9" x2="-1287.32" y2="168.805" xlink:href="#a"/><linearGradient id="x" x1="-3035.553" y1="516.405" x2="-3032.177" y2="520.724" xlink:href="#d"/><linearGradient id="y" x1="351.228" y1="1.473" x2="352.629" y2="0.336" xlink:href="#d"/><linearGradient id="z" x1="852.324" y1="1.185" x2="853.319" y2="1.185" xlink:href="#a"/><linearGradient id="aa" x1="655.522" y1="0.593" x2="651.625" y2="0.923" xlink:href="#d"/><linearGradient id="ab" x1="714.853" y1="1.307" x2="715.846" y2="1.307" xlink:href="#a"/><linearGradient id="ac" x1="1.969" y1="-0.231" x2="0.935" y2="0.314" xlink:href="#a"/><linearGradient id="ad" x1="440.945" y1="7.928" x2="443.915" y2="5.751" xlink:href="#d"/><linearGradient id="ae" x1="9.893" y1="13.958" x2="9.484" y2="15.076" xlink:href="#a"/><linearGradient id="af" x1="23.606" y1="23.261" x2="24.735" y2="23.261" xlink:href="#d"/><linearGradient id="ag" x1="3.344" y1="4.55" x2="4.036" y2="3.639" xlink:href="#a"/><linearGradient id="ah" x1="8.542" y1="19.675" x2="7.301" y2="23.147" xlink:href="#a"/><linearGradient id="ai" x1="7.77" y1="32.467" x2="8.704" y2="32.467" gradientUnits="objectBoundingBox"><stop offset="0" stop-color="#4f52ff"/><stop offset="1" stop-color="#4042e2"/></linearGradient><linearGradient id="aj" x1="18.971" y1="24.49" x2="19.873" y2="24.49" xlink:href="#d"/><linearGradient id="ak" x1="2.287" y1="4.049" x2="2.318" y2="3.071" xlink:href="#a"/><linearGradient id="al" x1="8.077" y1="12.55" x2="9.07" y2="12.55" xlink:href="#d"/><linearGradient id="am" x1="8.686" y1="13.024" x2="9.805" y2="13.024" xlink:href="#d"/><linearGradient id="an" x1="38.115" y1="-12.617" x2="36.871" y2="-5.801" xlink:href="#d"/><linearGradient id="ao" x1="-86.998" y1="-156.045" x2="-88.095" y2="-154.731" xlink:href="#d"/><linearGradient id="ap" x1="-97.181" y1="-154.793" x2="-95.906" y2="-154.793" xlink:href="#a"/><linearGradient id="aq" x1="-277.908" y1="-578.863" x2="-275.488" y2="-581.539" xlink:href="#d"/><linearGradient id="ar" x1="516.378" y1="378.923" x2="515.638" y2="381.36" xlink:href="#a"/><linearGradient id="as" x1="399.134" y1="0.134" x2="398.734" y2="0.8" xlink:href="#a"/></defs><g transform="translate(410.966 -1685.142)"><path d="M0,0H294V199H0Z" transform="translate(-410.966 1685.142)" fill="none"/><path d="M-363.492,1854.9s-18.522-7.7-20.6-16,14.761-5.491,27.627,11.408c0,0-19.006-31.869-7.178-34.179s18.24,31.126,18.24,31.126,3.342-16.441,11.071-15.636,3.243,13.472-9.518,23.28Z" fill="#ecedcc"/><path d="M-350.379,1853.6a96.113,96.113,0,0,0-13.736-36.479" fill="#ecedcc"/><path d="M-356.462,1853.111s-16.85-8.169-24.439-18.106" fill="#ecedcc"/><path d="M-334.329,1833.808s-5.726,16.7-14.057,19.3" fill="#ecedcc"/><path d="M-280.684,1849.244s-26.378,1.948-40.832-.921c-8.358-1.66-12.013-7.063-1.033-9.225,5.532-1.089,16.071-9.979-5.472-12.741-18.791-2.409-20.774-16.118-4.1-15.84,3.918.065-1.485-2.473-6.264-11.34-3.677-6.822-3.044-17.608,3.169-20.682,13.1-6.479,12.75,18.119,18.1,19.272,5.136,1.108,7.112-12.746,14.259-11.034,9.335,2.237-5.812,28.523-3.952,30.871,3.967,5.005,11.377-19.777,18.334-17.784S-303.286,1843.114-280.684,1849.244Z" fill="#ecedcc"/><path d="M-287.273,1848.1c-14.331-5.727-12.372-16.342-29-30.326-13.75-11.562-17.381-24.669-16.272-39.677" fill="#ecedcc"/><path d="M-249.946,1848.406s18.522-7.7,20.6-16-13.79-7.377-26.656,9.522c0,0,19.227-28.655,7.4-30.965s-19.433,29.8-19.433,29.8-3.342-16.442-11.071-15.637-3.244,13.472,9.518,23.281Z" fill="#ecedcc"/><path d="M-263.059,1847.1s3.153-20.084,14.928-35.15" fill="#ecedcc"/><path d="M-256.976,1846.619s15.215-13.827,24.439-16.377" fill="#ecedcc"/><path d="M-279.109,1827.316s5.726,16.7,14.057,19.3" fill="#ecedcc"/><path d="M-207.339,1845.559s26.378,1.949,40.832-.921c8.358-1.659,12.013-7.062,1.033-9.224-5.532-1.089-14.795-4.932,5.472-12.741,16.929-6.523,19.182-17.623,3.041-13.414-8.365,2.182,2.54-4.9,7.319-13.766,3.677-6.822,3.044-17.608-3.169-20.682-13.1-6.479-15.456,22.782-20.8,23.935-5.135,1.108.728-18.978-8.5-16.327s3.4,25.623.9,31.5-4.123-20.158-11.079-18.165S-184.737,1839.429-207.339,1845.559Z" fill="#ecedcc"/><path d="M-200.75,1844.419c14.331-5.727,12.372-16.342,29-30.326,13.75-11.562,18.693-21.521,17.584-36.529" fill="#ecedcc"/><circle cx="62.285" cy="62.285" r="62.285" transform="translate(-346.977 1836.079) rotate(-80.235)" fill="#bdd0fb"/><circle cx="53.158" cy="53.158" r="53.158" transform="translate(-328.188 1732.103)" fill="#bdf"/><path d="M-275.031,1841.08a55.883,55.883,0,0,1-55.82-55.82,55.883,55.883,0,0,1,55.82-55.82,55.883,55.883,0,0,1,55.82,55.82A55.883,55.883,0,0,1-275.031,1841.08Zm0-108.978a53.218,53.218,0,0,0-53.157,53.158,53.218,53.218,0,0,0,53.157,53.158,53.218,53.218,0,0,0,53.157-53.158A53.218,53.218,0,0,0-275.031,1732.1Z" fill="#fff"/><circle cx="32.407" cy="32.407" r="32.407" transform="translate(-314.017 1809.355) rotate(-76.717)" fill="#71a5cc"/><path d="M-275.031,1820.33a35.11,35.11,0,0,1-35.07-35.07,35.11,35.11,0,0,1,35.07-35.07,35.109,35.109,0,0,1,35.07,35.07A35.109,35.109,0,0,1-275.031,1820.33Zm0-64.815a29.779,29.779,0,0,0-29.745,29.745,29.779,29.779,0,0,0,29.745,29.745,29.779,29.779,0,0,0,29.745-29.745A29.779,29.779,0,0,0-275.031,1755.515Z" fill="#fff"/><circle cx="12.556" cy="12.556" r="12.556" transform="translate(-290.135 1794.595) rotate(-76.717)" fill="#a0a603"/><path d="M-275.031,1800.478a15.235,15.235,0,0,1-15.218-15.218,15.236,15.236,0,0,1,15.218-15.218,15.236,15.236,0,0,1,15.218,15.218A15.235,15.235,0,0,1-275.031,1800.478Zm0-25.111a9.9,9.9,0,0,0-9.893,9.893,9.9,9.9,0,0,0,9.893,9.893,9.9,9.9,0,0,0,9.893-9.893A9.9,9.9,0,0,0-275.031,1775.367Z" fill="#fff"/><rect width="1.87" height="70.821" transform="matrix(-0.707, -0.707, 0.707, -0.707, -264.355, 1777.391)" fill="url(#a)"/><path d="M-264.742,1772.877c.759-.759,4.336,2.818,3.577,3.577l-13.266,10.429a.527.527,0,0,1-.74-.74Z" fill="url(#b)"/><path d="M-214.306,1727.341l6.737.67-9.249,9.248a14.294,14.294,0,0,1-11.524,4.118h0Z" fill="#91b3fa"/><path d="M-215.629,1726.019l-.67-6.737-9.248,9.248a14.3,14.3,0,0,0-4.118,11.525h0Z" fill="#91b3fa"/><g opacity="0.3"><path d="M-308.084,1716.693a.481.481,0,0,1-.681,0c-.366-.366-.753-.721-1.15-1.056a.482.482,0,0,1-.064-.672l.006-.007a.482.482,0,0,1,.679-.058c.418.353.826.727,1.21,1.112a.482.482,0,0,1,.034.644A.393.393,0,0,1-308.084,1716.693Zm-3.878-2.554c-.439-.278-.894-.539-1.353-.777a.481.481,0,0,1-.206-.65.483.483,0,0,1,.65-.206c.482.251.962.526,1.424.818a.482.482,0,0,1,.15.665c-.01.016-.022.032-.033.047A.483.483,0,0,1-311.962,1714.139Zm-3.679-1.785c-.489-.172-.991-.326-1.493-.455a.484.484,0,0,1-.346-.588.484.484,0,0,1,.588-.346c.528.137,1.057.3,1.571.48a.483.483,0,0,1,.3.615.512.512,0,0,1-.08.143A.482.482,0,0,1-315.641,1712.354Zm-3.987-.917c-.515-.059-1.039-.1-1.557-.111a.481.481,0,0,1-.468-.495.482.482,0,0,1,.5-.468c.546.015,1.1.054,1.64.116a.482.482,0,0,1,.424.533.48.48,0,0,1-.1.249A.486.486,0,0,1-319.628,1711.437Zm-4.091-.007c-.514.057-1.034.137-1.543.237a.481.481,0,0,1-.566-.379.481.481,0,0,1,.379-.566c.537-.106,1.083-.19,1.624-.25a.482.482,0,0,1,.532.426.483.483,0,0,1-.1.357A.48.48,0,0,1-323.719,1711.43Zm-3.99.9c-.49.17-.979.362-1.453.573a.482.482,0,0,1-.636-.245.482.482,0,0,1,.245-.636c.5-.222,1.013-.424,1.528-.6a.482.482,0,0,1,.613.3.483.483,0,0,1-.081.462A.479.479,0,0,1-327.709,1712.329ZM-340,1725.335a.482.482,0,0,1-.345-.588c.137-.527.3-1.056.482-1.571a.482.482,0,0,1,.616-.293.481.481,0,0,1,.293.615c-.174.489-.328.991-.458,1.492a.475.475,0,0,1-.092.182A.479.479,0,0,1-340,1725.335Zm8.6-11.246c-.44.274-.873.571-1.287.882a.483.483,0,0,1-.675-.1.483.483,0,0,1,.1-.675c.437-.327.893-.639,1.356-.928a.483.483,0,0,1,.664.154.484.484,0,0,1-.035.559A.5.5,0,0,1-331.4,1714.089Zm-7.2,7.289a.482.482,0,0,1-.2-.65c.252-.483.528-.962.821-1.423a.48.48,0,0,1,.665-.149.482.482,0,0,1,.149.665c-.278.438-.541.893-.781,1.353a.49.49,0,0,1-.053.081A.482.482,0,0,1-338.594,1721.378Zm3.991-4.749c-.367.366-.723.752-1.058,1.148a.482.482,0,0,1-.679.056.481.481,0,0,1-.063-.671l.006-.008c.353-.417.728-.823,1.114-1.208a.483.483,0,0,1,.682,0,.482.482,0,0,1,.033.643C-334.579,1716.6-334.591,1716.617-334.6,1716.629Z" fill="#91b3fa"/><path d="M-340.059,1728.511a.483.483,0,0,0,.106-.268c.018-.248.042-.5.07-.747a.481.481,0,0,0-.424-.534.48.48,0,0,0-.533.424c-.03.261-.055.526-.075.786a.482.482,0,0,0,.446.516A.48.48,0,0,0-340.059,1728.511Z" fill="#91b3fa"/></g><g opacity="0.3"><path d="M-335.332,1742.423a.483.483,0,0,0-.016-.625c-.166-.185-.331-.377-.49-.569a.481.481,0,0,0-.678-.066.482.482,0,0,0-.065.679c.167.2.341.4.515.6a.482.482,0,0,0,.681.038A.673.673,0,0,0-335.332,1742.423Z" fill="#91b3fa"/><path d="M-307.391,1742.465a.482.482,0,0,1-.681.038.482.482,0,0,1-.037-.681c.338-.377.665-.775.976-1.186a.482.482,0,0,1,.675-.094.483.483,0,0,1,.094.675q-.2.268-.412.526C-306.975,1741.989-307.182,1742.232-307.391,1742.465Zm1.809-3.261a.482.482,0,0,1-.184-.656c.251-.446.485-.906.7-1.37a.482.482,0,0,1,.639-.238.481.481,0,0,1,.238.638c-.222.488-.469.973-.732,1.442a.553.553,0,0,1-.047.068A.481.481,0,0,1-305.582,1739.2Zm-3.691,5.093c-.409.347-.838.681-1.277.993a.482.482,0,0,1-.672-.113.483.483,0,0,1,.113-.672c.416-.3.824-.613,1.212-.943a.483.483,0,0,1,.68.056.483.483,0,0,1,.007.615A.549.549,0,0,1-309.273,1744.3Zm5.4-8.854a.481.481,0,0,1-.323-.6c.146-.489.273-.99.377-1.489a.481.481,0,0,1,.57-.373.482.482,0,0,1,.374.57c-.11.526-.244,1.053-.4,1.568a.474.474,0,0,1-.087.165A.484.484,0,0,1-303.869,1735.443Zm-8.918,11.219c-.475.248-.967.479-1.463.687a.481.481,0,0,1-.63-.257.481.481,0,0,1,.257-.631c.471-.2.939-.418,1.39-.653a.481.481,0,0,1,.65.2.479.479,0,0,1-.053.526A.483.483,0,0,1-312.787,1746.662Zm-3.947,1.536c-.519.139-1.049.258-1.577.353a.483.483,0,0,1-.56-.39.481.481,0,0,1,.389-.559c.5-.09,1.006-.2,1.5-.335a.482.482,0,0,1,.59.342.479.479,0,0,1-.091.428A.48.48,0,0,1-316.734,1748.2Zm-4.188.641c-.537.022-1.081.022-1.617,0a.482.482,0,0,1-.461-.5.482.482,0,0,1,.5-.461c.51.021,1.026.021,1.537,0a.48.48,0,0,1,.5.461.471.471,0,0,1-.107.323A.479.479,0,0,1-320.922,1748.839Zm-4.228-.289c-.529-.1-1.06-.215-1.578-.355a.481.481,0,0,1-.34-.59.482.482,0,0,1,.591-.34c.492.132,1,.246,1.5.336a.483.483,0,0,1,.388.56.476.476,0,0,1-.1.218A.483.483,0,0,1-325.15,1748.55Zm-4.063-1.212c-.494-.209-.985-.442-1.461-.693a.482.482,0,0,1-.2-.651.482.482,0,0,1,.651-.2c.451.238.918.459,1.387.658a.482.482,0,0,1,.256.632.479.479,0,0,1-.07.115A.481.481,0,0,1-329.213,1747.338Zm-3.695-2.072c-.321-.229-.639-.472-.946-.72-.111-.09-.22-.181-.329-.273a.476.476,0,0,1-.056-.679.482.482,0,0,1,.679-.056c.1.087.208.174.313.259.291.236.594.467.9.685a.483.483,0,0,1,.112.672l-.018.024A.483.483,0,0,1-332.908,1745.266Z" fill="#91b3fa"/><path d="M-302.617,1731.207a.485.485,0,0,0,.106-.27c.018-.261.031-.526.038-.79a.482.482,0,0,0-.469-.495.482.482,0,0,0-.5.469c-.006.25-.019.5-.036.749a.482.482,0,0,0,.448.514A.485.485,0,0,0-302.617,1731.207Z" fill="#91b3fa"/></g><path d="M-308.038,1724.972a.228.228,0,0,0-.192-.178l-2.72-.347a11.929,11.929,0,0,0-2.176-3.2l.673-2.655a.224.224,0,0,0-.1-.244l-2.75-1.8a.224.224,0,0,0-.261.01l-2.167,1.676a11.946,11.946,0,0,0-3.8-.72l-1.4-2.355a.227.227,0,0,0-.24-.106l-3.219.67a.228.228,0,0,0-.178.192l-.347,2.719a11.96,11.96,0,0,0-3.2,2.177l-2.655-.673a.226.226,0,0,0-.244.094l-1.8,2.75a.225.225,0,0,0,.01.262l1.677,2.167a11.911,11.911,0,0,0-.721,3.8l-2.355,1.4a.225.225,0,0,0-.106.239l.67,3.22a.225.225,0,0,0,.192.177l2.719.347a11.944,11.944,0,0,0,2.177,3.2l-.673,2.656a.225.225,0,0,0,.094.244l2.75,1.8a.227.227,0,0,0,.262-.011l2.167-1.676a11.941,11.941,0,0,0,3.8.721l1.4,2.355a.225.225,0,0,0,.239.1l3.22-.669a.225.225,0,0,0,.177-.192l.347-2.72a11.917,11.917,0,0,0,3.2-2.176l2.656.673a.224.224,0,0,0,.244-.095l1.8-2.75a.226.226,0,0,0-.011-.261l-1.676-2.167a11.95,11.95,0,0,0,.721-3.8l2.355-1.4a.226.226,0,0,0,.105-.24Z" fill="#91b3fa"/><path d="M-319.6,1731.956a3.309,3.309,0,0,1-4.67-.2,3.287,3.287,0,0,1-.869-2.376,3.286,3.286,0,0,1,1.066-2.294,3.31,3.31,0,0,1,4.671.2,3.311,3.311,0,0,1,.135,4.317A3.477,3.477,0,0,1-319.6,1731.956Zm-4.768-2.541a2.518,2.518,0,0,0,.666,1.822,2.539,2.539,0,0,0,3.581.151,2.538,2.538,0,0,0,.151-3.581,2.537,2.537,0,0,0-3.581-.151,2.54,2.54,0,0,0-.257.274A2.507,2.507,0,0,0-324.371,1729.415Z" fill="#bdd0fb"/><path d="M-315.6,1734.661q.261-.322.492-.674h0c.049-.074.1-.149.142-.224a8.215,8.215,0,0,0,.588-1.161l.007-.017.018-.046.036-.091a.192.192,0,0,0-.058-.219.2.2,0,0,0-.053-.031.194.194,0,0,0-.249.111,7.784,7.784,0,0,1-.753,1.466,7.74,7.74,0,0,1-6.586,3.494,7.7,7.7,0,0,1-4.133-1.264q-.336-.22-.644-.47a7.68,7.68,0,0,1-2.691-4.428,7.689,7.689,0,0,1,1.105-5.821,7.749,7.749,0,0,1,10.719-2.23,7.619,7.619,0,0,1,.635.464,7.712,7.712,0,0,1,2.088,2.633.19.19,0,0,0,.052.066.2.2,0,0,0,.206.024.194.194,0,0,0,.089-.258,8.093,8.093,0,0,0-2.192-2.764,8,8,0,0,0-.666-.487,8.136,8.136,0,0,0-11.253,2.34,8.072,8.072,0,0,0-1.161,6.111,8.064,8.064,0,0,0,2.826,4.649,8.331,8.331,0,0,0,.675.493,8.072,8.072,0,0,0,6.111,1.16A8.062,8.062,0,0,0-315.6,1734.661Z" fill="#bdd0fb"/><g opacity="0.3"><path d="M-287.827,1711.879a.3.3,0,0,0,.013-.356c-.143-.208-.3-.415-.451-.614a.3.3,0,0,0-.417-.051.3.3,0,0,0-.051.418c.148.19.293.387.43.585a.3.3,0,0,0,.414.076A.311.311,0,0,0-287.827,1711.879Z" fill="#91b3fa"/><path d="M-289.315,1710.145a.3.3,0,0,1-.421,0,12.438,12.438,0,0,0-.929-.835c-.068-.055-.137-.11-.207-.164a.3.3,0,0,1-.052-.417.308.308,0,0,1,.418-.053l.216.172a12.775,12.775,0,0,1,.973.875.3.3,0,0,1,.022.4Zm-2.8-1.85a12.25,12.25,0,0,0-1.342-.694.3.3,0,0,1-.153-.393.3.3,0,0,1,.393-.152,12.98,12.98,0,0,1,1.407.727.3.3,0,0,1,.1.409c-.007.012-.016.024-.024.035A.3.3,0,0,1-292.12,1708.3Zm-2.761-1.217a12.313,12.313,0,0,0-1.472-.343.3.3,0,0,1-.244-.343.3.3,0,0,1,.342-.244,12.968,12.968,0,0,1,1.545.36.3.3,0,0,1,.2.37.32.32,0,0,1-.054.1A.3.3,0,0,1-294.881,1707.078Zm-2.976-.5a12.283,12.283,0,0,0-1.511.028.3.3,0,0,1-.32-.273.3.3,0,0,1,.272-.32,13.078,13.078,0,0,1,1.585-.03.3.3,0,0,1,.285.311.3.3,0,0,1-.066.174A.3.3,0,0,1-297.857,1706.577Zm-3.007.241a12.345,12.345,0,0,0-1.459.394.3.3,0,0,1-.378-.187.3.3,0,0,1,.188-.377,12.963,12.963,0,0,1,1.529-.413.3.3,0,0,1,.351.231.3.3,0,0,1-.06.248A.3.3,0,0,1-300.864,1706.818Zm-2.859.963a12.2,12.2,0,0,0-1.317.738.3.3,0,0,1-.412-.089.3.3,0,0,1,.089-.412,12.82,12.82,0,0,1,1.382-.773.3.3,0,0,1,.4.139.3.3,0,0,1-.038.317A.281.281,0,0,1-303.723,1707.781Zm-2.534,1.633a12.092,12.092,0,0,0-1.1,1.039.3.3,0,0,1-.421.015.3.3,0,0,1-.015-.421,13,13,0,0,1,1.151-1.09.3.3,0,0,1,.419.038.3.3,0,0,1,0,.378A.261.261,0,0,1-306.257,1709.414Zm-3.275,3.6a.3.3,0,0,1-.116-.4,12.911,12.911,0,0,1,.73-1.167c.04-.057.08-.114.121-.17a.3.3,0,0,1,.416-.065.3.3,0,0,1,.066.416c-.039.052-.077.106-.115.16a12.373,12.373,0,0,0-.7,1.114.277.277,0,0,1-.03.044A.3.3,0,0,1-309.532,1713.012Z" fill="#91b3fa"/></g><g opacity="0.3"><path d="M-288.524,1727.062a12.869,12.869,0,0,1-1.067,1.135.3.3,0,0,1-.421-.012.3.3,0,0,1,.012-.421,12.429,12.429,0,0,0,1.019-1.083.3.3,0,0,1,.419-.038.3.3,0,0,1,.041.416Zm.512-1.168a.3.3,0,0,1-.088-.411,12.219,12.219,0,0,0,.731-1.3.3.3,0,0,1,.4-.137.3.3,0,0,1,.137.4,13.319,13.319,0,0,1-.767,1.357l-.019.026A.3.3,0,0,1-288.012,1725.894Zm-2.778,3.3a12.9,12.9,0,0,1-1.31.844.3.3,0,0,1-.406-.114.3.3,0,0,1,.114-.406,12.369,12.369,0,0,0,1.25-.8.3.3,0,0,1,.416.064.3.3,0,0,1-.008.363A.312.312,0,0,1-290.79,1729.195Zm4.175-6a.3.3,0,0,1-.184-.379,12.4,12.4,0,0,0,.4-1.433.3.3,0,0,1,.353-.229.3.3,0,0,1,.229.353,12.633,12.633,0,0,1-.417,1.5.279.279,0,0,1-.05.091A.3.3,0,0,1-286.615,1723.193Zm-6.888,7.523a12.929,12.929,0,0,1-1.475.5.3.3,0,0,1-.366-.208.3.3,0,0,1,.208-.366,12.211,12.211,0,0,0,1.407-.481.3.3,0,0,1,.388.163.3.3,0,0,1-.044.3A.288.288,0,0,1-293.5,1730.716Zm-3,.827a13.044,13.044,0,0,1-1.553.136.3.3,0,0,1-.306-.289.3.3,0,0,1,.29-.306,12.5,12.5,0,0,0,1.481-.13.3.3,0,0,1,.338.25.3.3,0,0,1-.063.232A.3.3,0,0,1-296.5,1731.543Zm-3.112.084a13.039,13.039,0,0,1-1.54-.24.3.3,0,0,1-.227-.355.3.3,0,0,1,.354-.227,12.107,12.107,0,0,0,1.469.229.3.3,0,0,1,.268.324.3.3,0,0,1-.064.16A.3.3,0,0,1-299.614,1731.627Z" fill="#91b3fa"/><path d="M-285.653,1720.11a.292.292,0,0,0,.065-.161c.022-.254.037-.51.043-.76a.3.3,0,0,0-.289-.306.3.3,0,0,0-.306.29c-.006.238-.02.482-.041.725a.3.3,0,0,0,.271.322A.3.3,0,0,0-285.653,1720.11Z" fill="#91b3fa"/></g><path d="M-289.244,1715.727a.151.151,0,0,0-.128-.119l-1.82-.233a8.016,8.016,0,0,0-1.456-2.14l.45-1.777a.151.151,0,0,0-.063-.163l-1.841-1.207a.15.15,0,0,0-.174.007l-1.451,1.122a7.961,7.961,0,0,0-2.543-.482l-.939-1.576a.15.15,0,0,0-.16-.071l-2.154.448a.151.151,0,0,0-.119.129l-.232,1.819a8.006,8.006,0,0,0-2.141,1.457l-1.777-.451a.152.152,0,0,0-.163.064l-1.207,1.84a.152.152,0,0,0,.007.175l1.122,1.45a7.965,7.965,0,0,0-.482,2.544l-1.576.938a.15.15,0,0,0-.071.16l.448,2.155a.152.152,0,0,0,.129.119l1.82.232a7.962,7.962,0,0,0,1.456,2.14l-.451,1.777a.153.153,0,0,0,.064.164l1.84,1.206a.15.15,0,0,0,.175-.007l1.45-1.122a7.989,7.989,0,0,0,2.544.483l.938,1.576a.151.151,0,0,0,.16.07l2.155-.448a.152.152,0,0,0,.119-.128l.232-1.82a7.984,7.984,0,0,0,2.14-1.456l1.777.45a.153.153,0,0,0,.164-.063l1.206-1.841a.149.149,0,0,0-.007-.174l-1.121-1.451a8.018,8.018,0,0,0,.482-2.543l1.576-.939a.151.151,0,0,0,.07-.16Z" fill="#91b3fa"/><path d="M-296.955,1720.429a2.239,2.239,0,0,1-1.619.592,2.239,2.239,0,0,1-1.563-.726,2.255,2.255,0,0,1,.135-3.182,2.254,2.254,0,0,1,3.181.135,2.235,2.235,0,0,1,.592,1.618,2.234,2.234,0,0,1-.5,1.32A2.365,2.365,0,0,1-296.955,1720.429Zm-2.743-.537a1.644,1.644,0,0,0,1.149.534,1.647,1.647,0,0,0,1.191-.435h0a1.652,1.652,0,0,0,.534-1.15,1.643,1.643,0,0,0-.435-1.19,1.657,1.657,0,0,0-2.34-.1,1.546,1.546,0,0,0-.167.177A1.66,1.66,0,0,0-299.7,1719.892Z" fill="#bdd0fb"/><path d="M-294.172,1722.312c.118-.147.23-.3.336-.461a5.707,5.707,0,0,0,.527-1.014l.018-.047a.3.3,0,0,0-.09-.339.286.286,0,0,0-.08-.046.3.3,0,0,0-.385.17,5.046,5.046,0,0,1-.488.95h0l-.032.049a4.976,4.976,0,0,1-1.825,1.641,5.044,5.044,0,0,1-1.269.459l-.011,0-.034.007a4.98,4.98,0,0,1-3.768-.716,5.042,5.042,0,0,1-.417-.3,4.97,4.97,0,0,1-1.742-2.867,4.976,4.976,0,0,1,.716-3.768,4.984,4.984,0,0,1,3.17-2.159,4.983,4.983,0,0,1,3.769.716,4.847,4.847,0,0,1,.411.3,4.981,4.981,0,0,1,1.351,1.7.3.3,0,0,0,.081.1.3.3,0,0,0,.317.037.3.3,0,0,0,.138-.4,5.581,5.581,0,0,0-1.512-1.907,5.259,5.259,0,0,0-.46-.336,5.567,5.567,0,0,0-4.216-.8,5.565,5.565,0,0,0-3.547,2.415,5.569,5.569,0,0,0-.8,4.217,5.572,5.572,0,0,0,1.949,3.207c.149.12.3.234.466.34A5.617,5.617,0,0,0-294.172,1722.312Z" fill="#bdd0fb"/><path d="M-324.144,1862.912s-.336,1.8-.508,3.577a1.228,1.228,0,0,0,1.161,1.342c2.373.121,7.447.362,9.269.3a.4.4,0,0,0,.357-.544.9.9,0,0,0-.453-.486l-8.348-3.934Z" fill="url(#c)"/><path d="M-324.395,1861.851l.235,2.156a2.673,2.673,0,0,0,2.473-.062l-.585-2.406Z" fill="url(#d)"/><path d="M-323.817,1821.37c-.115.561-.86,28.056,1.962,40.407a.418.418,0,0,1-.25.484,7.262,7.262,0,0,1-2.4.464.721.721,0,0,1-.71-.524c-.813-2.867-4.7-17.231-5.1-30.921-.441-15.3.005-.52.005-.52l.434-9.449Z" fill="url(#e)"/><path d="M-333.8,1863.759a12.947,12.947,0,0,0-1.028,3.314.748.748,0,0,0,.651.9c.783.085,1.988.2,2.954.2a.747.747,0,0,0,.748-.826,6.307,6.307,0,0,0-1.438-3.469Z" fill="url(#f)"/><path d="M-334.217,1860.985l.566,3.262a2.1,2.1,0,0,0,1.757.137l-.252-3.506Z" fill="url(#g)"/><path d="M-335.459,1822.1c-2.543,14.486.179,35.865,1.126,40.053a.654.654,0,0,0,.522.5,4.392,4.392,0,0,0,1.881-.057.6.6,0,0,0,.434-.546c.165-3.378.125-24.121,2.443-32.3a1.856,1.856,0,0,1,.728-1.02l4.377-3.05.381-4.993Z" fill="url(#h)"/><path d="M-319.878,1794.757a67.757,67.757,0,0,0-15.172,1.748c-2.267,12.51-.633,26.98-.633,26.98,5.564,1.516,11.878-.781,11.878-.781.977-5.229,5.443-19.928,5.443-19.928a23.73,23.73,0,0,0,8.835-2.711,15.443,15.443,0,0,1-2.993-6.415A24.176,24.176,0,0,1-319.878,1794.757Z" fill="#a0a603"/><path d="M-298.5,1784.349a1.378,1.378,0,0,0-1.6-.466c-1.1,4.468-6.7,8.046-12.425,9.767a15.443,15.443,0,0,0,2.993,6.415C-300,1794.826-298.5,1784.349-298.5,1784.349Z" fill="url(#i)"/><path d="M-298.669,1784.564c.071.236-.79.587-1.285-.381-.014-.462-.275-2.441,0-2.815a36.865,36.865,0,0,1,4.359-4.471.678.678,0,0,1,.076.943l-1.395,1.425a6.685,6.685,0,0,1,.791,1.6,1.933,1.933,0,0,1-.207,1.423c-.246.435-.582,1-.9,1.441A1.91,1.91,0,0,1-298.669,1784.564Z" fill="url(#j)"/><path d="M-297.523,1780.193l-1.269,1.055-.406,1.059,1.111,1.256a14.445,14.445,0,0,1,.682-2.558C-297.12,1780.551-297.263,1780.329-297.523,1780.193Z" fill="url(#k)"/><path d="M-332.353,1803.507l-2.7-7s-6.773,4.508-7.935,10.3a15.909,15.909,0,0,1,5.835,1.623C-336.626,1805.691-332.353,1803.507-332.353,1803.507Z" fill="#a0a603"/><path d="M-326.535,1810.128s-7.6,4.2-10.111.527a2.868,2.868,0,0,1-.5-2.232,15.909,15.909,0,0,0-5.835-1.623,8,8,0,0,0,.817,5.493c4.388,8.211,16.615-.293,16.615-.293Z" fill="url(#l)"/><path d="M-327.12,1788.839l-2.355,6.607a.239.239,0,0,0,.106.289,5.386,5.386,0,0,0,5.593-.323,1.122,1.122,0,0,0,.525-.8l.8-5.731Z" fill="url(#m)"/><path d="M-322.073,1782.747s2.472,4.763,2.131,6.674-3.46,1.744-6.169.163l-1.855-5.134Z" fill="url(#n)"/><path d="M-325.967,1787.073a.194.194,0,0,0,.088-.285,5.141,5.141,0,0,1-.686-1.494s-.45-.294,1.158-.663,4.007-.942,4.522-2.3c.5-1.327-.753-4.688-2.833-2.04a.2.2,0,0,1-.31,0,2.014,2.014,0,0,0-2.445-.821,1.846,1.846,0,0,0-1.281,1.773.2.2,0,0,1-.232.2,2.251,2.251,0,0,0-2.642,1.2,1.811,1.811,0,0,0,.109,2.175.2.2,0,0,1-.086.323,1.171,1.171,0,0,0-.84,1.329c.057,1.239,1.443,1.143,1.837,1.091a.194.194,0,0,1,.173.063,6.663,6.663,0,0,0,3.489,2.187.2.2,0,0,0,.209-.258l-.693-2.081a.2.2,0,0,1,.108-.242Z" fill="url(#o)"/><path d="M-325.683,1787.37s-1.78-1.247-1.921-.213,1.6,1.516,2.468,1.138Z" fill="url(#p)"/><path d="M-328.087,1816.762l4.138-14.451a.42.42,0,0,1,.356-.3c.75-.088,2.922-.333,5.431-.546a61.716,61.716,0,0,1,8.626-.286.423.423,0,0,1,.346.608c-1.192,2.413-6.1,12.225-8.553,15.439a.422.422,0,0,1-.341.167l-9.6-.089A.422.422,0,0,1-328.087,1816.762Z" fill="url(#q)"/><path d="M-327.088,1813.271a10.541,10.541,0,0,1-.344-3.212c.233-.84.684-1.922,2.185-1.681a21.974,21.974,0,0,1,3.273.872.859.859,0,0,1-1.231.742l.708.548s-.1.877-1.065.409l.658.726a.767.767,0,0,1-1.123.258C-324.736,1811.471-325.076,1813.556-327.088,1813.271Z" fill="url(#r)"/><path d="M-318.438,1805.776a1.214,1.214,0,0,0,1.214,1.215,1.215,1.215,0,0,0,1.215-1.215,1.214,1.214,0,0,0-1.215-1.214A1.213,1.213,0,0,0-318.438,1805.776Z" fill="#91b3fa"/><path d="M-323.481,1806.577l.842-2.858a.983.983,0,0,1,.737-.688,84.832,84.832,0,0,1,9.941-.669l-.005-.322a82.738,82.738,0,0,0-10,.675,1.3,1.3,0,0,0-.98.913l-.843,2.858Z" fill="#bdd0fb"/><path d="M-215.935,1785.086a.274.274,0,0,1,.506.054,4.517,4.517,0,0,0,2.085,2.972c.063.027.123.055.18.083a.63.63,0,0,0-.078-.573c-.387-.592.312-1.4.312-1.4a1.8,1.8,0,0,0,.588,1.161,1.733,1.733,0,0,1,.371,1.951c-.674,2.62-1.684,6.085,2.25,8.617s9.475-4.778,9.475-4.778l-2.75,8.718s-4.244,3.133-9.182-1.272-1.664-10.814-1.664-10.814S-217.608,1788.285-215.935,1785.086Z" fill="url(#s)"/><path d="M-199.557,1780.363s-1.139-5.113,4.717-3.76c0,0,2.843-.464,2.988,2.219,0,0,1.833,1.208.491,3.53,0,0,5.446-2.1,7.819,2.67s.192,7.4-2.095,8.085a2.276,2.276,0,0,1,.976,3.03c-.877,2.1-5.318,3.581-7.941,1.027,0,0-7.465.986-7.315-4.286,0,0-3.472-2.242.174-6.6S-199.557,1780.363-199.557,1780.363Z" fill="url(#t)"/><path d="M-199.878,1792.214a8.036,8.036,0,0,1,7.863,2,2.019,2.019,0,0,1,.582,2.011c-.876,3.224-3.186,12.746-1.16,16.866,0,0-3.57,3.935-7.463.764,0,0-1.747-7.615-4.036-10.957-1.579-2.308,2.519-8.666,3.557-10.2A1.215,1.215,0,0,1-199.878,1792.214Z" fill="#a0a603"/><path d="M-196.629,1785.811s1.741,4.923,1.872,7.095a3.722,3.722,0,0,1-3.736-.6,54.914,54.914,0,0,0-.465-5.8Z" fill="url(#u)"/><path d="M-199.046,1779.1s-4.553,6.371-1.831,8.222,5.962-2.677,5.962-2.677,1.056-3.487-.049-4.67S-199.046,1779.1-199.046,1779.1Z" fill="url(#v)"/><path d="M-196.939,1777.576s-2.092.495-2.385,1.442,2.966,1.823,3.879,1.866l.736,3.819s2.175-3.592,1.314-5.667S-196.939,1777.576-196.939,1777.576Z" fill="url(#w)"/><path d="M-195.8,1784.174s1.772-2.052,2.477-.714-1.6,2.342-2.391,1.685Z" fill="url(#x)"/><path d="M-204.6,1829.845c.013.346-.593,3.088-.924,4.55a2.407,2.407,0,0,0,.26,1.728l11.438,19.252a2.632,2.632,0,0,1,.3.749,16.539,16.539,0,0,1,.417,5.132l-.592,1.229,2.559-.581.557-6.873-.724-.442a3.441,3.441,0,0,1-1.393-1.63c-1.034-2.512-3.6-8.908-4.264-12.024-.753-3.543-4.686-6.42-4.686-6.42l.691-1.634Z" fill="url(#y)"/><path d="M-188.3,1859.539a15.641,15.641,0,0,1-1.545-3.044c-.163-.853-.615-2.359-1.467-1.906a49.9,49.9,0,0,0-.263,5.762c.138,1.619-1.83,1.567-1.83,1.567a1.834,1.834,0,0,0-.94.474.461.461,0,0,0,.309.775,11.086,11.086,0,0,0,2.741-.156.838.838,0,0,0,.677-.773l.284-4.769,1.743,2.2Z" fill="url(#z)"/><path d="M-197.769,1832.912s.4,17.221.458,19.666-.386,7.866-2.838,9.486l1.067.79a14.235,14.235,0,0,0,2.636-3.314,20.243,20.243,0,0,1,1.906-2.9l-.486-.994a2.189,2.189,0,0,1-.177-1.4c.529-2.565,2.3-11.094,2.779-12.931a8.275,8.275,0,0,0-1.37-7.488C-195.774,1831.4-197.769,1832.912-197.769,1832.912Z" fill="url(#aa)"/><path d="M-195.5,1863.63a.149.149,0,0,0,.151-.129,22.294,22.294,0,0,1,.7-3.472c.319-.682,1.359-3.555,0-3.8,0,0-3.379,4.936-4.027,5.6a1.273,1.273,0,0,1-1.468.232,2.447,2.447,0,0,0-1.108.8.448.448,0,0,0,.353.719l2.275.021a1.6,1.6,0,0,0,1.5-1.008,8.552,8.552,0,0,1,1.891-3.119l-.417,3.99a.152.152,0,0,0,.15.167Z" fill="url(#ab)"/><path d="M-200.6,1812a8.074,8.074,0,0,1-.275,4.326l-4.887,17.067a.529.529,0,0,0,.33.643,32.626,32.626,0,0,0,12.828,1.555.746.746,0,0,0,.679-.58l2.21-9.948c1.157-5.2,2.449-10.8-3.234-14.19C-195.563,1812-198.006,1812.658-200.6,1812Z" fill="url(#ac)"/><path d="M-191.549,1794.861s5.561,4.621,6.941,10.936-8.125,6.985-8.125,6.985a2.944,2.944,0,0,0-2.823-.927c-1.532.514-.118-2.514,1.674-2.506s.962,1.425,3.5.276c2.47-1.119,4-4.579-2.306-9.824a2.856,2.856,0,0,1-.832-1.133C-194.746,1795.586-193.775,1793.566-191.549,1794.861Z" fill="url(#ad)"/><rect width="1.983" height="21.449" transform="translate(-228.327 1842.04)" fill="#7d97f4"/><path d="M-218.65,1863.9h-17.371v-1.148a.143.143,0,0,1,.143-.143h17.085a.143.143,0,0,1,.143.143Z" fill="#7d97f4"/><rect width="23.212" height="6.583" rx="2.267" transform="translate(-238.577 1836.933)" fill="#7d97f4"/><path d="M-244.917,1856.976s-6.412,2.761-6.045,5.652c0,0,6.628-1.271,7.814-3.166s.533-2.992.533-2.992Z" fill="url(#ae)"/><path d="M-243.347,1853.819l.326,2.814a.932.932,0,0,1-.589.989,2.455,2.455,0,0,1-.813.124,1.085,1.085,0,0,1-1.053-.791l-.63-2.276Z" fill="url(#af)"/><path d="M-229.339,1832.239s-11.794-.546-17.663,2.876.3,19.848.3,19.848a5.955,5.955,0,0,0,3.74-.85s-3.15-12.024,2.322-14.116a31.5,31.5,0,0,1,12.515-1.78l-1.179-5.607Z" fill="url(#ag)"/><path d="M-249.673,1861.359c1.341-.293,5.317-1.941,5.921-1.919s1.46.927,1.46.927a1.609,1.609,0,0,1-.285,1.205,11.132,11.132,0,0,1-5.8,2.427,4.306,4.306,0,0,1-3.673-1.362A5.256,5.256,0,0,1-249.673,1861.359Z" fill="url(#ah)"/><path d="M-248.375,1864a11.132,11.132,0,0,0,5.8-2.427,5,5,0,0,1-1.893,1.649,12.69,12.69,0,0,1-7.729.922c-.681-.265-.471-.9.151-1.506A4.306,4.306,0,0,0-248.375,1864Z" fill="url(#ai)"/><path d="M-240.884,1858.894a9.575,9.575,0,0,1-1.57,1.886,1.07,1.07,0,0,1-.994.3,2.728,2.728,0,0,1-.711-.25.694.694,0,0,1-.268-.943l1.373-2.5Z" fill="url(#aj)"/><path d="M-217.651,1831.25s1.029,7.3-1.948,8.8-9.505,2.47-11.753,6.257-6.287,11.223-9.963,13.359c0,0-2.1-.683-2.712-1.715,0,0,4.362-11.468,6.182-14.255,1.576-2.414,3.881-5.892,7.155-7.4.937-.43,1.011-1.425.846-2.443l-.3-1.854Z" fill="url(#ak)"/><path d="M-245.238,1822.971c4.173,1.191,6.04-10.553,6.024-10.839l6.4,7.481s-3.813,6.708-9.569,7.422a6.794,6.794,0,0,1-3.735-.547A5.985,5.985,0,0,0-245.238,1822.971Z" fill="#a0a603"/><path d="M-252.966,1819.127a3.349,3.349,0,0,1,3.361.744,10.927,10.927,0,0,0,4.367,3.1,5.985,5.985,0,0,1-.882,3.517,9.3,9.3,0,0,1-4.1-4.152.782.782,0,0,0-1.03-.349c-.386.187-.783.471-.808.857-.049.762-.955.807-.961.526a11.289,11.289,0,0,1,.7-1.786s-2.089,1.34-2.9,1.853a1.2,1.2,0,0,1-1.506-.334S-254.785,1819.874-252.966,1819.127Z" fill="url(#al)"/><path d="M-219.259,1807.3s-5.608-3.826-19.151,3.093a4.408,4.408,0,0,0-.742,3.761c.654,1.994,8.695,12.781,9.007,17.845a14.4,14.4,0,0,0,12.633.028S-215.119,1818.655-219.259,1807.3Z" fill="#a0a603"/><path d="M-230.936,1802.409l2.216,4.342a1.234,1.234,0,0,1-.128,1.331,3.525,3.525,0,0,1-4.058,1.13,1.9,1.9,0,0,1-1.3-1.381l-1.149-4.847Z" fill="url(#am)"/><path d="M-215.106,1822.463c.379-2.639-6.6-7.756-6.6-7.756l2.443-7.407s13.31,9.5,10.511,17.256a5.423,5.423,0,0,1-1.729,2.5A8.672,8.672,0,0,0-215.106,1822.463Z" fill="#a0a603"/><path d="M-224.838,1823.2s7.891,2.2,9.528-.2a1.26,1.26,0,0,0,.2-.535,8.672,8.672,0,0,1,4.629,4.589c-3.747,2.947-10.97-.356-12.933-1.347a1.388,1.388,0,0,0-1.039-.087,9.468,9.468,0,0,1-2.582.519c-.986-.054-2.044,3.509-3.722,2.607C-230.753,1828.744-229.991,1822.657-224.838,1823.2Z" fill="url(#an)"/><path d="M-233.777,1795.312c-.07.061-2.993,5.166-4.481,7.769a1.531,1.531,0,0,0,.727,2.167l.645.276c.88.377,2.774.693,3.52.091l4.7-4.96S-232.2,1793.944-233.777,1795.312Z" fill="url(#ao)"/><path d="M-227.343,1799.3a1.515,1.515,0,0,0,.73-2.139,2.136,2.136,0,0,0-2.33-1.206.585.585,0,0,1-.62-.421.462.462,0,0,0-.408-.331.574.574,0,0,1-.454-.719,1.742,1.742,0,0,0-.869-2.088c-1.789-1.083-3.461.49-3.926,1.857s1.54,2.431,2.821,2.648c.973.165,1.449,1.289,1.62,1.818a.576.576,0,0,1-.068.5l-1.429,2.171c.393.494.741,1.016,1.085,1.545.128-.138.241-.254.328-.334.621-.569,1.724-.275,2.179-.119a.576.576,0,0,0,.451-.033,1.512,1.512,0,0,0,.675-2.333A.585.585,0,0,1-227.343,1799.3Z" fill="url(#ap)"/><path d="M-231.711,1803.862s.913-2.348,1.951-2.217,1.815,1.2.475,2.316C-230.952,1805.346-231.711,1803.862-231.711,1803.862Z" fill="url(#aq)"/><path d="M-234.913,1828.22h-.042l-18.434-.02a.826.826,0,0,1-.825-.826.821.821,0,0,1,.826-.824l18.434.02a.825.825,0,0,1,.825.826A.826.826,0,0,1-234.913,1828.22Z" fill="url(#ar)"/><path d="M-269.961,1811.483h15.352a2.927,2.927,0,0,1,2.647,1.678l7.1,15.049h-19.078a1.778,1.778,0,0,1-1.654-1.125l-5.5-13.925A1.226,1.226,0,0,1-269.961,1811.483Z" fill="url(#as)"/><path d="M-259.145,1819.2c.333,1.034.087,2.038-.549,2.242s-1.421-.467-1.754-1.5-.087-2.037.549-2.242S-259.478,1818.166-259.145,1819.2Z" fill="#91b3fa"/><path d="M-267.472,1867.757a.806.806,0,0,1-.306-.061.742.742,0,0,1-.4-.985l16.246-36.564a.785.785,0,0,1,1.018-.392.741.741,0,0,1,.4.985L-266.76,1867.3A.776.776,0,0,1-267.472,1867.757Z" fill="#91b3fa"/><path d="M-249.17,1867.757a.776.776,0,0,1-.712-.454l-16.246-36.563a.741.741,0,0,1,.406-.985.784.784,0,0,1,1.017.392l16.246,36.564a.741.741,0,0,1-.4.985A.806.806,0,0,1-249.17,1867.757Z" fill="#91b3fa"/><path d="M-217.183,1867.757a.806.806,0,0,1-.306-.061.741.741,0,0,1-.4-.985l16.246-36.564a.784.784,0,0,1,1.018-.392.741.741,0,0,1,.4.985l-16.246,36.563A.776.776,0,0,1-217.183,1867.757Z" fill="#91b3fa"/><path d="M-198.881,1867.757a.776.776,0,0,1-.712-.454l-16.246-36.563a.741.741,0,0,1,.4-.985.785.785,0,0,1,1.018.392l16.246,36.564a.741.741,0,0,1-.4.985A.806.806,0,0,1-198.881,1867.757Z" fill="#91b3fa"/><path d="M-196.976,1829.018a.893.893,0,0,0-.153-.676.7.7,0,0,0-.564-.3H-271.6a.823.823,0,0,0-.709.434,1.039,1.039,0,0,0-.055.9l.8,1.941a1.122,1.122,0,0,0,1.018.729H-198.2a.88.88,0,0,0,.833-.77Z" fill="#91b3fa"/></g></svg>