<svg xmlns="http://www.w3.org/2000/svg" width="1030" height="272.192" viewBox="0 0 1030 272.192"><g transform="translate(-285 -518.808)"><g transform="translate(0 -5.863)"><g transform="translate(-1060.928 -109.428)"><path d="M1535.74,734.449H1346.428V674.354H1535.74l16.339,30.047Z" fill="#ecedcc"/><path d="M1740.37,734.449H1551.058L1567.4,704.4l-16.339-30.047H1740.37l16.339,30.047Z" fill="#e5dec1"/><path d="M1946.021,734.449H1756.709l16.339-30.047-16.339-30.047h189.312L1962.36,704.4Z" fill="#dcebf8"/><path d="M2151.162,734.449H1961.85l16.339-30.047-16.339-30.047h189.312L2167.5,704.4Z" fill="#d4f5ef"/><path d="M2359.089,734.449H2169.777l16.339-30.047-16.339-30.047h189.312l16.339,30.047Z" fill="#e8e6df"/><text transform="translate(1777.928 651.099)" font-size="16" font-family="Roboto-Medium, Roboto" font-weight="500"><tspan x="0" y="0">Actividades principales</tspan></text><text transform="translate(1376.046 709.171)" font-size="16" font-family="Roboto-Regular, Roboto"><tspan x="0" y="0">Logística de entrada</tspan></text><text transform="translate(1793.051 709.171)" font-size="16" font-family="Roboto-Regular, Roboto"><tspan x="0" y="0">Logística de salida</tspan></text><text transform="translate(1997.649 709.171)" font-size="16" font-family="Roboto-Regular, Roboto"><tspan x="0" y="0">Marketing y ventas</tspan></text><text transform="translate(2207.122 709.171)" font-size="16" font-family="Roboto-Regular, Roboto"><tspan x="0" y="0">Servicio postventa</tspan></text><text transform="translate(1609.286 709.171)" font-size="16" font-family="Roboto-Regular, Roboto"><tspan x="0" y="0">Operaciones</tspan></text><g transform="translate(-0.394)"><rect width="2.606" height="21.056" transform="translate(1763.322 635.291)" fill="#a0a603"/><rect width="2.606" height="21.056" transform="translate(1955.928 635.291)" fill="#a0a603"/></g></g><g transform="translate(-1060.928 27.594)"><path d="M1535.74,734.449H1346.428V674.354H1535.74l16.339,30.047Z" transform="translate(0.5)" fill="#ecedcc"/><path d="M1740.37,734.449H1551.058L1567.4,704.4l-16.339-30.047H1740.37l16.339,30.047Z" transform="translate(-0.13)" fill="#e5dec1"/><path d="M1946.021,734.449H1756.709l16.339-30.047-16.339-30.047h189.312L1962.36,704.4Z" transform="translate(0.219)" fill="#dcebf8"/><path d="M2151.162,734.449H1961.85l16.339-30.047-16.339-30.047h189.312L2167.5,704.4Z" transform="translate(0.078)" fill="#d4f5ef"/><path d="M2359.089,734.449H2169.777l16.339-30.047-16.339-30.047h189.312l16.339,30.047Z" transform="translate(0.151)" fill="#e8e6df"/><text transform="translate(1784.928 651.099)" font-size="16" font-family="Roboto-Medium, Roboto" font-weight="500"><tspan x="0" y="0">Actividades de apoyo</tspan></text><text transform="translate(1416.928 709.171)" font-size="16" font-family="Roboto-Regular, Roboto"><tspan x="0" y="0">Compras</tspan></text><text transform="translate(1826.928 709.171)" font-size="16" font-family="Roboto-Regular, Roboto"><tspan x="0" y="0">Producto</tspan></text><text transform="translate(1994.928 709.171)" font-size="16" font-family="Roboto-Regular, Roboto"><tspan x="0" y="0">Gestión coordinada</tspan></text><text transform="translate(2272.928 700.902)" font-size="16" font-family="Roboto-Regular, Roboto"><tspan x="-52.477" y="0">Infraestructura</tspan><tspan x="-50.164" y="18">de la empresa</tspan></text><text transform="translate(1653.928 703.171)" font-size="16" font-family="Roboto-Regular, Roboto"><tspan x="-36.305" y="0">Desarrollo</tspan><tspan x="-41.699" y="18">tecnológico</tspan></text><g transform="translate(-0.394)"><rect width="2.606" height="21.056" transform="translate(1763.322 635.291)" fill="#a0a603"/><rect width="2.606" height="21.056" transform="translate(1955.928 635.291)" fill="#a0a603"/></g></g></g><rect width="1030" height="271" transform="translate(285 520)" fill="none"/></g></svg>