<svg xmlns="http://www.w3.org/2000/svg" xmlns:xlink="http://www.w3.org/1999/xlink" width="294" height="199" viewBox="0 0 294 199"><defs><clipPath id="a"><path d="M-191.928,1978.025a9.3,9.3,0,0,0-9.3-9.3,9.3,9.3,0,0,0-9.3,9.3,9.3,9.3,0,0,0,9.3,9.3A9.3,9.3,0,0,0-191.928,1978.025Z" fill="none"/></clipPath></defs><g transform="translate(410.966 -1938.491)"><path d="M0,0H294V199H0Z" transform="translate(-410.966 1938.491)" fill="none"/><path d="M-363.492,2108.247s-18.522-7.7-20.6-16,14.761-5.491,27.627,11.408c0,0-19.006-31.869-7.178-34.18s18.24,31.127,18.24,31.127,3.342-16.442,11.071-15.637,3.243,13.472-9.518,23.281Z" fill="#ecedcc"/><path d="M-350.379,2106.946a96.112,96.112,0,0,0-13.736-36.479" fill="#ecedcc"/><path d="M-356.462,2106.46s-16.85-8.168-24.439-18.1" fill="#ecedcc"/><path d="M-334.329,2087.158s-5.726,16.7-14.057,19.3" fill="#ecedcc"/><path d="M-280.684,2102.593s-26.378,1.949-40.832-.921c-8.358-1.659-12.013-7.062-1.033-9.224,5.532-1.089,16.071-9.979-5.472-12.741-18.791-2.409-20.774-16.119-4.1-15.841,3.918.066-1.485-2.472-6.264-11.339-3.677-6.822-3.044-17.608,3.169-20.682,13.1-6.479,12.75,18.119,18.1,19.272,5.136,1.107,7.112-12.747,14.259-11.034,9.335,2.237-5.812,28.523-3.952,30.871,3.967,5,11.377-19.777,18.334-17.784S-303.286,2096.463-280.684,2102.593Z" fill="#ecedcc"/><path d="M-287.273,2101.453c-14.331-5.727-12.372-16.342-29-30.327-13.75-11.561-17.381-24.669-16.272-39.677" fill="#ecedcc"/><path d="M-249.946,2101.755s18.522-7.7,20.6-16-13.79-7.376-26.656,9.522c0,0,19.227-28.654,7.4-30.965s-19.433,29.8-19.433,29.8-3.342-16.441-11.071-15.636-3.244,13.472,9.518,23.28Z" fill="#ecedcc"/><path d="M-263.059,2100.454s3.153-20.083,14.928-35.15" fill="#ecedcc"/><path d="M-256.976,2099.969s15.215-13.827,24.439-16.377" fill="#ecedcc"/><path d="M-279.109,2080.666s5.726,16.7,14.057,19.3" fill="#ecedcc"/><path d="M-207.339,2098.909s26.378,1.949,40.832-.921c8.358-1.659,12.013-7.063,1.033-9.224-5.532-1.09-14.795-4.932,5.472-12.741,16.929-6.523,19.182-17.623,3.041-13.414-8.365,2.182,2.54-4.9,7.319-13.767,3.677-6.822,3.044-17.607-3.169-20.681-13.1-6.479-15.456,22.782-20.8,23.935-5.135,1.107.728-18.978-8.5-16.328s3.4,25.624.9,31.5-4.123-20.158-11.079-18.165S-184.737,2092.779-207.339,2098.909Z" fill="#ecedcc"/><path d="M-200.75,2097.769c14.331-5.728,12.372-16.342,29-30.327,13.75-11.561,18.693-21.52,17.584-36.528" fill="#ecedcc"/><path d="M4.955,0H46.167a4.954,4.954,0,0,1,4.954,4.954v15.51a4.954,4.954,0,0,1-4.954,4.954H4.954A4.954,4.954,0,0,1,0,20.464V4.955A4.955,4.955,0,0,1,4.955,0Z" transform="translate(-270.897 2049.782)" fill="#bdf"/><path d="M-225.162,2066.3h-14.116a2.706,2.706,0,0,1-1.927-.8,2.707,2.707,0,0,1-.8-1.927v-8.138a2.728,2.728,0,0,1,2.725-2.726h14.116a2.729,2.729,0,0,1,2.726,2.726v8.138A2.728,2.728,0,0,1-225.162,2066.3Zm-14.116-12.466a1.6,1.6,0,0,0-1.6,1.6v8.138a1.589,1.589,0,0,0,.469,1.132,1.591,1.591,0,0,0,1.132.469h14.116a1.6,1.6,0,0,0,1.6-1.6v-8.138a1.6,1.6,0,0,0-1.6-1.6Z" fill="#fff"/><path d="M-232.393,2060.829a.564.564,0,0,1-.346-.119l-8.3-6.472a.563.563,0,0,1-.1-.789.562.562,0,0,1,.789-.1l7.944,6.2,7.949-6.433a.562.562,0,0,1,.791.083.562.562,0,0,1-.083.791l-8.3,6.714A.559.559,0,0,1-232.393,2060.829Z" fill="#fff"/><path d="M-243.822,2057.471h-23.561a.563.563,0,0,1-.563-.563.563.563,0,0,1,.563-.562h23.561a.562.562,0,0,1,.562.561A.563.563,0,0,1-243.822,2057.471Z" fill="#fff"/><path d="M-243.822,2062.073h-12.221a.562.562,0,0,1-.562-.562.562.562,0,0,1,.562-.563h12.221a.562.562,0,0,1,.562.562A.563.563,0,0,1-243.822,2062.073Z" fill="#fff"/><path d="M-266.24,1959.756a6.557,6.557,0,0,1,6.695-6.41H-194.8a6.556,6.556,0,0,1,6.693,6.41v5.4H-266.24Z" fill="#031faa" fill-rule="evenodd"/><path d="M-188.107,1965.151v41.9a6.557,6.557,0,0,1-6.693,6.411h-64.745a6.558,6.558,0,0,1-6.695-6.411v-41.9Z" fill="#ecedcc" fill-rule="evenodd"/><path d="M-195.717,1959.424a1.981,1.981,0,0,0,1.98,1.98,1.98,1.98,0,0,0,1.981-1.98,1.98,1.98,0,0,0-1.981-1.98A1.981,1.981,0,0,0-195.717,1959.424Z" fill="#fff"/><path d="M-201.931,1959.424a1.981,1.981,0,0,0,1.981,1.98,1.98,1.98,0,0,0,1.98-1.98,1.98,1.98,0,0,0-1.98-1.98A1.981,1.981,0,0,0-201.931,1959.424Z" fill="#fff"/><path d="M-208.145,1959.424a1.981,1.981,0,0,0,1.981,1.98,1.98,1.98,0,0,0,1.98-1.98,1.98,1.98,0,0,0-1.98-1.98A1.981,1.981,0,0,0-208.145,1959.424Z" fill="#fff"/><path d="M-191.928,1978.025a9.3,9.3,0,0,0-9.3-9.3,9.3,9.3,0,0,0-9.3,9.3,9.3,9.3,0,0,0,9.3,9.3A9.3,9.3,0,0,0-191.928,1978.025Z" fill="#fff"/><g clip-path="url(#a)"><path d="M-192.946,1987.7c-6.2-.053-10.387-.057-16.567,0-.045-2.341.415-3.73,2.157-4.488,1.272-.551,3.058-.483,3.451-1.552.558-1.517-.711-2.97-1.121-4.315-.888-2.911.654-6.312,3.451-6.558,2.927-.256,4.886,3.086,4.142,6.127-.383,1.567-1.654,3.03-1.208,4.573.263.908,1.346,1.158,2.416,1.467C-193.912,1983.624-192.961,1984.512-192.946,1987.7Z" fill="#8686f2" fill-rule="evenodd"/></g><path d="M-248.532,1984.533v49.2a7.7,7.7,0,0,1-7.86,7.527h-76.03a7.7,7.7,0,0,1-7.86-7.527v-49.2Z" fill="#bdf" fill-rule="evenodd"/><path d="M-340.283,1978.2a7.7,7.7,0,0,1,7.861-7.528h76.03a7.7,7.7,0,0,1,7.86,7.528v6.336h-91.751Z" fill="#031faa" fill-rule="evenodd"/><path d="M-326.145,1977.373a3.009,3.009,0,0,0,3.008,3.01,3.011,3.011,0,0,0,3.01-3.01,3.011,3.011,0,0,0-3.01-3.011,3.01,3.01,0,0,0-3.008,3.011" fill="#fbfcff"/><path d="M-330.488,1980.361h-3.442l1.722-2.981,1.721-2.981,1.721,2.981,1.721,2.981Z" fill="#fbfcff"/><path d="M2.59,0H35.78a2.59,2.59,0,0,1,2.59,2.59V43.142a2.59,2.59,0,0,1-2.59,2.59H2.589A2.589,2.589,0,0,1,0,43.143V2.59A2.59,2.59,0,0,1,2.59,0Z" transform="translate(-292.161 1989.347)" fill="#fff" opacity="0.3"/><path d="M2.59,0H35.78a2.59,2.59,0,0,1,2.59,2.59V43.142a2.59,2.59,0,0,1-2.59,2.59H2.589A2.589,2.589,0,0,1,0,43.143V2.59A2.59,2.59,0,0,1,2.59,0Z" transform="translate(-334.689 1989.347)" fill="#fff" opacity="0.3"/><path d="M-311.732,2020.417a9.822,9.822,0,0,0-9.821-9.821,9.82,9.82,0,0,0-9.821,9.821,9.82,9.82,0,0,0,9.821,9.821A9.822,9.822,0,0,0-311.732,2020.417Z" fill="#fff"/><path d="M-332.233,2018.354a10.88,10.88,0,0,1,10.68-8.814,10.9,10.9,0,0,1,2.684.335l-2.684,11.386Z" fill="#031faa"/><path d="M-330.142,2007.666h30.3a.625.625,0,0,0,.626-.625.627.627,0,0,0-.626-.627h-30.3a.627.627,0,0,0-.626.627A.626.626,0,0,0-330.142,2007.666Z" fill="#fff"/><path d="M-330.142,2000.865h30.3a.626.626,0,0,0,.626-.626.626.626,0,0,0-.626-.626h-30.3a.626.626,0,0,0-.626.626A.626.626,0,0,0-330.142,2000.865Z" fill="#fff"/><path d="M-330.142,1994.064h30.3a.626.626,0,0,0,.626-.626.625.625,0,0,0-.626-.625h-30.3a.625.625,0,0,0-.626.625A.626.626,0,0,0-330.142,1994.064Z" fill="#fff"/><path d="M-309.285,2021.283h9.446a.626.626,0,0,0,.626-.626.626.626,0,0,0-.626-.626h-9.446a.627.627,0,0,0-.626.626A.626.626,0,0,0-309.285,2021.283Z" fill="#fff"/><path d="M-309.285,2014.482h9.446a.626.626,0,0,0,.626-.626.626.626,0,0,0-.626-.626h-9.446a.626.626,0,0,0-.626.626A.626.626,0,0,0-309.285,2014.482Z" fill="#fff"/><path d="M-309.285,2028.1h9.446a.625.625,0,0,0,.626-.625.626.626,0,0,0-.626-.627h-9.446a.627.627,0,0,0-.626.627A.626.626,0,0,0-309.285,2028.1Z" fill="#fff"/><path d="M-288.128,2007.666h30.3a.626.626,0,0,0,.626-.625.627.627,0,0,0-.626-.627h-30.3a.627.627,0,0,0-.626.627A.626.626,0,0,0-288.128,2007.666Z" fill="#fff"/><path d="M-288.128,2000.865h30.3a.626.626,0,0,0,.626-.626.626.626,0,0,0-.626-.626h-30.3a.626.626,0,0,0-.626.626A.626.626,0,0,0-288.128,2000.865Z" fill="#fff"/><path d="M-288.128,1994.064h30.3a.626.626,0,0,0,.626-.626.625.625,0,0,0-.626-.625h-30.3a.625.625,0,0,0-.626.625A.626.626,0,0,0-288.128,1994.064Z" fill="#fff"/><path d="M-288.128,2021.282h30.3a.625.625,0,0,0,.626-.625.626.626,0,0,0-.626-.626h-30.3a.626.626,0,0,0-.626.626A.625.625,0,0,0-288.128,2021.282Z" fill="#fff"/><path d="M-288.128,2014.482h30.3a.627.627,0,0,0,.626-.626.626.626,0,0,0-.626-.626h-30.3a.626.626,0,0,0-.626.626A.627.627,0,0,0-288.128,2014.482Z" fill="#fff"/><path d="M-216.7,1981.361a5.254,5.254,0,0,1-5.26,5.251l-53.161-.046a5.255,5.255,0,0,1-5.25-5.26v-.636a5.255,5.255,0,0,1,5.26-5.25l53.161.045a5.256,5.256,0,0,1,5.251,5.26Z" fill="#8686f2"/><path d="M-269.579,1983.632l-5.505-.005a1.271,1.271,0,0,1-1.268-1.27l0-3.174a1.272,1.272,0,0,1,1.27-1.268l5.5.005a1.271,1.271,0,0,1,1.268,1.27l0,3.174A1.27,1.27,0,0,1-269.579,1983.632Zm-5.5-4.866a.419.419,0,0,0-.418.418l0,3.174a.418.418,0,0,0,.418.418l5.5.005a.419.419,0,0,0,.419-.418l0-3.173a.419.419,0,0,0-.418-.419Z" fill="#fff"/><path d="M-272.263,1981.5a.425.425,0,0,1-.267-.094l-3.233-2.621a.425.425,0,0,1-.062-.6.425.425,0,0,1,.6-.063l2.97,2.408,2.971-2.313a.425.425,0,0,1,.6.075.425.425,0,0,1-.075.6l-3.236,2.52A.437.437,0,0,1-272.263,1981.5Z" fill="#fff"/><path d="M-249.246,1983.649l-17.817-.016a.423.423,0,0,1-.425-.425.425.425,0,0,1,.425-.425l17.818.015a.426.426,0,0,1,.425.427A.425.425,0,0,1-249.246,1983.649Z" fill="#fff"/><path d="M-241.932,1978.492a3.191,3.191,0,0,0-2.329-.972,3.2,3.2,0,0,0-2.337.968,3.2,3.2,0,0,0-.968,2.332,3.2,3.2,0,0,0,.964,2.333,3.2,3.2,0,0,0,2.335.972,3.254,3.254,0,0,0,1.354-.283.348.348,0,0,0,.181-.138.392.392,0,0,0,.07-.223.386.386,0,0,0-.11-.276.369.369,0,0,0-.274-.115.34.34,0,0,0-.178.049,2.563,2.563,0,0,1-1.042.213,2.447,2.447,0,0,1-1.791-.746,2.439,2.439,0,0,1-.737-1.785,2.442,2.442,0,0,1,.74-1.786,2.445,2.445,0,0,1,1.792-.742,2.513,2.513,0,0,1,.971.187,2.63,2.63,0,0,1,.814.559,2.5,2.5,0,0,1,.555.808,2.513,2.513,0,0,1,.184.978c0,.872-.2,1.313-.586,1.313-.07,0-.1-.027-.1-.1v-1.216a1.779,1.779,0,0,0-.543-1.3,1.778,1.778,0,0,0-1.3-.543,1.786,1.786,0,0,0-1.3.541,1.785,1.785,0,0,0-.542,1.3,1.792,1.792,0,0,0,.54,1.3,1.792,1.792,0,0,0,1.3.542,1.817,1.817,0,0,0,1.1-.36.751.751,0,0,0,.843.6c.9,0,1.357-.7,1.359-2.087A3.2,3.2,0,0,0-241.932,1978.492Zm-1.576,3.082a1.056,1.056,0,0,1-.34.23,1.081,1.081,0,0,1-.834,0,1.116,1.116,0,0,1-.341-.226,1.092,1.092,0,0,1-.229-.341,1.029,1.029,0,0,1-.084-.417,1.045,1.045,0,0,1,.084-.416,1.082,1.082,0,0,1,.23-.34,1.108,1.108,0,0,1,.342-.226,1.064,1.064,0,0,1,.417-.083,1.046,1.046,0,0,1,.416.086,1.048,1.048,0,0,1,.34.231,1.087,1.087,0,0,1,.226.34,1.055,1.055,0,0,1,.084.41,1.059,1.059,0,0,1-.084.411A1.118,1.118,0,0,1-243.508,1981.574Z" fill="#fff"/><path d="M-221.99,1983.483l-17.818-.015a.426.426,0,0,1-.425-.427.425.425,0,0,1,.425-.424l17.819.015a.426.426,0,0,1,.425.426A.427.427,0,0,1-221.99,1983.483Z" fill="#fff"/><path d="M-322.4,2046.278c-.008-.039.018-.043.045-.045,1.843.195,2.873,1.423,4.138,2.429a97.826,97.826,0,0,1,8.006,7.51c2.9-2.567,5.914-5.029,8.95-7.466.974.961,1.836,2.032,2.744,3.059-2.972,3.711-6.07,7.754-10.075,10.7-1.109.817-2.569,1.671-4.228.854a10.758,10.758,0,0,1-2.024-1.663,60.967,60.967,0,0,1-5.217-5.712C-319.413,2052.049-320.47,2048.3-322.4,2046.278Z" fill="#75750a" fill-rule="evenodd"/><path d="M-287.9,2057a4.045,4.045,0,0,1-.757-2.575l-.916-1.27,2.6-1.877a4.1,4.1,0,0,1,5.72.934l17.018,23.631a4.1,4.1,0,0,1-.931,5.72l-2.6,1.87-.918-1.275a4.088,4.088,0,0,1-2.206-1.527Z" fill="#031faa" fill-rule="evenodd"/><path d="M-273.154,2082.262a4.1,4.1,0,0,0,5.719.93,4.1,4.1,0,0,0,.932-5.72l-17.016-23.632a4.093,4.093,0,0,0-5.718-.928,4.1,4.1,0,0,0-.936,5.714Z" fill="#5858cc" fill-rule="evenodd"/><path d="M-294.575,2041.817c-4.6-7.173-5.8-14.608-2.688-16.62a.03.03,0,0,0,.011-.009l.005,0c.044-.025.09-.048.132-.072,3.168-1.8,9.319,2.372,13.86,9.443,4.6,7.18,5.8,14.619,2.683,16.625a3.093,3.093,0,0,1-.373.2c-3.229,1.482-9.2-2.658-13.63-9.567" fill="#031faa"/><path d="M-309.921,2047.013a7.316,7.316,0,0,0,7.378,7.248,7.313,7.313,0,0,0,7.572-7.043,7.319,7.319,0,0,0-7.375-7.255,7.32,7.32,0,0,0-7.575,7.05" fill="#5858cc" fill-rule="evenodd"/><path d="M-307.745,2032.066c0-.006,0-.006.006-.009l.073-.051a.947.947,0,0,1,.123-.085.635.635,0,0,0,.077-.047c1.411-.928,7.928-5.233,10.2-6.677-3.115,2.012-1.913,9.447,2.688,16.62,4.433,6.909,10.4,11.049,13.63,9.567l-9.444,6.138a2.643,2.643,0,0,1-.478.39,3.748,3.748,0,0,1-.52.262l0,.006,0,0c-3.267,1.283-9.113-2.837-13.471-9.632-4.506-7.013-5.751-14.287-2.881-16.478" fill="#8686f2"/><path d="M-286.712,2050.136l-9.76,7.049a19.945,19.945,0,0,1-4.053-3.193l9.57-7.481a22.319,22.319,0,0,0,4.243,3.625" fill="#5858cc"/><path d="M-294.2,2042.367q.683,1.035,1.41,1.974l-9.811,7.325c-.5-.618-.987-1.25-1.463-1.933Z" fill="#5858cc"/><path d="M-246.292,2041.4c.113-.008.224-.02.335-.034.43-.155.893-.252,1.321-.4.1-.045.2-.086.3-.127a4.334,4.334,0,0,0,.553-.363c4.9-3.758,2.865-17.735-4.552-31.223s-17.408-21.358-22.308-17.606a5.255,5.255,0,0,0-1.345,1.792c-2.883,5.318-.641,17.556,5.893,29.43C-259.78,2034.345-251.6,2041.758-246.292,2041.4Z" fill="#031faa"/><path d="M-269.515,2016.057a3.815,3.815,0,0,1,3.709-.8c5.872,1.34,10.232,12.668,5.11,17.035a70.375,70.375,0,0,1-5.021-8.037,75.694,75.694,0,0,1-3.8-8.2" fill="#afafe8"/><path d="M-246.1,2041.387l.106-.007c.41-.152.85-.249,1.263-.383-4.591-1.223-9.822-4.774-14.634-10.024a57.624,57.624,0,0,1-5.981-7.791,47.9,47.9,0,0,1-4.331-8.072c-3.544-8.944-4.94-18.171-1.591-22.787,0-.078.222-.28.2-.279a14.494,14.494,0,0,0-2.359,5.63,56.3,56.3,0,0,1-10.028,21.087,44.645,44.645,0,0,1-9.751,9.358c-.855.6-2.038,1.532-2.038,1.532a.035.035,0,0,0-.009.026c-1.869,1.637-.979,6.629,2.12,11.454s7.291,7.738,9.555,6.7l0,0a10.837,10.837,0,0,0,1.578-.817c7.357-4.15,18.437-6.7,29.921-6,1.917.12,3.78.286,5.646.4A2.725,2.725,0,0,1-246.1,2041.387Z" fill="#8686f2"/><path d="M-292.5,2030.812c-.854.6-2.045,1.54-2.045,1.54s0,.012,0,.024c-.891.774-1.151,2.323-.848,4.245-1.127-3.13-1.142-5.827.137-6.944a.035.035,0,0,1,.009-.026s1.183-.933,2.038-1.532a44.285,44.285,0,0,0,9.746-9.367,56.149,56.149,0,0,0,10.034-21.075c.495-1.957.924-4.136,2.36-5.629.013-.014-.252.279-.253.357-1.693,2.326-2.034,5.441-1.763,9.468a55.928,55.928,0,0,1-9.669,19.58,44.1,44.1,0,0,1-9.746,9.359" fill="#5858cc"/><path d="M-246.1,2041.387l.106-.007c.414-.153.86-.25,1.277-.388a22.991,22.991,0,0,1-6.3-2.881c-1.851-.117-3.706-.277-5.6-.394a59.746,59.746,0,0,0-30.82,7.05,10.513,10.513,0,0,1-1.572.818h0a1.55,1.55,0,0,1-.3.093c2.172,1.925,4.322,2.806,5.73,2.152l0,0a10.668,10.668,0,0,0,1.575-.817c7.36-4.15,18.44-6.7,29.924-6,1.917.12,3.78.286,5.645.4A2.741,2.741,0,0,1-246.1,2041.387Z" fill="#5858cc"/><path d="M-349.849,2109.915l2.306,3.14-3.666,3.223-2.727-3.839Z" fill="#f2a8a0" fill-rule="evenodd"/><path d="M-349.286,2114.717c-.116-.147-.484-.693-.822-.752s-.644.227-1.078.513c-.676-1.051.139-2.031-1.036-3.236a26,26,0,0,0-3.551,2.268c1.877,2.76,3.929,5.549,5.873,8.32a3.076,3.076,0,0,0,.551-.751,3.052,3.052,0,0,0,.005-2.278c-.322-1.05-.771-2.229-.4-3.214A6.344,6.344,0,0,1-349.286,2114.717Z" fill="#8686f2" fill-rule="evenodd"/><path d="M-349.628,2117.877c.089.313.192.624.284.924a3.052,3.052,0,0,1-.005,2.278,3.076,3.076,0,0,1-.551.751c-.873-1.245-1.768-2.493-2.659-3.742A2.944,2.944,0,0,1-349.628,2117.877Z" fill="#5858cc"/><path d="M-354.605,2115.2q-.592-.847-1.168-1.691c.763-.549,1.524-1.087,2.27-1.551A3.376,3.376,0,0,1-354.605,2115.2Z" fill="#5858cc"/><path d="M-309.738,2115.24l3.576-1.55,2.325,4.293-4.351,1.8Z" fill="#f2a8a0" fill-rule="evenodd"/><path d="M-304.932,2115.759c-.168.081-.782.319-.916.634s.079.68.261,1.166c-1.175.424-1.949-.587-3.386.289a25.976,25.976,0,0,0,1.421,3.967c3.109-1.215,6.285-2.595,9.419-3.873a3.068,3.068,0,0,0-.609-.7,3.064,3.064,0,0,0-2.222-.514c-1.094.082-2.343.256-3.221-.32A6.291,6.291,0,0,1-304.932,2115.759Z" fill="#8686f2" fill-rule="evenodd"/><path d="M-301.925,2116.8c.324-.019.65-.049.961-.073a3.064,3.064,0,0,1,2.222.514,3.068,3.068,0,0,1,.609.7c-1.408.574-2.824,1.168-4.239,1.76A2.941,2.941,0,0,1-301.925,2116.8Z" fill="#5858cc"/><path d="M-305.644,2121.053q-.957.389-1.908.762c-.365-.866-.72-1.727-1.006-2.559A3.38,3.38,0,0,1-305.644,2121.053Z" fill="#5858cc"/><path d="M-304.234,2113.529a57.853,57.853,0,0,1-7.784,3.14c-1.127-2.483-2.147-5.027-3.225-7.689a64.227,64.227,0,0,1-3.2-13.273,34.837,34.837,0,0,0-.927-4.6c-.854-2.773-2.248-5.158-3.223-7.644.288,2.042.685,4.265.963,6.44a17.908,17.908,0,0,1,.245,3.455c-.22,3.061-2.034,5.1-3.74,6.966a35.413,35.413,0,0,1-3.854,3.414c-2.664,2.17-5.619,4.106-8.553,6.056s-5.918,3.935-8.978,5.624a3.055,3.055,0,0,1-.667-.825,61.464,61.464,0,0,1-4.142-6.028,29.081,29.081,0,0,1,2.334-2.175,211.9,211.9,0,0,1,17.33-14.147c-1.1-3.547-2.027-7.711-2.865-11.713-.785-3.743-2.02-8.9-.321-12.187,3.752-.437,7.924-.893,11.6-1.33.077-.008.1-.059.178-.052.3.021.723.569,1.035.989a37.47,37.47,0,0,1,2.33,3.767c.975,1.742,1.9,3.589,2.847,5.275a82.814,82.814,0,0,1,5.523,10.738C-308.3,2095.571-306.3,2104.692-304.234,2113.529Z" fill="#031faa" fill-rule="evenodd"/><path d="M-341.863,2103.688c1.538-1.3,3.143-2.543,4.69-3.856.769-.652,1.547-1.284,2.346-1.906a14.192,14.192,0,0,0,4.173-4.329c1.01-2.034.365-4.993-.105-7.379-.725-3.684-1.556-7.166-2.16-11.023a21.424,21.424,0,0,1-.315-4.038,12.089,12.089,0,0,1,.528-3.056c-.724.082-1.439.165-2.14.246-1.7,3.291-.464,8.444.321,12.187.838,4,1.763,8.166,2.865,11.713a211.9,211.9,0,0,0-17.33,14.147,29.081,29.081,0,0,0-2.334,2.175c.454.793.945,1.562,1.452,2.311,1.185-1.045,2.343-2.115,3.507-3.163C-344.869,2106.371-343.4,2104.991-341.863,2103.688Z" fill="#051f7a"/><path d="M-318.448,2095.707a64.227,64.227,0,0,0,3.2,13.273c1.078,2.662,2.1,5.206,3.225,7.689.789-.247,1.555-.513,2.308-.791-.917-2.852-2.1-5.65-3.046-8.643a65.845,65.845,0,0,1-2.694-10.91,32.114,32.114,0,0,0-1.152-5.621c-.547-1.616-1.259-3.184-1.97-4.774-1.022-2.288-1.953-4.748-3.061-7.022-.31-.637-.873-1.9-1.436-1.916a.19.19,0,0,0-.176.1c-.4.438-.042,2.018.084,2.878.182,1.236.346,2.441.58,3.543.975,2.472,2.357,4.844,3.206,7.6A34.837,34.837,0,0,1-318.448,2095.707Z" fill="#051f7a"/><path d="M-320.609,2069.4a29.558,29.558,0,0,1-6.747,2.609,32.189,32.189,0,0,1-4.183.495,20.848,20.848,0,0,1-4.407-.046c-1.084-6.088-.484-13.038,1.439-17.765a17.816,17.816,0,0,1,4.048-6.117c1.693-1.693,3.743-3.291,6.657-3.463,3.439-.2,4.852,2.986,5.037,6.117a17.563,17.563,0,0,1-.63,4.993c-.741,3.12-1.777,6.222-1.8,9.445A11.99,11.99,0,0,0-320.609,2069.4Z" fill="#a0a603" fill-rule="evenodd"/><path d="M-322.847,2041.1c-.4.975-1.788,4.1-1.788,4.1-.294.992,4.474,3.778,4.987,2.421.366-.966.874-2.128,1.245-3.061a2.522,2.522,0,0,0,2.942-.1,2.15,2.15,0,0,0,.454-.976,7.139,7.139,0,0,0-.039-2.217,23.152,23.152,0,0,0-.805-4.092,4.028,4.028,0,0,0-2.441-2.951,4.328,4.328,0,0,0-2.474-.377,4.1,4.1,0,0,0-3.133,3.174C-324.361,2038.729-323.616,2039.87-322.847,2041.1Z" fill="#f2a8a0" fill-rule="evenodd"/><path d="M-318.4,2044.563l-1.306-.907.813,2.159Z" fill="#d16e66" fill-rule="evenodd"/><path d="M-316.265,2033.674a9.127,9.127,0,0,1,1.513-.46c.487-.122,1.126-.438,1.561-.061-.05.558-.533.644-.838.923a8.04,8.04,0,0,1,2-.206c.849.16.417.881-.025,1.259a7.96,7.96,0,0,1-2.787,1.43c-1.6.463-3.524.18-5.178.125-.137.511-.291,2-.43,2.51-.04.132-.124-.068-.129-.071a.986.986,0,0,0-.617-.3c-1.146-.028-.825,2.167.338,2.005-.32.737-.561,1.621-1.692,1.447a1.734,1.734,0,0,1-1.036-.546c-1.526-2.045-1.317-6.119-.25-7.149a2.731,2.731,0,0,1,1.889-.708,7.59,7.59,0,0,1,.6-.67C-320.056,2032.212-317.234,2032.634-316.265,2033.674Z" fill="#031faa" fill-rule="evenodd"/><path d="M-328.9,2043.656c3.311-.507,8.861,3.853,8.84,4.333-.023.5-4.342-1.225-7.985.7-1.4.74-2.819,1.583-4.407,2.339-.414.2-1.315.651-1.664.36C-335.3,2050.4-331.087,2043.992-328.9,2043.656Z" fill="#75750a" fill-rule="evenodd"/><path d="M-323.367,2045.37c-1.772-1.052-3.916-1.961-5.529-1.714a1.705,1.705,0,0,0-.294.08,11.983,11.983,0,0,0,4.01,1.343C-324.538,2045.207-323.924,2045.3-323.367,2045.37Z" fill="#75750a"/><path d="M-320.056,2047.989c-.187-.245.484-1.048.671-1.035.206.012.122.659,0,.825C-319.489,2047.921-319.95,2048.129-320.056,2047.989Z" fill="#75750a" fill-rule="evenodd"/><path d="M-299.949,2057.125c-.1.019-1.58.908-2.925,1.7a3.69,3.69,0,0,0-.5-2.7,14.216,14.216,0,0,0,3.481-2.085,11.432,11.432,0,0,1,1.26-1.34c.355-.285.8-.4,1.27-.722.341-.231.987-.864,1.27-.639.3.24-.046.764-.416,1.144a4.277,4.277,0,0,0-.973,1.171l.56.177a2.554,2.554,0,0,0,1.116.148c.962-.061,1.857-.22,2.784-.268a4.015,4.015,0,0,1,1.118.066c.084.033.206.2-.037.414a2.226,2.226,0,0,1-.9.3c-.652.136-1.227.188-1.814.274a1.7,1.7,0,0,0-.863.221c.133.147.34.1.5.116.9.088,1.666.157,2.584.189.2.006,1.2.118,1.148.418-.067.4-.89.362-1.137.366-.966.015-2.077-.053-2.859,0-.017-.005-.035,0-.053-.017l-.02.023c.024,0,.049,0,.073-.006l.01,0c.892.2,1.691.469,2.694.662.29.055.787.236.852.379.207.448-.66.405-.984.387-1.133-.063-2.36-.328-3.352-.4.673.6,1.423,1.143,2.069,1.641.233.18.64.44.588.652-.105.424-.691.14-.95.014-.326-.158-.667-.4-.959-.564s-.637-.326-.957-.522a7.672,7.672,0,0,0-.96-.6,3.9,3.9,0,0,0-.662-.114c-.451-.1-.933-.235-1.367-.352A2.063,2.063,0,0,0-299.949,2057.125Z" fill="#f2a8a0" fill-rule="evenodd"/><path d="M-313.989,2059.146a103.112,103.112,0,0,1,12.417-4.677c.551,1.245,1.1,2.486,1.589,3.818-3.475,1.961-5.954,3.959-9.645,5.644a14.412,14.412,0,0,1-4,1.252,7.3,7.3,0,0,1-5.507-1.67,21.261,21.261,0,0,1-3.821-3.862,23.623,23.623,0,0,1-3.057-4.88,19.7,19.7,0,0,1-1.189-2.92,5.561,5.561,0,0,1-.24-3.282,2.487,2.487,0,0,1,1.215-1.036,3.433,3.433,0,0,1,2.162.191,8.639,8.639,0,0,1,2.926,2.355C-318.679,2052.826-316.179,2056.315-313.989,2059.146Z" fill="#adad07" fill-rule="evenodd"/><path d="M-240.2,2015.067a18.684,18.684,0,0,0-6.85-.577,29.74,29.74,0,0,1,13.4-10.761c1.011-.467.636-1.872-.576-1.375a31.058,31.058,0,0,0-14.745,12.364c-3.928.6-9.145,2.993-13.808,5.732-.946.709-.126,1.74.828,1.212,4.194-2.5,8.77-4.691,12.157-5.27a11.277,11.277,0,0,0-.93,7.973,6.629,6.629,0,0,0,5.208,4.613,8.755,8.755,0,0,0,6.559-1.493,8.15,8.15,0,0,0,3.7-5.7C-234.858,2018.413-237.143,2016.116-240.2,2015.067Zm3.4,6.878a6.832,6.832,0,0,1-2.928,4.294,7.552,7.552,0,0,1-4.884,1.356,5.4,5.4,0,0,1-4.015-2.233,6.4,6.4,0,0,1-.954-4.35,13.189,13.189,0,0,1,1.581-4.917c2.517-.266,6.335-.443,8.9,1.106A4.349,4.349,0,0,1-236.793,2021.945Z" fill="#71a5cc" fill-rule="evenodd"/><path d="M-207.566,1994.391l-23.327-1.289,4.5,7.348,1.044,7.909Z" fill="#fff" fill-rule="evenodd"/><path d="M-207.566,1994.391l-19.613,4.76-3.58,2.714,4.523.047Z" fill="#afafe8" fill-rule="evenodd"/><path d="M-245.67,2104.836a2.282,2.282,0,0,0,1.647-.258l.059-.024a11.708,11.708,0,0,0,4.5-3.03,11.3,11.3,0,0,0,1.11-1.44,13.546,13.546,0,0,0,1.8-4.811,17.849,17.849,0,0,0,7.885.812,16.1,16.1,0,0,0,8.19-3.074,17.743,17.743,0,0,0,3.706-4.024,18.729,18.729,0,0,0,3.421-8.474,10.828,10.828,0,0,0-.072-3.176c-.006-.032-.012-.069-.017-.107-.045-.306-.15-1.021-.859-1.094a.451.451,0,0,0-.3.08.8.8,0,0,0-.21.216,1.082,1.082,0,0,0-.042.918.916.916,0,0,1,.03.114,12.373,12.373,0,0,1-.6,5.825,17.721,17.721,0,0,1-1.56,3.424,20.6,20.6,0,0,1-2.505,3.457,13.558,13.558,0,0,1-8.419,4.389,16.5,16.5,0,0,1-8.435-.74c.007-.086.022-.18.037-.281a4.07,4.07,0,0,0,.054-.454,18.4,18.4,0,0,0-.153-3.191,7.45,7.45,0,0,0-1.774-4.336,4.47,4.47,0,0,0-3.415-1.493,2.334,2.334,0,0,0-1.794,1.095,2.917,2.917,0,0,0-.209.382,2.389,2.389,0,0,0-.159.57c-.008.044-.016.088-.026.13-.637,3.034,2.6,6.966,5.9,8.479-.01.05-.025.1-.04.16-.019.073-.038.145-.053.215a11.72,11.72,0,0,1-1.58,4.2,9.627,9.627,0,0,1-.718.97,10.166,10.166,0,0,1-4.893,3.179l-.064.018a1.161,1.161,0,0,0-.7.418.675.675,0,0,0-.08.549A.634.634,0,0,0-245.67,2104.836Zm3.195-17.733a2.415,2.415,0,0,1,.2-1.031,1.032,1.032,0,0,1,.808-.59,2.9,2.9,0,0,1,2.044.847,5.759,5.759,0,0,1,1.609,3.659,13.86,13.86,0,0,1,.115,2.893c-.005.084-.006.169-.008.256,0,.031,0,.062,0,.094C-240.155,2091.958-242.4,2089.117-242.475,2087.1Z" fill="#031faa"/><path d="M-333.643,2025.939c.979-.879,1.812.043,1.039.878a56.328,56.328,0,0,0-4.458,5.005,43.758,43.758,0,0,0-6.543,12.837,47.237,47.237,0,0,0-1.971,8.025,44.761,44.761,0,0,0,.776,16.361,47.182,47.182,0,0,0,8.455,18.611,44.316,44.316,0,0,0,4.269,5.014,38.83,38.83,0,0,0,18.49,10.436,47.788,47.788,0,0,0,8.735,1.229c5.921.343,11.04-.258,15.315-2.016a13.572,13.572,0,0,1-1.854-4.761c-.671-4.069,1.04-8.4,3.67-10.017a5.736,5.736,0,0,1,5.342-.481,5.688,5.688,0,0,1,3.188,3.68,7.467,7.467,0,0,1-.724,5.622,16.428,16.428,0,0,1-7.235,6.479,9.567,9.567,0,0,0,2.184,2.037,25.783,25.783,0,0,0,2.633,1.632,20.454,20.454,0,0,0,6.452,2.3,19.947,19.947,0,0,0,7.264-.28,30.286,30.286,0,0,0,5.908-2c1.331-.476,1.518.836.491,1.362-.178.241-.512.267-.763.373a26.957,26.957,0,0,1-5.7,1.8,21.7,21.7,0,0,1-7.976.161,22.469,22.469,0,0,1-6.822-2.659,19.268,19.268,0,0,1-5.142-4.019c-4.425,1.93-9.648,2.555-15.71,2.336a44.494,44.494,0,0,1-16.788-3.791c-9.044-4.181-15.439-11.032-19.95-18.954a47.349,47.349,0,0,1-5.1-13.468,50.069,50.069,0,0,1-.918-16.737,42.656,42.656,0,0,1,1.968-8.432,51.916,51.916,0,0,1,2.924-7.2A36.4,36.4,0,0,1-333.643,2025.939Zm50.063,72.617a9.247,9.247,0,0,0,3.083-4.832,4.748,4.748,0,0,0-.393-3.162,3.783,3.783,0,0,0-3.721-2.47,4.541,4.541,0,0,0-3.486,1.761,10.03,10.03,0,0,0-1.644,8.376,9.13,9.13,0,0,0,1.676,3.43A16.931,16.931,0,0,0-283.58,2098.556Z" fill="#8686f2" fill-rule="evenodd"/><path d="M-251.031,2115.871c0,.544-1.559.984-3.482.984s-3.483-.44-3.483-.984,1.56-.983,3.483-.983S-251.031,2115.328-251.031,2115.871Z" fill="#a0a603"/><path d="M-248.479,2099.7a6.362,6.362,0,0,0-6.106-6.358,6.363,6.363,0,0,0-6.107,6.358c-.169,6.086,5.421,15.834,6.107,15.864C-253.9,2115.536-248.31,2105.788-248.479,2099.7Zm-6.106,3.8a2.963,2.963,0,0,1-2.792-3.126,2.96,2.96,0,0,1,2.792-2.987,2.958,2.958,0,0,1,2.791,2.987A2.961,2.961,0,0,1-254.585,2103.5Z" fill="#a0a603"/><path d="M-189.262,2104.784s2.04,5.281,1.739,6.073c0,0,1.4.277,2.868-2.047l-1.5-5.158Z" fill="#f2a8a0" fill-rule="evenodd"/><path d="M-186.113,2103.783a2.376,2.376,0,0,1-3.011,1.405Z" fill="#dbaf91" fill-rule="evenodd"/><path d="M-181.526,2112.512c-.852-2.1-3.057-6.795-3.283-7.067-.7.185-3.532,1.368-4.228,1.592l-.062.047c.55,1.736,1.583,3.73,1.388,5.357-.131,1.1-1.221,2.091-1.652,3.221a1.388,1.388,0,0,0,.267,1.058l5.626-2.624a11.578,11.578,0,0,0-.246-1.267,2.458,2.458,0,0,1,.087-1.915c.23.548.51,1.065.752,1.613.154.35.288.726.476,1.071l1.052-.492A2.524,2.524,0,0,0-181.526,2112.512Z" fill="#031faa"/><path d="M-205.792,2105.985s-.444,5.644-1.058,6.227c0,0,1.148.857,3.471-.6l.882-5.3Z" fill="#f2a8a0" fill-rule="evenodd"/><path d="M-202.52,2106.443a2.375,2.375,0,0,1-3.322-.035Z" fill="#dbaf91" fill-rule="evenodd"/><path d="M-202.158,2116.3c.139-2.258.183-7.449.1-7.791-.715-.138-3.776-.294-4.5-.394l-.076.016c-.255,1.8-.186,4.048-1.065,5.432-.6.935-2,1.355-2.882,2.188a1.393,1.393,0,0,0-.218,1.071l6.208.066a11.244,11.244,0,0,0,.326-1.248c.205-.715.268-1.262.907-1.69-.029.594,0,1.181-.02,1.78-.011.382-.053.779-.034,1.171l1.162.011A2.536,2.536,0,0,0-202.158,2116.3Z" fill="#031faa"/><path d="M-192.336,2062.905c.2.057.082.258.176.419a12.477,12.477,0,0,1,1.675,7.15c-.063.986-.211,1.952-.2,2.963.055,4.064-.094,8.364.178,12.18a8.455,8.455,0,0,0,.526,2.608c.869,2.191,1.816,4.514,2.663,6.727a85.189,85.189,0,0,1,3,9.519c-1.952.626-3.857,1.3-5.8,1.938a2.511,2.511,0,0,1-.468-.729c-.966-1.742-1.948-3.608-2.889-5.418-1.077-2.074-2.109-4.2-3.047-6.437a21.186,21.186,0,0,1-2.081-7.35c-.151-2.789-.613-7.991-.73-11.118a53.816,53.816,0,0,0-1.963,8.072,19.587,19.587,0,0,0,.024,3.082c.159,2.942.49,5.724.653,8.661.226,4.023.03,8.149.022,12.364-2.335-.048-4.638-.064-6.876-.009-.65-7.125-1.7-14.358-2.274-21.636a31.188,31.188,0,0,1,.206-5.855c.609-5.54,1.645-10.955,2.055-16.587,4.872-.308,9.913-.436,15.044-.471C-192.411,2062.955-192.409,2062.892-192.336,2062.905Z" fill="#71a5cc" fill-rule="evenodd"/><path d="M-187.317,2094.952c-.847-2.213-1.794-4.536-2.663-6.727a8.455,8.455,0,0,1-.526-2.608c-.272-3.816-.123-8.116-.178-12.18-.012-1.011.136-1.977.2-2.963a12.477,12.477,0,0,0-1.675-7.15c-.094-.161.024-.362-.176-.419-.073-.013-.075.05-.113.073-.759,0-1.514.013-2.269.022a9.354,9.354,0,0,0,.322,1.01c.155.454.286.914.451,1.329a25.672,25.672,0,0,1,.977,2.621,18.311,18.311,0,0,1,.3,6.584c-.12,1.136-.3,2.192-.432,3.257a19.5,19.5,0,0,0,.015,3.459c.123,2.181.371,4.328.678,6.444a13.276,13.276,0,0,0,.67,2.875,25.385,25.385,0,0,0,1.132,2.476c.816,1.589,1.648,3.176,2.378,4.84a65.463,65.463,0,0,1,2.546,7.021c.452-.149.906-.3,1.361-.445A85.189,85.189,0,0,0-187.317,2094.952Z" fill="#71a5cc"/><path d="M-199.388,2070.471c-.047.014-3.938,11.357-4.3,14.729a23.292,23.292,0,0,0,.23,5.119,97.215,97.215,0,0,1,.88,9.908c.048,1.656.122,3.419.267,5.118a18.166,18.166,0,0,0,.261,2.166q.72.011,1.442.025c.008-4.215.2-8.341-.022-12.364-.163-2.937-.494-5.719-.653-8.661a19.587,19.587,0,0,1-.024-3.082,53.816,53.816,0,0,1,1.963-8.072S-199.357,2070.464-199.388,2070.471Z" fill="#71a5cc"/><path d="M-191.445,2029.491a3.633,3.633,0,0,1-.853.562,28.4,28.4,0,0,0-2.466,1.818,14.872,14.872,0,0,0-1.554,1.409,5.637,5.637,0,0,0-1.305,1.827,20.2,20.2,0,0,0-.892,4.072c-.211,1.293-.345,2.575-.638,3.908a1.245,1.245,0,0,1-.937.161,29.77,29.77,0,0,1-3.255-.541c.048-.805.945-1.2.928-2.044-.013-.578-.771-.962-.6-1.754.184-.842,1.11-1.242,1.338-2.158.158-.637-.122-1.328.219-2.191a6.5,6.5,0,0,1,1.8-2.12,27.622,27.622,0,0,1,4.133-3.26,3.109,3.109,0,0,1,3.42-.229C-191.86,2029.1-191.707,2029.335-191.445,2029.491Z" fill="#031faa" fill-rule="evenodd"/><path d="M-193.306,2037.782c-.655,2.318-1.122,4.535-1.889,6.914-.031.192-.128-.045-.195.078a54.267,54.267,0,0,1-3.873,4.434c-.19.185-.451.4-.706.64-.231.215-.5.585-.741.528-.323-.075-.431-.851-.448-1.23a22.582,22.582,0,0,1,.491-4.671c.177-1.039.353-2.153.655-3.289.308-1.159.708-2.323,1.043-3.444-1.214-.257-2.167-.96-2.258-1.915a2.145,2.145,0,0,1,.251-1.052,7.149,7.149,0,0,1,1.411-1.726,23.318,23.318,0,0,1,3.186-2.728,4.051,4.051,0,0,1,3.765-.808,4.359,4.359,0,0,1,2.187,1.243,4.128,4.128,0,0,1,.5,4.459C-190.631,2036.852-191.93,2037.287-193.306,2037.782Z" fill="#f2a8a0" fill-rule="evenodd"/><path d="M-201.6,2052.057c.371.142.87-.2,1.189-.426a10.244,10.244,0,0,0,1-.825,51.922,51.922,0,0,0,4.935-5.964q-.437-.2-.909-.382a60.977,60.977,0,0,1-4.6,5.182,1.485,1.485,0,0,1-.866.489,3.694,3.694,0,0,1-.184-1.765,44.6,44.6,0,0,1,.647-5.546c-.259-.061-.406-.09-.652-.136a46.162,46.162,0,0,0-.967,7.2C-202.013,2050.427-202.155,2051.842-201.6,2052.057Z" fill="#fcce7c"/><path d="M-198.969,2037.742l1.6.1-1.988,1.2Z" fill="#d16e66" fill-rule="evenodd"/><path d="M-185.4,2051.266c-2.034-.419-8.8-1.838-8.8-1.838a17.991,17.991,0,0,0-1.739-4.455c-.9-1.554-1.927-2.26-1.48-4.1a13.6,13.6,0,0,1,1.287-2.892,13.153,13.153,0,0,1,1.538-2.371c.007-.177-.136-.288-.209-.439a5.345,5.345,0,0,1-.472-1.374,5.938,5.938,0,0,1,1.243-4.444c.513.018,1.01-.068,1.552-.043a10.279,10.279,0,0,1,1.838.249,3.772,3.772,0,0,1,3.179,3.391c.161,1.418-.687,2.677-1.345,3.762a2.751,2.751,0,0,0-.622,1.829c.17.69,2.432,1.751,2.58,3.975a8.051,8.051,0,0,1-.319,1.955,2.676,2.676,0,0,0,.235,2.156c.421.521,1.118.774,1.536,1.252C-184.63,2048.768-184.75,2049.868-185.4,2051.266Z" fill="#031faa" fill-rule="evenodd"/><path d="M-226.806,2030.975c.074.075.783,1.647,1.437,3.066a3.7,3.7,0,0,1,1.943-1.934,14.253,14.253,0,0,1-1.676-3.694,11.325,11.325,0,0,0-.273-1.821c-.129-.436-.428-.785-.633-1.316-.148-.382-.319-1.272-.681-1.247-.382.026-.4.652-.308,1.175a4.353,4.353,0,0,1,.134,1.518c-.179-.054-.372-.116-.561-.173a2.553,2.553,0,0,1-1-.514c-.755-.6-1.4-1.237-2.136-1.805a3.969,3.969,0,0,0-.956-.58c-.088-.023-.285.045-.205.359a2.206,2.206,0,0,0,.571.764c.457.482.9.853,1.334,1.257.229.216.5.386.587.673-.2.045-.339-.111-.477-.187-.788-.438-1.461-.819-2.231-1.317-.168-.106-1.054-.585-1.183-.308-.171.365.525.8.727.947.787.563,1.738,1.139,2.351,1.626.018.006.028.02.053.016l0,.029c-.019-.015-.038-.031-.058-.045l-.009,0c-.849-.341-1.659-.579-2.593-.99a1.693,1.693,0,0,0-.916-.174c-.424.251.312.709.59.879.966.592,2.126,1.075,2.986,1.576-.9.111-1.822.128-2.636.173-.293.015-.777,0-.854.2-.156.408.487.507.772.552.358.055.779.047,1.11.081s.709.095,1.084.116a7.741,7.741,0,0,1,1.134.047,4.078,4.078,0,0,1,.609.283c.426.18.9.338,1.325.491A2.076,2.076,0,0,1-226.806,2030.975Z" fill="#f2a8a0" fill-rule="evenodd"/><path d="M-229.677,2029.381a1.253,1.253,0,0,1-.225-.465,2.746,2.746,0,0,1,.913-2.521A4,4,0,0,0-229.677,2029.381Z" fill="#d16e66" fill-rule="evenodd"/><path d="M-226.863,2026.722a4.479,4.479,0,0,0,.5,2.818C-227.2,2029.191-227.427,2027.362-226.863,2026.722Z" fill="#d16e66" fill-rule="evenodd"/><path d="M-219.2,2025.065c.066.081.6,1.72,1.1,3.2a3.7,3.7,0,0,1,2.14-1.715,14.162,14.162,0,0,1-1.271-3.853,11.366,11.366,0,0,0-.078-1.838c-.082-.448-.342-.827-.489-1.376-.106-.4-.181-1.3-.543-1.314-.383-.015-.464.608-.432,1.137a4.3,4.3,0,0,1-.03,1.522c-.173-.073-.356-.154-.539-.231a2.555,2.555,0,0,1-.942-.618c-.688-.675-1.261-1.381-1.931-2.024a4.014,4.014,0,0,0-.889-.679c-.085-.031-.288.016-.243.336a2.211,2.211,0,0,0,.487.82c.4.529.8.944,1.192,1.393.206.239.458.437.509.731-.2.025-.323-.147-.452-.238-.737-.519-1.364-.969-2.079-1.546-.153-.125-.985-.695-1.142-.434-.209.345.437.856.622,1.02.721.644,1.6,1.317,2.165,1.868.015.007.025.024.05.021v.03c-.016-.017-.034-.034-.051-.051l-.011,0c-.807-.429-1.586-.751-2.471-1.261a1.7,1.7,0,0,0-.893-.27c-.449.2.234.738.492.937.9.692,2,1.295,2.8,1.885-.9.015-1.824-.066-2.639-.11-.293-.017-.772-.087-.871.108-.2.39.431.558.709.632.35.093.769.131,1.1.2s.7.171,1.066.232a7.713,7.713,0,0,1,1.121.169,3.89,3.89,0,0,1,.575.347c.4.222.86.433,1.266.628A2.076,2.076,0,0,1-219.2,2025.065Z" fill="#f2a8a0" fill-rule="evenodd"/><path d="M-215.367,2023.466a38.073,38.073,0,0,0,7.5,8.406c4.258,3.739,8.981,6.954,11.713,12.173a37.464,37.464,0,0,1,2.283,5.59,36.391,36.391,0,0,1,1.782,9.933c.029.628.017,1.261.02,1.917,0,.595-.056,1.317-.091,1.839a61.635,61.635,0,0,1-7.416.5c-2.579.1-5.247.044-7.926-.114-.025-2.834-.059-5.659-.082-8.5-.008-1.028-1.056-1.923-1.06-2.955s1.036-2.23,1.038-3.281c0,0-1.035-.51-1.593-.76-1.561-.7-3.2-1.433-4.67-2.275a39.588,39.588,0,0,1-5.415-3.8,38.008,38.008,0,0,1-8.4-9.933,5.86,5.86,0,0,1,1.036-.762c1.017-.685,2.08-1.432,3.142-2.125a29.259,29.259,0,0,0,12.162,9.629,63.756,63.756,0,0,1-9.16-12.1,12.073,12.073,0,0,1,1.228-.866c1.217-.822,2.524-1.718,3.791-2.484C-215.459,2023.487-215.4,2023.4-215.367,2023.466Z" fill="#8686f2" fill-rule="evenodd"/><path d="M-192.069,2061.485c0-.656.009-1.289-.02-1.917a36.429,36.429,0,0,0-1.745-9.818l.012.065a36.405,36.405,0,0,1,.324,10.088c-.062.625-.164,1.249-.258,1.9-.081.571-.235,1.252-.344,1.758.66-.059,1.308-.134,1.94-.237C-192.125,2062.8-192.068,2062.08-192.069,2061.485Z" fill="#5858cc"/><path d="M-211.339,2038.95q-1.125-.507-2.185-1.074c.265.383.523.774.754,1.183.645,1.146,1.281,2.323,1.889,3.587a50.521,50.521,0,0,1,2.336,5.877c.474.226.939.455.939.455.041-.458.057-.655.07-1.089C-207.4,2043.251-208.9,2041.183-211.339,2038.95Z" fill="#5858cc"/><path d="M-204.387,2054.72c3.054,1.878,5.266-1.942,5.266-1.942C-202.085,2055.242-204.387,2054.72-204.387,2054.72Z" fill="#5858cc" fill-rule="evenodd"/></g></svg>