<svg xmlns="http://www.w3.org/2000/svg" width="295" height="301" viewBox="0 0 295 301"><ellipse cx="82.5" cy="6" rx="82.5" ry="6" transform="translate(45 289)" fill="#e8e8e8"/><g transform="translate(62.709)"><g transform="translate(40.461 0)"><g transform="translate(83.557 99.522)"><path d="M-610.345,426.657a1.517,1.517,0,0,1-.435-.064,1.525,1.525,0,0,1-1.024-1.9l6.859-22.982a1.523,1.523,0,0,1,1.894-1.024,1.525,1.525,0,0,1,1.024,1.9l-6.859,22.982A1.525,1.525,0,0,1-610.345,426.657Z" transform="translate(611.868 -400.628)" fill="#f7cc7f"/></g><rect width="45.832" height="60.442" transform="translate(76.005 118.809)" fill="#dcebf8"/><path d="M-587.444,393.74l.834.747a1.025,1.025,0,0,0,1.442-.036l14.806-16.275a1.008,1.008,0,0,0-.111-1.427l-.835-.747a1.026,1.026,0,0,0-1.442.036l-14.8,16.275A1.007,1.007,0,0,0-587.444,393.74Z" transform="translate(706.131 -312.184)" fill="#2f2f3b"/><path d="M-621.833,379.118c1.978-1.61,17.281,5.106,17.087,7.443s10.679,25,10.679,25l18.789-14.98.007,0c.166-.542,1.948-6.369,2.033-7.411.091-1.094,3.267-3.007,4.74-2.725s-1.26,2.131-1.44,2.471c-.488.925,1.4,1.271,1.4,1.271s5.428-2.979,5.544-4.732,1.237-5.425,2.409-4.657c.605.4.6,3,.412,4.239.348-1.4.842-2.989,1.322-3.145.878-.288,1.315.829,1.156,1.378s-1.578,6.508-2.008,7.178c-.42.655-9.188,7.718-10.451,9.251,0,0-24.3,27.782-26.034,28.509-1.518.637-6.931-8.936-12.046-15.292S-628.017,384.146-621.833,379.118Z" transform="translate(690.327 -310.784)" fill="#f7a491"/><path d="M-650.754,523.235s-3.339,3.258-3.416,4.455-.295,14.006,1.068,15.2,5.368,2.045,4.08,3.39c-.972,1.017-8.46.8-13.42.526-1.449-.079-3.265-11.635-3.839-13.333-.832-2.466-2.858-8.022-2.1-9.741.368-.838,2.134-2.56,4.622-4.167a22.717,22.717,0,0,0,5.12-5.453Z" transform="translate(670.21 -250.62)" fill="#f48c7f"/><path d="M-631.03,525.735s-2.989,8.442-2.992,8.464c-.223,1.338-1.1,4.642-1.1,5.857,0,4.569,20.6-3.877,15.984-5.9a4.881,4.881,0,0,1-1.867-3.2c-.211-2.4,1.735-5.4,1.735-5.4Z" transform="translate(685.081 -245.531)" fill="#f7a491"/><g transform="translate(7.595 122.994)"><path d="M-599.407,416.873s1.5,15.133,1.5,15.359c0,24.483,4.853,72.307,3.93,76.91-2.251,11.227-26.484,68.5-26.484,68.5l-13.1-1.565,17.067-68.572-6.279-27.6-8.887-54.557Z" transform="translate(678.181 -416.873)" fill="#272733"/><path d="M-629.625,429.594l-2.485,14.346-6.724,59.036-25.607,57.7s3.6,8.395,8.916,9.575l40.755-59.241,25.317-75.8-.889-16.841Z" transform="translate(664.442 -416.208)" fill="#2f2f3b"/></g><path d="M-600.459,404.13l-18.162,1.854s-.832-14.889-.832-21.991c0-8.617.734-19.715,1.774-19.477,2.92.67,6.853,2.283,9.2,5.5C-600.381,381.149-600.459,404.13-600.459,404.13Z" transform="translate(692.05 -317.172)" fill="#a0a603"/><path d="M-647.97,468.945c-2.771-4.482-3.392-3.846-3.732-4.43-.4-.691.043-11.359.043-11.359s1.111-31.452,1.23-33.147l14.189-29.037-12.265-11.4s-14.6,32.015-15.077,33.827,2.9,44.558,3.082,48.329c0,0-1.422,4.561-2.222,7.456s-.286,6.016-.387,6.867a27.283,27.283,0,0,0,.519,6.568c.61,3.091,1.422-.11,1.422-.11s-.12-5.921.341-5.844c.355.058.233,3.294.873,6.72.165.881.331,1.75.49,2.547.416,2.091,1.8,2.443,1.7.188a21.782,21.782,0,0,0-.311-3.054,17.955,17.955,0,0,1-.127-2.878,23.392,23.392,0,0,1-.11-2.968c.094.046.315-.309.517.621.246,1.118.249,3.6.733,5.222.274.916.734,2.867.734,2.867a19.06,19.06,0,0,0,1.423,2.806c1.007-.088.7-2.25.163-3.449a14.634,14.634,0,0,0-.5-2.974s-.185-4.362.422-4.392c.259-.012.688,2.653,1.511,5.2.764,2.368,1.916,4.638,2.4,4.56.819-.131.246-2.849.246-2.849s-.5-1.884-.623-2.521c-.14-.748-.393-3.018-.393-3.018s-.516-7.94.062-7.918a3.747,3.747,0,0,1,2.244,1.163c.2.481.111,1.556.311,2.039a1.294,1.294,0,0,0,1.468.746c.6-.2.51-2.9.51-2.9A8.69,8.69,0,0,0-647.97,468.945Z" transform="translate(672.398 -310.472)" fill="#f8a492"/><path d="M-598.6,382.649c.38,2.627,7.361,74.049,7.361,74.049-33.068,15.972-51.316,2.845-51.316,2.845s1.082-50.154-.215-56.979c-.858-4.517-1.927-34.528,1-35.369a73.31,73.31,0,0,1,12.755-2.712c4.007-.415,19.571-.656,22.356.279A35.462,35.462,0,0,1-598.6,382.649Z" transform="translate(681.269 -317.348)" fill="#a0a603"/><path d="M-658.7,396.537l15.733,10.563s8.869-13.2,13.628-17.893c5.963-5.885-2.172-23.912-6.013-22.892C-643.945,368.6-658.7,396.537-658.7,396.537Z" transform="translate(674.592 -316.389)" fill="#a0a603"/><path d="M-663.085,517.832s7.7,21.672,10.709,22.718c.8.277,4.639.983,5.363,2.68a7.343,7.343,0,0,1,0,2.219h-16.044s-2.029-9.548-2.831-13.744c0,0-4.246-10.25-3.775-11.182S-663.085,517.832-663.085,517.832Z" transform="translate(669.698 -248.966)" fill="#2f2f3b"/><path d="M-635.93,538.929l2.358-7.453s4.954,2.1,7.432,1.747a74.814,74.814,0,0,0,7.314-1.747c9.887,3.255,17.988,4.834,16.515,7.453H-635.93Z" transform="translate(684.72 -242.896)" fill="#2f2f3b"/><path d="M-629.74,354.5l-2.433,14.875s8.906,18.926,14.228,17.333c4.464-1.336,1.718-17.593,1.718-17.593s-2.433-8.73-1.7-13.1S-629.74,354.5-629.74,354.5Z" transform="translate(686.392 -322.032)" fill="#f7a491"/><path d="M-618.617,356.02c.73-4.369-11.809-1.517-11.809-1.517l-.2,1.279a7.062,7.062,0,0,0,1.361,2.151,16.837,16.837,0,0,0,10.964,4.758A22.774,22.774,0,0,1-618.617,356.02Z" transform="translate(687.078 -322.032)" fill="#f47458"/><g transform="translate(44.551)"><path d="M-631.614,340.6c-.354-.124-2.841,17.572,1.877,22.442s13.911,6.463,17.208,2.628c3.647-4.242,3.463-23.261-3.871-28.27S-631.614,340.6-631.614,340.6Z" transform="translate(641.657 -329.955)" fill="#f7a491"/><path d="M-627.091,335.57c-2.575.292-6.074,1.657-9.688,7.395-4.443,7.055-1.162,14.872,4.011,18.707s5.079,8.227,5.079,8.227l.838-2.254a12.321,12.321,0,0,0,.649-5.4,10.219,10.219,0,0,0-.837-3.245c-1.244-2.56,2.672-4.262,3.77-6.393.845-1.64.886-5.394,2.219-8.106l1.591-2.07s3.67-2.739,7.26-1.966S-613.02,324.439-627.091,335.57Z" transform="translate(638.864 -331.748)" fill="#494949"/><path d="M-626.788,349.558c.038,2.159-.985,3.927-2.286,3.947s-2.384-1.711-2.422-3.871.987-3.927,2.286-3.947S-626.826,347.4-626.788,349.558Z" transform="translate(642.141 -325.547)" fill="#f7a491"/></g><g transform="translate(92.241 98.105)"><path d="M-603.223,428.832a.976.976,0,0,1-1.143-.795,112.875,112.875,0,0,1-1.378-11.887c-.519-9.272.731-14.518,3.82-16.037s8.026.647,15.106,6.615a112.952,112.952,0,0,1,8.645,8.213.975.975,0,0,1-.052,1.391h0a.974.974,0,0,1-1.37-.054c-6.443-6.9-17.415-16.4-21.465-14.408s-3.04,16.5-1.384,25.833a.974.974,0,0,1-.779,1.128Z" transform="translate(605.858 -399.647)" fill="#b7af8f"/></g><g transform="translate(95.443 97.737)"><path d="M-596.794,422.614c-.824,0,.03-.345-.029-1.172-1.576-22.177-6.532-19.881-6.749-20.505a1.22,1.22,0,0,1,1.584-1.482c.7.248,6.271,2.968,6.717,21.6a1.522,1.522,0,0,1-1.485,1.559Z" transform="translate(603.641 -399.392)" fill="#dcebf8"/></g><path d="M-575.176,407.955-608.3,423.762-592.576,488l55.9-28.275Z" transform="translate(697.013 -297.846)" fill="#e5dec1"/><g transform="translate(91.938 98.799)"><path d="M-603.865,418.756a4.175,4.175,0,0,0,.5-.371c-.588-7-.481-13.777,1.715-16.07-.053-.11-.533-1.13-1.035-2.187-2.544,1.968-3.755,7.2-3.28,15.687a14.76,14.76,0,0,0,.335,1.758C-604.892,418.383-604.223,418.906-603.865,418.756Z" transform="translate(606.067 -400.127)" fill="#f7a491"/></g><path d="M-542.38,451.165l-42.993-43.211,38.5,51.766,1.305-5.655Z" transform="translate(707.211 -297.846)" fill="#b7af8f"/></g><g transform="translate(0 27.051)"><path d="M-631.108,378.541a39.82,39.82,0,0,0-3.817-19.621c-2.657-5.385-9.23-8.441-15.223-8.45-19.033-.023-21.453,24.477-33.568,33.927-3.634,2.835-7.685,5.155-11.147,8.184a16.6,16.6,0,0,0,.915,5.892c3.739,9.91,13.277,15.521,22.439,20.569a60.013,60.013,0,0,0,26.083,6.758c3.346-6.759,5.7-14.254,8.276-21.237C-634.072,396.191-631.49,387.477-631.108,378.541Z" transform="translate(698.962 -350.47)" fill="#494949"/><g transform="translate(47.848 61.291)"><path d="M-612.565,465.429s-1.426-1.084-1.871-1.479c-.523-.464-1.975-1.975-1.975-1.975s-4.8-5.493-4.356-5.814,1.816.169,2.237.4.933.472,1.354.709a.966.966,0,0,0,1.292-.368c.344-.493-1.114-1.792-1.711-2.14a76.714,76.714,0,0,0-8.028-3.245c-.688-.272-7.207-11.322-9.751-14.931h0c-3.982-6.032-9.959-13.943-10.379-14.583l-6.45-28.114-12.384-1s9.12,33.016,9.77,34.615c.309.76,10.656,14.027,10.662,14.024,5.519,6.214,10.867,11.672,11.773,12.747,0,0,1.351,3.946,2.357,6.522s3,4.543,3.391,5.223a17.642,17.642,0,0,0,3.822,4.722c2.18,1.9,1.014-.906,1.014-.906s-3.384-4.252-2.992-4.465c.3-.163,2.007,2.268,4.4,4.4.615.548,1.224,1.087,1.786,1.576,1.478,1.284,2.716.74,1.393-.852a19.171,19.171,0,0,0-1.933-2.049,15.848,15.848,0,0,1-1.7-2.027,20.668,20.668,0,0,1-1.734-2.1c.1-.022.066-.409.737.152.806.673,2.192,2.487,3.456,3.385.718.51,2.15,1.666,2.15,1.666a18.412,18.412,0,0,0,2.666,1.5c.711-.649-.757-2.326-1.826-2.89a12.8,12.8,0,0,0-2.029-1.883s-2.565-3.076-2.122-3.45c.364-.308,7.971,5.86,8.639,5.161C-610.365,467.387-612.565,465.429-612.565,465.429Z" transform="translate(664.586 -392.89)" fill="#f48c7f"/></g><path d="M-689.593,519.7s-1.341,9.043-3.648,11.962a23.206,23.206,0,0,0-3.117,3.988c-1.445,2.757-.646,6.859.421,9.119.546,1.159-.039,1.156,1.206,1.53a7.721,7.721,0,0,0,9.187-4.193,20.8,20.8,0,0,0,1.8-7.707c.394-8.211,3.021-12.387,3.021-12.387Z" transform="translate(697.951 -275.184)" fill="#f7a491"/><path d="M-663.515,522.567s.828,10.2.156,13.511c-.36,1.774-2.364,5.428-1.445,7.1a4.553,4.553,0,0,0,1.971,2.086l23.823.374c1.3.02.439-.792-.607-1.54-1.712-1.225-3.095-2.034-8.565-4.608-.357-.168-1.656-.971-2.124-1.248a16.344,16.344,0,0,1-3.408-2.927c-1.711-1.851-1.859-10.832-1.859-10.832Z" transform="translate(712.231 -273.911)" fill="#f7a491"/><path d="M-644.092,429.538s3,16.557,1.03,27.412-11.423,111.47-11.423,111.47l-10.507.576s-2.2-42.03-1.808-47.874,3.511-15.626,3.511-15.626l-1.046-33.934,13.258-44.58Z" transform="translate(711.428 -316.433)" fill="#244d70"/><path d="M-663.414,427.5s-8.272,12.106-10.243,22.127,1.446,40.813-2.344,53.942c-2.05,7.107-9.825,18.084-11.005,27.269s-5.818,33.243-5.818,33.243l10.5,2.024,24.407-60.086,19.143-54.308,4.9-27.97Z" transform="translate(699.872 -317.875)" fill="#244d70"/><path d="M-662.871,378.675s-10.953-.678-15.287,3.914,9.613,40.921,10.4,46.766-4.017,21.385-4.017,21.385,25.73,5.035,33.084.3c0,0,1.351-42.437.564-46.611s-7.918-20.747-9.493-22.417S-662.871,378.675-662.871,378.675Z" transform="translate(706.026 -337.938)" fill="#529ad9"/><path d="M-664.073,368.888s-.058.314-.159.847c-.488,2.562-2.37,11.055-3.64,13.391-1.536,2.822,5.256,11.822,11.793,10.724,1.946-.328-1.644-8.27-1.472-9.111.331-1.611.779-3.809,1.237-6.061.259-1.27.52-2.559.766-3.77.7-3.442,1.27-6.256,1.27-6.256Z" transform="translate(710.875 -342.382)" fill="#f7a491"/><path d="M-665.328,369.735c.1-.533.159-.847.159-.847l9.795-.237s-.571,2.815-1.27,6.256c-.244,1.2-.5,2.485-.761,3.749a9.286,9.286,0,0,1-4.677-2.28,12.009,12.009,0,0,1-3.543-5.123C-665.5,370.651-665.405,370.132-665.328,369.735Z" transform="translate(711.971 -342.382)" fill="#f47458"/><path d="M-657.441,353.84a8.973,8.973,0,0,0-7.512,3.121c-2.894,3.64-6.013,14.894,1.176,21.013s14.293-.808,15.346-8.15S-646.968,353.574-657.441,353.84Z" transform="translate(710.835 -348.982)" fill="#f7a491"/><path d="M-651.826,366.055c-.858,1.621-2.3,2.52-3.218,2.005s-.968-2.245-.11-3.868,2.3-2.52,3.218-2.005S-650.969,364.432-651.826,366.055Z" transform="translate(716.357 -345.322)" fill="#f7a491"/><path d="M-655.6,353.034s-6.168,10.7-10.581,11.2-4.992,6.181-4.992,6.181,1.578-13.1,5.946-15.632A16.637,16.637,0,0,1-655.6,353.034Z" transform="translate(709.506 -349.38)" fill="#494949"/><path d="M-684.58,535.4c-5.723,1.014-9.53-2.241-11.513-4.679-1.455,2.761-2.164,6.88-1.094,9.149.942,2,3.7,1.94,5.865,2.018a5.683,5.683,0,0,0,5.2-3.1A18.282,18.282,0,0,0-684.58,535.4Z" transform="translate(697.702 -270.283)" fill="#2f2f3b"/><path d="M-650.294,533.572a22.14,22.14,0,0,1-13.563-.517c-.672,1.851-1.562,4.174-1.089,5.514.578,1.64,1.4,2.011,2.13,2.029,5.753.147,21.079.347,25.467.4a.7.7,0,0,0,.558-1.146C-637.88,538.59-649.824,533.853-650.294,533.572Z" transform="translate(712.215 -269.245)" fill="#2f2f3b"/><path d="M-665.491,363.54c.358,1.9-.363,3.644-1.613,3.894s-2.553-1.089-2.911-2.991.363-3.642,1.613-3.892S-665.849,361.64-665.491,363.54Z" transform="translate(709.978 -345.999)" fill="#f7a491"/><path d="M-684.938,433.223a72.261,72.261,0,0,1,8.58-9.793c4.414-4.05,8.688-6.318,14.583-5.038,5.4,1.289,8.25,4.043,10.523,5.706a59.91,59.91,0,0,1,8.14,8.647L-646.7,434.8a34.9,34.9,0,0,0-7.207-9.6,18.817,18.817,0,0,0-7.808-4.706,13.149,13.149,0,0,0-4-.461,10.076,10.076,0,0,0-1.61.224c-6.327,1.469-12.486,10.845-13.972,14.91Z" transform="translate(703.38 -320.414)" fill="#b75742"/><path d="M-672.756,408.016l-5.4,18.8c7.034-.465,23.765,1.292,27.988,1.485,6.474-.792,8.475-.233,10.048.562.847.428,4.288,2.407,4.288,2.407s2.687,3.865,2.419,4.057c-.9.644-3.348-3.047-3.348-3.047s-2.341-1.1-2.7-1.217c-.9-.283-.545.116-.545.116.728.351,3.664,2.407,3.664,2.407s4.111,4.018,3.784,4.112a6.271,6.271,0,0,1-2.661-1.384c-.92-.656-2.254-1.955-3.121-2.485-1.521-.929-2.69-1.03-2.186-.627.367.295,1.065.324,1.979.88,2.225,1.352,5.024,4.015,4.557,4.183-.41.147-2.739-1.474-4.907-2.542a14.5,14.5,0,0,0-4.223-.7,4.7,4.7,0,0,0,.783.945c.329.311,3.254,1.646,2.763,2.276s-7.18-2.068-7.18-2.068l-3.209-1.923-.2-.03-.006,0s-32.45,7.191-39.144-.149c-5.709-6.259,5.2-32.82,5.268-32.658Z" transform="translate(700.694 -327.801)" fill="#f8a492"/><path d="M-684.938,433.223a72.261,72.261,0,0,1,8.58-9.793c4.414-4.05,8.688-6.318,14.583-5.038,5.4,1.289.38,1.627.039,1.849-2.368-.185-3.989-.207-3.972-.207a10.076,10.076,0,0,0-1.61.224c-6.327,1.469-12.486,10.845-13.972,14.91Z" transform="translate(703.38 -320.414)" fill="#d64747"/><path d="M-674.2,419.982s12.372-18.52,13.483-25.324-5.008-15.223-11.255-14.571-14.844,31.66-14.844,31.66Z" transform="translate(702.544 -337.311)" fill="#529ad9"/><path d="M-644.751,462.946h-37.266a6.627,6.627,0,0,1-6.661-7.591l5.379-27.92h41.687l3.575,28.334A6.638,6.638,0,0,1-644.751,462.946Z" transform="translate(701.679 -316.232)" fill="#ff5353"/><path d="M-648.991,455.821l-3.574-28.334a54.375,54.375,0,0,0-8.432,0l3.575,28.334A6.64,6.64,0,0,1-664.137,463h8.432A6.638,6.638,0,0,0-648.991,455.821Z" transform="translate(712.634 -316.284)" fill="#d64747"/></g></g><rect width="295" height="301" fill="none"/></svg>