<svg xmlns="http://www.w3.org/2000/svg" width="199.579" height="187.528" viewBox="0 0 199.579 187.528"><g transform="translate(-39.217 -355.872)"><g transform="translate(39.217 367.19)"><path d="M72.119,397.6c2.012-1.642,19.756,7.2,19.56,9.586s8.668,23.507,8.668,23.507l19.1-15.283.008,0c.17-.552,1.98-6.5,2.069-7.559.091-1.114,3.319-3.066,4.819-2.779s-1.282,2.174-1.464,2.52c-.5.942,1.424,1.3,1.424,1.3s5.519-3.039,5.636-4.825,1.256-5.535,2.449-4.75c.615.4.609,3.062.417,4.324.356-1.432.857-3.05,1.347-3.209.892-.291,1.335.847,1.173,1.408s-1.6,6.637-2.041,7.321-9.341,7.875-10.625,9.438c0,0-24.706,28.339-26.466,29.081-1.543.651-7.046-9.117-12.245-15.6S65.834,402.728,72.119,397.6Z" transform="translate(-7.135 -324.739)" fill="#f7a491"/><g transform="translate(33.752 128.617)"><path d="M99.779,472.661c-.74-11.618-1.341-23.218-1.341-31.924,0-.231-1.527-15.669-1.527-15.669l-32.788,8.643,6.324,38.949Z" transform="translate(-47.507 -425.068)" fill="#535454"/><path d="M92.074,471.547l9.39-28.212-.9-17.179L60.625,437.609,58.1,452.242l-2.191,19.305Z" transform="translate(-55.907 -423.955)" fill="#727272"/></g><path d="M92.725,427.321l-18.464,1.891s-.847-15.187-.847-22.433c0-8.789.746-20.11,1.8-19.867,2.969.685,6.981,2.32,9.349,5.612C91.712,402.462,92.725,427.321,92.725,427.321Z" transform="translate(-4.258 -335.463)" fill="#356fa1"/><path d="M101.65,405.524c.386,2.68,7.485,75.535,7.485,75.535-33.619,16.292-52.169,2.9-52.169,2.9s1.1-51.16-.218-58.123c-.872-4.607-1.96-35.22,1.015-36.078a74.329,74.329,0,0,1,12.969-2.767c4.073-.425,19.9-.669,22.727.283A36.217,36.217,0,0,1,101.65,405.524Z" transform="translate(-22.253 -335.758)" fill="#529ad9"/><g transform="translate(88.82 103.935)"><path d="M85.375,431.867a4.44,4.44,0,0,0,.508-.378c-.6-7.137-.489-14.053,1.743-16.393-.055-.111-.542-1.153-1.052-2.233-2.589,2.008-3.816,7.343-3.335,16a14.631,14.631,0,0,0,.342,1.794C84.33,431.486,85.011,432.02,85.375,431.867Z" transform="translate(-83.137 -412.863)" fill="#f7a491"/></g><path d="M40.634,473.222a1.919,1.919,0,0,1-.008-.469c.5-5.046,4.669-47.413,5.373-49.215.635-1.626,19.359-28.5,19.359-28.5l9.2,12.583-18.007,24.1c-.4,1.531-6.9,30.13-6.9,30.13s-1.331,5.214-1.927,8.336c.273.752.54,1.464.777,2.047a18.824,18.824,0,0,0,1.939,3.128,21.478,21.478,0,0,1,2.3,4.081c.192.736.534,2.265.73,3.187s.461,2,.506,2.5a4.774,4.774,0,0,0,.582,1.341.807.807,0,0,1-.948,1.165c-.655-.218-1.165-1.068-1.478-1.6-.886-1.495-1.359-4.225-1.579-4.079s-1,4.773-1.118,5.3-1.056,5.9-1.581,6.884-1.219.817-1.405.2c-.158-.53.58-8.053.58-8.053s.093-.958-.326-.659-1.1,7.129-1.4,8.128-.955,1.529-1.519.726c-.686-.977.493-8.221.493-8.221s.131-.91-.257-.825-.872,5.905-1.173,6.409a.765.765,0,0,1-1.428-.156c-.427-.989.682-7.446.682-7.446s-.055-.514-.3-.342-1.009,5.1-1.509,5.557a.529.529,0,0,1-.771.012c-.918-.629.489-5.319.475-7.652s1.064-4.953.744-7.729C40.725,473.918,40.671,473.491,40.634,473.222Z" transform="translate(-39.217 -327.149)" fill="#f8a492"/><path d="M44.91,419.062,60.9,429.837s9.015-13.46,13.855-18.251c6.061-6-2.208-24.393-6.115-23.354C59.907,390.56,44.91,419.062,44.91,419.062Z" transform="translate(-33.397 -334.151)" fill="#529ad9"/><path d="M64.979,379.488l-2.392,15.822s8.736,18.84,13.952,17.206c4.376-1.371,1.685-18.041,1.685-18.041s-2.386-8.951-1.67-13.43S64.979,379.488,64.979,379.488Z" transform="translate(-15.326 -344.004)" fill="#f7a491"/><path d="M75.444,381.046c.716-4.479-11.574-1.557-11.574-1.557l-.2,1.313A7.311,7.311,0,0,0,65,383.007a16.156,16.156,0,0,0,10.744,4.88A24.561,24.561,0,0,1,75.444,381.046Z" transform="translate(-14.217 -344.004)" fill="#f47458"/><g transform="translate(37.794)"><path d="M63.254,370.446c-.348-.127-2.785,18.021,1.84,23.014s13.634,6.627,16.866,2.694c3.573-4.35,3.4-23.853-3.8-28.99S63.254,370.446,63.254,370.446Z" transform="translate(-53.411 -357.344)" fill="#f7a491"/><path d="M79.923,361.581a19.956,19.956,0,0,0-10.48,6c-2.524.3-5.954,1.7-9.495,7.584-4.354,7.234-1.139,15.248,3.931,19.181s5,8.476,5,8.476l.8-2.35a13.185,13.185,0,0,0,.635-5.535,10.854,10.854,0,0,0-.821-3.327c-1.219-2.627,2.619-4.37,3.695-6.556.829-1.682.87-5.531,2.176-8.312l1.559-2.124s3.6-2.809,7.117-2.016S87.054,360.123,79.923,361.581Z" transform="translate(-57.906 -361.469)" fill="#184655"/><path d="M67.678,376.733c.038,2.214-.965,4.026-2.239,4.049s-2.338-1.755-2.374-3.97.967-4.026,2.241-4.049S67.642,374.518,67.678,376.733Z" transform="translate(-52.632 -349.922)" fill="#f7a491"/></g><path d="M69.06,377.439l6.971-.362a3.058,3.058,0,0,1-3.084,2.912C69.214,380.292,69.06,377.439,69.06,377.439Z" transform="translate(-8.709 -345.512)" fill="#fff"/></g><g transform="translate(126.59 355.872)"><path d="M98.9,376.754s-19.091,2.754-16.172,21.178c2.72,17.177,19.091,13.689,23.295,12.827S98.9,376.754,98.9,376.754Z" transform="translate(-82.422 -334.524)" fill="#f47458"/><path d="M105.727,401.452c1.96-.4.55-7.8-1.517-15.594-7.027,1.377-14.856,2.914-21.5,4.227C86.1,405.6,101.648,402.289,105.727,401.452Z" transform="translate(-82.131 -325.217)" fill="#b75742"/><path d="M96,398.379s4.192,14.969,3.088,26.6c-1.029,10.848.516,12.656,4.548,12.312s13.812-2.756,13.984-6.629-1.63-23.762-8.409-34.438S96,398.379,96,398.379Z" transform="translate(-68.541 -318.957)" fill="#e0de9d"/><path d="M102.516,392.057A45.534,45.534,0,0,0,96,398.3s4.192,14.969,3.088,26.6c-1.029,10.848.516,12.656,4.548,12.312a34.162,34.162,0,0,0,6-1.183C111.242,409.37,104.366,395.074,102.516,392.057Z" transform="translate(-68.541 -318.88)" fill="#cece6f"/><path d="M143.367,358.81s-31.661,23.052-41.892,30.025l-5.984,8.91L99.738,423.7l10.231,5.038,50,9.879L158.809,433l-9.072-25.182L145.1,379.15l-1.351-17.628Z" transform="translate(-69.061 -352.868)" fill="#e0de9d"/><path d="M148.507,386.843l-1.215-7.516-50.6,12.322,1.813,11.078,10.232,5.036,50,9.879-1.158-5.617Z" transform="translate(-67.831 -331.894)" fill="#cece6f"/><path d="M107.234,374.687s-4.182,22.017,8.494,39.9a2.215,2.215,0,0,1-.837,2.69l-9.436,2.411s-4.376,1.549-8.067-4.736-10.209-20.4-6.348-35.985a7.057,7.057,0,0,1,6.091-4.993l6.864-1.292S107.04,372.212,107.234,374.687Z" transform="translate(-74.821 -338.721)" fill="#a0a603"/><path d="M120.778,361.814s8.237-6.069,13-5.94,9.525,6.457,12.613,11.622,11.2,25.441,11.968,39.127.645,33.19-6.049,35.514-14.929-.516-14.929-.516-10.811-9.3-17.117-38.225S120.778,361.814,120.778,361.814Z" transform="translate(-46.472 -355.872)" fill="#575a0b"/><path d="M144.167,442.388s7.7-10.006,3.776-37.028c-6.178-42.543-21.75-48.976-21.75-48.976s-11.527,8.783-.516,49.9C134.751,440.156,144.167,442.388,144.167,442.388Z" transform="translate(-43.072 -355.349)" fill="#a0a603"/><path d="M121.447,372.569a156.851,156.851,0,0,0,3.685,17.3c.88,3.282,1.761,6.263,2.639,8.979,4.787-1.664,12.53-5.832,9.224-16.4C133.931,372.646,125.955,372.047,121.447,372.569Z" transform="translate(-42.527 -338.938)" fill="#f47458"/><path d="M123.784,384.591c.88,3.282,1.761,6.263,2.639,8.979,4.722-1.64,12.316-5.717,9.355-15.97l-13.013,3.009Q123.238,382.548,123.784,384.591Z" transform="translate(-41.179 -333.659)" fill="#b75742"/><path d="M114.946,402.1a48.818,48.818,0,0,1-7.6-17.228l-16.726,3.167a57.456,57.456,0,0,0,5.984,14.425c3.691,6.285,8.067,4.736,8.067,4.736l9.436-2.411A2.215,2.215,0,0,0,114.946,402.1Z" transform="translate(-74.039 -326.227)" fill="#3c8f7c" opacity="0.3" style="mix-blend-mode:multiply;isolation:isolate"/></g><path d="M96.536,405.737c0-1.747.257-3.027,1.189-3.685s2.936-1.424,3.054-1.246.178,2-2.888,4.362C96.417,405.993,96.536,405.737,96.536,405.737Z" transform="translate(58.595 45.91)" fill="#f7a491"/></g></svg>