<svg xmlns="http://www.w3.org/2000/svg" xmlns:xlink="http://www.w3.org/1999/xlink" width="294" height="199" viewBox="0 0 294 199"><defs><linearGradient id="a" x1="1023.532" y1="463.265" x2="1023.735" y2="442.929" gradientUnits="objectBoundingBox"><stop offset="0" stop-color="#09005d"/><stop offset="1" stop-color="#1a0f91"/></linearGradient><linearGradient id="b" x1="3798.988" y1="0.5" x2="3799.988" y2="0.5" gradientUnits="objectBoundingBox"><stop offset="0" stop-color="#febbba"/><stop offset="1" stop-color="#ff928e"/></linearGradient><linearGradient id="c" x1="1267.481" y1="53.975" x2="1267.733" y2="51.652" xlink:href="#a"/><linearGradient id="d" x1="0.812" y1="-0.006" x2="0.2" y2="0.889" xlink:href="#a"/><linearGradient id="e" x1="3182.078" y1="0.5" x2="3183.079" y2="0.5" xlink:href="#b"/><linearGradient id="f" x1="0.929" y1="-0.584" x2="0.606" y2="0.227" xlink:href="#a"/><linearGradient id="g" x1="1507.982" y1="0.85" x2="1508.215" y2="0.282" xlink:href="#b"/><linearGradient id="h" x1="1377.362" y1="0.5" x2="1378.362" y2="0.5" xlink:href="#b"/><linearGradient id="i" x1="1575.819" y1="227.93" x2="1574.778" y2="228.681" xlink:href="#b"/><linearGradient id="j" x1="1285.836" y1="178.044" x2="1286.605" y2="178.938" xlink:href="#a"/><linearGradient id="k" x1="6473.809" y1="790.629" x2="6469.533" y2="793.239" xlink:href="#b"/><linearGradient id="l" x1="437.706" y1="-0.055" x2="437.589" y2="7.991" xlink:href="#a"/><linearGradient id="m" x1="1.938" y1="-0.148" x2="0.588" y2="0.439" xlink:href="#b"/><linearGradient id="n" x1="0.947" y1="0.872" x2="-0.121" y2="0.079" xlink:href="#b"/><linearGradient id="o" x1="0.706" y1="1.885" x2="0.475" y2="0.326" xlink:href="#b"/><linearGradient id="p" x1="0.106" y1="0.3" x2="1.389" y2="1.091" xlink:href="#b"/><linearGradient id="q" x1="1.899" y1="-0.703" x2="-0.051" y2="0.923" xlink:href="#a"/><linearGradient id="r" x1="-2.145" y1="-0.897" x2="2.525" y2="1.653" xlink:href="#b"/><linearGradient id="s" x1="0.623" y1="0.5" x2="1.623" y2="0.5" xlink:href="#b"/><linearGradient id="t" x1="1.321" y1="-0.179" x2="-0.045" y2="0.949" xlink:href="#a"/><linearGradient id="u" x1="-5.303" y1="89.671" x2="-6.043" y2="92.109" xlink:href="#a"/><linearGradient id="v" x1="0.733" y1="0.134" x2="0.333" y2="0.8" xlink:href="#a"/><linearGradient id="w" x1="-328.095" y1="0.5" x2="-327.095" y2="0.5" xlink:href="#a"/><linearGradient id="x" x1="-1133.575" y1="0.5" x2="-1132.575" y2="0.5" xlink:href="#b"/><linearGradient id="y" x1="-573.862" y1="0.5" x2="-572.862" y2="0.5" xlink:href="#a"/><linearGradient id="z" x1="-958.001" y1="0.5" x2="-957.001" y2="0.5" xlink:href="#b"/><linearGradient id="aa" x1="-128.7" y1="1.083" x2="-127.471" y2="-0.229" xlink:href="#a"/><linearGradient id="ab" x1="-204.302" y1="0.308" x2="-205.173" y2="1.354" xlink:href="#b"/><linearGradient id="ac" x1="15.448" y1="-4.635" x2="-13.615" y2="5.349" gradientUnits="objectBoundingBox"><stop offset="0" stop-color="#e1473d"/><stop offset="1" stop-color="#e9605a"/></linearGradient><linearGradient id="ad" x1="-596.113" y1="1.478" x2="-595.841" y2="0.434" xlink:href="#b"/><linearGradient id="ae" x1="-425.624" y1="0.35" x2="-426.736" y2="1.106" xlink:href="#b"/><linearGradient id="af" x1="-308.729" y1="0.152" x2="-307.979" y2="1.129" xlink:href="#a"/><linearGradient id="ag" x1="-1745.483" y1="-0.685" x2="-1750.033" y2="1.783" xlink:href="#b"/><linearGradient id="ah" x1="3.389" y1="-2.582" x2="0.482" y2="0.469" xlink:href="#b"/><linearGradient id="ai" x1="-491.996" y1="-276.2" x2="-491.356" y2="-285.627" xlink:href="#b"/><linearGradient id="aj" x1="-387.798" y1="-195.077" x2="-387.293" y2="-201.751" xlink:href="#b"/><linearGradient id="ak" x1="-308.471" y1="-79.618" x2="-308.07" y2="-82.36" xlink:href="#b"/><linearGradient id="al" x1="41.963" y1="-0.077" x2="42.633" y2="-0.855" xlink:href="#ac"/><linearGradient id="am" x1="51.963" y1="-4.681" x2="52.634" y2="-5.46" xlink:href="#ac"/></defs><g transform="translate(410.966 -1219.509)"><path d="M0,0H294V199H0Z" transform="translate(-410.966 1219.509)" fill="none"/><path d="M-363.492,1389.264s-18.522-7.7-20.6-16,14.761-5.491,27.627,11.408c0,0-19.006-31.869-7.178-34.179s18.24,31.126,18.24,31.126,3.342-16.441,11.071-15.636,3.243,13.472-9.518,23.28Z" fill="#ecedcc"/><path d="M-350.379,1387.963a96.105,96.105,0,0,0-13.736-36.478" fill="#ecedcc"/><path d="M-356.462,1387.478s-16.85-8.169-24.439-18.106" fill="#ecedcc"/><path d="M-334.329,1368.175s-5.726,16.7-14.057,19.3" fill="#ecedcc"/><path d="M-280.684,1383.611s-26.378,1.948-40.832-.921c-8.358-1.66-12.013-7.063-1.033-9.225,5.532-1.089,16.071-9.979-5.472-12.741-18.791-2.409-20.774-16.118-4.1-15.84,3.918.065-1.485-2.472-6.264-11.34-3.677-6.822-3.044-17.608,3.169-20.681,13.1-6.48,12.75,18.119,18.1,19.271,5.136,1.108,7.112-12.746,14.259-11.034,9.335,2.237-5.812,28.524-3.952,30.871,3.967,5.006,11.377-19.777,18.334-17.784S-303.286,1377.481-280.684,1383.611Z" fill="#ecedcc"/><path d="M-287.273,1382.471c-14.331-5.728-12.372-16.342-29-30.327-13.75-11.562-17.381-24.669-16.272-39.677" fill="#ecedcc"/><path d="M-249.946,1382.773s18.522-7.7,20.6-16-13.79-7.377-26.656,9.522c0,0,19.227-28.655,7.4-30.965s-19.433,29.8-19.433,29.8-3.342-16.442-11.071-15.637-3.244,13.472,9.518,23.281Z" fill="#ecedcc"/><path d="M-263.059,1381.472s3.153-20.084,14.928-35.15" fill="#ecedcc"/><path d="M-256.976,1380.986s15.215-13.827,24.439-16.377" fill="#ecedcc"/><path d="M-279.109,1361.683s5.726,16.7,14.057,19.3" fill="#ecedcc"/><path d="M-207.339,1379.927s26.378,1.948,40.832-.922c8.358-1.659,12.013-7.062,1.033-9.224-5.532-1.089-14.795-4.932,5.472-12.741,16.929-6.523,19.182-17.623,3.041-13.414-8.365,2.182,2.54-4.9,7.319-13.766,3.677-6.822,3.044-17.608-3.169-20.682-13.1-6.479-15.456,22.782-20.8,23.935-5.135,1.108.728-18.978-8.5-16.327s3.4,25.623.9,31.5-4.123-20.158-11.079-18.165S-184.737,1373.8-207.339,1379.927Z" fill="#ecedcc"/><path d="M-200.75,1378.786c14.331-5.727,12.372-16.342,29-30.326,13.75-11.562,18.693-21.521,17.584-36.529" fill="#ecedcc"/><ellipse cx="109.38" cy="5.641" rx="109.38" ry="5.641" transform="translate(-372.773 1394.979)" fill="#e8e8e8"/><path d="M-191.792,1276.645a.32.32,0,0,1-.276-.117c-.261-.325-.533-.647-.808-.958a.316.316,0,0,1,.027-.447.319.319,0,0,1,.448.026c.282.318.56.648.828.981a.317.317,0,0,1-.048.446A.316.316,0,0,1-191.792,1276.645Z" fill="#91b3fa"/><path d="M-210.261,1319.994c-.478.048-.973.072-1.455.089a.318.318,0,0,1-.328-.307.321.321,0,0,1,.306-.328c.471-.015.958-.047,1.422-.086.344-.03.695-.068,1.043-.113a.306.306,0,0,1,.355.274.316.316,0,0,1-.274.355C-209.549,1319.924-209.908,1319.963-210.261,1319.994Zm5.036-.941a.317.317,0,0,1-.332-.228.317.317,0,0,1,.217-.393c.764-.22,1.531-.479,2.278-.769l.065-.026a.318.318,0,0,1,.41.181.317.317,0,0,1-.181.411l-.065.025c-.764.3-1.549.562-2.332.788A.314.314,0,0,1-205.225,1319.053Zm6.032-2.567a.317.317,0,0,1-.3-.157.317.317,0,0,1,.116-.433c.713-.413,1.412-.863,2.079-1.338a.319.319,0,0,1,.443.074.318.318,0,0,1-.075.443c-.683.486-1.4.947-2.129,1.37A.316.316,0,0,1-199.193,1316.486Zm5.223-3.957a.317.317,0,0,1-.255-.094.318.318,0,0,1,.006-.449c.587-.573,1.155-1.18,1.687-1.806a.317.317,0,0,1,.447-.036.317.317,0,0,1,.037.447c-.545.641-1.127,1.263-1.728,1.85A.318.318,0,0,1-193.97,1312.529Zm4.1-5.115a.32.32,0,0,1-.193-.046.317.317,0,0,1-.1-.437c.43-.7.833-1.426,1.2-2.163a.317.317,0,0,1,.425-.144.317.317,0,0,1,.143.425c-.372.755-.785,1.5-1.226,2.215A.318.318,0,0,1-189.875,1307.414Zm2.732-5.959a.327.327,0,0,1-.123-.014.318.318,0,0,1-.207-.4c.249-.783.463-1.587.638-2.389a.318.318,0,0,1,.377-.243.319.319,0,0,1,.243.378c-.179.821-.4,1.644-.653,2.447A.319.319,0,0,1-187.143,1301.455Zm1.2-6.444a.39.39,0,0,1-.048,0,.317.317,0,0,1-.3-.336c.05-.822.062-1.654.035-2.473a.313.313,0,0,1,.307-.328.316.316,0,0,1,.327.306c.028.84.016,1.692-.035,2.533A.318.318,0,0,1-185.939,1295.011Zm-.411-6.545a.315.315,0,0,1-.339-.257c-.153-.806-.345-1.616-.573-2.406a.319.319,0,0,1,.217-.393.317.317,0,0,1,.393.217c.233.809.43,1.638.586,2.464a.317.317,0,0,1-.253.371Zm-1.995-6.246a.316.316,0,0,1-.316-.183c-.344-.749-.726-1.488-1.136-2.2a.316.316,0,0,1,.116-.433.317.317,0,0,1,.433.116c.42.725.811,1.482,1.164,2.249a.318.318,0,0,1-.156.421A.323.323,0,0,1-188.345,1282.22Z" fill="#91b3fa"/><path d="M-215.775,1319.9a.293.293,0,0,1-.066,0c-.421-.051-.849-.113-1.27-.184a.318.318,0,0,1-.26-.366.316.316,0,0,1,.366-.26c.411.07.829.13,1.241.18a.318.318,0,0,1,.276.353A.316.316,0,0,1-215.775,1319.9Z" fill="#91b3fa"/><path d="M-234,1309.354a.316.316,0,0,1-.282-.127c-.253-.339-.5-.691-.742-1.047a.316.316,0,0,1,.086-.44.317.317,0,0,1,.44.085c.234.348.478.693.725,1.023a.318.318,0,0,1-.065.444A.312.312,0,0,1-234,1309.354Z" fill="#91b3fa"/><path d="M-236.713,1304.842a.317.317,0,0,1-.315-.18c-.277-.586-.538-1.191-.773-1.8q-.1-.25-.19-.5a.318.318,0,0,1,.189-.407.316.316,0,0,1,.407.189q.09.244.185.489c.23.592.484,1.182.756,1.755a.318.318,0,0,1-.151.423A.307.307,0,0,1-236.713,1304.842Zm-2.047-6.117a.316.316,0,0,1-.337-.252c-.167-.811-.3-1.64-.387-2.462a.316.316,0,0,1,.28-.35.322.322,0,0,1,.35.28c.089.8.216,1.613.378,2.4a.316.316,0,0,1-.247.374A.212.212,0,0,1-238.76,1298.725Zm-.517-6.431h-.041a.317.317,0,0,1-.3-.33c.035-.827.108-1.662.219-2.482a.319.319,0,0,1,.357-.272.316.316,0,0,1,.272.357c-.108.8-.18,1.616-.214,2.423A.317.317,0,0,1-239.277,1292.294Zm1.047-6.365a.313.313,0,0,1-.117-.011.317.317,0,0,1-.215-.394c.232-.794.5-1.587.807-2.357a.316.316,0,0,1,.411-.178.317.317,0,0,1,.179.411c-.3.752-.562,1.526-.788,2.3A.318.318,0,0,1-238.23,1285.929Zm2.537-5.929a.321.321,0,0,1-.186-.042.317.317,0,0,1-.116-.433c.414-.716.867-1.421,1.346-2.1a.317.317,0,0,1,.442-.076.317.317,0,0,1,.075.443c-.467.659-.909,1.348-1.314,2.046A.316.316,0,0,1-235.693,1280Zm3.881-5.151a.314.314,0,0,1-.248-.087.318.318,0,0,1-.009-.449c.574-.595,1.182-1.171,1.81-1.711a.317.317,0,0,1,.447.033.317.317,0,0,1-.033.447c-.613.528-1.207,1.091-1.767,1.671A.31.31,0,0,1-231.812,1274.849Zm5-4.064a.318.318,0,0,1-.3-.148.317.317,0,0,1,.1-.437c.7-.44,1.431-.851,2.17-1.225a.317.317,0,0,1,.426.141.317.317,0,0,1-.14.426c-.722.364-1.434.766-2.118,1.2A.337.337,0,0,1-226.807,1270.785Zm5.836-2.745a.318.318,0,0,1-.329-.216.318.318,0,0,1,.2-.4c.786-.26,1.593-.487,2.4-.675a.319.319,0,0,1,.381.238.316.316,0,0,1-.237.38c-.787.183-1.575.405-2.343.659A.315.315,0,0,1-220.971,1268.04Zm8.785-1.351-.033,0c-.809-.013-1.628.012-2.432.074a.316.316,0,0,1-.341-.291.318.318,0,0,1,.289-.341h0c.824-.064,1.662-.09,2.491-.077a.317.317,0,0,1,.312.322A.317.317,0,0,1-212.186,1266.689Z" fill="#91b3fa"/><path d="M-206.944,1267.3a.312.312,0,0,1-.1-.006c-.405-.088-.818-.168-1.23-.237a.318.318,0,0,1-.26-.366.315.315,0,0,1,.365-.26c.422.071.846.152,1.261.243a.317.317,0,0,1,.242.377A.317.317,0,0,1-206.944,1267.3Z" fill="#91b3fa"/><path d="M-205.79,1273.736a.32.32,0,0,0-.366.064l-2.739,2.777a17.007,17.007,0,0,0-5.5-.3l-2.424-3.052a.32.32,0,0,0-.357-.1l-4.412,1.555a.322.322,0,0,0-.214.305l.027,3.9a16.967,16.967,0,0,0-4.094,3.679l-3.875-.446a.321.321,0,0,0-.325.18l-2.02,4.22a.319.319,0,0,0,.064.366l2.776,2.739a16.979,16.979,0,0,0-.3,5.5l-3.053,2.424a.321.321,0,0,0-.1.357l1.555,4.412a.321.321,0,0,0,.305.214l3.9-.027a16.988,16.988,0,0,0,3.679,4.094l-.445,3.875a.319.319,0,0,0,.18.326l4.219,2.019a.319.319,0,0,0,.367-.064l2.738-2.776a17.007,17.007,0,0,0,5.5.3l2.424,3.052a.319.319,0,0,0,.357.1l4.412-1.555a.321.321,0,0,0,.214-.3l-.027-3.9a17.011,17.011,0,0,0,4.1-3.679l3.874.445a.319.319,0,0,0,.326-.18l2.02-4.219a.32.32,0,0,0-.064-.366l-2.777-2.739a17.008,17.008,0,0,0,.3-5.5l3.052-2.424a.319.319,0,0,0,.1-.357l-1.555-4.412a.321.321,0,0,0-.3-.214l-3.9.027a16.989,16.989,0,0,0-3.679-4.094l.446-3.875a.322.322,0,0,0-.18-.326Z" fill="#91b3fa"/><path d="M-212.139,1297.887a4.667,4.667,0,0,1-1.326-.076,4.6,4.6,0,0,1-2.941-1.977,4.6,4.6,0,0,1-.681-3.477,4.6,4.6,0,0,1,1.977-2.941,4.6,4.6,0,0,1,3.477-.681,4.6,4.6,0,0,1,2.941,1.977,4.6,4.6,0,0,1,.681,3.477,4.6,4.6,0,0,1-1.977,2.941A4.617,4.617,0,0,1-212.139,1297.887Zm-.735-8.279a3.652,3.652,0,0,0-1.71.6,3.683,3.683,0,0,0-1.029,5.1,3.655,3.655,0,0,0,2.336,1.57,3.649,3.649,0,0,0,2.763-.541,3.654,3.654,0,0,0,1.57-2.336,3.65,3.65,0,0,0-.541-2.763,3.655,3.655,0,0,0-2.336-1.57A3.673,3.673,0,0,0-212.874,1289.608Z" fill="#bdd0fb"/><path d="M-211.58,1305.092a11.694,11.694,0,0,1-6.084-1.115,11.689,11.689,0,0,1-6.015-6.7,11.8,11.8,0,0,1-.631-2.908,11.685,11.685,0,0,1,1.115-6.082,11.687,11.687,0,0,1,6.7-6.016l.232-.079a11.754,11.754,0,0,1,1.957-.465c.082-.013.165-.024.247-.034l.12.944a10.839,10.839,0,0,0-2.24.532h0a10.736,10.736,0,0,0-5.951,5.118q-.106.2-.207.411a10.738,10.738,0,0,0-1.024,5.59,10.827,10.827,0,0,0,.58,2.673,10.741,10.741,0,0,0,5.528,6.157,10.744,10.744,0,0,0,8.264.445,10.833,10.833,0,0,0,7.177-11.141,10.852,10.852,0,0,0-.575-2.651,10.8,10.8,0,0,0-3.291-4.726l.607-.733a11.746,11.746,0,0,1,3.581,5.143,11.726,11.726,0,0,1,.626,2.883,11.786,11.786,0,0,1-7.809,12.123A11.884,11.884,0,0,1-211.58,1305.092Z" fill="#bdd0fb"/><path d="M-173.043,1259.993a.314.314,0,0,1-.283-.128c-.244-.333-.506-.657-.778-.965a.316.316,0,0,1,.026-.447.319.319,0,0,1,.448.026c.286.322.56.662.815,1.011a.317.317,0,0,1-.068.443A.315.315,0,0,1-173.043,1259.993Z" fill="#91b3fa"/><path d="M-180.953,1281.455a.317.317,0,0,1-.336-.243.318.318,0,0,1,.235-.382,13.471,13.471,0,0,0,1.777-.554c.2-.079.406-.164.6-.251a.317.317,0,0,1,.419.16.317.317,0,0,1-.161.419c-.208.093-.418.18-.632.263a14.085,14.085,0,0,1-1.86.581A.38.38,0,0,1-180.953,1281.455Zm5.943-3.079a.314.314,0,0,1-.265-.1.317.317,0,0,1,.027-.448,13.481,13.481,0,0,0,1.714-1.835.316.316,0,0,1,.445-.057.316.316,0,0,1,.057.445,14.022,14.022,0,0,1-1.8,1.922A.313.313,0,0,1-175.01,1278.376Zm3.773-5.526a.31.31,0,0,1-.137-.019.318.318,0,0,1-.188-.407,13.438,13.438,0,0,0,.646-2.428.317.317,0,0,1,.366-.261.317.317,0,0,1,.26.366,14.115,14.115,0,0,1-.677,2.543A.316.316,0,0,1-171.237,1272.85Zm.716-6.655a.318.318,0,0,1-.342-.271,13.417,13.417,0,0,0-.584-2.444.317.317,0,0,1,.2-.4.317.317,0,0,1,.4.2,14.175,14.175,0,0,1,.612,2.56.317.317,0,0,1-.27.358Z" fill="#91b3fa"/><path d="M-185.124,1281.785a.306.306,0,0,1-.052,0c-.43-.033-.864-.086-1.288-.158a.317.317,0,0,1-.259-.366.317.317,0,0,1,.365-.259c.4.069.819.119,1.23.15a.317.317,0,0,1,.293.34A.318.318,0,0,1-185.124,1281.785Z" fill="#91b3fa"/><path d="M-195.1,1276.306a.319.319,0,0,1-.283-.127c-.257-.344-.5-.707-.726-1.076a.317.317,0,0,1,.106-.436.317.317,0,0,1,.436.106c.215.353.448.7.693,1.027a.316.316,0,0,1-.065.444A.313.313,0,0,1-195.1,1276.306Z" fill="#91b3fa"/><path d="M-197.4,1271.472a.317.317,0,0,1-.335-.238,13.9,13.9,0,0,1-.378-2.228c-.01-.11-.018-.22-.025-.329a.328.328,0,0,1,.3-.337.317.317,0,0,1,.336.3c.007.1.015.209.024.313a13.325,13.325,0,0,0,.361,2.128.318.318,0,0,1-.229.386A.308.308,0,0,1-197.4,1271.472Zm-.036-6.583a.3.3,0,0,1-.1-.008.316.316,0,0,1-.233-.383,14.128,14.128,0,0,1,.837-2.447.318.318,0,0,1,.419-.16.317.317,0,0,1,.16.419,13.521,13.521,0,0,0-.8,2.338A.318.318,0,0,1-197.437,1264.889Zm3.033-5.842a.32.32,0,0,1-.237-.078.317.317,0,0,1-.029-.448,14.057,14.057,0,0,1,1.88-1.778.318.318,0,0,1,.445.054.318.318,0,0,1-.054.446,13.4,13.4,0,0,0-1.795,1.7A.315.315,0,0,1-194.4,1259.047Zm5.407-3.753a.317.317,0,0,1-.324-.2.317.317,0,0,1,.183-.409,14.171,14.171,0,0,1,2.491-.7.311.311,0,0,1,.37.255.318.318,0,0,1-.255.369,13.52,13.52,0,0,0-2.379.667A.3.3,0,0,1-189,1255.294Z" fill="#91b3fa"/><path d="M-181.2,1254.7a.306.306,0,0,1-.1-.006c-.4-.088-.813-.158-1.221-.207a.318.318,0,0,1-.277-.354.317.317,0,0,1,.353-.276c.428.052.858.125,1.28.217a.316.316,0,0,1,.242.377A.318.318,0,0,1-181.2,1254.7Z" fill="#91b3fa"/><path d="M-180.623,1257.856a.165.165,0,0,0-.188.033l-1.407,1.426a8.739,8.739,0,0,0-2.823-.153l-1.245-1.568a.164.164,0,0,0-.183-.053l-2.267.8a.165.165,0,0,0-.109.157l.013,2a8.746,8.746,0,0,0-2.1,1.889l-1.99-.228a.164.164,0,0,0-.167.092l-1.038,2.168a.165.165,0,0,0,.033.188l1.426,1.407a8.738,8.738,0,0,0-.153,2.823l-1.568,1.245a.164.164,0,0,0-.053.183l.8,2.267a.166.166,0,0,0,.157.11l2-.014a8.728,8.728,0,0,0,1.889,2.1l-.228,1.99a.164.164,0,0,0,.092.167l2.167,1.038a.166.166,0,0,0,.189-.033l1.407-1.426a8.739,8.739,0,0,0,2.823.153l1.245,1.568a.164.164,0,0,0,.183.053l2.267-.8a.163.163,0,0,0,.109-.157l-.013-2a8.726,8.726,0,0,0,2.1-1.889l1.99.228a.163.163,0,0,0,.167-.092l1.038-2.167a.166.166,0,0,0-.033-.189l-1.426-1.407a8.737,8.737,0,0,0,.153-2.823l1.568-1.245a.164.164,0,0,0,.053-.183l-.8-2.267a.164.164,0,0,0-.157-.109l-2,.013a8.723,8.723,0,0,0-1.889-2.1l.228-1.99a.164.164,0,0,0-.092-.167Z" fill="#91b3fa"/><path d="M-183.863,1270.49a2.607,2.607,0,0,1-2.4-1.155,2.612,2.612,0,0,1,.73-3.617h0a2.612,2.612,0,0,1,3.617.731,2.613,2.613,0,0,1-.73,3.618A2.586,2.586,0,0,1-183.863,1270.49Zm-1.149-3.979a1.66,1.66,0,0,0-.464,2.3,1.661,1.661,0,0,0,2.3.464,1.662,1.662,0,0,0,.464-2.3,1.661,1.661,0,0,0-2.3-.463Z" fill="#bdd0fb"/><path d="M-183.577,1274.193a6.234,6.234,0,0,1-3.245-.594,6.232,6.232,0,0,1-3.208-3.574,6.323,6.323,0,0,1-.337-1.551,6.241,6.241,0,0,1,.6-3.244,6.237,6.237,0,0,1,3.573-3.208,6.313,6.313,0,0,1,1.3-.309l.12.945a5.332,5.332,0,0,0-1.1.261,5.294,5.294,0,0,0-2.949,2.556l-.027.054-.056.112a5.3,5.3,0,0,0-.5,2.752,5.406,5.406,0,0,0,.285,1.316,5.29,5.29,0,0,0,2.722,3.031,5.282,5.282,0,0,0,4.068.219,5.289,5.289,0,0,0,3.031-2.721,5.289,5.289,0,0,0,.5-2.753,5.353,5.353,0,0,0-.286-1.315,5.316,5.316,0,0,0-1.62-2.327l.608-.733a6.276,6.276,0,0,1,1.91,2.743,6.283,6.283,0,0,1,.336,1.551,6.23,6.23,0,0,1-.594,3.244,6.238,6.238,0,0,1-3.574,3.209A6.324,6.324,0,0,1-183.577,1274.193Z" fill="#bdd0fb"/><path d="M2.86,0H55.688a2.86,2.86,0,0,1,2.86,2.86V48a0,0,0,0,1,0,0H0a0,0,0,0,1,0,0V2.86A2.86,2.86,0,0,1,2.86,0Z" transform="translate(-289.578 1351.5)" fill="#a0a603"/><path d="M2.86,0H55.688a2.86,2.86,0,0,1,2.86,2.86V48a0,0,0,0,1,0,0H0a0,0,0,0,1,0,0V2.86A2.86,2.86,0,0,1,2.86,0Z" transform="translate(-304.451 1351.5)" fill="#a0a603"/><path d="M-300.526,1366.8a.359.359,0,0,1-.359-.359v-5.784c0-3.125,3.211-5.667,7.159-5.667h11.243a.359.359,0,0,1,.359.359.359.359,0,0,1-.359.359h-11.243c-3.552,0-6.44,2.22-6.44,4.949v5.784A.36.36,0,0,1-300.526,1366.8Z" fill="#fff"/><path d="M-300.526,1372.935a.36.36,0,0,1-.359-.36v-2.356a.359.359,0,0,1,.359-.359.36.36,0,0,1,.36.359v2.356A.36.36,0,0,1-300.526,1372.935Z" fill="#fff"/><path d="M-297.381,1399.8H-347.83v-17.2a2.86,2.86,0,0,1,2.86-2.86h44.729a2.86,2.86,0,0,1,2.86,2.86Z" fill="#7d97f4"/><path d="M2.86,0H47.59a2.86,2.86,0,0,1,2.86,2.86v17.2a0,0,0,0,1,0,0H0a0,0,0,0,1,0,0V2.86A2.86,2.86,0,0,1,2.86,0Z" transform="translate(-362.703 1379.741)" fill="#91b3fa"/><path d="M-358.538,1395.1a.359.359,0,0,1-.359-.359v-6.352c0-3.411,3.759-6.187,8.38-6.187h13.266a.359.359,0,0,1,.359.359.359.359,0,0,1-.359.359h-13.266c-4.225,0-7.662,2.454-7.662,5.469v6.352A.359.359,0,0,1-358.538,1395.1Z" fill="#bdd0fb"/><path d="M-358.538,1401.835a.359.359,0,0,1-.359-.359v-2.588a.359.359,0,0,1,.359-.359.359.359,0,0,1,.359.359v2.588A.359.359,0,0,1-358.538,1401.835Z" fill="#bdd0fb"/><path d="M-165.229,1399.4h-53.45v-18.056a2.859,2.859,0,0,1,2.86-2.86h47.73a2.859,2.859,0,0,1,2.86,2.86Z" fill="#7d97f4"/><path d="M2.86,0H50.59a2.86,2.86,0,0,1,2.86,2.86V20.916a0,0,0,0,1,0,0H0a0,0,0,0,1,0,0V2.86A2.86,2.86,0,0,1,2.86,0Z" transform="translate(-234.436 1378.482)" fill="#91b3fa"/><path d="M-230.024,1394.08a.359.359,0,0,1-.359-.359v-6.452c0-3.463,3.973-6.28,8.858-6.28h14.054a.359.359,0,0,1,.359.359.359.359,0,0,1-.359.359h-14.054c-4.488,0-8.14,2.495-8.14,5.562v6.452A.359.359,0,0,1-230.024,1394.08Z" fill="#bdd0fb"/><path d="M-230.024,1400.922a.359.359,0,0,1-.359-.359v-2.629a.359.359,0,0,1,.359-.359.359.359,0,0,1,.359.359v2.629A.359.359,0,0,1-230.024,1400.922Z" fill="#bdd0fb"/><path d="M-355.647,1364.1c-.386.571-1.919,13.5-2.159,18.271a.564.564,0,0,0,.565.592h0a.566.566,0,0,0,.559-.478l2.8-17.974Z" fill="#7d97f4"/><path d="M-343.319,1364.1c.386.571,1.92,13.5,2.16,18.271a.565.565,0,0,1-.566.592h0a.566.566,0,0,1-.559-.478l-2.8-17.974Z" fill="#7d97f4"/><path d="M-357.967,1363.087v.141a1.922,1.922,0,0,0,1.958,1.865l12.964.22a1.938,1.938,0,0,0,2.029-1.759l.007-.129a1.914,1.914,0,0,0-1.954-1.938l-12.969-.233A1.932,1.932,0,0,0-357.967,1363.087Z" fill="#7d97f4"/><path d="M-332.747,1381.9a11.631,11.631,0,0,1-3.78-.378.875.875,0,0,0,.852.677h8.153a.4.4,0,0,0,.382-.5C-328.069,1381.771-330.043,1381.9-332.747,1381.9Z" fill="url(#a)"/><path d="M-327.14,1381.7a.387.387,0,0,0-.067-.139,4.7,4.7,0,0,0-3.565-2.014c-2.486.035-3.353.305-5.285.015l-.456,1.511a.878.878,0,0,0-.014.451,11.631,11.631,0,0,0,3.78.378C-330.043,1381.9-328.069,1381.771-327.14,1381.7Z" fill="#356fa1"/><path d="M-335.5,1377.93l-.559,1.9a3.289,3.289,0,0,0,2.329.111l.214-1.648Z" fill="url(#b)"/><path d="M-318.6,1380.7a11.678,11.678,0,0,1-3.183,2.075.873.873,0,0,0,1.086-.008l6.356-5.107a.4.4,0,0,0-.014-.628C-315.033,1377.671-316.493,1379.006-318.6,1380.7Z" fill="url(#c)"/><path d="M-314.355,1377.031a.38.38,0,0,0-.139-.065,4.7,4.7,0,0,0-4.035.67c-1.916,1.584-2.424,2.337-4.11,3.322l.586,1.457a.862.862,0,0,0,.27.359,11.678,11.678,0,0,0,3.183-2.075C-316.493,1379.006-315.033,1377.671-314.355,1377.031Z" fill="#356fa1"/><path d="M-347.465,1356.253s13.8,1.127,16.628,2.459-2.31,20.007-2.31,20.007a3.694,3.694,0,0,1-2.485-.163s1.758-13.78.45-16.769l-14.939-2.443Z" fill="url(#d)"/><path d="M-324.01,1378.335c.128.117,1.371,2.623,1.371,2.623s1.383-.3,1.665-1.175l-1.244-2.262Z" fill="url(#e)"/><path d="M-355.775,1356.138a7,7,0,0,0-.431,2.519,3.782,3.782,0,0,0,3.61,3.7l16.31.744a.781.781,0,0,1,.722.588c.384,1.482,2.257,6.035,11.415,15.119a.738.738,0,0,0,.913.1l1.3-.824a.3.3,0,0,0,.1-.4l-9.5-16.217a3.678,3.678,0,0,0-2.233-1.657l-13.9-3.553Z" fill="url(#f)"/><path d="M-339.7,1330.805a20.524,20.524,0,0,1-3.529,4.586l3.682,2.054s.83-3.27,2.726-4.228Z" fill="url(#g)"/><path d="M-356.071,1356.253a20.184,20.184,0,0,0,8.606,0s5.881-7.906,8.156-10.058a16.187,16.187,0,0,0,11.708,6.539l.45-1.007s-6.431-2.964-8.411-7.519-2.775-6.5-4.576-7.687c-1.121-.74-1.793-1.246-2.14-1.522a.577.577,0,0,0-.66-.042C-344.849,1336.122-353.844,1342.282-356.071,1356.253Z" fill="#a0a603"/><path d="M-328.087,1351.2l.909-.242,2.761-.639a1.282,1.282,0,0,1,.97.163l2.374,1.494-6.555-.011Z" fill="url(#h)"/><path d="M-336.927,1326.172a19.384,19.384,0,0,1,1.993,4.383c.295,1.56.768,2.536-1.008,3.092a3.9,3.9,0,0,1-4.461-1.6s-1.618-2.242-1.456-3.268S-336.927,1326.172-336.927,1326.172Z" fill="url(#i)"/><path d="M-339.931,1330.835l.23-.03s-1.2-1.817-.416-2.268,3.993-1.556,4.55-2.819a2.192,2.192,0,0,0-1.234-2.879.123.123,0,0,0-.148.078l-.057.153a.125.125,0,0,1-.231.007h0a.124.124,0,0,0-.226-.005c-.171.378-.685,1.024-2.227,1.524-2.188.709-3.551,1.812-3.383,3.367a.125.125,0,0,1-.178.126c-.179-.079-.45-.092-.765.253-.547.6-.118,1.908,1.377,2.835a.124.124,0,0,1,.02.2c-.223.191-.538.618.473,1a2.537,2.537,0,0,0,1.809.174.124.124,0,0,0,.076-.14l-.265-1.362a.124.124,0,0,1,.106-.147Z" fill="url(#j)"/><path d="M-339.836,1331.115s-.75-1.847-1.537-1.2.728,2.085,1.427,2.065Z" fill="url(#k)"/><path d="M-330.62,1353.263h.033l14-.014a.626.626,0,0,0,.626-.626.624.624,0,0,0-.628-.625l-14,.014a.626.626,0,0,0-.626.626A.627.627,0,0,0-330.62,1353.263Z" fill="#356fa1"/><path d="M-311.16,1339.548l-.014.029-5.893,12.7a.627.627,0,0,0,.3.832.624.624,0,0,0,.832-.305l5.892-12.7a.624.624,0,0,0-.3-.831A.626.626,0,0,0-311.16,1339.548Z" fill="#356fa1"/><path d="M-324.384,1353.966c-.061.253-5.9,22.168-7.386,27.724a1,1,0,0,0,.961,1.269h0a1,1,0,0,0,.966-.763l6.487-26.3Z" fill="#7d97f4"/><path d="M-321.184,1353.966c.061.253,5.9,22.168,7.386,27.724a1,1,0,0,1-.962,1.269h0a1,1,0,0,1-.966-.763l-6.486-26.3Z" fill="#7d97f4"/><path d="M-320.941,1353.249h-3.639v2.923a.755.755,0,0,0,.751.76h.5v6.565a.571.571,0,0,0,.569.575h0a.571.571,0,0,0,.568-.575v-6.565h.254a1,1,0,0,0,1-1.009Z" fill="#7d97f4"/><path d="M-333.528,1352.547h20.32a.624.624,0,0,1,.6.473l.284,1.112a.629.629,0,0,1-.607.788l-20.851-.121a.629.629,0,0,1-.6-.785l.247-.991A.624.624,0,0,1-333.528,1352.547Z" fill="url(#l)"/><rect width="1.321" height="14.289" transform="translate(-191.699 1365.807)" fill="#7d97f4"/><path d="M-185.252,1380.372h-11.573v-.625a.236.236,0,0,1,.236-.235h11.1a.235.235,0,0,1,.235.235Z" fill="#7d97f4"/><rect width="14.55" height="4.127" rx="1.421" transform="translate(-198.085 1362.606)" fill="#7d97f4"/><path d="M-200.793,1356.28a11.5,11.5,0,0,0-4.171,1.78,1.1,1.1,0,0,0-.485,1.052,46.641,46.641,0,0,0,4.935,15.489,1.67,1.67,0,0,1,.16,1.144l-.623,2.9-1.155,1.083h2.974l1.981-5.359-.847-.268a1.6,1.6,0,0,1-1.119-1.5l-.1-5.748a6.547,6.547,0,0,0-1.571-4.329l4.75-.231Z" fill="url(#m)"/><path d="M-203.293,1380.248c-.271.354,2.915.822,4.525.047,0,0,2.231-3.883,2.231-5.882,0,0-.177-.407-1.487-.315,0,0-.749,4.6-1.54,5.112a3.158,3.158,0,0,1-2.214.052A4.666,4.666,0,0,0-203.293,1380.248Z" fill="#356fa1"/><path d="M-196.664,1362.606c-.025-.044-5.114-.612-5.114-.612a11.743,11.743,0,0,1-.354,3.677c-.52,2.13-7.991,11.358-7.991,11.358l.783,2.483a12.6,12.6,0,0,1-7.149.43l4.855-2.913s4.543-15.484,7.327-18.247l5.1-1.764Z" fill="url(#n)"/><path d="M-185.252,1353.6s2.932,4.361,3.172,6.35-.8,2.8-3.879,2.931-11.288.131-11.288.131l-7.009-5.99s5.108-1.823,6.436-2.338S-185.252,1353.6-185.252,1353.6Z" fill="#356fa1"/><path d="M-209.636,1378.676a1.434,1.434,0,0,1,.274,1.725s-6.681,1.185-8.495.647c0,0,.376-.859,2.419-1.838l-.151.116a.243.243,0,0,0,.161.437A18.783,18.783,0,0,0-209.636,1378.676Z" fill="#356fa1"/><path d="M-193.181,1353.019a66.9,66.9,0,0,1-5.094-5.4,4.568,4.568,0,0,1-.774-4.112,56.807,56.807,0,0,1,2.255-5.679c.191-.638,4.019-.612,4.019-.612s7.533,4.889,10.493,13.171l-3.324,1.034a38.885,38.885,0,0,0-3.91-5.4s3.362,4.442,3.481,6.261Z" fill="#356fa1"/><path d="M-197.257,1334.255c.04.133,1.04,3.445,1.118,3.514a5.6,5.6,0,0,0,3.185-.5l-1.687-3.532Z" fill="url(#o)"/><path d="M-195.615,1327.3a6.747,6.747,0,0,0-3.031,3.368c-1.226,2.606-.31,3.81.84,3.975a5.385,5.385,0,0,0,4.691-1.544C-191.295,1331.414-193.271,1326.4-195.615,1327.3Z" fill="url(#p)"/><path d="M-194.338,1331.706s1.361-3.814-2.02-3.859l-.8.556s-1.24-2.114.8-3.123a4.329,4.329,0,0,1,5.94,2.632c.867,2.743.36,4.515-1.082,5.827s-2.036-.176-2.036-.176.785-1.227.466-1.884-1.057.136-1.057.136Z" fill="url(#q)"/><path d="M-193.959,1332.13s.688-1.964,1.606-1.182-.746,1.815-1.4,2.149Z" fill="url(#r)"/><path d="M-200.136,1353.26l2.509-2.417,3.47,1.465a17.087,17.087,0,0,0,5.43,0l1.977-.535,4.468-1.39.7,1.982a1.2,1.2,0,0,1-.436,1.372,7.79,7.79,0,0,1-1.128.7c-.589.257-14.5-.178-14.5-.178Z" fill="url(#s)"/><path d="M-190.683,1328.342a.774.774,0,0,1,.462-1.29c1.982-.309,5,.006,6.273,4.249,1.43,4.78,2.361,7.169,3.316,7.588a.778.778,0,0,1,.043,1.427,3.3,3.3,0,0,1-2.071.073C-189.964,1338.782-188.133,1330.947-190.683,1328.342Z" fill="url(#t)"/><path d="M-190.643,1354.4h-.034l-14.55-.016a.651.651,0,0,1-.651-.652.647.647,0,0,1,.652-.65l14.551.015a.652.652,0,0,1,.65.652A.651.651,0,0,1-190.643,1354.4Z" fill="url(#u)"/><path d="M-218.308,1341.189h12.118a2.31,2.31,0,0,1,2.089,1.324l5.6,11.879h-15.059a1.405,1.405,0,0,1-1.306-.887l-4.344-10.993A.967.967,0,0,1-218.308,1341.189Z" fill="url(#v)"/><path d="M-209.771,1347.28c.263.816.069,1.608-.433,1.769s-1.122-.368-1.384-1.184-.069-1.608.433-1.77S-210.033,1346.464-209.771,1347.28Z" fill="#356fa1"/><path d="M-170.306,1354.932a.536.536,0,0,0-.126-.465.618.618,0,0,0-.464-.205h-60.719a.7.7,0,0,0-.582.3.614.614,0,0,0-.046.62l.658,1.335a.929.929,0,0,0,.837.5h59.436a.688.688,0,0,0,.685-.53Z" fill="#7d97f4"/><path d="M-228.212,1383.067a.52.52,0,0,1-.21-.044.55.55,0,0,1-.279-.717l11.175-26.58a.528.528,0,0,1,.7-.285.549.549,0,0,1,.279.716l-11.175,26.58A.532.532,0,0,1-228.212,1383.067Z" fill="#7d97f4"/><path d="M-215.622,1383.067a.532.532,0,0,1-.49-.33l-11.176-26.58a.55.55,0,0,1,.279-.716.527.527,0,0,1,.7.285l11.176,26.58a.551.551,0,0,1-.279.717A.524.524,0,0,1-215.622,1383.067Z" fill="#7d97f4"/><path d="M-184.205,1383.067a.524.524,0,0,1-.21-.044.551.551,0,0,1-.279-.717l11.176-26.58a.527.527,0,0,1,.7-.285.55.55,0,0,1,.279.716l-11.176,26.58A.532.532,0,0,1-184.205,1383.067Z" fill="#7d97f4"/><path d="M-171.615,1383.067a.532.532,0,0,1-.49-.33l-11.175-26.58a.548.548,0,0,1,.279-.716.528.528,0,0,1,.7.285l11.175,26.58a.55.55,0,0,1-.279.717A.521.521,0,0,1-171.615,1383.067Z" fill="#7d97f4"/><path d="M-336.895,1242.752l99.149-.434a1.7,1.7,0,0,1,1.715,1.709l-.212,34.705a1.7,1.7,0,0,1-1.748,1.689c-8.743-.26-98.353-1.41-100.066-1.339-1.694.071-.774-27.336-.521-34.69A1.7,1.7,0,0,1-336.895,1242.752Z" fill="#356fa1"/><path d="M-237.939,1279.079h-.012c-5.587-.167-59.135-.835-84.869-1.156-7.524-.094-12.866-.161-14.29-.181l-.132,0-.024-.131c-.608-3.431-.6-14.9.031-33.171a.353.353,0,0,1,.352-.343l99.15-.433a.353.353,0,0,1,.255.1.35.35,0,0,1,.1.253l-.212,34.7A.356.356,0,0,1-237.939,1279.079Zm-99.032-1.657c1.6.022,6.849.088,14.155.179,25.735.321,79.284.99,84.875,1.156h.009c.01,0,.025-.016.025-.035l.211-34.705-.036-.2v.161l-99.149.433a.033.033,0,0,0-.033.033C-337.534,1262.47-337.553,1273.858-336.971,1277.422Z" fill="#91b3fa"/><path d="M-332.653,1251.715h0c0,.938.313,1.7.7,1.7h37.979c.386,0,.7-.761.7-1.7h0c0-.939-.313-1.7-.7-1.7h-37.979C-332.34,1250.015-332.653,1250.776-332.653,1251.715Z" fill="#91b3fa"/><path d="M-332.653,1257.508h0c0,.938.313,1.7.7,1.7h37.979c.386,0,.7-.761.7-1.7h0c0-.939-.313-1.7-.7-1.7h-37.979C-332.34,1255.808-332.653,1256.569-332.653,1257.508Z" fill="#91b3fa"/><path d="M-332.653,1263.3h0c0,.938.313,1.7.7,1.7h37.979c.386,0,.7-.761.7-1.7h0c0-.939-.313-1.7-.7-1.7h-37.979C-332.34,1261.6-332.653,1262.362-332.653,1263.3Z" fill="#91b3fa"/><path d="M-332.653,1269.094h0c0,.938.313,1.7.7,1.7h37.979c.386,0,.7-.761.7-1.7h0c0-.939-.313-1.7-.7-1.7h-37.979C-332.34,1267.394-332.653,1268.155-332.653,1269.094Z" fill="#91b3fa"/><circle cx="6.607" cy="6.607" r="6.607" transform="translate(-290.259 1246.305)" fill="#7d97f4"/><circle cx="6.607" cy="6.607" r="6.607" transform="translate(-273.84 1246.305)" fill="#7d97f4"/><circle cx="6.607" cy="6.607" r="6.607" transform="translate(-257.421 1246.521)" fill="#7d97f4"/><path d="M-279.727,1251.515a4.225,4.225,0,0,1,.318,1.613,4.244,4.244,0,0,1-4.243,4.244,4.244,4.244,0,0,1-4.244-4.244,4.244,4.244,0,0,1,4.244-4.244c.071,0,.143,0,.214.006v-1.076c-.071,0-.143,0-.214,0a5.318,5.318,0,0,0-5.319,5.318,5.318,5.318,0,0,0,5.319,5.318,5.318,5.318,0,0,0,5.318-5.318,5.309,5.309,0,0,0-.406-2.041Z" fill="#a0a603"/><path d="M-265.044,1256.718a4.218,4.218,0,0,1-2.261.654,4.244,4.244,0,0,1-4.244-4.244,4.244,4.244,0,0,1,4.244-4.244c.071,0,.143,0,.214.006v-1.076c-.071,0-.143,0-.214,0a5.318,5.318,0,0,0-5.319,5.318,5.318,5.318,0,0,0,5.319,5.318,5.3,5.3,0,0,0,2.794-.792Z" fill="#a0a603"/><path d="M-247.273,1255.514a4.239,4.239,0,0,1-3.509,1.858,4.244,4.244,0,0,1-4.244-4.244,4.244,4.244,0,0,1,4.244-4.244c.071,0,.143,0,.214.006v-1.076c-.071,0-.143,0-.214,0a5.318,5.318,0,0,0-5.319,5.318,5.318,5.318,0,0,0,5.319,5.318,5.312,5.312,0,0,0,4.38-2.3Z" fill="#a0a603"/><g opacity="0.64"><path d="M-278.269,1262.317h-10.766a1.224,1.224,0,0,0-1.224,1.223,1.224,1.224,0,0,0,1.224,1.224h10.766a1.224,1.224,0,0,0,1.223-1.224A1.224,1.224,0,0,0-278.269,1262.317Z" fill="#91b3fa"/><path d="M-261.85,1262.317h-10.766a1.224,1.224,0,0,0-1.224,1.223,1.224,1.224,0,0,0,1.224,1.224h10.766a1.224,1.224,0,0,0,1.223-1.224A1.224,1.224,0,0,0-261.85,1262.317Z" fill="#91b3fa"/><path d="M-256.2,1264.764h10.766a1.223,1.223,0,0,0,1.223-1.224,1.223,1.223,0,0,0-1.223-1.223H-256.2a1.224,1.224,0,0,0-1.224,1.223A1.224,1.224,0,0,0-256.2,1264.764Z" fill="#91b3fa"/><rect width="13.213" height="9.652" rx="1.224" transform="translate(-290.259 1266.123)" fill="#91b3fa"/><rect width="13.213" height="9.652" rx="1.224" transform="translate(-273.84 1266.123)" fill="#91b3fa"/><rect width="13.213" height="9.652" rx="1.224" transform="translate(-257.421 1266.123)" fill="#91b3fa"/></g><path d="M-283.376,1285.377l-76.5-.368c-.922-.008-1.67,1.012-1.663,2.266l.169,30.269c.007,1.261.776,2.268,1.7,2.23l76.067-1.629c.885-.036,1.592-1.014,1.6-2.219l.267-28.271C-281.722,1286.407-282.459,1285.385-283.376,1285.377Z" fill="#bdf"/><path d="M-359.718,1317.866a.311.311,0,0,1-.286-.337l-.17-30.268a.373.373,0,0,1,.07-.227.264.264,0,0,1,.215-.115l76.5.368a.263.263,0,0,1,.214.117.375.375,0,0,1,.068.226l-.266,28.271a.314.314,0,0,1-.274.336h0Zm-.171-30.686a.135.135,0,0,0-.023.079l.169,30.268a.1.1,0,0,0,.029.079l76.057-1.631a.1.1,0,0,0,.026-.076l.267-28.272a.116.116,0,0,0-.019-.07Z" fill="#91b3fa"/><rect width="3.723" height="14.227" transform="translate(-356.777 1301.018)" fill="#91b3fa"/><rect width="3.723" height="9.338" transform="translate(-350.556 1305.907)" fill="#91b3fa"/><rect width="3.723" height="21.422" transform="translate(-344.335 1293.823)" fill="#91b3fa"/><rect width="3.723" height="5.146" transform="translate(-338.114 1310.099)" fill="#91b3fa"/><rect width="3.723" height="18.558" transform="translate(-331.893 1296.687)" fill="#91b3fa"/><rect width="3.723" height="15.345" transform="translate(-325.672 1299.9)" fill="#91b3fa"/><rect width="3.723" height="11.852" transform="translate(-319.452 1303.393)" fill="#91b3fa"/><rect width="3.723" height="25.753" transform="translate(-313.231 1289.492)" fill="#91b3fa"/><rect width="3.723" height="23.029" transform="translate(-307.01 1292.216)" fill="#91b3fa"/><rect width="3.723" height="18.907" transform="translate(-300.789 1296.338)" fill="#91b3fa"/><rect width="3.723" height="4.669" transform="translate(-294.568 1310.576)" fill="#91b3fa"/><rect width="3.723" height="13.738" transform="translate(-288.348 1301.507)" fill="#91b3fa"/><path d="M-267.891,1350.472c1.693.146,4.631.384,6.948.486a6.684,6.684,0,0,0,2.655-.26c0,.052,0,.1,0,.147a.479.479,0,0,1-.455.452,81.305,81.305,0,0,1-9.1.009.341.341,0,0,1-.278-.512A2.735,2.735,0,0,1-267.891,1350.472Z" fill="#356fa1"/><path d="M-260.943,1350.958c-2.317-.1-5.255-.34-6.948-.486,1.665-2.042,6.948-3.419,6.948-3.419h1.492a6.26,6.26,0,0,1,1.163,3.645A6.684,6.684,0,0,1-260.943,1350.958Z" fill="url(#w)"/><path d="M-259.2,1344.617l-.14,2.763a.631.631,0,0,1-.539.594,2.459,2.459,0,0,1-1.12-.093.746.746,0,0,1-.5-.574l-.483-2.69Z" fill="url(#x)"/><path d="M-241.883,1353.659a1.457,1.457,0,0,0,1.206-1.152l0,.014a1.315,1.315,0,0,1-.643,1.406,3.356,3.356,0,0,1-1.781.36,1.642,1.642,0,0,1-1.334-.8l0-.007A3.53,3.53,0,0,0-241.883,1353.659Z" fill="#356fa1"/><path d="M-245.344,1345.469h1.23c1.875-.05,3.051,5.059,3.437,7.038a1.457,1.457,0,0,1-1.206,1.152,3.53,3.53,0,0,1-2.554-.175,18.051,18.051,0,0,1-1.756-5.716A2.134,2.134,0,0,1-245.344,1345.469Z" fill="url(#y)"/><path d="M-244.272,1342.9l.683,2.718a.738.738,0,0,1-.383.836,2.62,2.62,0,0,1-1.415.342.617.617,0,0,1-.5-.411l-1-2.859Z" fill="url(#z)"/><path d="M-268.308,1307.112s6.106,38.168,6.006,38.378a5.08,5.08,0,0,0,3.525.1s-.552-20.4-1.846-28.226c0,0,10.421,18.236,13.73,27.323a8.277,8.277,0,0,0,3.155-1.146s-11.221-32.825-14.214-37.2Z" fill="url(#aa)"/><path d="M-260.867,1317.132a.151.151,0,0,0,.079-.023.15.15,0,0,0,.048-.207l-2.282-3.645a.149.149,0,0,0-.1-.067l-1.68-.338a.151.151,0,0,0-.177.117.151.151,0,0,0,.118.177l1.616.325,2.247,3.59A.151.151,0,0,0-260.867,1317.132Z" fill="#356fa1"/><path d="M-296.328,1269.738a40.9,40.9,0,0,1,6.626,2.065,2.289,2.289,0,0,1,1.121,1.127,15.764,15.764,0,0,0,7.341,7.724,11.974,11.974,0,0,0-2.074,5.466c-2.612-1.944-4.867-5.19-5.949-10.515a2.127,2.127,0,0,1-1.853-.051c-.543-.264-1.171-.638-1.642-.933a2.152,2.152,0,0,1-.954-1.281,7.447,7.447,0,0,1-.074-1.985l-2.118-.656A.754.754,0,0,1-296.328,1269.738Z" fill="url(#ab)"/><path d="M-283.314,1286.12a11.974,11.974,0,0,1,2.074-5.466c2.7,1.22,6.216,1.61,10.691.06a4.722,4.722,0,0,1,1.279-.252c2.382-.14,10.232-.4,16.728,1.751a5.049,5.049,0,0,1,3.045,2.772c1.757,4.033,4.6,13.216-3.3,17.853a19.537,19.537,0,0,0-1.906-3.608c1.272-2.145,1.649-5.075-.608-8.891a55.8,55.8,0,0,0-2.579,13.8,6.177,6.177,0,0,0,.483,2.76l.041.095a.327.327,0,0,1-.23.446,37.447,37.447,0,0,1-10.452.613.571.571,0,0,1-.508-.435c-2.162-9.11-2.167-15.324-1.638-19.252C-272.212,1288.816-278.4,1289.78-283.314,1286.12Z" fill="#a0a603"/><path d="M-270.2,1288.578a.149.149,0,0,0,.148-.13,15.028,15.028,0,0,1,1.557-5.538.15.15,0,0,0-.047-.207.149.149,0,0,0-.207.046,15.039,15.039,0,0,0-1.6,5.66.15.15,0,0,0,.129.168Z" fill="url(#ac)"/><path d="M-259.226,1275.155s.45,4.755.846,6.162a.48.48,0,0,1-.227.549,4.652,4.652,0,0,1-4.489-.07,1,1,0,0,1-.555-.941l.194-4.6Z" fill="url(#ad)"/><path d="M-263.554,1269.071a21.149,21.149,0,0,0-1.535,5.039c-.1,1.735-.471,2.86,1.535,3.209a4.261,4.261,0,0,0,4.61-2.377s1.435-2.663,1.113-3.753S-263.554,1269.071-263.554,1269.071Z" fill="url(#ae)"/><path d="M-259.629,1273.7l-.114-.05a.276.276,0,0,1-.135-.378c.283-.546.835-1.8.122-2.091-.918-.376-4.554-1.118-5.338-2.408a2.4,2.4,0,0,1,.918-3.3.139.139,0,0,1,.181.059l.084.159a.136.136,0,0,0,.251-.026h0a.135.135,0,0,1,.245-.035c.241.386.892,1.011,2.633,1.333,2.475.456,4.111,1.458,4.151,3.167a.137.137,0,0,0,.211.113c.183-.112.475-.164.866.165.679.571.4,2.053-1.088,3.272a.136.136,0,0,0,.006.219c.27.176.673.594-.37,1.151a3.515,3.515,0,0,1-2.195.479.136.136,0,0,1-.11-.164l.331-1.5a.136.136,0,0,0-.133-.166Z" fill="url(#af)"/><path d="M-259.691,1274.017s.549-2.111,1.495-1.52-.491,2.366-1.252,2.445Z" fill="url(#ag)"/><path d="M-290.362,1275.1a.169.169,0,0,0,.107-.038.168.168,0,0,0,.024-.238,15.1,15.1,0,0,0-2.068-2.181c-.2-.111-.314-.227-.339-.334a.286.286,0,0,1,.028-.184l1.636.328.923.792a.169.169,0,0,0,.239-.019.169.169,0,0,0-.018-.239l-.957-.821a.159.159,0,0,0-.077-.037l-1.8-.361a.17.17,0,0,0-.174.072.674.674,0,0,0-.132.547.921.921,0,0,0,.5.552,14.98,14.98,0,0,1,1.972,2.1A.17.17,0,0,0-290.362,1275.1Z" fill="url(#ah)"/><path d="M-265.2,1304.624s-.1,1.972,2.487,1.686a13.029,13.029,0,0,0,3.679-1.468S-264.959,1304.827-265.2,1304.624Z" fill="url(#ai)"/><path d="M-260.314,1304.555a14.562,14.562,0,0,1-2.873-.619c-.75-.357-1.013.1-.356.538s.769.438.769.438a25.266,25.266,0,0,1-2.722.6c-.488.005-1.864.091-1.47.316a9.724,9.724,0,0,0,3.01.366c1.015-.012,2,.412,4.736-1.288A1.176,1.176,0,0,0-260.314,1304.555Z" fill="url(#aj)"/><path d="M-259.621,1305.123l-3.03-.665s6.03-1.984,7.952-5.228a19.537,19.537,0,0,1,1.906,3.608A19.84,19.84,0,0,1-259.621,1305.123Z" fill="url(#ak)"/><circle cx="12.464" cy="12.464" r="12.464" transform="translate(-331.655 1290.173) rotate(-54.897)" fill="url(#al)"/><circle cx="12.049" cy="12.049" r="12.049" transform="translate(-328.858 1278.302) rotate(-13.742)" fill="#a0a603"/><path d="M-324.366,1282.853a.405.405,0,0,1-.182-.037.4.4,0,0,1-.2-.536,11.478,11.478,0,0,1,10.093-6.657,11.776,11.776,0,0,1,2.084.122.4.4,0,0,1,.338.458.4.4,0,0,1-.458.339,10.916,10.916,0,0,0-1.939-.113,10.676,10.676,0,0,0-9.388,6.192A.4.4,0,0,1-324.366,1282.853Z" fill="#fff" opacity="0.78"/><circle cx="10.198" cy="10.198" r="10.198" transform="translate(-328.335 1289.156) rotate(-52.002)" fill="#fff" opacity="0.78"/><path d="M-314.784,1295.007l-.035-1.109a9.019,9.019,0,0,1-3.132-.578.642.642,0,0,1-.379-.746l.25-1.042a.647.647,0,0,1,.864-.451,7.52,7.52,0,0,0,2.892.516c1.114-.035,1.932-.438,1.908-1.212-.021-.7-.676-1.094-2.237-1.461-2.227-.535-3.842-1.448-3.9-3.392-.054-1.755,1.187-3.135,3.4-3.563l-.035-1.109a.647.647,0,0,1,.626-.666l.652-.021a.646.646,0,0,1,.666.626l.031,1a8.231,8.231,0,0,1,2.481.366.644.644,0,0,1,.426.764l-.23.963a.644.644,0,0,1-.837.462,6.706,6.706,0,0,0-2.432-.364c-1.322.041-1.682.6-1.667,1.091.019.6.825.994,2.559,1.469,2.476.66,3.527,1.647,3.584,3.478.053,1.68-1.146,3.228-3.55,3.681l.039,1.241a.647.647,0,0,1-.626.667l-.652.02A.646.646,0,0,1-314.784,1295.007Z" fill="#a0a603"/><circle cx="10.957" cy="10.957" r="10.957" transform="matrix(0.096, -0.995, 0.995, 0.096, -349.823, 1278.378)" fill="url(#am)"/><circle cx="10.593" cy="10.593" r="10.593" transform="matrix(0.456, -0.89, 0.89, 0.456, -352.121, 1273.123)" fill="#a0a603"/><path d="M-346.553,1264.3a.267.267,0,0,1-.121-.03.27.27,0,0,1-.115-.364,10.005,10.005,0,0,1,9.035-5.428,10.153,10.153,0,0,1,1.811.182.271.271,0,0,1,.214.316.267.267,0,0,1-.316.214,9.753,9.753,0,0,0-1.714-.173,9.472,9.472,0,0,0-8.551,5.138A.27.27,0,0,1-346.553,1264.3Z" fill="#fff" opacity="0.78"/><circle cx="8.966" cy="8.966" r="8.966" transform="translate(-349.237 1263.646) rotate(-21.217)" fill="#fff" opacity="0.78"/><path d="M-338.587,1275.414l.011-.975a7.967,7.967,0,0,1-2.73-.623.565.565,0,0,1-.3-.67l.258-.906a.569.569,0,0,1,.776-.364,6.607,6.607,0,0,0,2.521.56c.979.01,1.713-.314,1.72-.994.007-.615-.553-.986-1.91-1.366-1.937-.552-3.322-1.414-3.3-3.124.017-1.543,1.158-2.71,3.12-3l.011-.975a.567.567,0,0,1,.574-.562l.573.006a.568.568,0,0,1,.562.575l-.009.875a7.286,7.286,0,0,1,2.165.413.567.567,0,0,1,.346.687l-.237.838a.566.566,0,0,1-.752.374,5.94,5.94,0,0,0-2.124-.409c-1.162-.013-1.5.465-1.5.9-.005.531.688.9,2.193,1.385,2.151.671,3.038,1.577,3.02,3.187-.016,1.477-1.126,2.793-3.254,3.1l-.012,1.092a.569.569,0,0,1-.574.562l-.574-.006A.57.57,0,0,1-338.587,1275.414Z" fill="#a0a603"/></g></svg>