<svg xmlns="http://www.w3.org/2000/svg" width="294" height="199" viewBox="0 0 294 199"><g transform="translate(410.966 -2182.817)"><path d="M0,0H294V199H0Z" transform="translate(-410.966 2182.817)" fill="none"/><path d="M-363.492,2352.573s-18.522-7.7-20.6-16,14.761-5.491,27.627,11.408c0,0-19.006-31.869-7.178-34.18s18.24,31.127,18.24,31.127,3.342-16.442,11.071-15.637,3.243,13.472-9.518,23.281Z" fill="#ecedcc"/><path d="M-350.379,2351.272a96.112,96.112,0,0,0-13.736-36.479" fill="#ecedcc"/><path d="M-356.462,2350.786s-16.85-8.168-24.439-18.1" fill="#ecedcc"/><path d="M-334.329,2331.484s-5.726,16.7-14.057,19.3" fill="#ecedcc"/><path d="M-280.684,2346.919s-26.378,1.949-40.832-.921c-8.358-1.659-12.013-7.062-1.033-9.224,5.532-1.089,16.071-9.979-5.472-12.741-18.791-2.41-20.774-16.119-4.1-15.841,3.918.066-1.485-2.472-6.264-11.339-3.677-6.822-3.044-17.608,3.169-20.682,13.1-6.479,12.75,18.119,18.1,19.272,5.136,1.107,7.112-12.747,14.259-11.034,9.335,2.236-5.812,28.523-3.952,30.871,3.967,5,11.377-19.777,18.334-17.784S-303.286,2340.789-280.684,2346.919Z" fill="#ecedcc"/><path d="M-287.273,2345.779c-14.331-5.727-12.372-16.342-29-30.327-13.75-11.561-17.381-24.669-16.272-39.677" fill="#ecedcc"/><path d="M-249.946,2346.081s18.522-7.7,20.6-16-13.79-7.376-26.656,9.522c0,0,19.227-28.654,7.4-30.965s-19.433,29.8-19.433,29.8S-271.38,2322-279.109,2322.8s-3.244,13.472,9.518,23.28Z" fill="#ecedcc"/><path d="M-263.059,2344.78s3.153-20.083,14.928-35.15" fill="#ecedcc"/><path d="M-256.976,2344.295s15.215-13.827,24.439-16.377" fill="#ecedcc"/><path d="M-279.109,2324.992s5.726,16.7,14.057,19.3" fill="#ecedcc"/><path d="M-207.339,2343.235s26.378,1.949,40.832-.921c8.358-1.659,12.013-7.063,1.033-9.224-5.532-1.09-14.795-4.932,5.472-12.741,16.929-6.523,19.182-17.623,3.041-13.414-8.365,2.182,2.54-4.9,7.319-13.767,3.677-6.822,3.044-17.607-3.169-20.681-13.1-6.479-15.456,22.782-20.8,23.935-5.135,1.107.728-18.978-8.5-16.328s3.4,25.624.9,31.5-4.123-20.158-11.079-18.165S-184.737,2337.1-207.339,2343.235Z" fill="#ecedcc"/><path d="M-200.75,2342.095c14.331-5.728,12.372-16.342,29-30.327,13.75-11.562,18.693-21.52,17.584-36.529" fill="#ecedcc"/><g opacity="0.4"><g opacity="0.15"><path d="M-280.391,2363.368s.351,3.952-.507,4.363l-10.985-.022s0-1.234,1.764-1.508,4.864-1.28,5.389-3.519S-280.391,2363.368-280.391,2363.368Z" fill="#3a3a5b"/></g><g opacity="0.15"><path d="M-248.871,2361.838s.33,5.482-.528,5.893l-10.985-.022s0-1.234,1.764-1.508,4.864-1.28,5.389-3.519S-248.871,2361.838-248.871,2361.838Z" fill="#3a3a5b"/></g><g opacity="0.15"><path d="M-248.5,2362.512a20.865,20.865,0,0,1-3.114,1.293,14.245,14.245,0,0,1-2.985.081c-3.736-9.749-15.323-49.376-15.323-49.376a167.556,167.556,0,0,1-4.647,30.671c-.056.235-.114.469-.17.7v0c-.051.211-.1.421-.154.628a.142.142,0,0,0-.006.028c-2.564,10.366-5.133,17.426-5.133,17.426s-.664.817-2.511.444a4.853,4.853,0,0,1-2.824-1.334c1.37-42.224,2.135-66.033,2.135-66.033s18.34-9.643,23.322-1.4S-248.5,2362.512-248.5,2362.512Z" fill="#3a3a5b"/></g><g opacity="0.15"><path d="M-255.887,2301.337a80.065,80.065,0,0,1-2.75-22.631c.025-9.256.88-15.776-1.983-16.875,0,0-8.843-2.5-14.93-3.6a30.433,30.433,0,0,0-2.862-1.387c-1.922-.759-9.415-11.359-10.685-13.9s-3.374-13.6-3.374-13.6l-2.919.906s-.877,12.412-.457,15.647,9.7,17.146,10.468,18.364h0c3.3,11.75,0,30.87,1.51,35.134.775,2.193,15.176,6.211,23.057,5.705.393-.025.77-.061,1.128-.11h0c1.865-.252,3.221-.832,3.718-1.849A2.45,2.45,0,0,0-255.887,2301.337Z" fill="#3a3a5b"/></g><g opacity="0.15"><path d="M-292.471,2229.347s1.65-4.666.444-4.8-4.235-.121-4.609.667,1.246,5.041,1.246,5.041Z" fill="#3a3a5b"/></g><g opacity="0.15"><path d="M-323.882,2240.971l-9.739-5.733a3.011,3.011,0,0,1,1.865-1.335,3.093,3.093,0,0,1,2.289.34,1.355,1.355,0,0,0,1.831-.439l2.635-4.242,2.281,1.342-2.636,4.242a1.268,1.268,0,0,0-.154.982,1.3,1.3,0,0,0,.605.8,2.941,2.941,0,0,1,1.372,1.815A2.87,2.87,0,0,1-323.882,2240.971Z" fill="#3a3a5b"/><path d="M-323.882,2240.971l-6.474-3.811c-1.5-1.218-.767-2.261-.015-2.441a3.085,3.085,0,0,1,2.29.34,1.355,1.355,0,0,0,1.83-.44l2.636-4.242.895.527-2.636,4.242a1.268,1.268,0,0,0-.154.982,1.3,1.3,0,0,0,.605.8,2.941,2.941,0,0,1,1.372,1.815A2.87,2.87,0,0,1-323.882,2240.971Z" fill="#3a3a5b"/><path d="M-295.391,2213.337l-7.882,9.67a14.654,14.654,0,0,1-12.018,6.7h0a15.179,15.179,0,0,1-4.483-.479,3.052,3.052,0,0,0-3.251,1.49l-.154.248-.842,1.352-1.66-.977.847-1.364a3.236,3.236,0,0,0-.122-3.868,13.971,13.971,0,0,1-1.589-16.8l5.337-11.168Z" fill="#3a3a5b"/><path d="M-328.362,2217.157c.644-3.623-1.157-5.6-3.063-7.687-1.524-1.671-3.1-3.4-3.439-5.971a7.461,7.461,0,0,1,3.4-7.245,5.113,5.113,0,0,1,5.551-.1c2.411,1.507,3.307,4.425,2.592,8.437a23.607,23.607,0,0,1-1.709,5.4l-1.513-.683c.043-.09,4.208-8.99-.272-11.791a3.466,3.466,0,0,0-3.758.108,5.9,5.9,0,0,0-2.632,5.667c.273,2.075,1.613,3.544,3.032,5.1,1.987,2.179,4.239,4.649,3.458,9.042Z" fill="#3a3a5b"/><path d="M-309.571,2228.217c3-2.238,5.63-1.6,8.417-.931,2.228.538,4.533,1.093,7.03.191a7.57,7.57,0,0,0,5.016-6.292,4.83,4.83,0,0,0-2.485-4.832c-2.492-1.378-5.563-.795-8.882,1.685a24.376,24.376,0,0,0-4.122,3.982l1.324.987c.062-.078,6.226-7.8,10.856-5.242a3.266,3.266,0,0,1,1.646,3.29,5.994,5.994,0,0,1-3.933,4.9c-2.015.728-3.975.256-6.049-.245-2.9-.7-6.2-1.495-9.834,1.218Z" fill="#3a3a5b"/><path d="M-315.293,2229.708a15.179,15.179,0,0,1-4.483-.479,3.052,3.052,0,0,0-3.251,1.49l-.154.248a2.483,2.483,0,0,0-1.226,1.126l-1.276-.751.847-1.364a3.236,3.236,0,0,0-.122-3.868,13.971,13.971,0,0,1-1.589-16.8l5.337-11.168,4.269,2.512S-334.271,2223.507-315.293,2229.708Z" fill="#3a3a5b"/><path d="M-322.975,2233.3l-4.252-2.5a1.179,1.179,0,0,1-.415-1.639h0a1.25,1.25,0,0,1,1.684-.4l4.252,2.5a1.178,1.178,0,0,1,.415,1.639h0A1.249,1.249,0,0,1-322.975,2233.3Z" fill="#3a3a5b"/><path d="M-321.674,2219.394l.457-.735c2.162,1.138,2.441,1,3.329-.426l4.465-7.186c.629-1.012.311-1.308-.463-1.9l-.551-.46.407-.655a26.825,26.825,0,0,0,5.145,1.673l-6.29,10.124c-.913,1.469-.9,1.719,1.117,3.043l-.456.734Z" fill="#3a3a5b"/></g><g opacity="0.15"><path d="M-296.636,2225.212s-.156,1.606.374,1.909.716-1.909.716-1.909.031,1.815.436,1.938.654-2.089.654-2.089.043,1.757.317,1.7.461-1.7.461-1.7.125,1.276.5,1.047.729-1.6.729-1.6Z" fill="#3a3a5b"/></g><g opacity="0.15"><path d="M-292.471,2229.347a4.634,4.634,0,0,0,1.378-1.65c.249-.788.981-2.112.591-2.273s-1.525,1.546-1.525,1.546Z" fill="#3a3a5b"/></g><g opacity="0.15"><path d="M-272.913,2256.957l-.142.718s-.656,2.2,2.115,3.078,5.106,1.279,5.381-.466a36.374,36.374,0,0,1,.188-4.67,7.832,7.832,0,0,1,.374-1.323l-5.477-1.166-1.671-.054Z" fill="#3a3a5b"/></g><g opacity="0.15"><path d="M-272.145,2253.074l-.511,2.617c5.2,1.341,7.48-.919,7.659-1.4l-5.477-1.166Z" fill="#3a3a5b"/></g><g opacity="0.15"><path d="M-264.2,2253.208c-1.613,3.192-6.046,1.862-7.914,1.123-.526-.207-.849-.368-.849-.368-.566-.326-.637-1.358-.441-2.63a19.558,19.558,0,0,1,2.5-6.78c1.032-1.2,2.658-2.36,6.845-.06S-262.126,2249.118-264.2,2253.208Z" fill="#3a3a5b"/></g><g opacity="0.15"><path d="M-271.355,2240.971a15.878,15.878,0,0,0,4.641.042c2.125-.284,4.261,1.251,4.922,1.861a1.148,1.148,0,0,0-.058-.506,1.034,1.034,0,0,1,.233.686c.029.035.04.057.029.061a1.4,1.4,0,0,1,.636.218s-.17-.074-.265.02a.118.118,0,0,1-.038.023c2.555,2.2,1.517,6.817.263,7.609a34,34,0,0,0-4.1,3.576,6.37,6.37,0,0,1,.621-2.015c.529-1.056-.459-1.326-1.561-2.173s.346-1.981-.5-3.139-4.994-1.747-4.753-2.39C-272.618,2243.911-271.4,2241.119-271.355,2240.971Z" fill="#3a3a5b"/></g><g opacity="0.15"><path d="M-270.689,2252.031s-.27.4-1.351-.071c0,0-.907-.391-.7-.856A3.231,3.231,0,0,1-270.689,2252.031Z" fill="#3a3a5b"/></g><g opacity="0.15"><path d="M-271.906,2262.822s-2.5,16.131-21.18,27.333l-1.744,4.93h6.743s16.734-13.657,17.856-31.8Z" fill="#3a3a5b"/></g><g opacity="0.15"><path d="M-271.906,2262.822v-2.446l3.08.849-1.4,2.061Z" fill="#3a3a5b"/></g><g opacity="0.15"><path d="M-272.913,2256.957l-1.8,1.5a6.733,6.733,0,0,0,.716,4.366l3.633-2.022A5.059,5.059,0,0,1-272.913,2256.957Z" fill="#3a3a5b"/></g><g opacity="0.15"><path d="M-270.366,2260.8a6.447,6.447,0,0,0,1.306,2.838s4.092-.7,5.228-2.606l-1.714-2.6S-265.955,2260.205-270.366,2260.8Z" fill="#3a3a5b"/></g><g opacity="0.15"><path d="M-245.847,2302.612a21.759,21.759,0,0,1-.334,4.329,15.314,15.314,0,0,1-2.579,3.559c-.706.5.152-2.893-.069-3.513s-.494,1.224-.82,1.3-.416-1.55-.491-2.138,1.391-2.206,1.828-3.518S-245.847,2302.612-245.847,2302.612Z" fill="#3a3a5b"/></g><g opacity="0.15"><path d="M-260.678,2261.831s3.6.954,6.037,6.176c2.557,5.476,9.4,17.64,9.655,19.319s-.453,17.357-.453,17.357-3,.113-3.92-1.27c0,0-1.043-13.764-1.5-14.512s-12.247-14.427-11.254-17.9A59.517,59.517,0,0,0-260.678,2261.831Z" fill="#3a3a5b"/></g><g opacity="0.15"><path d="M-255.963,2303.143a9.87,9.87,0,0,1-3.718,1.849h0a3.019,3.019,0,0,1-1.128.11c-6.586-.66-5.573-25.563-2.382-27.4,3.363-1.94,4.557,1.006,4.557,1.006a80.065,80.065,0,0,0,2.75,22.631A2.45,2.45,0,0,1-255.963,2303.143Z" fill="#3a3a5b"/></g><path d="M-274.89,2346.513c.043-.194.094-.4.154-.628C-274.787,2346.1-274.839,2346.306-274.89,2346.513Z" fill="#3a3a5b" opacity="0.15"/><g opacity="0.15"><path d="M-274.566,2345.181c2.015-9.283-.157-34.158.813-34.631,1-.485,3.834,3.96,3.834,3.96A167.556,167.556,0,0,1-274.566,2345.181Z" fill="#3a3a5b"/></g></g><path d="M-274.975,2362.569s.351,4.061-.507,4.483l-10.985-.022s0-1.268,1.764-1.55,4.864-1.314,5.389-3.615S-274.975,2362.569-274.975,2362.569Z" fill="#2c2c2c"/><path d="M-243.455,2361s.33,5.633-.528,6.055l-10.985-.022s0-1.268,1.765-1.55,4.864-1.314,5.388-3.615S-243.455,2361-243.455,2361Z" fill="#2c2c2c"/><path d="M-243.081,2361.69a20.561,20.561,0,0,1-3.113,1.328,13.888,13.888,0,0,1-2.986.083c-3.736-10.016-15.323-50.733-15.323-50.733a176.457,176.457,0,0,1-4.647,31.514c-.056.242-.114.482-.17.72v0c-.051.217-.1.432-.154.645a.151.151,0,0,0-.006.029c-2.564,10.651-5.133,17.905-5.133,17.905s-.664.839-2.511.456a4.822,4.822,0,0,1-2.824-1.37c1.371-43.385,2.135-67.849,2.135-67.849s18.34-9.908,23.322-1.439S-243.081,2361.69-243.081,2361.69Z" fill="#4c4b73"/><path d="M-250.471,2298.834a84.459,84.459,0,0,1-2.75-23.254c.025-9.511.88-16.209-1.983-17.339,0,0-8.843-2.57-14.93-3.7a29.894,29.894,0,0,0-2.862-1.424c-1.922-.78-9.415-11.672-10.685-14.28s-3.373-13.97-3.373-13.97l-2.92.931s-.877,12.753-.457,16.078,9.7,17.617,10.468,18.868h0c3.3,12.073,0,31.719,1.51,36.1.776,2.253,15.176,6.382,23.058,5.862.392-.026.769-.063,1.127-.113h0c1.865-.259,3.221-.855,3.718-1.9A2.579,2.579,0,0,0-250.471,2298.834Z" fill="#356fa1"/><path d="M-287.054,2224.864s1.649-4.794.443-4.933-4.235-.124-4.609.685,1.246,5.179,1.246,5.179Z" fill="#ffccbe"/><path d="M-318.466,2236.808l-9.739-5.89a3.013,3.013,0,0,1,1.865-1.372,3.021,3.021,0,0,1,2.29.349,1.334,1.334,0,0,0,1.83-.451l2.635-4.359,2.281,1.379-2.636,4.359a1.334,1.334,0,0,0-.154,1.009,1.334,1.334,0,0,0,.6.822,3.013,3.013,0,0,1,1.372,1.865A3.018,3.018,0,0,1-318.466,2236.808Z" fill="#fcba64"/><path d="M-318.466,2236.808l-6.474-3.916c-1.5-1.252-.767-2.323-.015-2.508a3.015,3.015,0,0,1,2.29.349,1.333,1.333,0,0,0,1.83-.451l2.636-4.359.9.541-2.636,4.359a1.334,1.334,0,0,0-.154,1.009,1.334,1.334,0,0,0,.6.822,3.013,3.013,0,0,1,1.372,1.865A3.018,3.018,0,0,1-318.466,2236.808Z" fill="#fed677"/><path d="M-289.975,2208.414l-7.882,9.936a14.561,14.561,0,0,1-12.018,6.886h0a14.855,14.855,0,0,1-4.483-.492,3.021,3.021,0,0,0-3.251,1.53l-.154.255-.842,1.389-1.659-1s.386-.642.846-1.4a3.4,3.4,0,0,0-.122-3.974,14.661,14.661,0,0,1-1.589-17.263l5.338-11.475Z" fill="#fed677"/><path d="M-322.946,2212.34c.644-3.723-1.157-5.752-3.063-7.9-1.524-1.717-3.1-3.492-3.439-6.135a7.742,7.742,0,0,1,3.4-7.444,5,5,0,0,1,5.551-.1c2.411,1.549,3.308,4.547,2.592,8.669a24.782,24.782,0,0,1-1.708,5.551l-1.514-.7c.043-.092,4.208-9.238-.272-12.116a3.39,3.39,0,0,0-3.758.112,6.128,6.128,0,0,0-2.632,5.822c.273,2.132,1.613,3.642,3.032,5.24,1.987,2.239,4.239,4.776,3.459,9.29Z" fill="#fcba64"/><path d="M-304.155,2223.7c3-2.3,5.63-1.647,8.417-.956,2.228.552,4.533,1.123,7.031.2a7.742,7.742,0,0,0,5.015-6.464,5,5,0,0,0-2.485-4.965c-2.492-1.416-5.563-.818-8.882,1.731a24.674,24.674,0,0,0-4.122,4.091l1.324,1.014c.062-.08,6.226-8.017,10.856-5.386a3.388,3.388,0,0,1,1.646,3.38,6.126,6.126,0,0,1-3.933,5.035c-2.015.748-3.975.263-6.049-.251-2.9-.72-6.2-1.537-9.833,1.251Z" fill="#fed677"/><path d="M-309.877,2225.236a14.855,14.855,0,0,1-4.483-.492,3.021,3.021,0,0,0-3.251,1.53l-.154.255a2.511,2.511,0,0,0-1.226,1.157l-1.275-.771s.386-.642.846-1.4a3.4,3.4,0,0,0-.122-3.974,14.661,14.661,0,0,1-1.589-17.263l5.338-11.475,4.268,2.581S-328.855,2218.864-309.877,2225.236Z" fill="#fcba64"/><path d="M-317.559,2228.928l-4.252-2.571a1.231,1.231,0,0,1-.415-1.685h0a1.23,1.23,0,0,1,1.684-.414l4.253,2.571a1.23,1.23,0,0,1,.414,1.684h0A1.23,1.23,0,0,1-317.559,2228.928Z" fill="#fed677"/><path d="M-316.257,2214.638l.456-.755c2.162,1.169,2.441,1.031,3.329-.438l4.465-7.383c.629-1.041.311-1.344-.463-1.952l-.55-.472.407-.673a26.265,26.265,0,0,0,5.144,1.718l-6.29,10.4c-.913,1.509-.9,1.766,1.117,3.126l-.456.755Z" fill="#ecf1f9"/><path d="M-291.22,2220.616s-.155,1.65.374,1.962.716-1.962.716-1.962.031,1.865.436,1.991.654-2.147.654-2.147.043,1.806.317,1.744.461-1.744.461-1.744.125,1.311.5,1.076.728-1.642.728-1.642Z" fill="#ffccbe"/><path d="M-287.054,2224.864a4.711,4.711,0,0,0,1.377-1.7c.249-.809.981-2.17.591-2.335s-1.525,1.588-1.525,1.588Z" fill="#ffccbe"/><path d="M-267.5,2253.234l-.141.737s-.657,2.265,2.114,3.162,5.107,1.315,5.381-.478a38.387,38.387,0,0,1,.188-4.8,8.193,8.193,0,0,1,.374-1.36l-5.477-1.2-1.671-.056Z" fill="#ffccbe"/><path d="M-266.729,2249.244l-.51,2.689c5.2,1.378,7.479-.945,7.658-1.436l-5.477-1.2Z" fill="#e98c94"/><path d="M-258.778,2249.381c-1.614,3.28-6.047,1.913-7.915,1.154-.526-.212-.848-.377-.848-.377-.567-.336-.638-1.4-.442-2.7a20.419,20.419,0,0,1,2.5-6.966c1.031-1.233,2.657-2.425,6.844-.061S-256.71,2245.179-258.778,2249.381Z" fill="#ffccbe"/><path d="M-265.939,2236.808a15.457,15.457,0,0,0,4.641.043c2.125-.292,4.261,1.286,4.922,1.912a1.21,1.21,0,0,0-.058-.52,1.081,1.081,0,0,1,.233.705c.029.036.04.059.029.063a1.38,1.38,0,0,1,.637.224s-.171-.076-.266.021a.112.112,0,0,1-.038.023c2.555,2.257,1.517,7,.263,7.818a34.312,34.312,0,0,0-4.1,3.674,6.674,6.674,0,0,1,.621-2.069c.529-1.086-.459-1.364-1.561-2.234s.347-2.035-.5-3.225-4.994-1.795-4.752-2.456C-267.2,2239.828-265.982,2236.96-265.939,2236.808Z" fill="#2c2c2c"/><path d="M-265.273,2248.172s-.27.406-1.351-.073c0,0-.907-.4-.7-.88A3.192,3.192,0,0,1-265.273,2248.172Z" fill="#ecf1f9"/><path d="M-266.49,2259.259s-2.5,16.575-21.18,28.085l-1.744,5.065h6.743s16.734-14.032,17.856-32.673Z" fill="#fed677"/><path d="M-266.49,2259.259v-2.513l3.08.872-1.4,2.117Z" fill="#fed677"/><path d="M-267.5,2253.234l-1.8,1.54a7.088,7.088,0,0,0,.716,4.485l3.633-2.077A5.184,5.184,0,0,1-267.5,2253.234Z" fill="#2a628c"/><path d="M-264.95,2257.182a6.719,6.719,0,0,0,1.306,2.916s4.093-.716,5.228-2.677l-1.713-2.678S-260.539,2256.57-264.95,2257.182Z" fill="#2a628c"/><path d="M-240.431,2300.143a22.971,22.971,0,0,1-.334,4.449,15.725,15.725,0,0,1-2.579,3.656c-.706.514.152-2.972-.069-3.61s-.494,1.258-.82,1.336-.416-1.593-.491-2.2,1.391-2.267,1.828-3.615S-240.431,2300.143-240.431,2300.143Z" fill="#ffccbe"/><path d="M-255.262,2258.241s3.6.98,6.037,6.346c2.557,5.627,9.4,18.125,9.655,19.85s-.453,17.834-.453,17.834-3,.116-3.92-1.3c0,0-1.043-14.142-1.5-14.91s-12.247-14.824-11.254-18.39A62.739,62.739,0,0,0-255.262,2258.241Z" fill="#356fa1"/><path d="M-250.547,2300.689a9.761,9.761,0,0,1-3.718,1.9h0a2.956,2.956,0,0,1-1.127.113c-6.587-.679-5.574-26.266-2.383-28.157,3.363-1.993,4.557,1.034,4.557,1.034a84.459,84.459,0,0,0,2.75,23.254A2.579,2.579,0,0,1-250.547,2300.689Z" fill="#2a628c"/><path d="M-269.474,2345.251c.044-.2.1-.415.154-.645C-269.371,2344.823-269.423,2345.038-269.474,2345.251Z" fill="#233862"/><path d="M-269.15,2343.882c2.015-9.538-.157-35.1.813-35.583,1-.5,3.834,4.069,3.834,4.069A176.457,176.457,0,0,1-269.15,2343.882Z" fill="#3a3a5b"/><path d="M-318.427,2363.363l-.581-4.184,2.44-2.039.769,5.539Z" fill="#ffccbe"/><path d="M-310.324,2367.1h-9.947a5.458,5.458,0,0,1,.281-2.667c.5-1.1,1.273-1.784,1.343-2.63a2.988,2.988,0,0,0,2.848.876,10.928,10.928,0,0,0,1.726,2.237C-313.423,2365.384-310.524,2365.217-310.324,2367.1Z" fill="#2c2c2c"/><path d="M-312.322,2306.87c-.651,5.233-1.183,10.167-1.616,14.765-2.315,24.5-1.861,39.475-1.861,39.475s-.167.443-1.6.45a8.244,8.244,0,0,1-1.6-.173s-5.184-16-4.784-25.1a14,14,0,0,1,.4-2.947c1.243-4.658-4.6-22.472,1.752-29.106S-312.023,2304.468-312.322,2306.87Z" fill="#2c6793"/><path d="M-312.322,2306.87c-.651,5.233-1.183,10.167-1.616,14.765l-9.853,14.649a14,14,0,0,1,.4-2.947c1.243-4.658-4.6-22.472,1.752-29.106S-312.023,2304.468-312.322,2306.87Z" fill="#205677"/><path d="M-304.493,2256.953s-.24-1.195-.51-2.108c-.12-.4.713-3.056,1.289-3.382s2.078,1.46,1.653,2.831c-.218.7-.577,3-.577,3Z" fill="#ffccbe"/><path d="M-304.493,2256.953s-.314-.693-.6-.8-.587-1.246-.794-1.7c0,0,.2-.294.551.084.214.231.692.908.692.908Z" fill="#ffb27d"/><path d="M-345.558,2260.975c-.061.126-.146.351-.221.562,0-.057,0-.115,0-.171,0-.421-1.577-2.713-2.223-2.856s-1.559,2-.752,3.19c.415.61,1.429,2.7,1.429,2.7l1.675-.866s.1-.754.335-.944.2-1.363.262-1.854C-345.056,2260.733-345.333,2260.511-345.558,2260.975Z" fill="#ffccbe"/><path d="M-335.109,2362.109c-.141-1.342-.176-4.869-.176-4.869s3.6-1.149,3.463-.36a25.356,25.356,0,0,0-.474,5.8l-1.454.868Z" fill="#ffccbe"/><path d="M-315.325,2306.62s-13.888,38.069-16.621,54.582a2.772,2.772,0,0,1-1.815.291,2.029,2.029,0,0,1-1.707-1.095s-2.509-19.791,2.478-26.662c3.426-4.721-1.478-25.453,6.5-27.116S-315.325,2306.62-315.325,2306.62Z" fill="#356fa1"/><path d="M-317.791,2270h0a.27.27,0,0,0-.011-.049q-.121-.5-.265-.992v0a22.242,22.242,0,0,0-1.009-2.8,14.792,14.792,0,0,0-.665-1.328c-.035-.062-.069-.119-.1-.178h0a3.994,3.994,0,0,0-1.586-1.718,4.77,4.77,0,0,0-2.614-.109,1.211,1.211,0,0,1,.5-.333,3.958,3.958,0,0,0-1.351.575c-6.4-1.431-6.023,7.618-5.588,9.668s-1.625,3.048-4.529,5.146c-5.543,4-5.45,8.249-5.45,8.249.05.021.1.045.161.073.223-.549.7-1.588,1.192-1.808a21.673,21.673,0,0,0-.532,2.149c.844.466,2.013,1.186,3.281,2h0c1.7,1.087,3.571,2.337,5.073,3.352a3.428,3.428,0,0,1-.037-1.335l.478,1.482.063.193c.958.65,1.714,1.169,2.1,1.435l.105.073.172.118c-.127-.523.432-1.889,1.371-3.61.064-.12.132-.242.2-.366.3-.544.641-1.117,1.005-1.708.132-.213.264-.427.4-.645h0c.11-.175.222-.349.337-.527h0q.408-.63.84-1.267c.744-1.1,1.531-2.189,2.309-3.189a27.929,27.929,0,0,1,3.166-3.55c.03-.063.059-.126.085-.191a6.444,6.444,0,0,0,.343-1.094q.04-.172.072-.345a15.042,15.042,0,0,0,.233-2.713,15.475,15.475,0,0,1-.034,2.734c-.018.147-.038.284-.06.41v0a5.451,5.451,0,0,1-.168.719,3.807,3.807,0,0,0,.4-.621,4.477,4.477,0,0,0,.21-.465C-316.941,2275.525-317.143,2272.674-317.791,2270Z" fill="#2c2c2c"/><path d="M-318.993,2279.167a5.641,5.641,0,0,1-3.328,1.134,4.489,4.489,0,0,1-2.6-1.846c.571-.205.62-1.038.091-4.511l.274.013,4.6.22s.108,1.423.3,2.749C-319.49,2278.04-319.266,2279.086-318.993,2279.167Z" fill="#ffccbe"/><path d="M-319.955,2274.177s.108,1.423.3,2.749c-2.513.3-4.176-1.785-4.906-2.969Z" fill="#e98c94"/><path d="M-325.094,2273.538a13.29,13.29,0,0,1-2.2-3.6c-.413-1.232-.466-6.018,4.347-6.043a6.468,6.468,0,0,1,2.8.609c1.126.539,2.824,1.811,1.782,6.149l-.223,1.446Z" fill="#2c2c2c"/><path d="M-311.742,2305.889a19.5,19.5,0,0,1-13.515,1.73c-.089-.021-6.2-1-6.2-1,.105-.287.895-5,1-5.267,1.334-3.445,3.774-22.137,5.812-23.059a4.618,4.618,0,0,0,3.28.841c1.466-.129,1.957-.762,1.835-1.444,1.622.767,2.868,1.48,2.868,1.48C-315.176,2281.4-311.742,2305.889-311.742,2305.889Z" fill="#ecf1f9"/><path d="M-318.932,2275.308s-5.907.979-6.46-2.709-1.688-6.046,2.061-6.827,4.693.517,5.177,1.7S-317.41,2274.959-318.932,2275.308Z" fill="#ffccbe"/><path d="M-320.648,2265.281s-.977,4.568-3.371,5.578-3.571.5-3.571.5a7.123,7.123,0,0,0,1.685-4.506S-322.177,2263.4-320.648,2265.281Z" fill="#2c2c2c"/><path d="M-321,2265.692a5.29,5.29,0,0,1,1.789,1.681c.435.9.856,2.81,1.409,2.66,0,0,.784-3.123-.836-4.583C-320.353,2263.9-321,2265.692-321,2265.692Z" fill="#2c2c2c"/><path d="M-302.6,2257.038a3.827,3.827,0,0,0-1.056-.326,3.287,3.287,0,0,0-.929.1s-1.666,10.36-1.79,10.909-7.149,8.463-9.043,8.431a8.583,8.583,0,0,0-4.112,1.545s3.983,8.422,4.181,10c.216,1.721,2.278,28.231,2.278,28.231s-.122,1.233,2.182.57a7.863,7.863,0,0,0,2.88-1.212s-2.116-20.87-2.56-27.36a12.41,12.41,0,0,0-.4-2.422,2.455,2.455,0,0,1,.4-2.085c2.913-4,7.514-10.478,7.77-11.855C-302.427,2269.542-302.6,2257.038-302.6,2257.038Z" fill="#a0a603"/><path d="M-326.821,2367.1h-9.948a5.472,5.472,0,0,1,.281-2.667c.5-1.1,1.273-1.784,1.344-2.63a2.988,2.988,0,0,0,2.848.876,10.857,10.857,0,0,0,1.726,2.237C-329.92,2365.384-327.021,2365.217-326.821,2367.1Z" fill="#233862"/><path d="M-319.988,2288.516c-.335-2.062-4.615-10.346-4.615-10.346s-2.706-.81-4.487-.164-11-4.558-11.291-5.037-5.231-9.675-5.231-9.675a1.145,1.145,0,0,0-1.065.1,1.2,1.2,0,0,0-.651,1s3.809,11.579,4.822,13.37c.611,1.08,5.749,4.841,9.732,7.657a2.5,2.5,0,0,1,1.035,2.376c-.536,3.959-.672,6.189-1.288,12.983-.511,5.637-.706,16.549-.706,16.549a36.859,36.859,0,0,0,7.533,1.747c3.077.2,3.747-3.038,3.747-3.038S-319.643,2290.638-319.988,2288.516Z" fill="#a0a603"/><path d="M-320.868,2273.485a2.64,2.64,0,0,0,1.565.294c.581-.087.712-.776.712-.776a2.28,2.28,0,0,0-1.047,0A4.45,4.45,0,0,0-320.868,2273.485Z" fill="#ecf1f9"/><path d="M-205.8,2272.712a3.435,3.435,0,0,1-1.615,4.928s2.652.956,3.576.6a2.032,2.032,0,0,1-.4.326s2.492.791,3.735.359,3.918-12.5-3.439-13.136c0,0-5.8-2.078-7.03,4.4s-3.462,5.848-3.462,5.848a3.533,3.533,0,0,0,.842.542s.482-.031.632-.231a1.436,1.436,0,0,1-.329.408s2.352.889,3.793.388S-205.821,2274.112-205.8,2272.712Z" fill="#2c2c2c"/><path d="M-213.183,2367.982h9.385a5.142,5.142,0,0,0-.265-2.516c-.469-1.041-1.2-1.684-1.267-2.482a2.821,2.821,0,0,1-2.687.827,10.286,10.286,0,0,1-1.629,2.111C-210.259,2366.362-212.994,2366.205-213.183,2367.982Z" fill="#2c2c2c"/><path d="M-205.427,2364.4a8.563,8.563,0,0,1-1.637.334c-1.478.131-1.694-.309-1.694-.309s-1.469-13.077-6.224-38.075a69.528,69.528,0,0,1-1.205-8.818c-.074-.961-.146-2.029-.226-3.283-.215-3.369.3-9.039,2.825-10.529,1.149-.679,2.715-.493,4.821,1.166.165.13.335.27.508.42,6.162,5.33,3.636,20.638,3.884,27.835a9.721,9.721,0,0,0,.406,2.829,15.635,15.635,0,0,1,1.156,3.174C-201.52,2348.475-205.427,2364.4-205.427,2364.4Z" fill="#727272"/><path d="M-204.375,2333.138l-11.812-15.609c-.074-.961-.146-2.029-.226-3.283-.215-3.369.3-9.039,2.825-10.529l4.821,1.166c.165.13.335.27.508.42C-202.1,2310.633-204.623,2325.941-204.375,2333.138Z" fill="#5b5b5b"/><path d="M-170.985,2348.23l-3.907-8.534a5.139,5.139,0,0,0-2.176,1.288c-.752.861-1.3.707-3.008-.48a9.385,9.385,0,0,1,1.131,2.891c.314.039,2.1,1.77,3.937,2.247C-174.278,2345.833-172.679,2348.8-170.985,2348.23Z" fill="#2c2c2c"/><path d="M-211.94,2307.462s8.41,29.237,11.492,31.119,19.283,4.47,22.576,5.881a2.478,2.478,0,0,0,.166-1.8,10.747,10.747,0,0,0-.517-1.255s-10.061-7.564-16.683-8.327c-1.644-.189,3.346-25.285-7.759-26.288C-212.81,2305.874-211.94,2307.462-211.94,2307.462Z" fill="#727272"/><path d="M-223.938,2259.5s.226-1.128.48-1.989c.113-.381-.673-2.883-1.216-3.191s-1.96,1.377-1.559,2.671c.205.664.544,2.827.544,2.827Z" fill="#ffccbe"/><path d="M-223.938,2259.5s.295-.654.562-.76.553-1.176.749-1.6c0,0-.189-.277-.52.08-.2.217-.653.856-.653.856Z" fill="#ffccbe"/><path d="M-185.194,2263.289c.057.119.137.331.208.531,0-.055,0-.108,0-.161,0-.4,1.487-2.56,2.1-2.695s1.471,1.89.709,3.01c-.391.575-1.347,2.544-1.347,2.544l-1.581-.817s-.091-.712-.316-.891-.184-1.286-.248-1.749C-185.669,2263.061-185.406,2262.851-185.194,2263.289Z" fill="#ffccbe"/><path d="M-210.258,2280.453a5.314,5.314,0,0,0,3.14,1.07,4.236,4.236,0,0,0,2.456-1.742c-.539-.193-.586-.979-.086-4.256l-.258.012-4.345.208s-.1,1.343-.285,2.594C-209.789,2279.39-210,2280.377-210.258,2280.453Z" fill="#ffccbe"/><path d="M-209.351,2275.745s-.1,1.343-.285,2.594c2.372.285,3.94-1.684,4.63-2.8Z" fill="#e98c94"/><path d="M-204.5,2275.143a12.567,12.567,0,0,0,2.074-3.4c.389-1.163.44-5.678-4.1-5.7a6.1,6.1,0,0,0-2.646.575c-1.062.508-2.665,1.708-1.681,5.8l.21,1.365Z" fill="#2c2c2c"/><path d="M-215.707,2306.336s4.261,2.689,11.359.962c.083-.021,4.035-.651,4.035-.651-.1-.271-4.252-7.133-4.349-7.382-1.259-3.249,1.657-18.763-.266-19.633a4.352,4.352,0,0,1-3.1.794c-1.383-.122-1.846-.719-1.731-1.362-1.531.723-2.707,1.4-2.707,1.4C-213.859,2282.556-215.707,2306.336-215.707,2306.336Z" fill="#ffccbe"/><path d="M-210.316,2276.813s5.574.923,6.1-2.557,1.592-5.7-1.944-6.441-4.428.488-4.885,1.607S-211.752,2276.483-210.316,2276.813Z" fill="#ffccbe"/><path d="M-208.7,2267.352s.922,4.31,3.18,5.263,3.37.476,3.37.476a6.723,6.723,0,0,1-1.59-4.252S-207.254,2265.58-208.7,2267.352Z" fill="#2c2c2c"/><path d="M-208.367,2267.739a4.986,4.986,0,0,0-1.688,1.587c-.411.845-.808,2.651-1.33,2.509,0,0-.74-2.946.789-4.323C-208.975,2266.051-208.367,2267.739-208.367,2267.739Z" fill="#2c2c2c"/><path d="M-183.887,2266.518s-3.593,10.924-4.55,12.614c-.576,1.02-7.051,5.05-10.809,7.707a.638.638,0,0,0-.144.173l0,.005c-.938,1.45-3.853,10.428-3.157,12.039,2.931,6.773,4.939,9.392,5.67,11.292a1.8,1.8,0,0,1-1.079,2.349,30.779,30.779,0,0,1-5.071,1.327q-.6.1-1.231.184a20.1,20.1,0,0,1-11.672-1.623,2.644,2.644,0,0,1-1.447-2.51c.119-2.142,1.191-4.263,1.674-9.416.366-3.909-3.007-9.859-2.865-11.94a6.958,6.958,0,0,1,1.054-2.445v0c.62-1.13.961-2.15.548-2.717-2.749-3.773-8.684-8.975-8.926-10.273-.355-1.909-.195-13.707-.195-13.707a3.553,3.553,0,0,1,1-.308,3.13,3.13,0,0,1,.875.091s1.572,9.776,1.689,10.293,6.745,7.985,8.532,7.955a9.932,9.932,0,0,1,4.243,1.458,17.154,17.154,0,0,0-1.81,6.033c-.252,2.425,1.367,1.347,2.385-.313a53.925,53.925,0,0,1,4.149-5.449,7.858,7.858,0,0,1,3.936.023c1.68.608,10.374-4.3,10.652-4.752s4.936-9.129,4.936-9.129a1.082,1.082,0,0,1,1,.1A1.134,1.134,0,0,1-183.887,2266.518Z" fill="#a0a603"/><path d="M-208.7,2274.923s-.239.481-.559.49a3.819,3.819,0,0,1-1.191-.152,4.67,4.67,0,0,1-.19-.585A5.417,5.417,0,0,1-208.7,2274.923Z" fill="#ecf1f9"/><path d="M-197.96,2312.7a30.779,30.779,0,0,1-5.071,1.327c-1.993-2.748-5.366-6.2-4.5-12.563.9-6.572,7.359-13.49,8.135-14.444-.938,1.45-3.853,10.428-3.157,12.039,2.931,6.773,4.939,9.392,5.67,11.292A1.8,1.8,0,0,1-197.96,2312.7Z" fill="#87870b"/><path d="M-217.517,2286.272c.62-1.13.961-2.15.548-2.717-2.749-3.773-8.684-8.975-8.926-10.273.588,1.411,7.776,5.628,9.8,7.441C-214.1,2282.514-217.435,2286.184-217.517,2286.272Z" fill="#87870b"/><path d="M-338.165,2234.247a6.772,6.772,0,0,1,1.2,3.95,6.138,6.138,0,0,1-1.593,3.205l2.2,1.172s1.63-2.894,1.08-5.311a6.179,6.179,0,0,0-1.52-2.455A2.113,2.113,0,0,0-338.165,2234.247Z" fill="#5dd782"/><path d="M-342.659,2234.442l-1.391-3.077s6.495.22,8.647,5.513C-335.4,2236.878-339.948,2233.636-342.659,2234.442Z" fill="#81e3a5"/><path d="M-365.013,2319.372a5.057,5.057,0,0,1-1.713-2.565,4.58,4.58,0,0,1,.447-2.636l-1.825-.363a6.639,6.639,0,0,0,.374,4.031,4.62,4.62,0,0,0,1.618,1.427A1.576,1.576,0,0,0-365.013,2319.372Z" fill="#5dd782"/><path d="M-361.842,2318.262l1.66,1.9s-4.693,1.246-7.375-2.073C-367.557,2318.088-363.606,2319.424-361.842,2318.262Z" fill="#81e3a5"/><path d="M-156.17,2328.217s-.12-1.785,3.23-2.648c1.5-.387,4.845.3,2.726,3.59-2.205,3.422-4.17,2.187-4.17,2.187s4.6-3.6,2.758-5.245c-2.031-1.816-2.811,1.783-2.811,1.783A4.415,4.415,0,0,0-156.17,2328.217Z" fill="#ff4d67"/><path d="M-154.982,2331.552a1.786,1.786,0,0,1-.756-2.184l1.8.312s-.693,1.63,1,1.827C-152.936,2331.507-154.566,2331.894-154.982,2331.552Z" fill="#ff2948"/><path d="M-261.99,2217.747a3.8,3.8,0,0,1,5.391-.894l1.988-1.9s-1.857-1.41-6.14,1.119C-263.554,2217.725-261.99,2217.747-261.99,2217.747Z" fill="#fcba64"/><path d="M-264.091,2220.752s-.421-3.518,5.468-5.713c0,0-2.128,1.032-2.785,4.538Z" fill="#fed677"/><path d="M-222.358,2335.49a3.8,3.8,0,0,1,5.392-.894l1.987-1.9s-1.857-1.41-6.14,1.118C-223.922,2335.468-222.358,2335.49-222.358,2335.49Z" fill="#fcba64"/><path d="M-224.459,2338.5s-.42-3.518,5.468-5.713c0,0-2.128,1.031-2.785,4.538Z" fill="#fed677"/><path d="M-386.9,2247.31a3.8,3.8,0,0,1,5.391-.894l1.988-1.9s-1.857-1.41-6.14,1.119C-388.464,2247.288-386.9,2247.31-386.9,2247.31Z" fill="#fcba64"/><path d="M-389,2250.315s-.421-3.518,5.468-5.713c0,0-2.128,1.032-2.785,4.539Z" fill="#fed677"/><path d="M-147.423,2247.31a3.8,3.8,0,0,1,5.392-.894l1.987-1.9s-1.856-1.41-6.14,1.119C-148.986,2247.288-147.423,2247.31-147.423,2247.31Z" fill="#fcba64"/><path d="M-149.523,2250.315s-.421-3.518,5.468-5.713c0,0-2.129,1.032-2.786,4.539Z" fill="#fed677"/><path d="M-240.431,2202.093s1.74-1.1,1.923-2.427c0,0,1.695.091,2.061.641,0,0-.778,2.2-1.694,2.611C-238.141,2202.918-240.2,2203.055-240.431,2202.093Z" fill="#ff4d67"/><path d="M-296.435,2327.5s-1.857-1.172-2.052-2.589c0,0-1.808.1-2.2.684,0,0,.831,2.345,1.808,2.785C-298.878,2328.381-296.68,2328.528-296.435,2327.5Z" fill="#fed677"/><path d="M-220.229,2236.722s1.864-1.177,2.061-2.6c0,0,1.815.1,2.208.687,0,0-.834,2.355-1.816,2.8C-217.776,2237.606-219.984,2237.753-220.229,2236.722Z" fill="#5dd782"/><path d="M-174.3,2238.045s-.12-1.785,3.23-2.648c1.5-.387,4.845.3,2.726,3.59-2.205,3.421-4.17,2.186-4.17,2.186s4.6-3.6,2.758-5.244c-2.031-1.817-2.811,1.782-2.811,1.782A4.427,4.427,0,0,0-174.3,2238.045Z" fill="#ff4d67"/><path d="M-173.116,2241.38a1.787,1.787,0,0,1-.757-2.185l1.8.313s-.693,1.63,1,1.827C-171.071,2241.335-172.7,2241.722-173.116,2241.38Z" fill="#ff2948"/><path d="M-384.221,2350.421s-.12-1.785,3.23-2.648c1.5-.387,4.845.3,2.726,3.59-2.2,3.422-4.17,2.186-4.17,2.186s4.6-3.6,2.758-5.244c-2.03-1.817-2.811,1.782-2.811,1.782A4.427,4.427,0,0,0-384.221,2350.421Z" fill="#ff4d67"/><path d="M-383.032,2353.756a1.788,1.788,0,0,1-.757-2.185l1.8.313s-.692,1.63,1,1.827C-380.987,2353.711-382.617,2354.1-383.032,2353.756Z" fill="#ff2948"/></g></svg>