<svg xmlns="http://www.w3.org/2000/svg" width="101" height="101" viewBox="0 0 101 101"><g transform="translate(-750 -2431)"><circle cx="50.5" cy="50.5" r="50.5" transform="translate(750 2431)" fill="#ecedcc"/><g transform="translate(119.488 1729.913)"><path d="M722.067,773.49a11.941,11.941,0,0,0-1-5.025,12.007,12.007,0,0,0,.9-23.109A12.007,12.007,0,0,0,706.293,728.8a13.461,13.461,0,0,0-26.008,3.614c-3.647.856-6.486,4.6-6.664,9.194a10.7,10.7,0,0,0,2.009,6.8,11.059,11.059,0,0,0-.522,13.419,10.7,10.7,0,0,0-2.531,6.622,11.038,11.038,0,0,0,.978,5.043Z" fill="#a0a603"/><path d="M644.56,762.512l-.008,0a24.011,24.011,0,0,1-5.04,10.98h22a24.281,24.281,0,0,1-5.145-10.978Z" fill="#a37041"/><path d="M651.775,762.512a24.281,24.281,0,0,0,5.145,10.978h4.6a24.26,24.26,0,0,1-5.145-10.978Z" fill="#774e2c"/><ellipse cx="5.913" cy="0.684" rx="5.913" ry="0.684" transform="translate(644.56 761.828)" fill="#c49269"/><path d="M677.69,746.6c-1.793-1.153-3.671-5.718-3.723-7.385-.046.181-.087.365-.125.551l-.009.045c-.038.188-.071.379-.1.571l0,.015c-.026.173-.046.349-.063.525l-.012.129c-.016.184-.029.369-.037.556h0a10.81,10.81,0,0,0,1.672,6.309l.2.3,2.528-1.409Z" fill="#a0a603"/><path d="M708.963,736.624a5.277,5.277,0,0,1-5.276-6.18,5.278,5.278,0,0,0-9.113-.739,5.279,5.279,0,0,0-9.137,5.226c1.248,2.634,18.382,9.972,21.017,8.723A5.278,5.278,0,0,0,708.963,736.624Z" fill="#afaf52"/><path d="M673.265,749.027a8,8,0,0,1-5.182.876,48.692,48.692,0,0,1-10.874-2.791l-.564,14.5a44.276,44.276,0,0,1,12.418-1.965,8.125,8.125,0,0,1,5,1.423l7.912,5.456a1.538,1.538,0,0,0,2-2.318l-3.686-3.935a.745.745,0,0,1,.672-1.242l8.205,1.434a1.539,1.539,0,0,0,1.795-1.352l.111-1.041a1.538,1.538,0,0,0-1.2-1.666l-11.213-2.427a.744.744,0,0,1-.29-1.323l7.9-5.926a1.538,1.538,0,0,0,.517-1.771l-.416-1.107a1.538,1.538,0,0,0-2.179-.809Z" fill="#a37041"/><path d="M656.823,757.024l-.178,4.591a44.312,44.312,0,0,1,12.418-1.965,8.125,8.125,0,0,1,5,1.423l7.912,5.456a1.538,1.538,0,0,0,2-2.318l-1.646-1.757-2.039-2.178a.744.744,0,0,1,.671-1.242l8.205,1.434a1.537,1.537,0,0,0,1.784-1.286l-19.335-3.888q-.374-.093-.756-.152a8.145,8.145,0,0,0-1.609-.083A44.286,44.286,0,0,0,656.823,757.024Z" fill="#774e2c"/><path d="M725,761.428s5,.052,4.982,2.233-3.324,9.349-3.324,9.349-4.876.48-6.163.48H673.555s-2.079-6.8-.325-8.419-1.546.971,4.793,2.388,13.052-7.5,18.2-3.181,11.769,4.414,13.057,2.023,5.976-13.951,11.631-11.251S725,761.428,725,761.428Z" fill="#77770c"/></g></g></svg>