<svg xmlns="http://www.w3.org/2000/svg" width="101" height="101" viewBox="0 0 101 101"><g transform="translate(-750 -2270)"><circle cx="50.5" cy="50.5" r="50.5" transform="translate(750 2270)" fill="#ecedcc"/><g transform="translate(119.634 1569.892)"><path d="M717.788,748.622a13.84,13.84,0,0,0-8.453-12.749,12.34,12.34,0,0,0-16.376-16.75,12.339,12.339,0,0,0-23.765,0,12.338,12.338,0,0,0-16.375,16.75,13.833,13.833,0,0,0,4.75,26.562c1.024,3.71,4.98,6.476,9.707,6.476a10.992,10.992,0,0,0,6.9-2.335,11.364,11.364,0,0,0,13.8,0,11,11,0,0,0,6.9,2.335c4.727,0,8.682-2.766,9.706-6.476A13.83,13.83,0,0,0,717.788,748.622Z" fill="#a0a603"/><path d="M680.337,710.133c-.152.009-.3.02-.454.035l-.138.014c-.161.018-.322.038-.482.062l-.089.013c-.19.029-.379.062-.566.1h0a13.607,13.607,0,0,1,8.193,5.758,6.834,6.834,0,0,0,6.111,3.01l.048,0a12.342,12.342,0,0,0-11.882-9.015c-.2,0-.4.006-.592.015Z" fill="#77770c"/><path d="M709.335,735.873A12.343,12.343,0,0,0,695.9,718.122a12.338,12.338,0,0,1,8.493,17.751,13.833,13.833,0,0,1-4.75,26.562,9.274,9.274,0,0,1-7.238,6.215,11.747,11.747,0,0,0,2.471.261c4.727,0,8.682-2.766,9.706-6.476a13.833,13.833,0,0,0,4.751-26.562Z" fill="#77770c"/><path d="M672.241,764.532c-1.113,1.888-5.724,4-7.435,4.118.189.041.379.076.572.107l.046.008c.2.031.392.058.59.079h.016c.179.019.359.033.541.044l.133.007c.19.009.38.015.572.015h0a11.109,11.109,0,0,0,6.412-1.968l.3-.221-1.548-2.539Z" fill="#a0a603"/><path d="M687.247,767.683l5.286-8.342a1.581,1.581,0,0,0-.3-2.039h0a1.581,1.581,0,0,0-2.162.082l-3.893,3.942a.765.765,0,0,1-1.3-.64l1.145-8.483a1.582,1.582,0,0,0-1.46-1.789l-1.073-.072a1.581,1.581,0,0,0-1.663,1.3l-2.044,11.611a.765.765,0,0,1-1.347.35l-6.4-7.871a1.58,1.58,0,0,0-1.839-.46l-1.12.471a1.581,1.581,0,0,0-.743,2.27l6.577,10.963a8.227,8.227,0,0,1,1.107,5.287c-.853,6.574-1.911,12.774-6.244,17.824h22.609c-4.638-5.407-5.782-12.13-6.4-19.22A8.343,8.343,0,0,1,687.247,767.683Z" fill="#a37041"/><path d="M692.533,759.341a1.581,1.581,0,0,0-.3-2.039h0a1.581,1.581,0,0,0-2.162.082l-1.739,1.76h0l-2.154,2.182a.765.765,0,0,1-1.3-.64l1.145-8.483a1.581,1.581,0,0,0-1.392-1.781l-3.219,20.01q-.082.387-.126.782h0a8.331,8.331,0,0,0-.022,1.656c.614,7.09,1.759,13.813,6.4,19.22h4.722c-4.639-5.407-5.783-12.13-6.4-19.22a8.349,8.349,0,0,1,1.261-5.187Z" fill="#774e2c"/><path d="M678.728,719.8a8.565,8.565,0,0,0-7.793,5.01,8.564,8.564,0,0,0-12.354,11.282,8.567,8.567,0,0,0,1.313,17.033c4.731,0,27.4-20.028,27.4-24.759A8.566,8.566,0,0,0,678.728,719.8Z" fill="#afaf52"/></g></g></svg>